<?xml version="1.0" standalone="no"?>
<!DOCTYPE svg PUBLIC "-//W3C//DTD SVG 1.1//EN" "http://www.w3.org/Graphics/SVG/1.1/DTD/svg11.dtd" >
<svg xmlns="http://www.w3.org/2000/svg">
<metadata>
This is a custom SVG webfont generated by Font Squirrel.
Copyright   :  thebend aka Dimitri Castrique 2007 wwwthebendbe
Designer    : Dimitri Castrique
Foundry     : Dimitri Castrique
Foundry URL : FREE  donationware
</metadata>
<defs>
<font id="QlassikMediumRegular" horiz-adv-x="909" >
<font-face units-per-em="2048" ascent="1638" descent="-410" />
<missing-glyph horiz-adv-x="464" />
<glyph unicode=" "  horiz-adv-x="464" />
<glyph unicode="&#x09;" horiz-adv-x="464" />
<glyph unicode="&#xa0;" horiz-adv-x="464" />
<glyph unicode="!" horiz-adv-x="395" d="M94 100q0 115 109 115q61 0 79 -28q16 -25 15 -71v-12q-2 -53 -22.5 -87.5t-84.5 -34.5q-53 0 -74.5 28.5t-21.5 89.5zM96 1294q2 29 54.5 39t142.5 10q10 -23 15 -51t5 -69q-2 -66 -6 -165.5t-10 -204.5l-12 -202q-6 -96 -9 -155q-4 -43 -48 -59.5t-97 -16.5 q-4 76 -8 189.5t-9 236.5l-11 243q-5 119 -7 205z" />
<glyph unicode="&#x22;" horiz-adv-x="600" d="M68 1460q18 10 52 18.5t64 8.5q16 0 29 -4q16 -4 21.5 -25.5t5.5 -50.5v-16q-2 -43 -7.5 -94.5t-11.5 -98.5t-14 -83t-14 -50q-4 -4 -16.5 -9t-29 -8.5t-32 -5.5t-23.5 -2q0 27 -4 86.5t-9 126t-8 124.5t-3 83zM362 1460q18 10 52.5 18.5t64.5 8.5q16 0 29 -4 q16 -4 21.5 -25.5t5.5 -50.5v-16q-2 -43 -7.5 -94.5t-11.5 -98.5t-14 -83t-15 -50q-4 -4 -16 -9t-28.5 -8.5t-32 -5.5t-23.5 -2q0 27 -4 86.5t-9 126t-8.5 124.5t-3.5 83z" />
<glyph unicode="#" d="M57 479q0 4 10.5 27.5l16.5 36.5h123q10 61 17 121.5t18 121.5h-138v39q-8 14 -8 23q0 2 3 11t9 21l9 20q4 9 6 13h135q5 28 5 61v9v9q0 35 10 64q11 32 41 53.5t98 21.5q8 -8 8 -23q0 -45 -11.5 -96t-19.5 -99h191q3 25 3 54v10.5v10.5q0 34 10 65q11 33 42 55t98 22 q6 -6 6 -20q0 -47 -11 -97t-17 -100h118v-22q0 -11 -2 -17q10 -16 11 -26q0 -4 -9.5 -27.5t-17.5 -34.5h-119l-16 -121l-17 -122h138v-39q8 -14 8 -25l-3 -9l-7 -20l-9 -22q-4 -10 -6 -12h-139q-5 -32 -5 -69v-9.5v-9.5q0 -40 -10 -74q-11 -37 -41 -61.5t-98 -24.5 q-8 6 -8 22q0 53 13 113l22 113h-195q-4 -29 -8 -71t-11 -81t-20.5 -66.5t-33.5 -27.5q-16 0 -40 5l-52 11q10 57 18 113.5t18 116.5h-124q0 31 2 41q-11 14 -11 22zM338 543h192l15.5 121.5t17.5 121.5h-192l-17 -121z" />
<glyph unicode="$" d="M111 86q0 12 3 28.5t8 35t12 35t16 26.5q43 -33 107.5 -52.5t137.5 -19.5q92 0 149.5 36t57.5 122q0 57 -28.5 103t-102.5 106q-23 23 -49 46l-55 48l-84 70q-39 33 -68 65q-51 57 -70.5 106.5t-19.5 98.5q0 45 15.5 89t48 81t84 63.5t122.5 38.5l21 177q0 43 39 54 t112 11l-20 -237q98 -6 149.5 -30t63.5 -40q0 -20 -9.5 -50t-25.5 -53q-6 -4 -22.5 -4t-34.5 9q-31 12 -71 20t-87 8q-90 0 -142.5 -35.5t-52.5 -107.5v-8q6 -33 25.5 -61.5t50.5 -59.5q35 -35 74 -68l84 -67l65 -54q31 -25 60 -53q63 -55 92 -115.5t29 -138.5 q0 -123 -72 -207t-211 -108l-20 -172q0 -43 -37 -54.5t-115 -11.5l20 230q-86 4 -142 21.5t-83 39.5q-24 19 -24 39z" />
<glyph unicode="%" horiz-adv-x="1433" d="M90 987q0 76 17.5 142.5t53.5 113.5t89 75t125 28h2q61 0 110.5 -17.5t85 -58.5t55 -109.5t19.5 -169.5q0 -164 -69.5 -263t-210.5 -99q-63 0 -114.5 17.5t-87.5 58t-55.5 110.5t-19.5 172zM240 985q0 -125 32.5 -182.5t96.5 -57.5q59 0 96 59.5t37 186.5 q0 131 -34 185.5t-93 54.5h-2q-59 0 -96 -60.5t-37 -185.5zM254 4q25 47 81 142l128 216l154 259l164 270l152 250l120 198q20 35 28.5 35t34.5 -16q18 -12 30.5 -24.5t16.5 -28.5l-71 -123l-116 -196l-145 -244l-158 -265l-158 -259l-140 -228q-29 -49 -43 -49 q-2 0 -14.5 6t-27 15t-25.5 20.5t-11 21.5zM786 332q0 78 18.5 144.5t54.5 114.5t89 75.5t125 27.5h2q61 0 110.5 -18.5t85.5 -60.5t54 -110.5t18 -168.5q0 -164 -69.5 -261.5t-208.5 -97.5q-61 0 -112.5 16.5t-88.5 56.5t-57.5 109t-20.5 173zM934 330q0 -125 32.5 -182.5 t98.5 -57.5q59 0 96 58.5t37 185.5q0 133 -32.5 187t-96 54t-99.5 -61t-36 -184z" />
<glyph unicode="&#x26;" horiz-adv-x="1187" d="M53 342q0 63 20.5 119.5t54.5 102.5t77 85t86 70q-66 88 -102.5 175t-36.5 177q0 68 24.5 122t67.5 91t103.5 57.5t131.5 20.5q98 0 156.5 -23.5t58.5 -60.5q0 -12 -11 -48t-28 -59q-41 29 -83 41.5t-89 12.5q-72 0 -123 -39t-51 -125q0 -59 46 -139t114 -167t145 -176 l142 -163q39 78 64.5 139t39.5 111.5t19.5 91.5t5.5 78v23q0 7 -4 24q12 4 58 9t93 9q16 0 34.5 1t33 -3t24 -17.5t9.5 -41.5q0 -23 -16.5 -35t-59.5 -35h-51q2 -10 2 -33q0 -25 -2 -63.5t-14.5 -93t-40 -124t-79.5 -155.5l158 -149q53 -51 80 -68q-4 -29 -17.5 -48.5 t-29.5 -30.5t-34.5 -15t-33.5 -4q-18 0 -30.5 5t-32 23.5t-52 52t-94.5 91.5q-78 -94 -169 -133t-187 -39q-92 0 -162.5 26.5t-119 74.5t-72 112.5t-23.5 142.5zM219 344q0 -86 54.5 -148.5t158.5 -62.5q70 0 130.5 31t119.5 102l-168 179q-84 93 -141 169 q-74 -55 -114 -119.5t-40 -150.5z" />
<glyph unicode="'" horiz-adv-x="307" d="M68 1460q18 10 52 18.5t64 8.5q16 0 29 -4q16 -4 21.5 -25.5t5.5 -50.5v-16q-2 -43 -7.5 -94.5t-11.5 -98.5t-14 -83t-14 -50q-4 -4 -16.5 -9t-29 -8.5t-32 -5.5t-23.5 -2q0 27 -4 86.5t-9 126t-8 124.5t-3 83z" />
<glyph unicode="(" horiz-adv-x="638" d="M125 575v3q0 207 38 369.5t93 283.5t118.5 198.5t114.5 114.5q33 -6 53.5 -35.5t26.5 -72.5q-123 -141 -201.5 -352.5t-78.5 -485.5q0 -150 21.5 -283t60.5 -243.5t89 -198.5t109 -145q-10 -49 -34.5 -80t-57.5 -31q-37 18 -96 88t-115.5 190.5t-98.5 290.5t-42 389z" />
<glyph unicode=")" horiz-adv-x="638" d="M72 -266q117 135 197.5 350t80.5 506v10q0 274 -75.5 491.5t-202.5 350.5q10 51 34.5 76.5t55.5 25.5q35 -18 94 -85.5t116.5 -184.5t99.5 -281t42 -375v-2q0 -207 -38 -375.5t-93 -294.5t-117.5 -209t-113.5 -120q-35 6 -55.5 41t-24.5 76z" />
<glyph unicode="*" horiz-adv-x="921" d="M104 1052q-2 6 -1 13q0 10 4 22q6 20 19 42t28 38l252 -116q16 -10 20 -22.5t-16 -47.5l-283 51q-19 5 -23 20zM203 731l190 203q16 14 29.5 13t38.5 -29l-135 -252q-10 -16 -26.5 -15.5t-34 13t-35 31t-27.5 36.5zM416 1333q-2 20 13 28.5t38 8.5q43 0 88 -20l-35 -275 q-4 -20 -15 -28.5t-50 2.5zM497 918q5 12 40 28l198 -207q12 -14 6 -29.5t-22.5 -28.5t-40 -23.5t-43.5 -14.5l-135 244q-5 11 -5 20q0 6 2 11zM535 1028l258 123q8 4 15 4q9 0 15 -6q12 -10 19.5 -30.5t8.5 -46.5v-16q0 -16 -1 -30l-272 -51q-6 -1 -11 -1q-11 0 -18 6 q-10 9 -14 48z" />
<glyph unicode="+" horiz-adv-x="1021" d="M98 477q0 72 9.5 104.5t39.5 32.5h291v170q0 37 -1 77t-3 71q12 14 41 17t82 5q16 -8 20.5 -23.5t4.5 -49.5v-267h340q0 -70 -8.5 -103.5t-43.5 -33.5h-288v-280q2 -31 -10.5 -47.5t-34 -23.5t-47 -8t-52.5 -1v360h-340z" />
<glyph unicode="," horiz-adv-x="374" d="M18 -209q41 66 71 119t34 119q-16 2 -19 12q-6 23 -17 55.5t-11 50.5q14 31 47 53.5t72 22.5q66 0 87 -26q18 -22 18 -74q0 -10 -1 -21q-4 -43 -17.5 -88t-36 -88t-51 -78.5t-61.5 -60.5q-25 -16 -58.5 -16t-56.5 20z" />
<glyph unicode="-" horiz-adv-x="598" d="M72 444q14 141 53 142q86 8 184.5 19t169.5 22q23 -4 45 -15q-4 -57 -21.5 -98t-51.5 -45q-35 -6 -78 -11l-87 -11q-44 -5 -87 -8t-80 -3q-12 0 -23.5 2t-23.5 6z" />
<glyph unicode="." horiz-adv-x="374" d="M76 102q0 119 121 119q70 0 89 -28.5t17 -86.5q-2 -55 -25.5 -90.5t-95.5 -35.5q-59 0 -82.5 29.5t-23.5 92.5z" />
<glyph unicode="/" horiz-adv-x="716" d="M49 -117l221 751l222 753q6 23 15 33t38 14q23 4 52 5h21q22 0 50 -1l-199 -684l-199 -684q-16 -53 -33.5 -98.5t-39.5 -65.5q-18 -16 -45 -19.5t-103 -3.5z" />
<glyph unicode="0" d="M61 604q0 223 51.5 358.5t137.5 196.5q41 35 95 53.5t116 18.5q117 0 192.5 -51.5t118.5 -135t59.5 -191.5t16.5 -222q0 -330 -97.5 -495t-301.5 -165q-92 0 -164 36t-121 113t-76 196.5t-27 287.5zM248 598q0 -137 15.5 -230.5t42 -149.5t64.5 -80.5t85 -24.5 q43 0 80.5 23.5t66.5 84t45.5 161.5t16.5 257q0 129 -14.5 215t-41 139.5t-63.5 76t-80 22.5h-2q-47 0 -86 -27t-67.5 -86t-45 -153.5t-16.5 -227.5z" />
<glyph unicode="1" horiz-adv-x="784" d="M137 1044q16 31 53 66l110 37l108 35l93 28l68 21l23 -9q12 -5 20 -10q-2 -86 -3 -214t-3 -273t-3 -294.5t-1 -274.5q18 -10 42 -18l44 -13q20 -6 34.5 -12.5t14.5 -12.5q0 -53 -3 -71.5t-19 -24.5q-16 -4 -32.5 -4t-35.5 -2q-94 -2 -191.5 -3t-185.5 -1q0 18 -1 45 t-1 53q0 12 14.5 20.5t37 16.5t48 14.5t50.5 16.5q4 186 6 415.5t6 471.5q-27 -6 -66 -17l-81 -20l-76 -20q-35 -9 -49 -11q-8 14 -13.5 30.5t-7.5 34.5z" />
<glyph unicode="2" d="M72 49q4 31 12 53.5t31 53.5l194 244q88 105 150.5 189.5t96.5 157t34 146.5q0 90 -46 135t-132 45q-39 0 -78 -8t-74 -19.5t-63.5 -25.5t-46.5 -27q-16 -12 -21 -12q-12 0 -19.5 13.5t-11.5 31.5t-6 35.5t-2 25.5q18 31 54 57.5t85.5 45t107.5 30t120 11.5h2 q90 0 151.5 -24.5t99.5 -66.5t54 -99.5t16 -122.5q0 -12 -1 -25.5t-3 -26.5q-10 -76 -45 -150.5t-88 -148.5q-29 -41 -62 -82l-74 -90l-89 -108l-109 -137q68 -2 143 -3h152q72 0 139.5 4.5t96.5 4.5q-4 -66 -21.5 -105t-40.5 -43q-37 -4 -92 -7t-127 -3q-137 0 -257 1 t-218 7q-8 20 -12 43z" />
<glyph unicode="3" d="M90 -2q0 18 2 33.5t6 29.5q0 6 2 5q37 -23 92.5 -37.5t120.5 -14.5q76 0 136.5 24.5t100.5 65.5t60 98q19 51 19 110v12q-2 10 -2 19t-2 19q-12 94 -92 136.5t-197 42.5q-16 0 -35.5 -1t-36.5 -3q-2 10 -4 17t-4 17q6 23 12 42.5t17 35.5q51 20 101 48t88 63t61.5 76 t23.5 90q0 29 -8 56.5t-26.5 48t-49.5 32.5t-76 12q-72 0 -133 -20.5t-106 -50.5q-4 -4 -10.5 -7.5t-10.5 -3.5q-6 0 -12 8q-10 20 -15 44t-5 47v10q12 25 41.5 48t73.5 40.5t100.5 29t121.5 11.5q92 0 151.5 -25.5t94.5 -63.5t48.5 -84t13.5 -87q0 -90 -45 -164 q-51 -88 -164 -162q131 -25 203.5 -104.5t72.5 -212.5q0 -113 -39 -199t-105.5 -144.5t-156.5 -88t-194 -29.5q-82 0 -131.5 15.5t-71.5 33.5q-20 16 -25.5 37.5t-5.5 44.5z" />
<glyph unicode="4" d="M39 428q16 39 47 102.5t72 136.5l87 149l92 147q46 70 88 125t75 85q29 27 65.5 43.5t65.5 20.5q20 0 41.5 -4t36.5 -8q0 -98 -1 -198.5t-1 -197.5v-197q0 -103 -2 -200q41 4 78.5 6t62.5 2q4 -16 8 -23t4 -24q-10 -31 -28.5 -54.5t-57.5 -33.5q-12 -4 -21 -4h-20h-26 v-242q0 -29 -9.5 -46t-44.5 -23q-23 -4 -58.5 -5t-70.5 -1v172q0 30 1 67t1 76q-61 0 -123.5 1t-120 3t-105.5 4t-81 6q-27 25 -39 55.5t-16 59.5zM221 440q66 -4 141.5 -6t161.5 -2q4 70 5 146.5t3 142.5q2 64 2.5 127t4.5 129q-47 -57 -93.5 -126t-88.5 -140.5 t-76.5 -142.5t-59.5 -128z" />
<glyph unicode="5" d="M98 641q8 66 20.5 145.5t26.5 158.5l27 151l21 121q55 0 134 2l160 4q82 2 158 5l127 5l-8 -109q-4 -20 -19 -22q-29 -8 -81 -13.5t-112 -8.5t-121.5 -5t-108.5 -2q-14 -72 -26.5 -147.5t-23.5 -157.5q25 -2 60 -3t82 -5q23 -4 46 -7t46 -8q59 -12 111.5 -34.5 t94.5 -60.5t68.5 -92t34.5 -130q0 -18 1 -36.5t1 -37.5v-25q0 -13 -2 -26q-14 -205 -144 -319.5t-339 -116.5q-104 0 -153.5 21.5t-59.5 39.5q-16 49 -17 95q0 23 2 32q0 2 2 2q31 -23 83.5 -34t117.5 -11q70 0 129.5 25.5t102.5 70t67.5 105.5t24.5 135q0 113 -52.5 171.5 t-144.5 82.5q-55 16 -117.5 22.5t-109.5 10.5q-35 4 -64 5t-45 1z" />
<glyph unicode="6" d="M59 477v65q0 34 4 70q10 172 52.5 303.5t111.5 221.5q51 66 107.5 108.5t113 68t109.5 36t100 10.5q55 0 97.5 -11.5t52.5 -50.5q0 -35 -10 -71q-135 8 -247 -27t-185 -135q-47 -59 -79 -142t-48 -194l-13 -107q-6 -54 -6 -114q0 -205 65.5 -301t172.5 -96q45 0 85 20.5 t70.5 60t48 98t17.5 134.5q0 115 -41 172t-102 74q-8 2 -16.5 3t-18.5 1q-29 0 -57.5 -6t-51.5 -13v41q0 37 10.5 63.5t32.5 39.5q49 23 111 22q23 0 33 -2q70 -6 120 -41t81.5 -86t46 -115.5t14.5 -132.5q0 -102 -23.5 -189t-73 -149.5t-124 -97.5t-177.5 -35 q-172 0 -275.5 121t-107.5 383z" />
<glyph unicode="7" horiz-adv-x="864" d="M80 1128q0 23 8 54.5t21 60.5q35 -10 79.5 -12t96.5 -2h540q-10 -33 -19 -66t-20 -61q-23 -78 -62 -181l-87 -219l-97 -232l-96 -225l-80 -197q-36 -89 -55 -144q-25 0 -55 -1q-8 0 -15 -1q-22 0 -42 3q-27 3 -44.5 10t-15.5 22q47 125 111 277l130 308l131 302l112 261 q-57 -2 -140.5 -3t-204.5 -1q-66 0 -111.5 8.5t-80.5 18.5q-4 8 -4 20z" />
<glyph unicode="8" d="M68 333.5q0 63.5 17 114t48 91.5q63 84 178 155q-47 29 -81.5 59.5t-61.5 61.5q-33 39 -49.5 86t-16.5 96q0 78 26 141.5t72 107.5t111.5 68.5t143.5 24.5q16 0 29.5 -1t27.5 -1q76 -6 131 -31.5t92 -67.5t54.5 -96.5t17.5 -115.5t-18.5 -108.5t-47.5 -83.5 q-27 -35 -63.5 -66t-85.5 -66q66 -43 108 -79q68 -57 105 -124t37 -159q0 -76 -25.5 -141.5t-75 -114.5t-121 -76.5t-163.5 -27.5q-111 0 -184.5 31.5t-120 81.5t-65.5 113.5t-19 127zM236 344q0 -106 64.5 -164.5t156.5 -58.5q39 0 76.5 13t67.5 39t47.5 64.5t17.5 92.5 q0 66 -19.5 102.5t-60.5 75.5q-49 49 -152 106q-82 -49 -140 -116.5t-58 -153.5zM274 1018q0 -47 17.5 -80t54.5 -68q41 -41 131 -92q74 47 122 106.5t48 133.5q0 92 -54 136t-130 44q-37 0 -71 -11t-59.5 -32.5t-42 -56.5t-16.5 -80z" />
<glyph unicode="9" d="M57 782q0 102 26 187.5t76 146t124.5 94t173.5 33.5q104 0 174.5 -32.5t113.5 -102.5t62.5 -179.5t21.5 -260.5q-2 -215 -53 -380t-174 -276q-45 -41 -93 -68.5t-95 -45t-89 -25.5t-73 -8h-19q-80 2 -102 39q-10 18 -12 41.5t-2 44.5q10 -2 30 -2q49 0 102.5 12 t103.5 36.5t95.5 58.5t79.5 75q47 66 80 145.5t47 176.5q12 94 13 196q0 96 -11.5 174t-37 132.5t-67.5 83t-101 28.5q-111 0 -170.5 -83t-59.5 -220q0 -111 42 -170.5t108 -75.5q12 -2 24.5 -3t24.5 -1q25 0 49.5 4t42.5 8q2 -10 2 -22v-25q0 -29 -7 -56.5t-34 -37.5 q-18 -8 -45 -14.5t-61 -6.5q-8 0 -16.5 1.5t-18.5 1.5q-68 8 -119 40.5t-86 83t-52.5 114.5t-17.5 138z" />
<glyph unicode=":" horiz-adv-x="374" d="M76 766q0 119 121 119q70 0 89 -29q18 -26 17 -75v-11q-2 -55 -25.5 -91t-93.5 -36q-59 0 -83.5 30t-24.5 93zM76 102q0 119 121 119q70 0 89 -28q18 -26 17 -76v-11q-2 -55 -25.5 -90.5t-93.5 -35.5q-59 0 -83.5 29.5t-24.5 92.5z" />
<glyph unicode=";" horiz-adv-x="374" d="M18 -209q41 66 71 119t34 119q-16 2 -19 12q-6 23 -17 55.5t-11 50.5q14 31 47 53.5t72 22.5q66 0 87 -26q18 -22 18 -74q0 -10 -1 -21q-4 -43 -17.5 -88t-36 -88t-51 -78.5t-61.5 -60.5q-25 -16 -58.5 -16t-56.5 20zM76 766q0 119 121 119q70 0 89 -29q18 -26 17 -75 v-11q-2 -55 -25.5 -91t-93.5 -36q-59 0 -83.5 30t-24.5 93z" />
<glyph unicode="&#x3c;" horiz-adv-x="937" d="M94 635q0 45 19 67l276 209l104 79l93 72l68 53q28 22 34 26q24 19 40 18h3q25 -6 39 -35q10 -18 16.5 -45.5t6.5 -42.5l-248 -188l-93 -70l-83 -62l-61 -46q-24 -18 -27 -21q4 -4 27 -21l61 -44l82 -60l92 -67l248 -181q0 -16 -6.5 -49.5t-16.5 -50.5q-16 -25 -35 -29 q-4 -1 -8 0l-37 15l-561 418q-12 10 -22.5 23.5t-10.5 31.5z" />
<glyph unicode="=" horiz-adv-x="1021" d="M98 672q2 72 11.5 104.5t40.5 32.5h774q-2 -70 -10.5 -103.5t-41.5 -33.5h-774zM98 279q2 72 11.5 104.5t40.5 32.5h774q-2 -70 -10.5 -103.5t-41.5 -33.5h-774z" />
<glyph unicode="&#x3e;" horiz-adv-x="931" d="M135 262l250 189l92 69l82 63l61 45q24 17 27 21q-4 2 -27 20l-61 44l-82 59l-92 68l-248 180q0 16 6.5 50t16.5 50q16 27 37 29q4 1 8 1q18 0 35 -15l563 -418q12 -10 22.5 -23.5t10.5 -29.5q0 -49 -21 -70l-276 -211l-105 -79l-93 -70l-69 -53q-27 -22 -32 -25 q-21 -19 -38 -19h-5q-25 6 -39 35q-10 20 -15.5 47t-7.5 43z" />
<glyph unicode="?" horiz-adv-x="638" d="M61 1247q14 25 44 44.5t67 31.5t78 18.5t78 6.5q76 0 127 -20.5t83.5 -56.5t47 -86t14.5 -108q0 -51 -11 -94t-30.5 -82t-45.5 -75l-54 -72q-49 -66 -76 -120t-27 -97q0 -35 7.5 -64t7.5 -45v-4q-6 -10 -27.5 -16.5t-44.5 -6.5q-29 0 -56.5 18.5t-37.5 59.5 q-10 45 -10 82q0 59 24 119q16 35 38 68l44 65q41 57 78 115.5t37 124.5q0 72 -40 104.5t-100 32.5q-37 0 -76.5 -12.5t-86.5 -40.5q-20 2 -36 28.5t-16 81.5zM199 100q0 115 108 115q61 0 79 -28q16 -25 16 -71q0 -6 -1 -12q-2 -53 -22.5 -87.5t-83.5 -34.5 q-53 0 -74.5 28.5t-21.5 89.5z" />
<glyph unicode="@" horiz-adv-x="1501" d="M92 449q0 16 1 31.5t3 31.5q10 184 66.5 323.5t151 232.5t223.5 141t284 48q279 0 436.5 -149.5t157.5 -454.5q0 -178 -33.5 -296.5t-86 -189.5t-119 -99.5t-129.5 -28.5q-90 0 -130 55q-25 -20 -79 -42.5t-133 -22.5q-45 2 -85 12t-71 36.5t-49.5 74t-20.5 122.5 q0 82 26.5 139.5t78.5 98.5q45 35 95 50.5t89 19.5q10 0 17.5 1t17.5 1q35 0 59 -6v19q0 15 2 26q1 15 1 28q0 58 -20 94q-23 41 -86 42q-6 0 -11 -1q-74 0 -140 -34q-29 -12 -49 -13q-10 12 -15 32l-9 34q0 6 -1.5 10t-1.5 8q0 10 5 19q27 27 94 53.5t151 26.5 q72 0 121 -21.5t76 -71.5q23 -39 29 -112q4 -29 4 -60v-63q-2 -29 -2 -55v-56q-2 -31 -2 -62.5t-2 -62.5q0 -47 -1 -88t-4 -73q10 -8 21.5 -15.5t26.5 -7.5q31 0 67.5 22.5t68.5 76t52 143.5t20 223q0 254 -110.5 369.5t-323.5 115.5q-268 0 -420.5 -169t-152.5 -515 q0 -170 31.5 -286.5t94 -190.5t154 -106.5t209.5 -32.5q82 4 145.5 15t121.5 26q39 10 74 18q24 5 45 6q10 0 20 -2q27 -41 31 -92l-44 -31q-22 -14 -45 -22q-203 -66 -376 -66q-137 0 -253 43t-199 136.5t-127 239.5q-40 134 -40 319v35zM631 266q0 -8 1 -14t1 -14 q4 -41 26.5 -57.5t38.5 -20.5q7 -1 16 -2q4 0 9 1q14 1 29 3q41 6 69.5 30.5t36.5 65.5l4 211q-106 0 -168.5 -41t-62.5 -162z" />
<glyph unicode="A" horiz-adv-x="1073" d="M25 6q2 20 6 37.5t10 34.5l102 296l121 338l117 328q55 158 90 269q10 43 21 43q10 2 21 5t22 3q16 4 30 4h25q29 -6 39 -21l74 -225l81 -244l80 -240l72 -216l74 -218l57 -173v-4q0 -2 2 -3q0 -6 -8 -14q-18 -6 -53 -10t-62 -4q-18 0 -36.5 6t-43.5 29q-29 84 -51 163.5 t-57 184.5h-426l-67 -194l-54 -161q-4 -14 -16.5 -21t-47.5 -7q-23 0 -58 4t-64 10zM377 520h338q-23 72 -41.5 138.5t-38.5 127.5q-33 102 -52 176l-34 125l-55 -195q-29 -99 -72 -228z" />
<glyph unicode="B" d="M121 6v1061v215v18v21q0 10 2 20q12 4 55 8.5t103.5 8.5t121.5 4q100 0 172 -23.5t117 -64.5t66.5 -97.5t21.5 -119.5q0 -109 -31.5 -169.5t-68.5 -90.5q-14 -10 -30.5 -20.5t-41.5 -20.5q49 -12 86 -33q25 -14 52.5 -35.5t51 -55.5t40 -82t16.5 -114q0 -117 -35 -200.5 t-95 -138t-143 -81t-178 -26.5q-78 2 -141 5t-141 11zM301 135q12 -4 49 -7t60 -3q100 0 170.5 73.5t70.5 233.5v23q0 10 -2 20q-14 113 -79.5 153t-166.5 40h-55q-33 0 -47 -4v-529zM301 799q14 4 53 4t68 2q33 0 70 6q39 18 70.5 71.5t31.5 143.5v18q0 8 -2 17 q-10 86 -63.5 125t-133.5 39q-18 0 -51 -2t-43 -4v-420z" />
<glyph unicode="C" horiz-adv-x="952" d="M70 643q0 397 176 588q84 90 182 122.5t203 32.5q63 0 112.5 -11t84 -26.5t56 -33t27.5 -31.5q0 -35 -8 -60.5t-20 -41.5h-9q-10 -2 -24 4l-33 14q-43 20 -96 29q-16 2 -31.5 3t-34.5 1h-21q-11 0 -22 -2q-72 -6 -135 -41t-110.5 -104.5t-76 -176t-28.5 -254.5 q0 -270 98.5 -396t278.5 -126q74 0 142.5 18.5t103.5 41.5q12 -23 16 -64q-6 -59 -47 -94q-29 -25 -94.5 -45.5t-149.5 -20.5q-125 0 -224 33t-170 112t-108.5 207.5t-37.5 321.5z" />
<glyph unicode="D" horiz-adv-x="1079" d="M123 10v1194q0 61 4 89t20 50l51.5 5.5t72.5 6.5t83 5t82 2q170 0 280.5 -47t176 -132t91.5 -201t26 -253q0 -211 -42 -358.5t-145 -245.5q-45 -41 -94 -67.5t-99 -42t-98.5 -20.5t-89.5 -5q-90 0 -164.5 5t-154.5 15zM303 145q31 -4 68 -7t78 -3q66 0 130 23.5t116.5 88 t84 181.5t31.5 301q0 233 -70.5 344t-210.5 133q-55 12 -122 13q-61 0 -105 -7v-1067z" />
<glyph unicode="E" horiz-adv-x="784" d="M119 1325q16 4 42.5 16.5t61.5 14.5h496q-4 -74 -13.5 -100.5t-31.5 -36.5q-37 -6 -83 -7.5t-106 -1.5h-182v-417h381q-6 -49 -12 -78t-15.5 -44.5t-21.5 -20.5t-31 -5h-301v-500q31 -4 77 -5t95 -1h135q72 0 133 4l2 -2q-8 -78 -22 -106.5t-45 -36.5q-41 -2 -98.5 -3 t-143.5 -1q-96 0 -173 3t-126 7q-4 23 -7 42.5t-7 41.5v981v131q0 64 -4 125z" />
<glyph unicode="F" horiz-adv-x="768" d="M119 1325q14 4 42.5 16.5t67.5 14.5h510q-6 -76 -15 -100.5t-32 -32.5q-23 -6 -51.5 -7.5t-75.5 -1.5h-262v-444h391q-4 -47 -9 -75.5t-15.5 -44t-24.5 -20.5t-33 -5h-309q0 -168 1 -316.5t3 -290.5l-37 -14q-27 -10 -61 -10q-55 0 -86 16v1090q0 68 -1 122t-3 103z" />
<glyph unicode="G" horiz-adv-x="1064" d="M66 657q0 221 55 363.5t129 220.5q70 74 169 108.5t228 34.5q63 0 112.5 -11t84.5 -26.5t56.5 -33t27.5 -31.5q0 -35 -8.5 -56.5t-20.5 -37.5h-8q-10 -2 -24.5 5t-32.5 13q-80 29 -175 29q-188 0 -293.5 -136t-105.5 -429q0 -164 31 -271.5t83 -170t119.5 -87 t141.5 -24.5q55 0 99 12t61 29v458q-18 0 -39 2.5t-38.5 14.5t-30.5 38.5t-15 73.5q0 4 2 9q4 8 18 8q23 2 59 3l73 2q38 1 73 1h57q4 -16 7.5 -42t5.5 -54.5t3 -58t1 -54.5v-485q-18 -14 -47 -32.5t-58 -31.5q-45 -16 -106.5 -28.5t-136.5 -12.5h-34q-17 0 -34 2 q-109 8 -199 45t-154.5 117t-100 208t-35.5 316z" />
<glyph unicode="H" horiz-adv-x="1093" d="M119 -6q2 74 3 163t1 199v674q0 96 -1 171t-3 134q16 16 52 20.5t112 4.5q12 -18 16 -46t4 -81v-440h488v428q0 72 20 118q16 14 49 17.5t115 3.5q-2 -74 -3 -163t-1 -198v-680q0 -98 1 -169.5t3 -131.5q-14 -16 -53 -20t-115 -4q-16 45 -16 104v551q-35 -2 -85.5 -3 t-136.5 -1h-266v-520q0 -37 -5 -62.5t-22 -48.5q-12 -16 -43.5 -18t-113.5 -2z" />
<glyph unicode="I" horiz-adv-x="423" d="M117 1313q12 31 52 39t116 8q12 0 15 -32t3 -103q0 -123 -1 -264.5t-1 -276.5q0 -133 1 -254t1 -219q0 -86 1 -131t1 -62q-12 -16 -51 -20t-115 -4q-18 0 -18 39q0 117 1 288t1 359q0 117 -1 230.5t-1 205.5q0 84 -1 133.5t-3 63.5z" />
<glyph unicode="J" horiz-adv-x="565" d="M-16 -53q2 25 7 38l9 23q27 -6 57 -6q29 0 67 5t70.5 38t53.5 106q16 56 16 148q0 28 -2 59v691q0 86 -1 151.5t-3 112.5q16 31 54 39t116 8q10 -18 13 -44t3 -79v-850q0 -92 -4 -167t-18 -134t-42 -103t-73 -75q-53 -37 -119 -45q-16 -4 -31 -4h-30q-41 0 -76 10 q-29 8 -46 30.5t-21 47.5z" />
<glyph unicode="K" horiz-adv-x="929" d="M117 1335q12 10 52 16.5t118 6.5q10 -20 13 -47t3 -80v-483l215 304l219 306q10 2 21 2h22q20 0 40 -1t36 -1q51 -2 51 -29q0 -14 -14 -41l-17.5 -27.5t-19.5 -25.5l-84 -115l-92 -126l-94 -127l-90 -119q49 -47 97 -115t92 -142.5t84 -149.5l75 -139l62 -112 q28 -47 46 -65q0 -10 -3 -14.5t-19 -10.5q-10 -4 -33 -8t-49 -4h-29q-55 6 -86 54t-51 97q-20 45 -48 98.5t-61.5 108.5t-71.5 108.5t-79 100.5l-71 77q-32 34 -48 44v-402q0 -86 1 -147t1 -111q-10 -16 -49 -19t-117 -3q-10 16 -14 36.5t-4 49.5v983q0 86 -1 152.5 t-3 119.5z" />
<glyph unicode="L" horiz-adv-x="772" d="M117 1327q16 20 51 26.5t119 6.5q10 -23 13 -55.5t3 -92.5v-1062q39 -4 91 -6.5t106 -2.5q57 0 121.5 1t117.5 5q2 -16 2 -31v-32q-4 -27 -19 -52.5t-46 -33.5q-31 -2 -79 -3t-124 -1q-104 0 -190 3t-146 7l-8 53l-8 54v999q0 72 -1 126t-3 91z" />
<glyph unicode="M" horiz-adv-x="1359" d="M74 8q8 125 20 278.5t28 322.5l32 346l32 354q0 10 2 22t13 17q6 4 16 4t21 2q51 6 114 6q16 -35 40 -94l50 -132l56 -154l55 -159q4 -16 10 -31.5t10 -31.5l26 -79l26 -79l22 -70l21 -59l22 63q12 34 27 68q16 43 31.5 91t31.5 87l100 278l91 253l8 20q4 10 12 17 q29 4 72 8t80 4q6 -20 10 -40t8 -54l30 -380l32 -378q16 -141 25 -264l16 -221q-10 -18 -50.5 -23.5t-119.5 -5.5q-23 33 -23 84q-2 31 -5 56.5t-3 55.5l-9 117l-12 135l-4 60l-4 57q-4 57 -5 132t-3 145q-4 61 -4 105t-2 85q0 -2 -1 -2t-1 -2l-35 -110l-38 -115l-38 -111 l-33 -92l-70 -193l-71 -196q-10 -35 -45 -41q-20 -4 -45 -6t-47 -2q-27 86 -70 212l-88 259q-4 14 -20 65l-37 117l-42.5 135.5t-29.5 85.5v-172q0 -33 -1 -72l-2 -76l-2 -74q-1 -36 -3 -63q-14 -131 -25.5 -253.5t-17.5 -219.5q-4 -29 -7 -48t-13 -38q-10 -8 -24.5 -12 t-41.5 -4q-18 0 -40.5 1t-51.5 5q-6 0 -6 4z" />
<glyph unicode="N" horiz-adv-x="1140" d="M98 1325v6q0 8 2 12q8 4 25.5 7.5t39 5.5t42 3t33.5 1q31 0 61 -19l83 -150l105 -183l56 -96l55 -99l70 -125q53 -100 101 -203l83 -182v16v22q0 11 -2 21q-2 35 -4 80t-3 95l-2 97q-1 48 -1 91v502q0 39 4 63.5t14 46.5q12 8 23.5 13.5t27 7.5t39.5 2h66 q-2 -92 -3 -196.5t-1 -227.5v-916q-4 -4 -32 -18t-56 -14q-14 0 -41 2t-43 8l-141 248l-152 268l-84 154l-67 140l-66 144l-26 56l-23 51q6 -117 9 -237t5 -208v-483q0 -41 -4 -64.5t-15 -46.5q-8 -10 -18 -15t-27.5 -7t-44 -3t-67.5 -1q2 90 3 194.5t1 227.5v874 q-6 8 -15.5 19.5t-9.5 15.5z" />
<glyph unicode="O" horiz-adv-x="1171" d="M68 674q0 354 135 533t391 179q131 0 228.5 -47t161 -136t94 -219t30.5 -294q0 -342 -130 -531.5t-396 -189.5q-139 0 -236.5 49.5t-159 140.5t-90 221t-28.5 294zM266 664q0 -274 91.5 -408.5t234.5 -134.5q150 0 235.5 136t85.5 427q0 145 -24.5 249.5t-68.5 171 t-103.5 98.5t-128.5 32h-2q-143 0 -231.5 -137t-88.5 -434z" />
<glyph unicode="P" horiz-adv-x="866" d="M115 1358q18 12 53 14h6q47 4 101.5 5t109.5 1q102 0 184 -23.5t138.5 -73.5t87 -131t30.5 -194q0 -111 -32.5 -185.5t-83 -122.5t-109.5 -70.5t-111 -28.5q-16 0 -35.5 2t-36 10t-26.5 25.5t-10 48.5q0 8 9 14t22 6q37 0 75.5 15.5t69.5 51.5t51.5 95.5t20.5 147.5 q0 74 -18.5 125t-49.5 82.5t-73 45t-87 13.5h-60q-26 0 -42 -4v-520v-385l2 -228q0 -51 -20 -80q-12 -14 -35 -17t-64 -3h-65q2 90 3 193.5t1 226.5l-4 884q0 12 -1 28t-1 32z" />
<glyph unicode="Q" horiz-adv-x="1179" d="M70 674q0 354 135 533t393 179q131 0 228.5 -47t160 -136t93 -219t30.5 -294q0 -166 -27.5 -288.5t-79 -209t-124 -137.5t-160.5 -71q2 -20 8 -44t18.5 -46.5t33 -41t52.5 -30.5q18 -4 36 -7t38 -3q53 0 110.5 12t121.5 22q55 10 105 16.5t97 6.5q23 0 44.5 -2t39.5 -6 q49 -12 83 -39t57 -51q-8 -18 -13.5 -31.5t-13.5 -28.5q-20 16 -58 29.5t-94 17.5q-22 2 -45 2q-47 0 -102 -8q-82 -12 -172 -33q-90 -23 -173 -37q-54 -10 -101 -10q-25 0 -48 2q-59 8 -104 45t-74.5 84.5t-44 96.5t-14.5 82q-117 12 -200 69.5t-135 149.5t-76.5 213 t-24.5 260zM270 662q0 -137 24.5 -238.5t68 -169.5t102.5 -101.5t129 -33.5q150 0 235.5 136t85.5 427q0 147 -21.5 251.5t-63.5 171t-101 97.5t-133 33q-152 0 -239 -138t-87 -435z" />
<glyph unicode="R" horiz-adv-x="927" d="M117 -6q2 92 3 194.5t1 225.5v692v102q0 47 -2 90v19q0 10 2 20q8 6 43 13q10 2 19.5 3t23.5 3q23 2 44 3t44 1q27 0 51 1h16l33 -1l54 -2q180 -10 270 -100.5t90 -284.5q0 -70 -25.5 -133.5t-59.5 -113.5t-65.5 -82t-46.5 -40q55 -82 108 -175l96 -176l79 -145 q35 -62 57 -83q4 -5 4 -9q0 -6 -9 -11q-15 -7 -38 -11q-25 -6 -61 -6h-27q-29 2 -49 17t-36.5 36.5t-30 47.5t-23.5 50q-41 92 -108.5 207t-147.5 207q-8 2 -16.5 3t-18.5 1h-90v-463q0 -49 -20 -78q-16 -18 -52 -20t-112 -2zM301 698q12 -2 43 -2h59q25 0 48.5 1t37.5 8 q49 18 88 83.5t39 188.5q0 125 -57 187.5t-149 62.5q-37 0 -65 -2t-44 -4v-523z" />
<glyph unicode="S" horiz-adv-x="798" d="M57 86q0 27 11.5 60.5t27.5 58.5q43 -37 107.5 -59.5t138.5 -22.5q92 0 149.5 53t57.5 152q0 66 -28.5 119t-102.5 122q-23 27 -49 53l-56 54l-84 81q-39 38 -67 74q-51 66 -70.5 122.5t-19.5 113.5q0 59 20.5 116.5t64.5 102.5t113.5 72.5t167.5 27.5q123 0 188.5 -29.5 t80.5 -51.5q0 -49 -31 -99q-10 -6 -22.5 -6t-37.5 10q-29 14 -70.5 24.5t-88.5 10.5q-90 0 -142.5 -42t-52.5 -124v-28q6 -37 25.5 -71t50.5 -69q35 -39 74 -76l84 -79l65 -62q31 -29 60 -59q63 -66 91.5 -133.5t28.5 -159.5q0 -168 -100 -270.5t-293 -102.5 q-102 0 -169.5 22.5t-96.5 49.5q-25 22 -25 45z" />
<glyph unicode="T" horiz-adv-x="937" d="M27 1237q0 23 5 47.5t11 40.5q4 12 11 20.5t14 14.5q10 0 21 -1t28 -1q35 -2 78 -2h102h627q0 -29 -4.5 -55.5t-10.5 -51.5q-6 -23 -21.5 -31t-21.5 -10h-309v-927q0 -88 1 -150.5t3 -112.5q-18 -16 -51 -20t-115 -4q-18 33 -18 88v1126h-262q-47 0 -86 6q-2 9 -2 23z " />
<glyph unicode="U" horiz-adv-x="1130" d="M113 1333q12 16 51 21.5t117 5.5q14 -25 17 -58.5t3 -95.5v-567q0 -66 3 -121t11 -106q23 -135 80.5 -215t177.5 -80q100 0 148.5 14t73.5 31q23 104 32 231t9 256l2 561q0 41 5 71t15 56q12 8 22.5 12.5t27 6.5t41 3t65.5 1q-2 -80 -3 -175t-1 -210v-326 q0 -166 -13.5 -301t-42.5 -252q-59 -72 -165.5 -99.5t-227.5 -27.5q-117 0 -195.5 33t-128 91.5t-75 138t-35.5 174.5q-4 51 -7 104t-3 113v389q0 100 -1 179t-3 142z" />
<glyph unicode="V" horiz-adv-x="1005" d="M27 1313q6 18 19 27.5t44 13.5q55 6 109 6q16 -16 26 -48l33 -100l82 -288l96 -330l52 -201q26 -94 44 -186q18 80 45 177t56 214l56 204l54 195l45 158l39 131q6 20 11.5 35.5t13.5 32.5q10 4 19 4h18h18q29 -2 52.5 -3t50.5 -5q8 -2 8 -27q0 -16 -6 -38.5t-13 -51.5 q-20 -66 -45.5 -161t-66.5 -228l-73 -255l-73 -240l-64 -198q-30 -87 -48 -131q-23 -16 -42.5 -23t-49.5 -11q-5 0 -10 -1q-17 0 -33 6q-20 7 -37 17q-20 10 -37 27q-10 18 -19 41l-43 141l-52 174l-56 190l-55 185l-108 360q-44 146 -60 187z" />
<glyph unicode="W" horiz-adv-x="1579" d="M45 1305q8 18 22.5 30.5t43 16.5t51 5t49.5 1q6 0 12 -17.5t12.5 -39t10.5 -41t4 -25.5l66 -286l85 -349l42 -194q19 -90 36 -183q10 72 25.5 157t38.5 189l81 334l87 354l8 41q4 4 9 6.5t22 6.5q14 4 26 5t25 3q14 2 27.5 3t27.5 1q20 -27 33 -86l61 -256l90 -369 l43 -202q20 -94 39 -193q18 98 38 190l42 197l98 392q41 171 72 313l7 24q3 10 7 19q6 6 39 6q16 -2 35 -2t35 -4q31 0 53 -8v-9q0 -10 -2 -28.5t-10 -49.5l-35 -132l-41 -160l-67 -276l-71 -282l-62.5 -237.5t-45.5 -142.5q-20 -14 -39.5 -25.5t-50.5 -15.5q-8 -2 -16 -2 q-12 0 -24 4q-19 6 -35 16q-20 10 -37 27q-4 10 -5 18t-6 19l-49 207l-57 229l-26 111l-26 125l-27 130l-25 127l-23 -108l-26 -128q-13 -67 -28 -132l-30 -123q-4 -14 -13 -52l-21 -87l-24 -104l-25 -102q-11 -48 -20.5 -84t-11.5 -46q-23 -16 -42 -26.5t-50 -14.5 q-23 -4 -42 4t-36 18q-20 10 -37 27q-4 10 -9 26.5t-11 38.5l-42 164l-50 202l-54 219l-55 214l-31 139l-28 120q-12 54 -21.5 91.5t-15.5 51.5z" />
<glyph unicode="X" horiz-adv-x="1017" d="M23 12l178 323l202 357l-85 163l-91 168l-86 160l-71 138q0 6 3 12t13 10q33 6 75 11.5t93 5.5q12 -10 22 -28l27 -46l46 -84l42 -80l69 -145q34 -70 66 -129q35 59 71 135t77 154q27 47 51 95l47 93l8 18q10 14 41 15q23 0 57.5 -4t77.5 -11q-6 -29 -14 -55 q-53 -109 -139 -260l-185 -315l224 -401l149 -289q2 -4 2 -11q0 -2 -2 -2q-16 -14 -58 -16t-83 -2q-20 0 -39.5 4t-40.5 14l-59 119l-66 125l-73 147l-74 144l-73 -136l-81 -155l-71 -126q-34 -60 -58 -110q-10 -14 -20.5 -18t-24.5 -4t-43 1t-57 7q-16 2 -27 4z" />
<glyph unicode="Y" horiz-adv-x="946" d="M23 1331q0 8 17 11.5t79 3.5h102q12 -29 35 -77l48 -106l53 -117l53 -115l44 -98q19 -44 29 -65l269 578q16 6 30.5 9t32.5 3q16 0 39 -1t57 -5q4 -16 4 -25q0 -18 -6 -34.5t-16 -39.5q-23 -53 -65 -132l-88 -162l-87 -157q-41 -75 -59 -118q-10 -25 -17.5 -51.5 t-11.5 -50.5v-299q0 -86 1 -150.5t1 -112.5q-6 -8 -16 -14t-28.5 -9t-48.5 -4t-75 -1q-16 39 -16 92v481v27q0 10 -4 20q-16 45 -43 103.5t-66 132.5l-125 244l-120 235z" />
<glyph unicode="Z" horiz-adv-x="956" d="M49 72q0 6 1 12t1 12l168 288l168 297l155 283l128 248h-473q-59 0 -82 6.5t-23 18.5v4q4 25 8 46l9 42q4 6 10 18.5t22 16.5q25 -4 54.5 -6t70.5 -2h611v-6q0 -8 1 -17.5t1 -21.5q0 -47 -25 -99q-41 -90 -104 -214l-141 -266l-160 -294l-166 -295q90 -4 217 -5t245 -1 q63 0 106.5 4t59.5 6q4 -16 4 -36q0 -14 -2 -29q-10 -29 -29.5 -53.5t-41.5 -28.5q-16 -2 -38 -3t-51.5 -2t-70.5 -1h-98q-188 0 -310 2t-200 6q-4 4 -11.5 15.5t-11.5 27.5q0 8 -1 14.5t-1 12.5z" />
<glyph unicode="[" horiz-adv-x="733" d="M219 -6q0 145 1 307t1 324q0 96 1 211l2 236l2 242q1 120 3 224q0 25 1 42t10 32q4 2 29.5 6t60.5 8t72.5 6t66.5 2q53 -8 105 -20l102 -25q0 -55 -8.5 -69.5t-40.5 -16.5q-41 -4 -80 -5t-70 -5q-27 -4 -48 -9t-44 -16v-63q0 -137 -3 -340t-3 -483v-227v-165 q0 -70 1 -120t1 -93q2 -66 22 -120q35 -4 74 -5.5t88 -5.5q61 -4 101 -14q0 -35 -2 -56.5t-6.5 -33.5t-11.5 -18.5t-19 -8.5q-125 0 -234 7l-172 12q-2 57 -2 123v137z" />
<glyph unicode="\" horiz-adv-x="667" d="M51 1405q0 16 22.5 24.5t90.5 8.5h39l186 -688l186 -689q10 -41 16.5 -73.5t6.5 -61.5q0 -20 -2 -30q-8 -16 -33.5 -19.5t-99.5 -3.5l-205 757l-205 756q-2 9 -2 19z" />
<glyph unicode="]" horiz-adv-x="733" d="M57 -240q0 53 7.5 68.5t41.5 17.5q41 4 80 6.5l70 4.5q49 2 90 24l5 352q3 217 3 535v391v121q0 49 -2 92q-2 66 -22 121q-35 4 -75 5t-87 5q-61 4 -100 15q0 70 8 90t30 26q125 0 235 -7l171 -11q2 -57 2 -123v-137q0 -145 -1 -307t-1 -324v-2q0 -96 -1 -211l-2 -236 l-2 -240q-1 -120 -3 -224q0 -27 -1 -44.5t-9 -29.5q-4 -4 -30 -7l-61 -7q-35 -4 -72.5 -6.5t-66.5 -2.5q-53 8 -105.5 19.5t-101.5 25.5z" />
<glyph unicode="^" horiz-adv-x="796" d="M92 885l41 88l63 137l67 141q34 68 56 99q23 27 41 36q27 12 50 13q12 -14 35.5 -51t51.5 -86l58 -105l58 -106l50 -93q22 -41 33 -59q-14 -23 -38.5 -46.5t-47.5 -23.5q-16 0 -39 27q-10 12 -26.5 41t-35.5 67l-39 78l-37 78l-31 64q-13 27 -19 37q-12 -23 -36 -74 l-49 -109l-49 -106q-24 -49 -38 -68q-10 -12 -22.5 -21t-16.5 -9q-25 8 -47.5 21.5t-32.5 29.5z" />
<glyph unicode="_" horiz-adv-x="899" d="M14 -201q0 53 2 82t15 43h854q0 -53 -2 -81.5t-17 -43.5h-852z" />
<glyph unicode="`" horiz-adv-x="657" d="M125 1393q0 20 14 37q16 25 41 43t47 18h2q8 0 39 -32t66 -75t67.5 -88t47.5 -75q2 -4 2 -11q0 -23 -25 -48t-43 -27q-12 14 -45 46l-73 68l-78 73l-60 58q-2 5 -2 13z" />
<glyph unicode="a" horiz-adv-x="808" d="M49 248q0 94 37 155.5t90 98.5t112.5 53t106.5 20q16 2 30 3h28q39 0 67 -7v117q0 70 -16.5 106.5t-81.5 36.5q-53 0 -111.5 -17t-103.5 -36q-37 -16 -60 -16q-14 16 -20 39.5t-10 42.5q-2 6 -2 22q0 10 4 23q33 31 116.5 62.5t186.5 35.5h35q10 0 37 -2 q115 -8 157.5 -81t42.5 -204v-92q0 -106 -2 -219t-2 -194q-2 -29 4 -52q4 -18 16.5 -32.5t37.5 -10.5q-2 -23 -3 -44v-31q-12 -16 -39.5 -30.5t-68.5 -17.5q-37 0 -72 26t-51 48q-10 -10 -26.5 -23.5t-32.5 -23.5q-35 -16 -72 -21.5t-78 -5.5q-49 0 -95 15.5t-82 49.5 t-57.5 84t-21.5 122zM229 264q0 -78 31 -109.5t78 -35.5h14q47 0 91 18.5t67 44.5q2 4 3 11.5t3 17.5q4 18 4 42v56v146q-10 2 -20 2h-21q-18 0 -34.5 -1t-32.5 -3q-37 -6 -70 -18.5t-58.5 -34t-40 -54.5t-14.5 -82z" />
<glyph unicode="b" horiz-adv-x="927" d="M115 1393q16 35 58 45t106 10q10 -23 13 -54.5t3 -101.5v-381q43 31 103.5 53.5t133.5 22.5q70 0 131.5 -23.5t106.5 -75.5t70.5 -133t25.5 -194q0 -106 -16 -188t-44 -144.5t-63.5 -106.5t-74.5 -73q-63 -43 -135 -59.5t-134 -16.5q-84 0 -151.5 14.5t-110.5 41.5 q-10 25 -14 53.5t-4 62.5v1049q0 68 -1 115t-3 84zM295 135q21 -10 53.5 -18t69.5 -8q43 0 89 19t83 67.5t60.5 130.5t23.5 206q0 172 -57.5 241t-157.5 69q-41 0 -85 -14.5t-79 -43.5v-649z" />
<glyph unicode="c" horiz-adv-x="753" d="M66 463q0 164 45 266t104 158q59 57 133 78.5t148 21.5q45 0 83.5 -9t67.5 -21.5t46.5 -27t21.5 -24.5q0 -20 -7.5 -49t-19.5 -51h-10q-10 0 -24.5 4t-30.5 8q-59 27 -123 27q-18 0 -29 -2q-96 -8 -158.5 -96.5t-62.5 -272.5q0 -111 22.5 -180.5t59.5 -108.5t84 -53 t96 -14q51 0 97 11t79 28l8 -32q4 -15 4 -26q-2 -23 -14 -45t-31 -37q-29 -20 -77 -32.5t-103 -12.5q-84 0 -157.5 19.5t-130 73t-89 149.5t-32.5 250z" />
<glyph unicode="d" horiz-adv-x="931" d="M66 446q0 141 36.5 245t98.5 173q57 63 127.5 93t144.5 30q53 0 94 -10t66 -27v244q0 68 -1 115t-3 84q16 35 58 45t106 10q10 -23 13 -54.5t3 -101.5v-688q0 -106 -2 -218t-2 -193q-2 -31 4 -54q4 -18 16.5 -32.5t36.5 -8.5q-2 -23 -2 -45v-30q-12 -18 -39.5 -32 t-68.5 -16h-6q-34 0 -67 25q-36 27 -50 47q-10 -10 -26.5 -23.5t-33.5 -21.5q-56 -29 -130 -29h-19q-78 4 -142.5 30t-111.5 81t-73.5 143t-26.5 219zM258 467q0 -98 16.5 -164.5t45 -106.5t68.5 -57.5t87 -17.5t87 15.5t63 41.5q2 4 4 12.5t2 16.5q2 18 2 42v56v506 q-45 39 -131 39q-45 0 -89 -20.5t-78 -65.5t-55.5 -119t-21.5 -178z" />
<glyph unicode="e" horiz-adv-x="815" d="M66 444q0 147 29.5 251t81.5 168.5t125 94t157 29.5q139 0 210.5 -78t86.5 -211q2 -23 3 -47t1 -51q0 -33 -3 -64.5t-9 -56.5q-16 -12 -59.5 -26.5t-84.5 -20.5q-47 -6 -120.5 -9t-145.5 -3h-46q-22 0 -46 2q0 -84 18.5 -141.5t50 -92t75.5 -49t97 -14.5q66 0 122.5 11 t105.5 38q4 -14 7 -38.5t5 -43.5q-2 -31 -39 -59.5t-80 -38.5q-23 -6 -65.5 -13.5t-89.5 -7.5q-72 0 -146 19.5t-133 79.5q-108 112 -108 372zM250 549h78q59 0 116.5 1t85.5 5q14 2 25.5 4t22.5 8q10 27 10 68q0 12 -1 23.5t-1 21.5q-8 86 -43 130t-105 44q-12 0 -18 -2 q-61 -10 -111.5 -81.5t-58.5 -221.5z" />
<glyph unicode="f" horiz-adv-x="538" d="M33 848q6 57 14 72.5t32.5 21.5l80.5 19q0 41 2 79.5t6 73.5q8 102 45 168t87 103.5t109.5 52t112.5 14.5q63 0 101.5 -11t52.5 -28q6 -8 6 -16v-17l-4 -23q-2 -11 -6 -22q-12 -29 -25 -41q-4 -2 -16.5 1t-24.5 8q-16 4 -38.5 6t-43.5 2q-35 0 -66.5 -9.5t-57 -34 t-42 -66.5t-18.5 -107q-2 -33 -2 -66v-67h111h65q31 0 51 2q-4 -72 -13 -95.5t-32 -31.5l-9 -4.5t-13 -4.5q-33 -4 -74 -4h-88v-188q0 -102 1 -207l2 -205q1 -100 1 -182q0 -8 -2 -21.5t-14 -17.5q-25 -4 -62 -6t-55 -2q-12 0 -23.5 1t-21.5 3q-2 10 -2 21v26q0 61 1 123.5 t1 126.5q0 127 -1 258t-1 270q-98 2 -127 25z" />
<glyph unicode="g" horiz-adv-x="862" d="M25 -440q-3 11 -3 21q0 30 20 66q28 48 75 97t104.5 94t104.5 76q34 -18 34 -60q0 -31 -24 -51q-27 -23 -52.5 -47t-46 -47.5t-30.5 -45t-6 -36.5q4 -18 23.5 -24t47.5 -6q35 0 75 7t69 13q55 14 102 44t82 68t54.5 77.5t19.5 72.5q0 6 -1 17.5t-3 15.5q-14 37 -36 61.5 t-87 32.5q-35 4 -70 6l-71 4l-37 2q-70 6 -113 17q-25 6 -43 12q-68 23 -103.5 58.5t-37.5 80.5q0 16 22 43l63 61l60 56q-66 41 -100.5 112.5t-34.5 170.5q0 86 26.5 152.5t72.5 112.5t109.5 69.5t139.5 23.5q53 0 95 -12t69 -27q6 -4 12 -7t19 7q59 2 114.5 5t96.5 5 q4 -10 8 -25t4 -36q0 -35 -13.5 -58.5t-41.5 -23.5q-27 0 -47.5 1t-47.5 5q29 -41 42.5 -85t13.5 -99q0 -162 -89.5 -251t-246.5 -89q-29 0 -51.5 3t-44.5 7l-27 -25q-12 -11 -23 -24q-14 -16 -14 -34.5t32 -34t93 -21.5q43 -4 88 -7t92 -7q20 -2 38 -3t34 -6 q96 -16 150.5 -67t58.5 -141q0 -68 -32 -138.5t-88 -131t-136 -105.5t-174 -66q-41 -10 -90.5 -15t-98.5 -5q-72 0 -130 18.5t-70 65.5zM260 639q10 -102 53 -161.5t129 -59.5q84 0 118 65q26 50 26 126q0 23 -2 48q-10 100 -54.5 155.5t-123.5 55.5q-72 0 -114 -56 q-34 -45 -34 -130q0 -20 2 -43z" />
<glyph unicode="h" horiz-adv-x="921" d="M113 -6q2 90 3 194.5t1 231.5v782q0 66 -1 112t-3 81q18 35 58 44t105 9q10 -16 13.5 -43t3.5 -92v-434q31 29 64.5 50t64.5 34q29 10 61.5 17t71.5 7q74 0 124 -21.5t78.5 -68.5t41 -119.5t12.5 -175.5v-301v-156q0 -70 2 -127q-8 -8 -17.5 -12t-27.5 -7t-48 -4t-75 -1 q-14 35 -14 94v496v50q0 22 -4 38q-4 96 -40 130t-93 34q-61 0 -113.5 -29t-87.5 -64v-622q0 -33 -4 -58.5t-17 -48.5q-10 -8 -21 -12t-27.5 -6t-43.5 -2h-67z" />
<glyph unicode="i" horiz-adv-x="413" d="M106 1315q0 115 109 115q61 0 79 -28q16 -25 15 -72v-11q-2 -53 -22.5 -88t-83.5 -35q-53 0 -75 29t-22 90zM113 918q16 33 60 41t108 8q10 -23 13 -51.5t3 -94.5v-696q0 -70 -25 -109q-10 -16 -40.5 -18t-116.5 -4q0 78 1 167t1 183v363q0 72 -1 121t-3 90z" />
<glyph unicode="j" horiz-adv-x="421" d="M-137 -326q0 14 3 32t9 28q4 0 9 -1t12 -1q61 0 133 32q51 23 69.5 72t22.5 144q2 37 3 77.5t1 85.5v523q0 82 -1 141t-3 111q16 33 59 41t107 8q10 -16 13 -44t3 -87v-652q0 -141 -12 -260q-6 -61 -19.5 -113.5t-40.5 -93.5q-63 -100 -180 -116q-12 -2 -24 -2h-23 q-45 0 -70 8q-61 10 -71 67zM113 1315q0 115 108 114q61 0 79 -27q16 -25 16 -72q0 -6 -1 -11q-2 -53 -22.5 -88t-83.5 -35q-53 0 -74.5 29t-21.5 90z" />
<glyph unicode="k" horiz-adv-x="811" d="M111 1389q16 37 55 49t100 12q12 -20 18.5 -52t6.5 -110v-368q57 47 120.5 66.5t133.5 19.5q51 0 84 -18.5t52 -47.5t27.5 -63.5t8.5 -67.5q0 -88 -34 -152.5t-79 -109.5t-91 -70.5t-71 -34.5q31 -20 86 -82l117 -134l119 -144l92 -113q9 -7 9 -13q0 -5 -5 -10 q-12 -11 -35 -20q-35 -10 -73 -10q-31 0 -52.5 10.5t-56.5 36.5q-12 12 -33 37l-47 57l-55 67l-55 64q-10 10 -28 30l-37 40l-37 39l-25 27q-4 4 -15.5 14t-19.5 16v-297q0 -25 -5 -37t-22.5 -18t-53.5 -7t-97 -1q0 26 1 81.5t2 117t1 117.5v85v750q0 53 -1 99t-3 87z M291 506q47 20 90 50t74.5 64.5t51 74.5t19.5 85q0 35 -16 58.5t-51 23.5t-81 -29.5t-87 -87.5v-239z" />
<glyph unicode="l" horiz-adv-x="411" d="M113 1395q16 35 59 44t107 9q10 -31 12 -72t2 -119v-1064q-2 -29 4 -52q4 -18 16.5 -32.5t36.5 -10.5q-2 -23 -2 -45v-30q-12 -18 -39.5 -32t-68.5 -16q-18 0 -38 8.5t-36 18.5q-25 16 -37 44t-12 58v21v1038q0 76 -1 130.5t-3 101.5z" />
<glyph unicode="m" horiz-adv-x="1390" d="M96 899q12 16 82 47q6 2 15 2q29 0 43 -17.5t20 -43.5q37 31 73 50t68 30q61 20 129 20h18q9 0 19 -2q70 -4 112 -30.5t68 -71.5q37 31 75 51t73 31q61 20 125 20h20q10 0 21 -2q68 -6 110.5 -32.5t68.5 -71.5t35 -108.5t9 -139.5v-344v-146q0 -68 4 -123 q-18 -14 -50 -19t-118 -5q-6 12 -10 27.5t-4 37.5v562q0 121 -30 169t-107 48q-53 0 -97.5 -26t-76.5 -60v-242v-481q0 -27 -27 -33q-10 -2 -28 -2h-44h-84q4 78 4 172v211v246q0 121 -29.5 169t-107.5 48q-57 0 -101 -26t-77 -60v-664q0 -27 -4 -43t-17 -33q-10 -8 -20 -12 t-27.5 -6t-43.5 -2h-66q2 78 2 173v212v366q0 49 -7.5 86t-17.5 68z" />
<glyph unicode="n" horiz-adv-x="925" d="M96 895q12 16 82 47q6 2 15 2q29 0 43 -17.5t20 -43.5q37 31 71.5 50t69.5 30q33 10 62.5 16t64.5 6q92 0 148.5 -23.5t88.5 -69.5t43 -113.5t11 -153.5v-314q0 -86 1 -158.5t3 -134.5q-8 -6 -18 -11t-28.5 -8t-48.5 -4t-73 -1q-16 31 -16 84v543q0 119 -35 167t-127 48 q-55 0 -99 -26t-77 -60v-639q0 -33 -4 -54.5t-19 -42.5q-10 -8 -20 -12t-26.5 -5t-43 -2t-67.5 -1q2 84 3 182t1 217v348q0 49 -7.5 86t-17.5 68z" />
<glyph unicode="o" horiz-adv-x="907" d="M57 475q0 131 30 228.5t83 160t127 93t162 30.5q389 0 389 -500q0 -129 -30 -225t-83 -160.5t-124.5 -97.5t-157.5 -33q-190 0 -293 119t-103 385zM248 483q0 -106 15.5 -179t43 -117t66.5 -63.5t84 -19.5q41 0 77.5 19.5t64.5 63.5t44 116t16 178q0 201 -55 285t-147 84 h-4q-41 0 -78 -19.5t-65.5 -63.5t-45 -114t-16.5 -170z" />
<glyph unicode="p" horiz-adv-x="937" d="M98 899q6 10 27 21l53 26q4 0 6 1t4 1h5q29 0 44 -17.5t21 -43.5q37 31 72 50t69 30q33 10 60.5 16t62.5 6q74 0 137.5 -24.5t111.5 -77.5t75.5 -137t27.5 -203q0 -195 -50 -315.5t-128 -184.5q-55 -45 -111.5 -60.5t-103.5 -15.5q-59 0 -107 16.5t-75 37.5v-340v-46 q0 -22 -4 -42q-10 -8 -40 -13.5t-65 -5.5q-37 0 -63 6q-4 27 -5 77t-1 128v956q0 49 -6.5 86t-16.5 68zM299 174q23 -29 63.5 -47t88.5 -18q35 0 75.5 18t75.5 65.5t57.5 130.5t22.5 209q0 166 -52 237t-151 71q-53 0 -100 -26t-80 -54v-586z" />
<glyph unicode="q" horiz-adv-x="933" d="M66 436q0 150 45 258.5t122 175.5q47 45 106.5 73t131.5 38q18 2 37.5 3t38.5 1q150 0 291 -59q-10 -31 -17.5 -68t-7.5 -86v-348v53v-837q0 -39 -15.5 -50.5t-72.5 -15.5h-92q2 70 3 150.5t1 183.5v137q-37 -35 -93.5 -56.5t-119.5 -21.5q-70 0 -134.5 24.5t-114.5 80 t-79.5 145.5t-29.5 219zM258 444q0 -176 63.5 -250.5t157.5 -74.5q47 0 91 19.5t67 54.5v593q0 27 6 43q-31 10 -65.5 15.5t-67.5 7.5q-47 0 -92 -23.5t-80 -72.5t-57.5 -127.5t-22.5 -184.5z" />
<glyph unicode="r" horiz-adv-x="614" d="M96 895q18 18 84 47q6 2 15 2q29 0 42 -17.5t21 -43.5q35 31 71 50t68 30q29 10 56 15q15 3 30 3q12 0 25 -2q80 -8 88 -51q0 -23 -7 -56.5t-26 -62.5q-8 -2 -18 -2t-23.5 1t-25.5 3q-10 4 -20 4h-17q-100 0 -162 -65v-654q0 -27 -3 -46t-15 -36q-10 -6 -21.5 -10t-29 -6 t-44 -3t-67.5 -1q2 84 3 182t1 219l2 346q0 49 -8.5 86t-18.5 68z" />
<glyph unicode="s" horiz-adv-x="708" d="M57 61q0 25 8.5 53.5t24.5 49.5h8q23 0 56 -17q33 -14 72.5 -23t82.5 -9q10 0 19.5 1t19.5 3q55 6 87 38.5t32 84.5q0 35 -20.5 66.5t-67.5 66.5l-86 62q-45 34 -80 63l-49 43q-90 88 -90 192q0 119 86 185.5t225 66.5q16 0 31.5 -1t27.5 -3q92 -6 134.5 -34.5 t48.5 -47.5q0 -20 -9.5 -48t-21.5 -44q-23 4 -45.5 7t-48.5 13q-47 18 -101 19q-63 0 -101 -30t-38 -77q0 -27 14.5 -51t51.5 -53q39 -31 99 -73t108 -81q66 -53 93 -105t27 -118q0 -72 -26.5 -125t-73.5 -89t-109.5 -54.5t-132.5 -18.5q-96 0 -168 24.5t-88 63.5z" />
<glyph unicode="t" horiz-adv-x="649" d="M45 842q0 25 1 36t2 17t5 9t10 9q23 18 62 26.5t61 18.5l11 185q10 31 46 54.5t107 27.5q-2 -72 -3 -136.5t-1 -127.5h264q-4 -78 -15 -102.5t-32 -29.5q-12 -2 -24.5 -3t-24.5 -1q-20 0 -36.5 -1t-35.5 -1h-41h-55q-2 -72 -3 -142.5t-1 -135.5q0 -68 1 -127.5t1 -110.5 q6 -86 26.5 -140t82.5 -54q12 0 32.5 4t43 10t41 13t24.5 14q2 -10 3 -21.5t1 -23.5v-29q0 -14 -2 -29q-6 -23 -31 -41q-29 -18 -77 -28.5t-95 -10.5q-72 0 -116 31t-68.5 80t-32.5 110.5t-8 122.5v506q-49 0 -77 5.5t-46 15.5z" />
<glyph unicode="u" horiz-adv-x="931" d="M106 932q18 20 97 57q8 2 16 2q35 0 51.5 -22.5t22.5 -46.5q10 -35 16 -77t6 -120l-20 -375q0 -70 10 -112.5t30.5 -67.5t49.5 -34t66 -9q9 -1 17 -1q44 0 86 18q50 22 77 55v651q0 33 4 54.5t18 41.5q8 8 18.5 12.5t28 5.5t44 2t67.5 1q-2 -84 -3 -182.5t-1 -217.5v-348 q0 -49 7 -86t17 -67q-12 -16 -81 -48q-6 -2 -15 -2q-29 0 -43 17.5t-20 44.5q-37 -31 -72 -50.5t-70 -29.5q-33 -10 -62.5 -16.5t-64.5 -6.5q-90 4 -145 29t-87 69t-43 106.5t-13 144.5l20 428q0 57 -8.5 100t-20.5 80z" />
<glyph unicode="v" horiz-adv-x="802" d="M35 922q10 29 46 40t118 11q12 -12 21 -32.5t16 -45.5q14 -47 31.5 -111.5t39.5 -136.5l32 -132l30 -129l25 -108q11 -48 20 -73q8 20 19 69l27 114l33 136q17 72 35 140l43 153l37 139q14 10 45 11q18 0 43 -2t64 -7q6 -8 6 -24q0 -20 -6 -43t-17 -53l-116 -384 l-133 -429q-16 -16 -41 -23.5t-45 -11.5q-6 -2 -15 -2q-27 0 -52.5 12t-31.5 31l-76 259l-100 322l-21 65l-32 97l-30 93q-13 43 -15 55z" />
<glyph unicode="w" horiz-adv-x="1243" d="M33 928q10 23 51 33t121 10q20 -18 31 -64l61 -252l53 -259q23 -112 39 -171q12 37 32.5 115t45.5 186q4 18 17 72l28 115l27 114l16 72q2 4 2 9v7v21q2 2 18.5 7t39 9t45 5t34.5 -1q12 -10 18.5 -28.5t14.5 -50.5q16 -76 38 -164l44 -187l42 -178l30 -123q25 76 50 193 l54 252q20 76 34.5 143.5t24.5 120.5q4 10 5.5 17t5.5 14q8 6 26 6q10 0 31 -2l40 -4q19 -2 35.5 -4.5t18.5 -4.5q7 0 7 -23q0 -12 -4 -25l-13 -46l-50 -182l-57 -211l-60 -215l-56 -195q-10 -33 -16.5 -49t-22.5 -22q-12 -2 -41 -4t-70 -4q-16 12 -32.5 39.5t-24.5 54.5 l-21 78q-10 39 -20 73q-29 109 -52 219l-46 220q-8 -41 -20.5 -96.5t-28 -118t-33 -126t-31.5 -120.5l-37 -144q-10 -33 -16 -49t-23 -22q-12 -2 -40.5 -4t-69.5 -4q-16 12 -32.5 39.5t-25.5 54.5l-31 116l-37 138l-40 146l-41 147l-56 206q-22 78 -32 101z" />
<glyph unicode="x" horiz-adv-x="862" d="M31 0l18 49l135 215l148 234l-64 106l-70 116l-70 113l-58 95l-7 18q10 6 44 16.5t63 10.5h68q18 -16 37 -48l47 -75l63 -113l64 -108l50 90l56 98l37 60l37 59q14 20 25.5 27.5t43.5 7.5q23 0 55.5 -4t63.5 -11q-6 -12 -11 -25t-11 -26l-126 -191l-130 -202l144 -240 l146 -239l11 -25q-16 -6 -48 -9t-67 -5q-39 0 -96 14l-35 57l-39 64l-70 122l-65 120l-86 -158q-49 -90 -115 -188q-10 -23 -28.5 -27t-65.5 -4q-23 0 -47 1t-47 5z" />
<glyph unicode="y" horiz-adv-x="800" d="M20 -340q0 16 7 35q2 10 6 20q16 6 34.5 5t39 -1t42 2.5t46.5 12.5q20 10 41.5 44t42 79t37 96t26.5 96q-4 4 -6 5t-4 5q-14 20 -22.5 41t-18.5 54l-19 61l-34 114l-45 145l-52 160l-52 157l-46 135q10 27 44 37t114 10q10 0 22.5 -29t18.5 -53q8 -25 21 -70l30 -100 l34 -115l31 -112l24 -94l20 -83l16 -63q6 -27 8 -33q4 10 11 39l17 67l20 84l22 93l54 232l50 212q12 10 24.5 14.5t37.5 4.5q16 0 37.5 -1t52.5 -3q10 -20 10 -43q0 -20 -10 -56q-20 -86 -49 -192.5l-64 -224l-75 -240.5l-81 -238q-43 -109 -83 -181.5t-78.5 -115.5 t-75.5 -61.5t-70 -18.5q-72 0 -110 20.5t-46 47.5z" />
<glyph unicode="z" horiz-adv-x="739" d="M39 68q2 20 18 49l97 159l108 183l110 188l99 178h-219q-25 0 -46.5 -1t-43.5 -1q-106 0 -107 21v4q12 115 45 123q37 -8 79 -9t100 -1h397v-7q0 -10 2 -19q2 -10 2 -30q0 -25 -23 -71l-73 -140l-95 -170l-107 -188l-112 -195q45 -2 104.5 -3t119.5 -1q86 0 146 5t73 10 q0 -16 -1 -35t-5 -35q-8 -63 -41 -74q-35 -6 -83 -8t-141 -2q-98 0 -198.5 1t-175.5 5l-15 22q-10 15 -14 42z" />
<glyph unicode="{" horiz-adv-x="665" d="M78 629q0 16 4 33q68 2 111 15t65.5 31.5t31.5 41t9 43.5q2 14 0 32.5t-6 34.5q-10 33 -22.5 68t-28.5 71q-27 63 -49.5 125t-22.5 117q0 84 44 145.5t126 96.5q43 18 100.5 30.5t116.5 16.5q4 -10 7 -21.5t7 -17.5q4 -12 8.5 -21.5t4.5 -15.5t-4 -10q-4 -10 -15 -12 q-18 -4 -43 -9l-35 -8q-45 -10 -72.5 -29.5t-44 -41t-22.5 -42t-8 -34.5q-2 -16 0 -38t6 -36q8 -27 20.5 -56.5l26.5 -60.5l48 -122q24 -62 24 -124q0 -86 -35 -136t-115 -79q76 -29 114 -76.5t38 -129.5q0 -18 -4 -37l-8 -37q-10 -53 -26.5 -102.5t-37.5 -96.5 q-14 -37 -25 -71l-22 -66q-4 -16 -6 -28.5t-2 -28.5q0 -59 39 -102.5t110 -57.5q12 -4 24.5 -5t22.5 -3l33 -6q14 -2 19 -11q0 -4 1 -6t1 -4q0 -10 -5.5 -22.5t-11.5 -24.5q-4 -6 -8 -16.5t-6 -14.5q-195 4 -287 72q-100 72 -100 209q0 63 22.5 129.5t51.5 132.5 q16 39 28.5 75t22.5 70q4 16 7 36t-1 42q-2 18 -8 37t-22.5 34t-45 27.5t-78.5 16.5q-33 2 -53 31q-14 20 -14 47z" />
<glyph unicode="|" horiz-adv-x="626" d="M231 -461v2040q10 8 21.5 13t29 7.5t45.5 2.5h68v-2042q-10 -8 -21.5 -12.5t-29.5 -6.5t-45 -2h-68z" />
<glyph unicode="}" horiz-adv-x="665" d="M78 -252q0 2 1 4t1 6q4 8 18 11l33 6q10 2 22.5 3t24.5 5q72 14 111 57t39 103q0 16 -2 28.5t-7 28.5l-21 66q-11 35 -26 71q-20 47 -36.5 96.5t-26.5 102.5l-8 37q-4 18 -4 37q0 82 37.5 130t113.5 76q-80 29 -114.5 79t-34.5 136q0 61 23 124l48 122l26.5 60.5 t20.5 56.5q4 14 6.5 35.5t0.5 38.5q-2 14 -8.5 34.5t-23 42t-44 41t-72.5 29.5l-35 8q-25 4 -43 9q-10 2 -14 12q-4 4 -4 10t4 15.5t8 21.5q4 6 7 17.5t7 21.5q59 -4 117 -16.5t101 -30.5q82 -35 126 -96.5t44 -145.5q0 -55 -22.5 -116.5t-49.5 -125.5q-16 -37 -28.5 -71.5 t-22.5 -67.5q-4 -16 -6.5 -34.5t0.5 -32.5q0 -20 9 -43t31.5 -41.5t65.5 -31.5t111 -15q4 -16 4 -33q0 -27 -15 -47q-20 -29 -53 -31q-96 -10 -123.5 -44t-29.5 -71q-4 -23 -1 -42t7 -36q10 -35 22.5 -70.5t28.5 -74.5q29 -66 51.5 -132.5t22.5 -129.5q0 -137 -101 -209 q-92 -68 -286 -72q-2 4 -6.5 14.5t-8.5 16.5q-6 12 -11 24.5t-5 22.5z" />
<glyph unicode="~" horiz-adv-x="1024" d="M51 397q14 113 43 180.5t62.5 104.5t70.5 49t72 12q72 -4 131 -35.5t113 -80.5l95 -80q46 -37 93 -37q53 0 80 45t37 123q4 20 9 34.5t11 26.5q23 0 56.5 -9t50.5 -21q-10 -96 -31.5 -161t-52.5 -102.5t-70 -53t-82 -15.5q-37 0 -74.5 14.5t-74.5 38t-73 51.5l-73 60 q-43 37 -74.5 54t-60.5 17q-20 0 -39.5 -8t-37 -30.5t-31 -64.5t-23.5 -110q-16 -16 -51 -16q-29 2 -45.5 5t-30.5 9z" />
<glyph unicode="&#xa1;" horiz-adv-x="395" d="M88 -256q2 66 6 165t10 205l12 201q5 96 9 156q4 43 48 59.5t97 16.5q2 -76 8 -190l10 -236l10 -243q5 -120 7 -206q-2 -29 -54 -39t-142 -10q-10 23 -15.5 51.5t-5.5 69.5zM104 862q2 53 22.5 88t84.5 35q53 0 74.5 -28.5t21.5 -90.5q0 -115 -108 -114q-61 0 -79 27 q-16 25 -16 72v11z" />
<glyph unicode="&#xa2;" d="M150 532q0 133 31.5 223.5t78.5 149t103.5 88t103.5 41.5q2 35 3 69t3 68q2 29 17.5 41.5t56.5 16.5q16 2 34.5 2t39.5 2l-4 -96q-1 -47 -5 -97q59 -8 101.5 -27.5t54.5 -41.5q0 -10 -5 -40t-18 -52q-12 -6 -32 -7q-14 0 -33 7q-35 14 -68 16q-10 2 -18 3t-16 1 q-127 0 -186.5 -91t-59.5 -259q0 -98 19.5 -160.5t51 -97.5t74.5 -48.5t92.5 -13.5t96.5 11.5t86 31.5q0 -90 -23 -125q0 -10 -12 -18q-23 -16 -63 -28.5t-93 -16.5q-2 -37 -3 -74t-3 -76q-2 -29 -16.5 -41t-46.5 -16q-41 -6 -89 -6l13 221q-43 8 -90 31.5t-86 73t-64.5 130 t-25.5 205.5z" />
<glyph unicode="&#xa3;" horiz-adv-x="987" d="M111 37l2 117q70 37 109.5 106.5t49.5 163.5q2 10 2 19v20q0 45 -8 92t-18 92l-123 -12q-3 26 -3 51q0 13 1 26q2 38 12 48q16 10 47 14l35 4q-6 31 -10 77t-4 87q12 205 108 324q100 123 275 135q63 0 112.5 -11.5t84 -26.5t56 -32.5t27.5 -32.5q0 -35 -8 -60.5 t-20 -41.5q-12 -4 -29.5 2t-36.5 16q-16 8 -40.5 16.5t-55.5 12.5q-23 4 -48.5 5t-47.5 -3q-82 -14 -126 -88t-53 -190q-2 -10 -2 -21v-20q0 -31 4.5 -64t10.5 -63l348 35q1 -20 1 -39q0 -31 -4 -56q-7 -39 -44 -43l-271 -28q8 -39 15.5 -94.5t7.5 -100.5q0 -16 -2 -35.5 t-4 -42.5q-12 -121 -94 -213q66 -14 146.5 -22t145.5 -8q23 0 59 1t76 2t81.5 5t76.5 10q1 -10 2 -22q0 -6 -1 -14q-1 -22 -5 -42q-4 -43 -39 -65q-18 -16 -51 -27q-45 -10 -96 -14t-117 -4q-111 0 -245.5 13t-288.5 42z" />
<glyph unicode="&#xa5;" d="M23 1331q0 8 17 11.5t79 3.5h102q12 -29 35 -77l48 -106l53 -117l53 -115l44 -98q19 -44 29 -65l269 578q16 6 30.5 9t32.5 3q16 0 39 -1t57 -5q4 -16 4 -25q0 -18 -6 -34.5t-16 -39.5q-23 -53 -65 -132l-88 -162l-87 -157q-41 -75 -59 -118q-6 -12 -12.5 -32.5 t-8.5 -35.5l222 23q1 -20 1 -38q0 -31 -4 -56q-7 -39 -44 -43l-183 -19v-200q0 -86 1 -150.5t1 -112.5q-6 -8 -16 -14t-28.5 -9t-48.5 -4t-75 -1q-16 39 -16 92v381l-225 -23q-3 26 -3 51q0 13 1 25q2 37 12 49q10 6 21.5 8.5t25.5 4.5l168 18q-2 4 -2 7t-2 7 q-16 45 -43 103.5t-66 132.5l-125 244l-120 235z" />
<glyph unicode="&#xa7;" horiz-adv-x="968" d="M68 922q0 76 21.5 135t49.5 96q23 27 45.5 39t36.5 14q23 0 17 -16q-29 -41 -50.5 -96.5t-21.5 -127t32.5 -138t84 -129t114.5 -118.5l124 -106l112 -91q51 -42 78 -73q63 -80 63 -164q0 -10 -1 -18t-3 -18q-8 -86 -57 -136.5t-99 -72.5q-41 -23 -93 -33t-107 -10h-27 q-45 2 -90 10t-74 18q-18 10 -14 50t12 79q41 -16 101.5 -25t117.5 -9q80 0 135.5 35.5t55.5 107.5v11q0 7 -4 16q-8 53 -64 108q-68 68 -153.5 135.5t-161.5 145t-128 170t-52 211.5zM258 1210q0 10 1 19.5t3 19.5q8 86 57.5 135.5t98.5 71.5q75 39 185 39h22 q61 0 103 -14.5t65 -30.5q20 -20 5.5 -53t-28.5 -54q-45 16 -86 25.5t-92 9.5q-80 0 -135.5 -35.5t-55.5 -107.5q-1 -8 0 -15q0 -39 19 -64q23 -30 49 -56q63 -63 140 -122.5t144.5 -128.5t113.5 -152t46 -193q0 -35 -6 -72q-8 -53 -36.5 -99t-94.5 -69q-2 -1 -4 0 q-4 0 -7 2q-5 4 -1 10q10 25 18.5 50.5t14.5 54.5q5 28 5 56t-5 58q-10 58 -36 112t-60.5 101.5t-73.5 77.5l-80 64l-85 66q-42 34 -79 67t-61 64q-64 81 -64 163z" />
<glyph unicode="&#xa8;" horiz-adv-x="745" d="M113 1272q0 106 102 106q57 0 74 -25q15 -23 14 -66v-11q-2 -51 -21.5 -83t-78.5 -32q-49 0 -69.5 27t-20.5 84zM434 1272q0 106 103 106q57 0 73 -25q15 -23 15 -66v-11q-2 -51 -21.5 -83t-79.5 -32q-49 0 -69.5 27t-20.5 84z" />
<glyph unicode="&#xa9;" horiz-adv-x="1183" d="M74 877q0 129 39 231t107.5 172t165.5 106.5t214 36.5q115 0 209 -34.5t160.5 -103t102.5 -171t36 -235.5q0 -127 -38 -228.5t-105.5 -173t-162.5 -109.5t-210 -38q-117 0 -212 34.5t-164 104.5t-105.5 171.5t-36.5 236.5zM195 877q0 -211 106.5 -327t290.5 -116 q86 0 158.5 31t125 88t82 140t29.5 188q0 100 -26.5 182t-76.5 140.5t-122 89t-162 30.5t-164 -29.5t-128 -86t-83.5 -138.5t-29.5 -186v-6zM358 866q0 86 22.5 144.5t60.5 95.5t87.5 53.5t104.5 16.5q53 0 92 -13.5t47 -27.5q0 -12 -5 -33t-9 -31q-8 -4 -15 -4q-12 0 -24 6 q-10 4 -20.5 6t-24.5 4q-12 2 -26 2h-30q-55 -4 -102 -52t-47 -163q0 -23 6 -41q10 -90 53 -122.5t115 -32.5q31 0 61.5 8t49.5 14q4 -10 8 -22l6 -19q-4 -27 -27 -47q-14 -8 -42.5 -17t-77.5 -9q-127 0 -195 65t-68 219z" />
<glyph unicode="&#xaa;" horiz-adv-x="600" d="M106 856q0 59 23 97t56.5 61.5t71.5 33t67 13.5h34h23q10 0 20 -2v71q0 43 -10 67t-51 24q-35 0 -71 -11.5t-64 -21.5q-25 -10 -37 -10q-10 10 -13 24.5t-5 26.5q-2 4 -3 14q0 4 1.5 7t1.5 7q20 18 72 38t118 22h45q72 -4 98.5 -50t26.5 -128v-58q0 -66 -1 -136.5 t-1 -121.5q-2 -18 2 -32q4 -12 10 -21.5t23 -5.5q-2 -14 -2 -29v-18q-6 -10 -23.5 -19.5t-44.5 -11.5q-23 0 -44 16.5t-32 30.5q-6 -6 -16 -15t-21 -16q-39 -16 -94 -16q-61 0 -110.5 40t-49.5 130zM219 866q0 -49 19.5 -68.5t48.5 -23.5h10q29 0 56.5 12.5t41.5 28.5 q0 2 1 7t1 12q4 10 4 24v37v90q-8 2 -26 2q-10 0 -20.5 -1t-20.5 -3q-47 -8 -81 -33t-34 -84z" />
<glyph unicode="&#xab;" horiz-adv-x="925" d="M68 498q20 33 65 96l93 132l91 129q43 60 60 89q16 -2 31.5 -12t26.5 -24.5t18.5 -27t7.5 -18.5q0 -16 -15.5 -48t-38 -72t-50.5 -82l-52 -78l-42 -63l-21 -32q8 -10 42 -60l72 -112q39 -61 70 -118.5t31 -83.5q0 -6 -7.5 -20.5t-18.5 -30t-26.5 -26.5t-33.5 -11 q-14 25 -48 74l-76 110l-86 122l-77 109q-16 33 -16 58zM438 496l68 95l94 129l93 126l65 88q14 -2 29.5 -12.5t26.5 -23.5t18.5 -26.5t7.5 -21.5q0 -16 -15.5 -48t-39.5 -70l-51 -80l-53 -77l-44 -59q-18 -25 -23 -31q6 -10 42 -58t76 -107.5t72 -114.5t32 -80 q0 -6 -7.5 -20.5t-19.5 -29t-27.5 -25.5t-31.5 -13q-16 29 -52 78l-76 105l-86 114q-44 57 -77 104q-10 16 -15.5 32t-5.5 26z" />
<glyph unicode="&#xac;" horiz-adv-x="1019" d="M74 641q0 47 9 83t34 60h747l66 -12v-446q0 -20 -2 -39t-6 -35q-2 -6 -16.5 -10t-35 -7.5t-44 -4.5t-44.5 -3v414h-708z" />
<glyph unicode="&#xad;" horiz-adv-x="598" d="M72 444q14 141 53 142q86 8 184.5 19t169.5 22q23 -4 45 -15q-4 -57 -21.5 -98t-51.5 -45q-35 -6 -78 -11l-87 -11q-44 -5 -87 -8t-80 -3q-12 0 -23.5 2t-23.5 6z" />
<glyph unicode="&#xae;" horiz-adv-x="811" d="M68 1073q0 174 91 267.5t252.5 93.5t246.5 -89.5t85 -269.5q0 -166 -89 -264t-251 -98q-164 0 -249.5 89t-85.5 271zM166 1073q0 -141 62.5 -206.5t172.5 -65.5q104 0 174 68.5t70 207.5q0 131 -61.5 201t-171.5 70h-2q-109 0 -176.5 -67t-67.5 -208zM293 881v385 q4 2 6 4t12 2q4 0 6 1t7 1q8 2 24 2h30q13 0 27 -2q125 -2 125 -115q0 -39 -17 -64.5t-42 -39.5q16 -18 41 -60.5t37 -97.5v-4q0 -8 -2 -10q-10 -4 -37 -4q-8 0 -10 2q-6 0 -15.5 1t-17.5 5q-8 53 -24.5 86t-32.5 53h-13q-8 8 -26 8h-9v-145q-8 -6 -21 -7t-48 -1zM362 1090 h25q20 0 37 6q33 16 33 65q0 27 -15.5 43.5t-44.5 16.5q-10 0 -18 -1t-17 -1v-129z" />
<glyph unicode="&#xaf;" horiz-adv-x="901" d="M217 1231q8 70 18.5 93.5t32.5 21.5h105h130q65 0 113 2l23 -10l23 -9q-4 -55 -20.5 -85t-51.5 -30q-33 -2 -71 -3t-79 -1q-47 0 -93 2t-85 7q-12 2 -22.5 5t-22.5 7z" />
<glyph unicode="&#xb0;" horiz-adv-x="727" d="M190 1321q0 86 57.5 146.5t147.5 60.5h2q45 0 83 -17.5t64.5 -46t41 -65.5t14.5 -76q0 -88 -59.5 -146.5t-147.5 -58.5q-84 0 -143.5 55.5t-59.5 147.5zM293 1323q0 -47 29.5 -79t74.5 -32q47 0 75 33t28 76t-28 78t-77 35q-47 0 -74.5 -34t-27.5 -77z" />
<glyph unicode="&#xb1;" horiz-adv-x="598" d="M61 625q0 72 9.5 104.5t40.5 32.5h120q0 37 -1 77t-3 70q12 14 41 17.5t82 5.5q16 -8 20.5 -23.5t4.5 -50.5v-96h170q0 -70 -8.5 -103.5t-42.5 -33.5h-119v-111q2 -31 -10.5 -47t-34 -23.5t-47 -8.5t-52.5 -1v191h-170zM72 176q14 141 53 141q86 8 184.5 19.5t169.5 21.5 q23 -4 45 -14q-4 -57 -21.5 -98t-51.5 -45q-35 -6 -78 -12l-87 -10q-44 -5 -87 -8t-80 -3q-12 0 -23.5 2t-23.5 6z" />
<glyph unicode="&#xb2;" d="M72 49q4 31 12 53.5t31 53.5l194 244q88 105 150.5 189.5t96.5 157t34 146.5q0 90 -46 135t-132 45q-39 0 -78 -8t-74 -19.5t-63.5 -25.5t-46.5 -27q-16 -12 -21 -12q-12 0 -19.5 13.5t-11.5 31.5t-6 35.5t-2 25.5q18 31 54 57.5t85.5 45t107.5 30t120 11.5h2 q90 0 151.5 -24.5t99.5 -66.5t54 -99.5t16 -122.5q0 -12 -1 -25.5t-3 -26.5q-10 -76 -45 -150.5t-88 -148.5q-29 -41 -62 -82l-74 -90l-89 -108l-109 -137q68 -2 143 -3h152q72 0 139.5 4.5t96.5 4.5q-4 -66 -21.5 -105t-40.5 -43q-37 -4 -92 -7t-127 -3q-137 0 -257 1 t-218 7q-8 20 -12 43z" />
<glyph unicode="&#xb3;" d="M90 -2q0 18 2 33.5t6 29.5q0 6 2 5q37 -23 92.5 -37.5t120.5 -14.5q76 0 136.5 24.5t100.5 65.5t60 98q19 51 19 110v12q-2 10 -2 19t-2 19q-12 94 -92 136.5t-197 42.5q-16 0 -35.5 -1t-36.5 -3q-2 10 -4 17t-4 17q6 23 12 42.5t17 35.5q51 20 101 48t88 63t61.5 76 t23.5 90q0 29 -8 56.5t-26.5 48t-49.5 32.5t-76 12q-72 0 -133 -20.5t-106 -50.5q-4 -4 -10.5 -7.5t-10.5 -3.5q-6 0 -12 8q-10 20 -15.5 44t-5.5 47v10q12 25 42 48.5t74 40.5t100.5 28.5t121.5 11.5q92 0 151.5 -25.5t94.5 -63.5t48.5 -84t13.5 -87q0 -90 -45 -164 q-51 -88 -164 -162q131 -25 203.5 -104.5t72.5 -212.5q0 -113 -39 -199t-105.5 -144.5t-156.5 -88t-194 -29.5q-82 0 -131.5 15.5t-71.5 33.5q-20 16 -25.5 37.5t-5.5 44.5z" />
<glyph unicode="&#xb4;" horiz-adv-x="686" d="M217 1204q0 10 2 17l59 81l66 87q33 41 59.5 68.5t36.5 27.5q16 0 35 -9.5t34 -23.5t25.5 -31.5t10.5 -31.5q-4 -6 -23 -25l-61 -60l-66 -65l-63 -61l-51 -50q-23 4 -43.5 27.5t-20.5 48.5z" />
<glyph unicode="&#xb5;" horiz-adv-x="931" d="M92 -344q10 33 17.5 68.5t7.5 85.5v544l-2 310q0 88 -1 152.5t-3 121.5q16 16 53 22.5t115 6.5q10 -35 13 -79t3 -122l-2 -416q0 -70 11 -112.5t30.5 -67.5t49.5 -34t67 -9q9 -1 17 -1q44 0 86 18q50 22 77 55v651q0 33 4 54.5t18 41.5q8 8 18.5 12.5t28 5.5t44 2t67.5 1 q-2 -84 -3 -182.5t-1 -217.5v-348q0 -49 7 -86t17 -67q-12 -16 -81 -48q-6 -2 -15 -2q-29 0 -43 17.5t-20 44.5q-39 -31 -73 -50.5t-69 -29.5q-33 -10 -62.5 -16.5t-64.5 -6.5q-86 4 -139 27v-338q-8 -27 -21.5 -44t-41.5 -17q-8 0 -15 2l-60 28q-26 13 -34 23z" />
<glyph unicode="&#xb6;" horiz-adv-x="1024" d="M82 852q0 115 38 202t101.5 144t148.5 86t177 29h268h78q16 0 16 -14.5t-10 -24.5l-39 -33q-14 -10 -37 -14v-768q0 -53 -1 -102.5t-1 -94.5q-4 -141 -35.5 -232t-101.5 -159q-47 -35 -92 -48t-90 -13q-35 0 -67 5t-64 11q-29 6 -39 35q-4 14 -7 26.5t-6 22.5 q49 -12 87 -12q33 0 61.5 6t58.5 16q92 35 138.5 132.5t46.5 271.5v161l-129 -24q-63 -12 -136 -19q-78 0 -144 27t-115.5 79t-77 128t-27.5 176z" />
<glyph unicode="&#xb7;" horiz-adv-x="413" d="M92 522q0 119 121 119q70 0 89.5 -28.5t16.5 -86.5q-2 -55 -25.5 -91t-94.5 -36q-59 0 -83 30t-24 93z" />
<glyph unicode="&#xb8;" horiz-adv-x="563" d="M156 -371q0 20 26 27q86 29 123 53.5t37 65.5q0 20 -16.5 35.5t-42 24.5t-56 13.5t-59.5 4.5q4 18 9 44.5t16 43.5q20 1 42 1h22q34 -1 65 -10q66 -16 109.5 -57t43.5 -100q0 -53 -27.5 -90t-69.5 -61.5t-89 -38t-86 -19.5q-23 4 -35 26.5t-12 36.5z" />
<glyph unicode="&#xb9;" horiz-adv-x="784" d="M137 1044q16 31 53 66l110 37l108 35l93 28l68 21l23 -9q12 -5 20 -10q-2 -86 -3 -214t-3 -273t-3 -295t-1 -274q18 -10 42 -18l44 -13q20 -6 34.5 -12.5t14.5 -12.5q0 -53 -3 -71.5t-19 -24.5q-16 -4 -32.5 -4t-35.5 -2q-94 -2 -191.5 -3t-185.5 -1q0 18 -1 45t-1 53 q0 12 14.5 20.5t37 16.5t48 14.5t50.5 16.5q4 186 6 415.5t6 471.5q-27 -6 -66 -17l-81 -20l-76 -20q-35 -9 -49 -11q-8 14 -13.5 30.5t-7.5 34.5z" />
<glyph unicode="&#xba;" horiz-adv-x="657" d="M106 999.5q0 165.5 70 242.5t180 77q244 0 244 -311q0 -162 -69.5 -243t-178.5 -81q-119 0 -182.5 75t-63.5 240.5zM225 1006q0 -133 37 -185.5t94 -52.5q25 0 48.5 12.5t41 40t27.5 72.5t10 111q0 127 -34.5 179t-92.5 52h-4q-51 0 -89 -52t-38 -177z" />
<glyph unicode="&#xbb;" horiz-adv-x="923" d="M82 127q0 16 15.5 48t39 69t51.5 77l55 73l44 59q18 25 24 30q-6 10 -41 60l-74 109q-40 60 -72 117.5t-32 82.5q0 18 11.5 32.5t24.5 26t27.5 18.5t20.5 9q16 -29 50 -79l76 -107l85 -117l78 -105q20 -35 20 -57q-23 -35 -68 -96l-96 -128l-96 -126q-45 -59 -63 -90 l-17.5 9t-27 19.5t-24.5 29t-11 36.5zM459 113q0 16 15 48t39 71.5l51 81.5l52 78l43 62q18 26 23 31l-22 33l-42 63q-25 36 -50 77l-48 82q-23 40 -37 73t-14 51q0 16 11.5 30.5t25.5 26t28.5 17.5t20.5 6q14 -25 48 -75l75 -109l83 -120q42 -60 77 -105q18 -35 18 -60 l-66 -97l-94 -133l-92 -131l-61 -89l-19 9q-14 7 -28.5 18t-25.5 27t-11 34z" />
<glyph unicode="&#xbc;" horiz-adv-x="2723" d="M137 1044q16 31 53 66l110 37l108 35l93 28l68 21l23 -9q12 -5 20 -10q-2 -86 -3 -214t-3 -273t-3 -295t-1 -274q18 -10 42 -18l44 -13q20 -6 34.5 -12.5t14.5 -12.5q0 -53 -3 -71.5t-19 -24.5q-16 -4 -32.5 -4t-35.5 -2q-94 -2 -191.5 -3t-185.5 -1q0 18 -1 45t-1 53 q0 12 14.5 20.5t37 16.5t48 14.5t50.5 16.5q4 186 6 415.5t6 471.5q-27 -6 -66 -17l-81 -20l-76 -20q-35 -9 -49 -11q-8 14 -13.5 30.5t-7.5 34.5zM854 -18l79 142l126 216l152 257l159 269l148 251l118 200q20 37 28.5 37t35.5 -17q18 -10 31.5 -24.5t17.5 -34.5 q-20 -39 -70 -122l-113 -194l-143 -243l-156 -264l-154 -260l-136 -230q-31 -51 -41 -51q-4 0 -6 2q-4 4 -16.5 11t-24.5 15.5t-22.5 19t-12.5 20.5zM1853 428q16 39 47 102.5t72 136.5l87 149l92 147q46 70 88 125t75 86q29 27 66 43t65 20q20 0 42 -4t36 -8 q0 -98 -1 -198.5t-1 -197.5v-197q0 -103 -2 -200q41 4 79 6t62 2q4 -16 8.5 -23t4.5 -24q-10 -31 -28.5 -54.5t-57.5 -33.5q-12 -4 -22 -4h-19h-27v-242q0 -29 -9 -46t-44 -23q-23 -4 -58.5 -5t-70.5 -1v172q0 31 1 67.5t1 75.5q-61 0 -124 1t-120.5 3t-105 4t-80.5 6 q-27 25 -39.5 55.5t-16.5 59.5zM2036 440q66 -4 141.5 -6t161.5 -2q4 70 5 146.5t3 142.5q2 63 2 126.5t4 129.5q-47 -57 -93 -126t-88 -140.5t-76.5 -142.5t-59.5 -128z" />
<glyph unicode="&#xbd;" horiz-adv-x="2723" d="M137 1044q16 31 53 66l110 37l108 35l93 28l68 21l23 -9q12 -5 20 -10q-2 -86 -3 -214t-3 -273t-3 -295t-1 -274q18 -10 42 -18l44 -13q20 -6 34.5 -12.5t14.5 -12.5q0 -53 -3 -71.5t-19 -24.5q-16 -4 -32.5 -4t-35.5 -2q-94 -2 -191.5 -3t-185.5 -1q0 18 -1 45t-1 53 q0 12 14.5 20.5t37 16.5t48 14.5t50.5 16.5q4 186 6 415.5t6 471.5q-27 -6 -66 -17l-81 -20l-76 -20q-35 -9 -49 -11q-8 14 -13.5 30.5t-7.5 34.5zM854 -18l79 142l126 216l152 257l159 269l148 251l118 200q20 37 28.5 37t35.5 -17q18 -10 31.5 -24.5t17.5 -34.5 q-20 -39 -70 -122l-113 -194l-143 -243l-156 -264l-154 -260l-136 -230q-31 -51 -41 -51q-4 0 -6 2q-4 4 -16.5 11t-24.5 15.5t-22.5 19t-12.5 20.5zM1886 49q4 31 12.5 53.5t30.5 53.5l195 244q88 105 150.5 189.5t96 157t33.5 146.5q0 90 -46 135t-132 45q-39 0 -78 -8 t-73.5 -19.5t-63.5 -25.5t-47 -27q-16 -12 -20 -12q-12 0 -19.5 13.5t-11.5 31.5t-6 35.5t-2 25.5q18 31 54 57.5t85 45t107.5 30t119.5 11.5h2q90 0 151.5 -24.5t99.5 -66.5t54.5 -99.5t16.5 -122.5q0 -12 -1 -25.5t-3 -26.5q-10 -76 -45 -150.5t-88 -148.5 q-29 -41 -63 -82l-74 -90l-89 -108l-108 -137q68 -2 142 -3h153q72 0 139.5 4.5t95.5 4.5q-4 -66 -21.5 -105t-39.5 -43q-37 -4 -92.5 -7t-126.5 -3q-137 0 -257 1t-219 7q-8 20 -12 43z" />
<glyph unicode="&#xbe;" horiz-adv-x="2848" d="M90 -2q0 18 2 33.5t6 29.5q0 6 2 5q37 -23 92.5 -37.5t120.5 -14.5q76 0 136.5 24.5t100.5 65.5t60 98q19 51 19 110v12q-2 10 -2 19t-2 19q-12 94 -92 136.5t-197 42.5q-16 0 -35.5 -1t-36.5 -3q-2 10 -4 17t-4 17q6 23 12 42.5t17 35.5q51 20 101 48t88 63t61.5 76 t23.5 90q0 29 -8 56.5t-26.5 48t-49.5 32.5t-76 12q-72 0 -133 -20.5t-106 -50.5q-4 -4 -10.5 -7.5t-10.5 -3.5q-6 0 -12 8q-10 20 -15.5 44t-5.5 47v10q12 25 42 48.5t74 40.5t100.5 28.5t121.5 11.5q92 0 151.5 -25.5t94.5 -63.5t48.5 -84t13.5 -87q0 -90 -45 -164 q-51 -88 -164 -162q131 -25 203.5 -104.5t72.5 -212.5q0 -113 -39 -199t-105.5 -144.5t-156.5 -88t-194 -29.5q-82 0 -131.5 15.5t-71.5 33.5q-20 16 -25.5 37.5t-5.5 44.5zM979 -18l79 142l126 216l152 257l159 269l147 251l119 200q20 37 28.5 37t35.5 -17 q18 -10 31.5 -24.5t17.5 -34.5q-20 -39 -70 -122l-113 -194l-143 -243l-156 -264l-154 -260l-136 -230q-31 -51 -41 -51q-4 0 -6 2q-4 4 -16.5 11t-25 15.5t-22.5 19t-12 20.5zM1978 428q16 39 47 102.5t72 136.5l87 149l92 147q46 70 88 125t75 86q29 27 66 43t65 20 q20 0 42 -4t36 -8q0 -98 -1 -198.5t-1 -197.5v-197q0 -103 -2 -200q41 4 79 6t62 2q4 -16 8.5 -23t4.5 -24q-10 -31 -29 -54.5t-57 -33.5q-12 -4 -22 -4h-19h-27v-242q0 -29 -9 -46t-44 -23q-23 -4 -58.5 -5t-70.5 -1v172q0 31 1 67.5t1 75.5q-61 0 -124 1t-120.5 3 t-105.5 4t-80 6q-27 25 -39.5 55.5t-16.5 59.5zM2161 440q66 -4 141.5 -6t161.5 -2q4 70 5 146.5t3 142.5q2 63 2 126.5t4 129.5q-47 -57 -93 -126t-88 -140.5t-76.5 -142.5t-59.5 -128z" />
<glyph unicode="&#xbf;" horiz-adv-x="651" d="M49 -102q0 100 42 176t99 147q49 66 76 120t27 97q0 35 -7 63.5t-7 45.5v4q6 10 27.5 16t43.5 6q29 0 56.5 -18t37.5 -59q10 -45 11 -82q0 -61 -25 -119q-16 -35 -38 -68l-44 -65q-41 -57 -78 -115.5t-37 -124.5q0 -72 40 -104.5t100 -32.5q37 0 76.5 12.5t87.5 40.5 q20 -2 35.5 -28.5t15.5 -81.5q-14 -25 -44 -44.5t-67 -31.5t-78 -18.5t-77 -6.5q-76 0 -128.5 20.5t-84 56.5t-46 85.5t-14.5 108.5zM248 870q2 53 22.5 88t83.5 35q53 0 75 -28.5t22 -90.5q0 -115 -109 -114q-61 0 -79 27q-16 25 -15 72v11z" />
<glyph unicode="&#xc0;" horiz-adv-x="1089" d="M20 6q2 20 6.5 37.5t10.5 34.5l102 296l121 338l117 328q55 158 90 269q10 43 20 43q10 2 21.5 5t21.5 3q16 4 31 4h25q29 -6 39 -21l74 -225l81 -244l80 -240l72 -216l74 -218l57 -173v-4q0 -2 2 -3q0 -6 -8 -14q-18 -6 -53 -10t-62 -4q-18 0 -36.5 6t-43.5 29 q-29 84 -51.5 163.5t-56.5 184.5h-426l-67 -194l-54 -161q-4 -14 -16.5 -21t-47.5 -7q-23 0 -58.5 4t-64.5 10zM281 1698q0 20 8 37q6 16 20.5 32.5t28.5 16.5q4 14 13 24.5t19.5 10.5t42 -19.5t71.5 -49.5l81 -63.5t70 -60.5q10 -10 16 -17t11 -16v-2q0 -6 -6.5 -19 t-14.5 -25.5t-18.5 -23t-16.5 -12.5q-18 8 -54 28l-79 44l-88 51q-45 27 -82 45q-16 11 -22 19zM373 520h338q-23 72 -41.5 138.5t-38.5 127.5q-33 102 -52 176l-34 125l-56 -195q-29 -99 -71 -228z" />
<glyph unicode="&#xc1;" horiz-adv-x="1089" d="M20 6q2 20 6.5 37.5t10.5 34.5l102 296l121 338l117 328q55 158 90 269q10 43 20 43q10 2 21.5 5t21.5 3q16 4 31 4h25q29 -6 39 -21l74 -225l81 -244l80 -240l72 -216l74 -218l57 -173v-4q0 -2 2 -3q0 -6 -8 -14q-18 -6 -53 -10t-62 -4q-18 0 -36.5 6t-43.5 29 q-29 84 -51.5 163.5t-56.5 184.5h-426l-67 -194l-54 -161q-4 -14 -16.5 -21t-47.5 -7q-23 0 -58.5 4t-64.5 10zM373 520h338q-23 72 -41.5 138.5t-38.5 127.5q-33 102 -52 176l-34 125l-56 -195q-29 -99 -71 -228zM424 1548l16 21q8 10 21 20q33 29 75 60.5t81.5 57.5 t72.5 43t45 17q14 -2 27.5 -14t24 -29.5t17.5 -37t11 -33.5q0 -18 -29 -33q-37 -16 -79 -39l-86 -44l-81 -40l-65 -31q-10 2 -19.5 14.5t-16.5 26t-11 25.5t-4 16z" />
<glyph unicode="&#xc2;" horiz-adv-x="1089" d="M20 6q2 20 6.5 37.5t10.5 34.5l102 296l121 338l117 328q55 158 90 269q10 43 20 43q10 2 21.5 5t21.5 3q16 4 31 4h25q29 -6 39 -21l74 -225l81 -244l80 -240l72 -216l74 -218l57 -173v-4q0 -2 2 -3q0 -6 -8 -14q-18 -6 -53 -10t-62 -4q-18 0 -36.5 6t-43.5 29 q-29 84 -51.5 163.5t-56.5 184.5h-426l-67 -194l-54 -161q-4 -14 -16.5 -21t-47.5 -7q-23 0 -58.5 4t-64.5 10zM303 1538l39 44l54 58l59 61l53 54q8 12 28.5 17.5t30.5 5.5q20 -14 53 -43t68 -63l67 -65l54 -53q-10 -27 -33.5 -53t-46.5 -26q-25 0 -45 18q-33 27 -74 70 t-63 63q-39 -47 -76 -82t-63 -55q-2 -2 -7.5 -5l-9.5 -5t-8 -2h-2q-29 8 -50.5 26.5t-27.5 34.5zM373 520h338q-23 72 -41.5 138.5t-38.5 127.5q-33 102 -52 176l-34 125l-56 -195q-29 -99 -71 -228z" />
<glyph unicode="&#xc3;" horiz-adv-x="1089" d="M20 6q2 20 6.5 37.5t10.5 34.5l102 296l121 338l117 328q55 158 90 269q10 43 20 43q10 2 21.5 5t21.5 3q16 4 31 4h25q29 -6 39 -21l74 -225l81 -244l80 -240l72 -216l74 -218l57 -173v-4q0 -2 2 -3q0 -6 -8 -14q-18 -6 -53 -10t-62 -4q-18 0 -36.5 6t-43.5 29 q-29 84 -51.5 163.5t-56.5 184.5h-426l-67 -194l-54 -161q-4 -14 -16.5 -21t-47.5 -7q-23 0 -58.5 4t-64.5 10zM266 1548q31 92 78 142.5t123 50.5q43 0 70 -25l55 -53q14 -14 26.5 -23.5t26.5 -9.5q33 0 50.5 21.5t27.5 58.5q8 20 25 21q10 0 21 -8.5t21.5 -18.5 t17.5 -20.5t9 -14.5q-4 -31 -19.5 -63.5t-39 -59t-56 -44t-71.5 -17.5q-51 0 -76 27.5l-53 56.5q-16 16 -26.5 22t-26.5 6q-47 -10 -76 -77q-12 -23 -23 -23q-12 0 -26.5 7t-26.5 16.5t-21 17.5zM373 520h338q-23 72 -41.5 138.5t-38.5 127.5q-33 102 -52 176l-34 125 l-56 -195q-29 -99 -71 -228z" />
<glyph unicode="&#xc4;" horiz-adv-x="1089" d="M20 6q2 20 6.5 37.5t10.5 34.5l102 296l121 338l117 328q55 158 90 269q10 43 20 43q10 2 21.5 5t21.5 3q16 4 31 4h25q29 -6 39 -21l74 -225l81 -244l80 -240l72 -216l74 -218l57 -173v-4q0 -2 2 -3q0 -6 -8 -14q-18 -6 -53 -10t-62 -4q-18 0 -36.5 6t-43.5 29 q-29 84 -51.5 163.5t-56.5 184.5h-426l-67 -194l-54 -161q-4 -14 -16.5 -21t-47.5 -7q-23 0 -58.5 4t-64.5 10zM279 1612q0 106 102 106q57 0 74 -25q15 -23 14 -66v-11q-2 -51 -21.5 -83t-78.5 -32q-49 0 -69.5 27t-20.5 84zM373 520h338q-23 72 -41.5 138.5t-38.5 127.5 q-33 102 -52 176l-34 125l-56 -195q-29 -99 -71 -228zM621 1612q0 106 102 106q57 0 74 -25q15 -23 14 -66v-11q-2 -51 -21.5 -83t-78.5 -32q-49 0 -69.5 27t-20.5 84z" />
<glyph unicode="&#xc5;" horiz-adv-x="1089" d="M20 6q2 20 6.5 37.5t10.5 34.5l102 296l121 338l117 328q55 158 90 269q10 43 20 43q10 2 21.5 5t21.5 3q16 4 31 4h25q29 -6 39 -21l74 -225l81 -244l80 -240l72 -216l74 -218l57 -173v-4q0 -2 2 -3q0 -6 -8 -14q-18 -6 -53 -10t-62 -4q-18 0 -36.5 6t-43.5 29 q-29 84 -51.5 163.5t-56.5 184.5h-426l-67 -194l-54 -161q-4 -14 -16.5 -21t-47.5 -7q-23 0 -58.5 4t-64.5 10zM344 1669q0 84 56.5 144.5t148.5 60.5q45 0 81 -17.5t62.5 -45t41 -63.5t14.5 -75q0 -86 -58.5 -143t-148.5 -57q-80 0 -138.5 54t-58.5 142zM373 520h338 q-23 72 -41.5 138.5t-38.5 127.5q-33 102 -52 176l-34 125l-56 -195q-29 -99 -71 -228zM444 1671q0 -47 30 -77.5t73 -30.5q47 0 74.5 32.5t27.5 75.5t-27.5 77t-76.5 34q-45 0 -73 -34t-28 -77z" />
<glyph unicode="&#xc6;" horiz-adv-x="1439" d="M31 16l82 179l94 207l101 224l103 223l95 211l84 183l19 45q9 20 18 43q18 10 54 16.5t69 8.5h596q-2 -70 -10.5 -97.5t-26.5 -37.5q-33 -4 -76 -7.5t-96 -3.5h-226q4 -109 10.5 -214t10.5 -214h385q-8 -86 -23.5 -115.5t-50.5 -29.5h-305l12 -246q6 -123 11 -246 q35 -4 82 -5t102 -1h136q71 0 122 4l2 -2q-4 -78 -19.5 -106.5t-48.5 -36.5q-41 -2 -96 -3t-133 -1q-104 0 -181 3t-128 7q-4 20 -7.5 39.5l-7.5 40.5l-12 194q-6 95 -10 193h-346l-76 -167l-56 -124l-40 -92q-16 -39 -31 -70q-6 -14 -16.5 -23t-42.5 -9q-23 0 -37.5 3 t-30.5 7q-10 4 -25 9zM473 612h281l-19 584l-50 -110l-58 -136l-83 -179z" />
<glyph unicode="&#xc7;" horiz-adv-x="952" d="M70 643q0 397 176 588q84 90 182 122.5t203 32.5q63 0 112.5 -11t84 -26.5t56 -33t27.5 -31.5q0 -35 -8 -60.5t-20 -41.5h-9q-10 -2 -24 4l-33 14q-43 20 -96 29q-16 2 -31.5 3t-34.5 1h-21q-11 0 -22 -2q-72 -6 -135 -41t-110.5 -104.5t-76 -176t-28.5 -254.5 q0 -270 98.5 -396t278.5 -126q74 0 142.5 18.5t103.5 41.5q12 -23 16 -64q-6 -59 -47 -94q-29 -25 -94.5 -45.5t-149.5 -20.5q-125 0 -224 33t-170 112t-108.5 207.5t-37.5 321.5zM428 -371q0 20 27 27q86 29 122.5 53.5t36.5 65.5q0 20 -16 35.5t-42 24.5t-56.5 13.5 t-59.5 4.5l9.5 44.5t15.5 43.5q20 1 42 1h22q34 -1 65 -10q66 -16 110 -57t44 -100q0 -53 -28 -90t-70 -61.5t-89 -38t-86 -19.5q-23 4 -35 26.5t-12 36.5z" />
<glyph unicode="&#xc8;" horiz-adv-x="788" d="M119 1325q16 4 42.5 16.5t61.5 14.5h496q-4 -74 -13.5 -100.5t-31.5 -36.5q-37 -6 -83 -7.5t-106 -1.5h-182v-417h381q-6 -49 -12 -78t-15.5 -44.5t-21.5 -20.5t-31 -5h-301v-500q31 -4 77 -5t95 -1h135q72 0 133 4l2 -2q-8 -78 -22 -106.5t-45 -36.5q-41 -2 -98.5 -3 t-143.5 -1q-96 0 -173 3t-126 7q-4 23 -7 42.5t-7 41.5v981v131q0 64 -4 125zM180 1694q0 18 8 35q6 16 20.5 32.5t29.5 16.5q4 14 13 24t19.5 10t42 -19t71.5 -49l81 -63.5t70 -60.5q10 -8 16 -16.5t10 -16.5q0 -6 -6 -18.5t-14.5 -25.5t-17.5 -24.5t-17 -13.5 q-18 8 -54 28l-79 44l-88 51q-45 27 -82 45q-19 15 -23 21z" />
<glyph unicode="&#xc9;" horiz-adv-x="788" d="M119 1325q16 4 42.5 16.5t61.5 14.5h496q-4 -74 -13.5 -100.5t-31.5 -36.5q-37 -6 -83 -7.5t-106 -1.5h-182v-417h381q-6 -49 -12 -78t-15.5 -44.5t-21.5 -20.5t-31 -5h-301v-500q31 -4 77 -5t95 -1h135q72 0 133 4l2 -2q-8 -78 -22 -106.5t-45 -36.5q-41 -2 -98.5 -3 t-143.5 -1q-96 0 -173 3t-126 7q-4 23 -7 42.5t-7 41.5v981v131q0 64 -4 125zM322 1548l16 21q8 10 20 20q33 29 75 60.5t82 57.5t73 43t45 17q14 -2 27.5 -14t23.5 -29.5t17.5 -37t11.5 -33.5q0 -18 -29 -33q-37 -16 -80 -39l-86 -44l-81 -40l-64 -31q-10 2 -19.5 14.5 t-16.5 26t-11 25.5t-4 16z" />
<glyph unicode="&#xca;" horiz-adv-x="788" d="M119 1325q16 4 42.5 16.5t61.5 14.5h496q-4 -74 -13.5 -100.5t-31.5 -36.5q-37 -6 -83 -7.5t-106 -1.5h-182v-417h381q-6 -49 -12 -78t-15.5 -44.5t-21.5 -20.5t-31 -5h-301v-500q31 -4 77 -5t95 -1h135q72 0 133 4l2 -2q-8 -78 -22 -106.5t-45 -36.5q-41 -2 -98.5 -3 t-143.5 -1q-96 0 -173 3t-126 7q-4 23 -7 42.5t-7 41.5v981v131q0 64 -4 125zM172 1538l39 44l54 58l59 61l53 54q8 12 28.5 17.5t30.5 5.5q20 -14 53 -43t68 -63l67 -65l54 -53q-10 -27 -33.5 -53t-46.5 -26q-25 0 -45 18q-33 27 -74 70t-63 63q-39 -47 -76 -82t-64 -55 q-2 -2 -7 -5t-9 -5t-8 -2h-2q-29 8 -50.5 26.5t-27.5 34.5z" />
<glyph unicode="&#xcb;" horiz-adv-x="788" d="M119 1325q16 4 42.5 16.5t61.5 14.5h496q-4 -74 -13.5 -100.5t-31.5 -36.5q-37 -6 -83 -7.5t-106 -1.5h-182v-417h381q-6 -49 -12 -78t-15.5 -44.5t-21.5 -20.5t-31 -5h-301v-500q31 -4 77 -5t95 -1h135q72 0 133 4l2 -2q-8 -78 -22 -106.5t-45 -36.5q-41 -2 -98.5 -3 t-143.5 -1q-96 0 -173 3t-126 7q-4 23 -7 42.5t-7 41.5v981v131q0 64 -4 125zM154 1612q0 106 102 106q57 0 74 -25q15 -23 14 -66v-11q-2 -51 -21.5 -83t-78.5 -32q-49 0 -69.5 27t-20.5 84zM496 1612q0 106 102 106q57 0 74 -25q15 -23 14 -66v-11q-2 -51 -21.5 -83 t-78.5 -32q-49 0 -69.5 27t-20.5 84z" />
<glyph unicode="&#xcc;" horiz-adv-x="423" d="M-29 1694q0 18 9 35q6 16 19 32.5t28 16.5q4 14 13 24t19.5 10t42 -19t71.5 -49l81 -63.5t70 -60.5q20 -16 26 -33v-2q0 -6 -6 -19.5t-14 -25.5t-18.5 -22.5t-16.5 -12.5q-18 8 -54 28l-79 44l-87 51q-44 27 -81 45q-17 11 -23 21zM117 1313q12 31 52 39t116 8 q12 0 15 -32t3 -103q0 -123 -1 -264.5t-1 -276.5q0 -133 1 -254t1 -219q0 -86 1 -131t1 -62q-12 -16 -51 -20t-115 -4q-18 0 -18 39q0 117 1 288t1 359q0 117 -1 230.5t-1 205.5q0 84 -1 133.5t-3 63.5z" />
<glyph unicode="&#xcd;" horiz-adv-x="423" d="M76 1548l16 21q8 10 21 20q33 29 74.5 60.5t81.5 57.5t73 43t45 17q14 -2 27.5 -14t24 -29.5t17.5 -37t11 -33.5q0 -18 -29 -33q-37 -16 -80 -39l-86 -44l-81 -40l-64 -31q-10 2 -19.5 14.5t-16.5 26t-11 25.5t-4 16zM117 1313q12 31 52 39t116 8q12 0 15 -32t3 -103 q0 -123 -1 -264.5t-1 -276.5q0 -133 1 -254t1 -219q0 -86 1 -131t1 -62q-12 -16 -51 -20t-115 -4q-18 0 -18 39q0 117 1 288t1 359q0 117 -1 230.5t-1 205.5q0 84 -1 133.5t-3 63.5z" />
<glyph unicode="&#xce;" horiz-adv-x="423" d="M-33 1538l39 44l54 58l59 61l53 54q8 12 28.5 17.5t30.5 5.5q20 -14 53 -43t68 -63l67 -65l54 -53q-10 -27 -33.5 -53t-46.5 -26q-25 0 -45 18q-33 27 -74 70t-63 63q-39 -47 -76 -82t-63 -55q-2 -2 -7.5 -5l-9.5 -5t-8 -2h-2q-29 8 -50.5 26.5t-27.5 34.5zM117 1313 q12 31 52 39t116 8q12 0 15 -32t3 -103q0 -123 -1 -264.5t-1 -276.5q0 -133 1 -254t1 -219q0 -86 1 -131t1 -62q-12 -16 -51 -20t-115 -4q-18 0 -18 39q0 117 1 288t1 359q0 117 -1 230.5t-1 205.5q0 84 -1 133.5t-3 63.5z" />
<glyph unicode="&#xcf;" horiz-adv-x="423" d="M-57 1608q0 45 26.5 75.5t73.5 30.5h2q49 0 72.5 -30.5t23.5 -71.5q0 -47 -26.5 -77t-73.5 -30t-72.5 26t-25.5 77zM117 1313q12 31 52 39t116 8q12 0 15 -32t3 -103q0 -123 -1 -264.5t-1 -276.5q0 -133 1 -254t1 -219q0 -86 1 -131t1 -62q-12 -16 -51 -20t-115 -4 q-18 0 -18 39q0 117 1 288t1 359q0 117 -1 230.5t-1 205.5q0 84 -1 133.5t-3 63.5zM285 1608q0 45 26.5 75.5t75.5 30.5q51 0 73.5 -30.5t22.5 -71.5q0 -47 -26.5 -77t-73.5 -30t-72.5 26t-25.5 77z" />
<glyph unicode="&#xd0;" horiz-adv-x="1079" d="M0 657q2 72 11 106t38 34h74v407q0 61 4 89t20 50l51 5.5t73 6.5t83 5t82 2q170 0 280.5 -47t176 -132t91.5 -201t26 -253q0 -211 -42 -358.5t-145 -245.5q-45 -41 -94 -67.5t-99 -42t-98.5 -20.5t-89.5 -5q-90 0 -164.5 5t-154.5 15v647h-123zM303 145q31 -4 68 -7 t78 -3q66 0 130 23.5t116.5 88t84 181.5t31.5 301q0 233 -70.5 344t-210.5 133q-55 12 -122 13q-61 0 -105 -7v-415h256q-2 -70 -10 -105t-41 -35h-205v-512z" />
<glyph unicode="&#xd1;" horiz-adv-x="1140" d="M98 1325v6q0 8 2 12q8 4 25.5 7.5t39 5.5t42 3t33.5 1q31 0 61 -19l83 -150l105 -183l56 -96l55 -99l70 -125q53 -100 101 -203l83 -182v16v22q0 11 -2 21q-2 35 -4 80t-3 95l-2 97q-1 48 -1 91v502q0 39 4 63.5t14 46.5q12 8 23.5 13.5t27 7.5t39.5 2h66 q-2 -92 -3 -196.5t-1 -227.5v-916q-4 -4 -32 -18t-56 -14q-14 0 -41 2t-43 8l-141 248l-152 268l-84 154l-67 140l-66 144l-26 56l-23 51q6 -117 9 -237t5 -208v-483q0 -41 -4 -64.5t-15 -46.5q-8 -10 -18 -15t-27.5 -7t-44 -3t-67.5 -1q2 90 3 194.5t1 227.5v874 q-6 8 -15.5 19.5t-9.5 15.5zM293 1548q31 92 78 142.5t123 50.5q43 0 69 -25l55 -53q14 -14 26.5 -23.5t27.5 -9.5q33 0 50 21.5t28 58.5q8 20 24 21q10 0 21.5 -8.5t21.5 -18.5t17.5 -20.5t9.5 -14.5q-4 -31 -19.5 -63.5t-39 -59t-56.5 -44t-72 -17.5q-51 0 -75.5 27.5 t-53.5 56.5q-16 16 -26 22t-27 6q-47 -10 -76 -77q-12 -23 -22 -23q-12 0 -26.5 7t-27 16.5t-20.5 17.5z" />
<glyph unicode="&#xd2;" horiz-adv-x="1171" d="M66 674q0 354 135 533t391 179q131 0 228.5 -47t160.5 -136t94 -219t31 -294q0 -342 -130 -531.5t-396 -189.5q-139 0 -236.5 49.5t-159 140.5t-90 221t-28.5 294zM264 664q0 -274 91 -408.5t235 -134.5q150 0 235.5 136t85.5 427q0 145 -24.5 249.5t-68.5 171 t-103.5 98.5t-128.5 32h-2q-143 0 -231.5 -137t-88.5 -434zM350 1700q0 20 8 37q6 16 20.5 31.5t29.5 15.5q4 14 13 25.5t19.5 11.5t42 -19.5t71.5 -49.5l81 -63.5t70 -60.5q16 -18 26 -33q0 -6 -6 -18t-14.5 -25.5t-17.5 -24.5t-17 -14q-18 8 -54 28l-79 44l-88 50l-82 46 q-17 11 -23 19z" />
<glyph unicode="&#xd3;" horiz-adv-x="1171" d="M66 674q0 354 135 533t391 179q131 0 228.5 -47t160.5 -136t94 -219t31 -294q0 -342 -130 -531.5t-396 -189.5q-139 0 -236.5 49.5t-159 140.5t-90 221t-28.5 294zM264 664q0 -274 91 -408.5t235 -134.5q150 0 235.5 136t85.5 427q0 145 -24.5 249.5t-68.5 171 t-103.5 98.5t-128.5 32h-2q-143 0 -231.5 -137t-88.5 -434zM457 1554l16 21q8 10 21 20q33 29 74.5 61t81.5 57.5t73 43t45 17.5q14 -2 27.5 -14.5t23.5 -30t17.5 -37t11.5 -33.5q0 -18 -29 -33q-37 -16 -80 -39l-86 -44l-81 -40l-64 -30q-10 2 -19.5 14t-16.5 25.5 t-11 25.5t-4 16z" />
<glyph unicode="&#xd4;" horiz-adv-x="1171" d="M66 674q0 354 135 533t391 179q131 0 228.5 -47t160.5 -136t94 -219t31 -294q0 -342 -130 -531.5t-396 -189.5q-139 0 -236.5 49.5t-159 140.5t-90 221t-28.5 294zM264 664q0 -274 91 -408.5t235 -134.5q150 0 235.5 136t85.5 427q0 145 -24.5 249.5t-68.5 171 t-103.5 98.5t-128.5 32h-2q-143 0 -231.5 -137t-88.5 -434zM342 1544l39 44l54 59l59 60l53 54q8 12 28.5 17.5t30.5 5.5q20 -14 53 -43t68 -63l67 -65q32 -32 54 -52q-10 -27 -33.5 -53.5t-46.5 -26.5q-25 0 -45 18q-33 27 -74 70t-63 63q-39 -47 -76 -81.5t-64 -55.5 q-2 -2 -7 -5t-9 -5t-8 -2h-2q-29 8 -50.5 26.5t-27.5 34.5z" />
<glyph unicode="&#xd5;" horiz-adv-x="1171" d="M66 674q0 354 135 533t391 179q131 0 228.5 -47t160.5 -136t94 -219t31 -294q0 -342 -130 -531.5t-396 -189.5q-139 0 -236.5 49.5t-159 140.5t-90 221t-28.5 294zM264 664q0 -274 91 -408.5t235 -134.5q150 0 235.5 136t85.5 427q0 145 -24.5 249.5t-68.5 171 t-103.5 98.5t-128.5 32h-2q-143 0 -231.5 -137t-88.5 -434zM305 1548q31 92 78 142.5t123 50.5q43 0 69 -25l56 -53q14 -14 26.5 -23.5t26.5 -9.5q33 0 50.5 21.5t27.5 58.5q8 20 24 21q10 0 21.5 -8.5t22 -18.5t17.5 -20.5t9 -14.5q-4 -31 -19.5 -63.5t-39 -59t-56 -44 t-71.5 -17.5q-51 0 -76 27.5l-53 56.5q-16 16 -26.5 22t-27.5 6q-47 -10 -75 -77q-12 -23 -23 -23q-12 0 -26.5 7t-26.5 16.5t-21 17.5z" />
<glyph unicode="&#xd6;" horiz-adv-x="1171" d="M68 674q0 354 135 533t391 179q131 0 228.5 -47t161 -136t94 -219t30.5 -294q0 -342 -130 -531.5t-396 -189.5q-139 0 -236.5 49.5t-159 140.5t-90 221t-28.5 294zM266 664q0 -274 91.5 -408.5t234.5 -134.5q150 0 235.5 136t85.5 427q0 145 -24.5 249.5t-68.5 171 t-103.5 98.5t-128.5 32h-2q-143 0 -231.5 -137t-88.5 -434zM322 1612q0 106 102 106q57 0 74 -25q15 -23 14 -66v-11q-2 -51 -21.5 -83t-78.5 -32q-49 0 -69.5 27t-20.5 84zM664 1612q0 106 102 106q57 0 74 -25q15 -23 14 -66v-11q-2 -51 -21.5 -83t-78.5 -32 q-49 0 -69.5 27t-20.5 84z" />
<glyph unicode="&#xd7;" horiz-adv-x="1021" d="M158 803q8 33 28 59q33 43 72 43l124 -131l124 -131l104 110l105 109l28 28q16 15 27 15q14 0 37 -18q16 -14 33.5 -33.5t27.5 -34.5l-132 -140l-132 -140l114 -119l113 -119q10 -10 18 -21l13 -22q-16 -29 -35 -47q-37 -43 -73 -43l-124 134l-126 132l-123 -132 l-123 -134q-16 0 -32.5 10t-39.5 35q-12 16 -17 31.5t-7 31.5l123 132l123 131l-125 132z" />
<glyph unicode="&#xd8;" horiz-adv-x="1214" d="M86 672q0 209 48 354t140 231q129 129 338 129q92 0 168 -23.5t135 -76.5l31 50l29 46q20 31 26 35h7q27 0 53 -22.5t29 -40.5q-4 -14 -15 -37l-22 -48q-12 -26 -27 -52l-27 -50q66 -92 96.5 -214t30.5 -263q0 -170 -30.5 -304t-95 -226t-164 -141.5t-234.5 -49.5 q-96 0 -174 24.5t-135 78.5l-44 -73q-22 -34 -38 -56q-10 -8 -25 -9q-20 0 -34 13q-14 10 -25.5 23.5t-15.5 29.5l44 80l58 100q-70 94 -98.5 222.5t-28.5 269.5zM281 657q0 -102 16 -185t45 -144l461 829q-72 78 -199 78q-70 0 -129 -34t-102 -104.5t-67.5 -180 t-24.5 -259.5zM408 201q80 -80 194 -80q74 0 135.5 27.5t105.5 94t68.5 175t24.5 270.5q0 104 -17.5 190.5t-48.5 149.5l-116 -211l-122 -223l-118 -213q-57 -102 -106 -180z" />
<glyph unicode="&#xd9;" horiz-adv-x="1130" d="M113 1333q12 16 51 21.5t117 5.5q14 -25 17 -58.5t3 -95.5v-567q0 -66 3 -121t11 -106q23 -135 80.5 -215t177.5 -80q100 0 148.5 14t73.5 31q23 104 32 231t9 256l2 561q0 41 5 71t15 56q12 8 22.5 12.5t27 6.5t41 3t65.5 1q-2 -80 -3 -175t-1 -210v-326 q0 -166 -13.5 -301t-42.5 -252q-59 -72 -165.5 -99.5t-227.5 -27.5q-117 0 -195.5 33t-128 91.5t-75.5 138.5q-25 80 -35 174q-4 51 -7 104t-3 113v389q0 100 -1 179t-3 142zM313 1686q0 8 5.5 21t12.5 27.5t17 24.5t23 10q6 14 14 24.5t18.5 10.5t42 -19.5t71.5 -49 t81 -63.5l70 -60q20 -16 26 -33v-2q0 -10 -14 -35q-10 -16 -19.5 -28.5t-19.5 -16.5q-18 8 -54 28l-79 44l-88 51q-45 27 -82 45q-21 13 -25 21z" />
<glyph unicode="&#xda;" horiz-adv-x="1130" d="M113 1333q12 16 51 21.5t117 5.5q14 -25 17 -58.5t3 -95.5v-567q0 -66 3 -121t11 -106q23 -135 80.5 -215t177.5 -80q100 0 148.5 14t73.5 31q23 104 32 231t9 256l2 561q0 41 5 71t15 56q12 8 22.5 12.5t27 6.5t41 3t65.5 1q-2 -80 -3 -175t-1 -210v-326 q0 -166 -13.5 -301t-42.5 -252q-59 -72 -165.5 -99.5t-227.5 -27.5q-117 0 -195.5 33t-128 91.5t-75 138t-35.5 174.5q-4 51 -7 104t-3 113v389q0 100 -1 179t-3 142zM422 1548l16 21q8 10 21 20q33 29 74.5 60.5t81.5 57.5t73 43t45 17q14 -2 27.5 -14t24 -29.5t17.5 -37 t11 -33.5q0 -18 -29 -33q-37 -16 -79 -39l-87 -44l-80 -40l-65 -31q-10 2 -19.5 14.5t-16.5 26t-11 25.5t-4 16z" />
<glyph unicode="&#xdb;" horiz-adv-x="1130" d="M113 1333q12 16 51 21.5t117 5.5q14 -25 17 -58.5t3 -95.5v-567q0 -66 3 -121t11 -106q23 -135 80.5 -215t177.5 -80q100 0 148.5 14t73.5 31q23 104 32 231t9 256l2 561q0 41 5 71t15 56q12 8 22.5 12.5t27 6.5t41 3t65.5 1q-2 -80 -3 -175t-1 -210v-326 q0 -166 -13.5 -301t-42.5 -252q-59 -72 -165.5 -99.5t-227.5 -27.5q-117 0 -195.5 33t-128 91.5t-75 138t-35.5 174.5q-4 51 -7 104t-3 113v389q0 100 -1 179t-3 142zM319 1536l39 44l55 58l58 61l53 54q8 12 28.5 17.5t31.5 5.5q20 -14 53 -43t68 -63l66 -65l54 -53 q-10 -27 -33.5 -53t-46.5 -26q-25 0 -45 18q-33 27 -73.5 70t-63.5 63q-39 -47 -75.5 -82t-63.5 -55q-2 -2 -7 -5t-9.5 -5t-8.5 -2h-2q-29 8 -50.5 26.5t-27.5 34.5z" />
<glyph unicode="&#xdc;" horiz-adv-x="1130" d="M113 1333q12 16 51 21.5t117 5.5q14 -25 17 -58.5t3 -95.5v-567q0 -66 3 -121t11 -106q23 -135 80.5 -215t177.5 -80q100 0 148.5 14t73.5 31q23 104 32 231t9 256l2 561q0 41 5 71t15 56q12 8 22.5 12.5t27 6.5t41 3t65.5 1q-2 -80 -3 -175t-1 -210v-326 q0 -166 -13.5 -301t-42.5 -252q-59 -72 -165.5 -99.5t-227.5 -27.5q-117 0 -195.5 33t-128 91.5t-75 138t-35.5 174.5q-4 51 -7 104t-3 113v389q0 100 -1 179t-3 142zM303 1612q1 106 103 106q57 0 73 -25q15 -23 15 -66v-11q-2 -51 -21.5 -83t-79.5 -32q-49 0 -69.5 27 t-20.5 84zM645 1612q0 106 103 106q57 0 73 -25q15 -23 15 -66v-11q-2 -51 -21.5 -83t-79.5 -32q-49 0 -69.5 27t-20.5 84z" />
<glyph unicode="&#xdd;" horiz-adv-x="946" d="M23 1331q0 8 17 11.5t79 3.5h102q12 -29 35 -77l48 -106l53 -117l53 -115l44 -98q19 -44 29 -65l269 578q16 6 30.5 9t32.5 3q16 0 39 -1t57 -5q4 -16 4 -25q0 -18 -6 -34.5t-16 -39.5q-23 -53 -65 -132l-88 -162l-87 -157q-41 -75 -59 -118q-10 -25 -17.5 -51.5 t-11.5 -50.5v-299q0 -86 1 -150.5t1 -112.5q-6 -8 -16 -14t-28.5 -9t-48.5 -4t-75 -1q-16 39 -16 92v481v27q0 10 -4 20q-16 45 -43 103.5t-66 132.5l-125 244l-120 235zM375 1538v2q12 18 35 41q33 29 74.5 60.5t81.5 57t73 43t45 17.5q14 -2 28.5 -14t25 -29.5t17.5 -37 t11 -33.5q0 -18 -29 -33q-37 -16 -80 -39l-86 -44l-81 -40l-64 -31q-12 4 -21.5 16.5t-17.5 28.5q-12 21 -12 35z" />
<glyph unicode="&#xdf;" horiz-adv-x="1017" d="M72 969q10 10 24.5 18l34.5 19v27q0 13 2 28q10 104 55 177t119 116q51 31 109.5 44t118.5 13q16 0 33.5 -1t33.5 -3q76 -6 131 -32.5t92 -66.5t55.5 -89.5t18.5 -104.5q0 -59 -20.5 -96t-44.5 -60l-62 -43q-31 -20 -55.5 -42.5t-39.5 -48t-15 -56.5q0 -35 23.5 -67.5 t57.5 -65.5l62 -50q33 -28 61 -57q51 -49 82 -108.5t31 -136.5q0 -74 -25.5 -131.5t-70.5 -96.5t-106.5 -59.5t-135.5 -20.5q-92 0 -152.5 22.5t-76.5 49.5q2 49 24 84q16 25 45 25q23 -12 60 -26.5t86 -14.5q35 0 66.5 10t55 29.5t35 47t7 62.5t-19.5 65.5t-38 57.5 q-35 41 -75 80l-76 74q-43 41 -73 91t-30 113q0 78 53.5 138.5t137.5 113.5q18 20 32.5 48t14.5 61q0 68 -36 109.5t-101 52.5q-29 6 -58 6q-10 0 -21.5 -1t-23.5 -3q-78 -12 -116.5 -74.5t-49.5 -185.5q-6 -104 -6 -222q2 -184 2 -351t2 -333q0 -31 -1 -56t-5 -48 q-16 -12 -46 -16t-64 -4q-37 0 -54.5 6t-17.5 8q0 6 4 26.5t4 57.5q0 59 1 117.5t1 117.5q0 123 -1 247t-1 253q-33 33 -45 73t-12 83z" />
<glyph unicode="&#xe0;" horiz-adv-x="808" d="M49 248q0 -72 21.5 -122t57.5 -84t82 -49.5t95 -15.5q41 0 78 5.5t72 21.5q16 10 32.5 23.5t26.5 23.5q16 -23 51 -48.5t72 -25.5q41 2 68.5 16.5t39.5 31.5v31q0 22 3 44q-25 -4 -37.5 10.5t-16.5 32.5q-6 23 -4 52q0 82 2 194.5t2 218.5v92q0 131 -43 204t-157 81 q-27 2 -37 2h-35q-102 -4 -186 -35.5t-117 -62.5q-4 -12 -4 -23q0 -16 2 -22q4 -18 10 -42t20 -40q23 0 60 16q45 18 103.5 35.5t111.5 17.5q66 0 82 -36.5t16 -106.5v-117q-29 6 -67 7h-28q-13 0 -30 -3q-47 -4 -106.5 -20t-112.5 -53t-90 -98.5t-37 -155.5zM229 264 q0 49 14.5 82t40 54.5t58.5 33.5t70 19q16 2 32.5 3t34.5 1h21q10 0 20 -2v-146v-56q0 -24 -4 -42q-2 -10 -3 -17.5t-3 -11.5q-23 -27 -67 -45t-91 -18h-14q-47 4 -78 35.5t-31 109.5zM238 1397q0 14 10 31.5t25.5 32t34 23.5t34.5 9q10 0 37 -27.5t59 -68.5l67 -87l58 -81 q2 -6 2 -17q0 -25 -20.5 -48t-42.5 -27l-52 49l-63 61l-66 65q-34 32 -61 60q-18 19 -22 25z" />
<glyph unicode="&#xe1;" horiz-adv-x="808" d="M49 248q0 94 37 155.5t90 98.5t112.5 53t106.5 20q16 2 30 3h28q39 0 67 -7v117q0 70 -16.5 106.5t-81.5 36.5q-53 0 -111.5 -17t-103.5 -36q-37 -16 -60 -16q-14 16 -20 39.5t-10 42.5q-2 6 -2 22q0 10 4 23q33 31 116.5 62.5t186.5 35.5h35q10 0 37 -2 q115 -8 157.5 -81t42.5 -204v-92q0 -106 -2 -219t-2 -194q-2 -29 4 -52q4 -18 16.5 -32.5t37.5 -10.5q-2 -23 -3 -44v-31q-12 -16 -39.5 -30.5t-68.5 -17.5q-37 0 -72 26t-51 48q-10 -10 -26.5 -23.5t-32.5 -23.5q-35 -16 -72 -21.5t-78 -5.5q-49 0 -95 15.5t-82 49.5 t-57.5 84t-21.5 122zM229 264q0 -78 31 -109.5t78 -35.5h14q47 0 91 18.5t67 44.5q2 4 3 11.5t3 17.5q4 18 4 42v56v146q-10 2 -20 2h-21q-18 0 -34.5 -1t-32.5 -3q-37 -6 -70 -18.5t-58.5 -34t-40 -54.5t-14.5 -82zM287 1214q0 10 2 17l58 81l67 87q33 41 59.5 68.5 t36.5 27.5q16 0 34.5 -9t34 -23.5t25.5 -32t10 -31.5q-4 -6 -22 -25l-62 -60l-65 -65l-64 -61l-51 -49q-23 4 -43 27t-20 48z" />
<glyph unicode="&#xe2;" horiz-adv-x="808" d="M49 248q0 94 37 155.5t90 98.5t112.5 53t106.5 20q16 2 30 3h28q39 0 67 -7v117q0 70 -16.5 106.5t-81.5 36.5q-53 0 -111.5 -17t-103.5 -36q-37 -16 -60 -16q-14 16 -20 39.5t-10 42.5q-2 6 -2 22q0 10 4 23q33 31 116.5 62.5t186.5 35.5h35q10 0 37 -2 q115 -8 157.5 -81t42.5 -204v-92q0 -106 -2 -219t-2 -194q-2 -29 4 -52q4 -18 16.5 -32.5t37.5 -10.5q-2 -23 -3 -44v-31q-12 -16 -39.5 -30.5t-68.5 -17.5q-37 0 -72 26t-51 48q-10 -10 -26.5 -23.5t-32.5 -23.5q-35 -16 -72 -21.5t-78 -5.5q-49 0 -95 15.5t-82 49.5 t-57.5 84t-21.5 122zM170 1198q23 49 70 116l92 130q23 27 41 37q27 12 49 12l49 -55q31 -35 63 -75l61 -80q30 -40 48 -69q-14 -23 -38.5 -46t-47.5 -23q-18 0 -39 24q-16 18 -35 42l-34 46l-31 43q-14 20 -23 35q-27 -45 -52.5 -81.5l-53.5 -73.5q-10 -14 -22.5 -23.5 t-16.5 -9.5q-25 10 -47.5 22.5t-32.5 28.5zM229 264q0 -78 31 -109.5t78 -35.5h14q47 0 91 18.5t67 44.5q2 4 3 11.5t3 17.5q4 18 4 42v56v146q-10 2 -20 2h-21q-18 0 -34.5 -1t-32.5 -3q-37 -6 -70 -18.5t-58.5 -34t-40 -54.5t-14.5 -82z" />
<glyph unicode="&#xe3;" horiz-adv-x="813" d="M49 248q0 94 37 155.5t90 98.5t112.5 53t106.5 20q16 2 30 3h28q39 0 67 -7v117q0 70 -16.5 106.5t-81.5 36.5q-53 0 -111.5 -17t-103.5 -36q-37 -16 -60 -16q-14 16 -20 39.5t-10 42.5q-2 6 -2 22q0 10 4 23q33 31 116.5 62.5t186.5 35.5h35q10 0 37 -2 q115 -8 157.5 -81t42.5 -204v-92q0 -106 -2 -219t-2 -194q-2 -29 4 -52q4 -18 16.5 -32.5t37.5 -10.5q-2 -23 -3 -44v-31q-12 -16 -39.5 -30.5t-68.5 -17.5q-37 0 -72 26t-51 48q-10 -10 -26.5 -23.5t-32.5 -23.5q-35 -16 -72 -21.5t-78 -5.5q-49 0 -95 15.5t-82 49.5 t-57.5 84t-21.5 122zM119 1217q31 92 78 142t122 50q43 0 70 -25l55 -53q14 -14 26.5 -23.5t27.5 -9.5q33 0 50 21.5t27 58.5q8 20 25 21q10 0 21.5 -8.5t21.5 -18.5t17.5 -20.5t9.5 -14.5q-4 -31 -19.5 -63.5t-39 -59t-56.5 -44t-72 -17.5q-51 0 -75.5 27.5t-53.5 56.5 q-16 16 -26.5 22.5t-26.5 6.5q-47 -10 -76 -78q-12 -23 -22 -23q-12 0 -26.5 7.5t-27 16.5t-20.5 17zM229 264q0 -78 31 -109.5t78 -35.5h14q47 0 91 18.5t67 44.5q2 4 3 11.5t3 17.5q4 18 4 42v56v146q-10 2 -20 2h-21q-18 0 -34.5 -1t-32.5 -3q-37 -6 -70 -18.5t-58.5 -34 t-40 -54.5t-14.5 -82z" />
<glyph unicode="&#xe4;" horiz-adv-x="808" d="M49 248q0 94 37 155.5t90 98.5t112.5 53t106.5 20q16 2 30 3h28q39 0 67 -7v117q0 70 -16.5 106.5t-81.5 36.5q-53 0 -111.5 -17t-103.5 -36q-37 -16 -60 -16q-14 16 -20 39.5t-10 42.5q-2 6 -2 22q0 10 4 23q33 31 116.5 62.5t186.5 35.5h35q10 0 37 -2 q115 -8 157.5 -81t42.5 -204v-92q0 -106 -2 -219t-2 -194q-2 -29 4 -52q4 -18 16.5 -32.5t37.5 -10.5q-2 -23 -3 -44v-31q-12 -16 -39.5 -30.5t-68.5 -17.5q-37 0 -72 26t-51 48q-10 -10 -26.5 -23.5t-32.5 -23.5q-35 -16 -72 -21.5t-78 -5.5q-49 0 -95 15.5t-82 49.5 t-57.5 84t-21.5 122zM133 1270q0 106 103 106q57 0 73 -25q15 -23 15 -66v-11q-2 -51 -21.5 -83t-79.5 -32q-49 0 -69.5 27t-20.5 84zM229 264q0 -78 31 -109.5t78 -35.5h14q47 0 91 18.5t67 44.5q2 4 3 11.5t3 17.5q4 18 4 42v56v146q-10 2 -20 2h-21q-18 0 -34.5 -1 t-32.5 -3q-37 -6 -70 -18.5t-58.5 -34t-40 -54.5t-14.5 -82zM455 1270q0 106 102 106q57 0 74 -25q15 -23 14 -66v-11q-2 -51 -21.5 -83t-78.5 -32q-49 0 -69.5 27t-20.5 84z" />
<glyph unicode="&#xe5;" horiz-adv-x="808" d="M49 248q0 94 37 155.5t90 98.5t112.5 53t106.5 20q16 2 30 3h28q39 0 67 -7v117q0 70 -16.5 106.5t-81.5 36.5q-53 0 -111.5 -17t-103.5 -36q-37 -16 -60 -16q-14 16 -20 39.5t-10 42.5q-2 6 -2 22q0 10 4 23q33 31 116.5 62.5t186.5 35.5h35q10 0 37 -2 q115 -8 157.5 -81t42.5 -204v-92q0 -106 -2 -219t-2 -194q-2 -29 4 -52q4 -18 16.5 -32.5t37.5 -10.5q-2 -23 -3 -44v-31q-12 -16 -39.5 -30.5t-68.5 -17.5q-37 0 -72 26t-51 48q-10 -10 -26.5 -23.5t-32.5 -23.5q-35 -16 -72 -21.5t-78 -5.5q-49 0 -95 15.5t-82 49.5 t-57.5 84t-21.5 122zM190 1321q0 86 57.5 146.5t147.5 60.5h2q45 0 83 -17.5t64.5 -46t41 -65.5t14.5 -76q0 -88 -59.5 -146.5t-147.5 -58.5q-84 0 -143.5 55.5t-59.5 147.5zM229 264q0 -78 31 -109.5t78 -35.5h14q47 0 91 18.5t67 44.5q2 4 3 11.5t3 17.5q4 18 4 42v56v146 q-10 2 -20 2h-21q-18 0 -34.5 -1t-32.5 -3q-37 -6 -70 -18.5t-58.5 -34t-40 -54.5t-14.5 -82zM293 1323q0 -47 29.5 -79t74.5 -32q47 0 75 33t28 76t-28 78t-77 35q-47 0 -74.5 -34t-27.5 -77z" />
<glyph unicode="&#xe6;" horiz-adv-x="1280" d="M59 256q0 70 27 131.5t74 106.5t110.5 71.5t135.5 26.5q31 0 58.5 -1t55.5 -5v63q0 20 -1 39t-3 35q-14 115 -147 115q-53 0 -101.5 -16.5t-87.5 -35.5q-39 -20 -67 -22q-14 20 -22.5 42.5t-8.5 47.5q0 20 6 33q35 33 125 66.5t209 33.5q170 0 221 -133 q47 72 115.5 102.5t154.5 30.5q76 0 132.5 -25.5t93.5 -70.5t55 -106.5t20 -133.5q0 -45 -3 -90t-11 -80q-16 -12 -58 -26.5t-83 -18.5q-24 -2 -53 -3t-60 -1q-63 0 -129.5 3t-120.5 7q0 -90 17.5 -150.5t49.5 -97t77 -53t102 -16.5q72 0 130 15.5t95 33.5q4 -14 7.5 -38.5 t5.5 -43.5q-2 -29 -31 -55.5t-57.5 -36.5t-78.5 -18.5t-110 -8.5q-82 0 -155.5 29t-118.5 88q-53 -49 -136 -83t-204 -34q-98 4 -164 70t-66 213zM240 268q0 -152 118 -151q106 0 174 80q-6 59 -10 132.5t-4 139.5q-10 2 -23 2h-26h-19q-9 0 -20 -2q-78 -10 -134 -54.5 t-56 -146.5zM700 569l117.5 -8t114.5 -4q27 0 47 1t37 3q18 16 22 53q0 119 -31.5 178.5t-113.5 59.5h-2q-35 0 -65.5 -14.5t-57.5 -48t-44.5 -88t-23.5 -132.5z" />
<glyph unicode="&#xe7;" horiz-adv-x="763" d="M66 463q0 164 45 266t104 158q59 57 133 78.5t148 21.5q45 0 83.5 -9t67.5 -21.5t46.5 -27t21.5 -24.5q0 -20 -7.5 -49t-19.5 -51h-10q-10 0 -24.5 4t-30.5 8q-59 27 -123 27q-18 0 -29 -2q-96 -8 -158.5 -96.5t-62.5 -272.5q0 -111 22.5 -180.5t59.5 -108.5t84 -53 t96 -14q51 0 97 11t79 28l8 -32q4 -15 4 -26q-2 -23 -14 -45t-31 -37q-29 -20 -77 -32.5t-103 -12.5q-84 0 -157.5 19.5t-130 73t-89 149.5t-32.5 250zM297 -371q0 20 27 27q86 29 122.5 53.5t36.5 65.5q0 20 -16 35.5t-42 24.5t-56.5 13.5t-59.5 4.5l9.5 44.5t15.5 43.5 q20 1 42 1h22q34 -1 65 -10q66 -16 109.5 -57t43.5 -100q0 -53 -27.5 -90t-69.5 -61.5t-89 -38t-86 -19.5q-23 4 -35 26.5t-12 36.5z" />
<glyph unicode="&#xe8;" horiz-adv-x="811" d="M66 444q0 -260 108 -372q59 -59 133 -79t146 -20q47 0 90 7.5t65 13.5q43 10 80 38.5t39 59.5l-5 43t-7 39q-49 -27 -105.5 -38t-122.5 -11q-53 0 -97 14.5t-75.5 49t-50 92t-18.5 141.5q25 -2 46 -2h46q72 0 145.5 3t120.5 9q41 6 84 20.5t60 26.5q6 25 9 56.5t3 64.5 q0 27 -1 51.5t-3 46.5q-14 133 -86 211t-211 78q-84 0 -157 -29.5t-125 -94t-81.5 -168.5t-29.5 -251zM250 549q8 150 58 221.5t112 81.5q6 2 18 2q70 0 105 -44t43 -130q0 -10 1 -21.5t1 -23.5q0 -41 -10 -68q-10 -6 -21.5 -8t-26.5 -4q-29 -4 -86 -5t-116 -1h-78z M252 1397q0 14 10 31.5t25.5 32t34 23.5t34.5 9q10 0 37 -27.5t60 -68.5l66 -87l59 -81q2 -6 2 -17q0 -25 -20.5 -48t-43.5 -27l-52 49l-63 61l-66 65q-34 32 -61 60q-18 19 -22 25z" />
<glyph unicode="&#xe9;" horiz-adv-x="811" d="M66 444q0 147 29.5 251t81.5 168.5t125 94t157 29.5q139 0 210.5 -78t86.5 -211q2 -23 3 -47t1 -51q0 -33 -3 -64.5t-9 -56.5q-16 -12 -59.5 -26.5t-84.5 -20.5q-47 -6 -120.5 -9t-145.5 -3h-46q-22 0 -46 2q0 -84 18.5 -141.5t50 -92t75.5 -49t97 -14.5q66 0 122.5 11 t105.5 38q4 -14 7 -38.5t5 -43.5q-2 -31 -39 -59.5t-80 -38.5q-23 -6 -65.5 -13.5t-89.5 -7.5q-72 0 -146 19.5t-133 79.5q-108 112 -108 372zM250 549h78q59 0 116.5 1t85.5 5q14 2 25.5 4t22.5 8q10 27 10 68q0 12 -1 23.5t-1 21.5q-8 86 -43 130t-105 44q-12 0 -18 -2 q-61 -10 -111.5 -81.5t-58.5 -221.5zM315 1212q0 10 2 17l59 81l66 87q33 41 59.5 68.5t37.5 27.5q16 0 34.5 -9t34 -23.5t25.5 -32t10 -31.5q-4 -6 -22 -25l-62 -60l-65 -65l-64 -61l-51 -49q-23 4 -43.5 27t-20.5 48z" />
<glyph unicode="&#xea;" horiz-adv-x="811" d="M66 444q0 147 29.5 251t81.5 168.5t125 94t157 29.5q139 0 210.5 -78t86.5 -211q2 -23 3 -47t1 -51q0 -33 -3 -64.5t-9 -56.5q-16 -12 -59.5 -26.5t-84.5 -20.5q-47 -6 -120.5 -9t-145.5 -3h-46q-22 0 -46 2q0 -84 18.5 -141.5t50 -92t75.5 -49t97 -14.5q66 0 122.5 11 t105.5 38q4 -14 7 -38.5t5 -43.5q-2 -31 -39 -59.5t-80 -38.5q-23 -6 -65.5 -13.5t-89.5 -7.5q-72 0 -146 19.5t-133 79.5q-108 112 -108 372zM199 1198q23 49 69 116l92 130q23 27 41 37q27 12 50 12l49 -55q31 -35 62 -75l62 -80q30 -40 48 -69q-14 -23 -39 -46t-47 -23 q-18 0 -39 24q-16 18 -35 42l-35 46l-31 43q-14 20 -22 35q-27 -45 -52.5 -81.5t-54.5 -73.5q-10 -14 -22 -23.5t-16 -9.5q-25 10 -47.5 22.5t-32.5 28.5zM250 549h78q59 0 116.5 1t85.5 5q14 2 25.5 4t22.5 8q10 27 10 68q0 12 -1 23.5t-1 21.5q-8 86 -43 130t-105 44 q-12 0 -18 -2q-61 -10 -111.5 -81.5t-58.5 -221.5z" />
<glyph unicode="&#xeb;" horiz-adv-x="811" d="M66 444q0 147 29.5 251t81.5 168.5t125 94t157 29.5q139 0 210.5 -78t86.5 -211q2 -23 3 -47t1 -51q0 -33 -3 -64.5t-9 -56.5q-16 -12 -59.5 -26.5t-84.5 -20.5q-47 -6 -120.5 -9t-145.5 -3h-46q-22 0 -46 2q0 -84 18.5 -141.5t50 -92t75.5 -49t97 -14.5q66 0 122.5 11 t105.5 38q4 -14 7 -38.5t5 -43.5q-2 -31 -39 -59.5t-80 -38.5q-23 -6 -65.5 -13.5t-89.5 -7.5q-72 0 -146 19.5t-133 79.5q-108 112 -108 372zM176 1270q0 106 103 106q57 0 73 -25q15 -23 15 -66v-11q-2 -51 -21.5 -83t-79.5 -32q-49 0 -69.5 27t-20.5 84zM250 549h78 q59 0 116.5 1t85.5 5q14 2 25.5 4t22.5 8q10 27 10 68q0 12 -1 23.5t-1 21.5q-8 86 -43 130t-105 44q-12 0 -18 -2q-61 -10 -111.5 -81.5t-58.5 -221.5zM498 1270q0 106 102 106q57 0 74 -25q15 -23 14 -66v-11q-2 -51 -21.5 -83t-78.5 -32q-49 0 -69.5 27t-20.5 84z" />
<glyph unicode="&#xec;" horiz-adv-x="413" d="M-31 1397q0 14 10.5 31.5t25.5 32t33.5 23.5t35.5 9q10 0 36.5 -27.5t59.5 -68.5l67 -87l58 -81q2 -6 2 -17q0 -25 -20.5 -48t-43.5 -27l-52 49l-62 61l-67 65q-34 32 -60 60q-19 19 -23 25zM113 918q2 -41 3 -90.5t1 -120.5v-363q0 -94 -1 -183t-1 -167q86 2 116.5 4 t40.5 18q25 39 25 109v696q0 66 -3 94.5t-13 51.5q-63 0 -107.5 -8t-60.5 -41z" />
<glyph unicode="&#xed;" horiz-adv-x="413" d="M94 1212q0 10 2 17l59 81l66 87q33 41 59.5 68.5t36.5 27.5q16 0 35 -9t34 -23.5t25.5 -32t10.5 -31.5q-4 -6 -23 -25l-61 -60l-66 -65l-63 -61l-51 -49q-23 4 -43.5 27t-20.5 48zM113 918q16 33 60 41t108 8q10 -23 13 -51.5t3 -94.5v-696q0 -70 -25 -109 q-10 -16 -40.5 -18t-116.5 -4q0 78 1 167t1 183v363q0 72 -1 121t-3 90z" />
<glyph unicode="&#xee;" horiz-adv-x="413" d="M-23 1198q23 49 70 116l92 130q23 27 41 37q27 12 49 12l50 -55q31 -35 62 -75l61 -80q30 -40 49 -69q-14 -23 -39 -46t-47 -23q-18 0 -39 24q-16 18 -35 42l-35 46l-31 43q-14 20 -22 35q-27 -45 -52.5 -81.5t-54.5 -73.5q-10 -14 -22.5 -23.5t-16.5 -9.5 q-25 10 -47.5 22.5t-32.5 28.5zM113 918q16 33 60 41t108 8q10 -23 13 -51.5t3 -94.5v-696q0 -70 -25 -109q-10 -16 -40.5 -18t-116.5 -4q0 78 1 167t1 183v363q0 72 -1 121t-3 90z" />
<glyph unicode="&#xef;" horiz-adv-x="413" d="M-45 1270q0 106 102 106q57 0 74 -25q15 -23 15 -66q0 -5 -1 -11q-2 -51 -21.5 -83t-78.5 -32q-49 0 -69.5 27t-20.5 84zM113 918q16 33 60 41t108 8q10 -23 13 -51.5t3 -94.5v-696q0 -70 -25 -109q-10 -16 -40.5 -18t-116.5 -4q0 78 1 167t1 183v363q0 72 -1 121t-3 90z M276 1270q0 106 103 106q57 0 74 -25q15 -23 14 -66v-11q-2 -51 -21.5 -83t-78.5 -32q-49 0 -70 27t-21 84z" />
<glyph unicode="&#xf0;" horiz-adv-x="921" d="M66 446q0 113 36.5 204t102.5 161q43 43 86 69.5t82 41t72.5 18.5t58.5 4q74 0 139 -24q-41 100 -88 159l-57 -31q-29 -15 -56 -32l-118 -66q-16 -10 -25.5 -8t-16 6t-11.5 16.5t-5 36.5q0 35 9.5 53.5t19.5 35.5l70 38l53 31q25 14 35 19q-57 43 -126 71.5t-143 38.5 l-16 45l37 51q20 27 51 27t74 -13.5t89 -35t90 -50t79 -59.5q23 12 44 26l44 28q23 14 44 29.5t44 25.5q33 12 43 2q14 -8 14 -43q0 -43 -7 -66.5t-36 -42.5l-45 -28l-34 -21q-17 -10 -21 -14q86 -111 141 -274.5t55 -350.5q0 -125 -31.5 -227t-84.5 -176q-53 -72 -127 -110 t-160 -38q-184 0 -295 140q-49 63 -79.5 149t-30.5 184zM256 459q0 -100 24.5 -166t60.5 -105t78 -54t77 -15q104 0 147 108.5t43 300.5q0 119 -22 213q-33 37 -74 51.5t-84 14.5q-59 0 -100 -22.5t-78 -69.5q-35 -45 -53.5 -111.5t-18.5 -144.5z" />
<glyph unicode="&#xf1;" horiz-adv-x="925" d="M96 895q12 16 82 47q6 2 15 2q29 0 43 -17.5t20 -43.5q37 31 71.5 50t69.5 30q33 10 62.5 16t64.5 6q92 0 148.5 -23.5t88.5 -69.5t43 -113.5t11 -153.5v-314q0 -86 1 -158.5t3 -134.5q-8 -6 -18 -11t-28.5 -8t-48.5 -4t-73 -1q-16 31 -16 84v543q0 119 -35 167t-127 48 q-55 0 -99 -26t-77 -60v-639q0 -33 -4 -54.5t-19 -42.5q-10 -8 -20 -12t-26.5 -5t-43 -2t-67.5 -1q2 84 3 182t1 217v348q0 49 -7.5 86t-17.5 68zM182 1217q31 92 78 142t123 50q43 0 70 -25l55 -53q14 -14 26.5 -23.5t26.5 -9.5q33 0 50.5 21.5t27.5 58.5q8 20 25 21 q10 0 21 -8.5t21.5 -18.5t17.5 -20.5t9 -14.5q-4 -31 -19.5 -63.5t-39 -59t-56 -44t-71.5 -17.5q-51 0 -76 27.5l-53 56.5q-16 16 -26.5 22.5t-26.5 6.5q-47 -10 -76 -78q-12 -23 -23 -23q-12 0 -26.5 7.5t-26.5 16.5t-20 17z" />
<glyph unicode="&#xf2;" horiz-adv-x="919" d="M61 475q0 -266 102.5 -385t293.5 -119q86 0 157.5 33t125 97.5t83 160.5t29.5 225q0 500 -389 500q-88 0 -162 -30.5t-127 -93t-83 -160t-30 -228.5zM240 1397q0 14 10 31.5t25.5 32t34 23.5t34.5 9q10 0 37 -27.5t59 -68.5l67 -87l58 -81q2 -6 2 -17q0 -25 -20.5 -48 t-42.5 -27l-52 49l-63 61l-66 65q-34 32 -61 60q-18 19 -22 25zM252 483q0 100 16.5 170t45 114t65.5 63.5t78 19.5h4q92 0 147.5 -84t55.5 -285q0 -106 -16.5 -178t-44.5 -116t-64.5 -63.5t-77.5 -19.5q-45 0 -84 19.5t-66.5 63.5t-43 117t-15.5 179z" />
<glyph unicode="&#xf3;" horiz-adv-x="919" d="M61 475q0 131 30 228.5t83 160t127 93t162 30.5q389 0 389 -500q0 -129 -29.5 -225t-83 -160.5t-125 -97.5t-157.5 -33q-190 0 -293 119t-103 385zM252 483q0 -106 15.5 -179t43 -117t66.5 -63.5t84 -19.5q41 0 77.5 19.5t64.5 63.5t44.5 116t16.5 178q0 201 -55.5 285 t-147.5 84h-4q-41 0 -78 -19.5t-65.5 -63.5t-45 -114t-16.5 -170zM346 1212q0 10 2 17l59 81l66 87q33 41 59.5 68.5t36.5 27.5q16 0 35 -9t34 -23.5t25.5 -32t10.5 -31.5q-4 -6 -23 -25l-61 -60l-66 -65l-63 -61l-51 -49q-23 4 -43.5 27t-20.5 48z" />
<glyph unicode="&#xf4;" horiz-adv-x="919" d="M61 475q0 131 30 228.5t83 160t127 93t162 30.5q389 0 389 -500q0 -129 -29.5 -225t-83 -160.5t-125 -97.5t-157.5 -33q-190 0 -293 119t-103 385zM236 1198q23 49 69 116l92 130q23 27 41 37q27 12 49 12l50 -55q31 -35 62 -75l61 -80q30 -40 49 -69q-14 -23 -39 -46 t-47 -23q-18 0 -39 24q-16 18 -35 42l-35 46l-31 43q-14 20 -22 35q-27 -45 -52.5 -81.5t-54.5 -73.5q-10 -14 -22.5 -23.5t-16.5 -9.5q-25 10 -47 22.5t-32 28.5zM252 483q0 -106 15.5 -179t43 -117t66.5 -63.5t84 -19.5q41 0 77.5 19.5t64.5 63.5t44.5 116t16.5 178 q0 201 -55.5 285t-147.5 84h-4q-41 0 -78 -19.5t-65.5 -63.5t-45 -114t-16.5 -170z" />
<glyph unicode="&#xf5;" horiz-adv-x="919" d="M61 475q0 131 30 228.5t83 160t127 93t162 30.5q389 0 389 -500q0 -129 -29.5 -225t-83 -160.5t-125 -97.5t-157.5 -33q-190 0 -293 119t-103 385zM178 1217q31 92 78 142t123 50q43 0 70 -25l55 -53q14 -14 26.5 -23.5t26.5 -9.5q33 0 50.5 21.5t27.5 58.5q8 20 24 21 q10 0 21.5 -8.5t22 -18.5t17.5 -20.5t9 -14.5q-4 -31 -19.5 -63.5t-39 -59t-56 -44t-71.5 -17.5q-51 0 -76 27.5l-53 56.5q-16 16 -26.5 22.5t-27.5 6.5q-47 -10 -75 -78q-12 -23 -23 -23q-12 0 -26.5 7.5t-26.5 16.5t-21 17zM252 483q0 -106 15.5 -179t43 -117t66.5 -63.5 t84 -19.5q41 0 77.5 19.5t64.5 63.5t44.5 116t16.5 178q0 201 -55.5 285t-147.5 84h-4q-41 0 -78 -19.5t-65.5 -63.5t-45 -114t-16.5 -170z" />
<glyph unicode="&#xf6;" horiz-adv-x="919" d="M61 475q0 131 30 228.5t83 160t127 93t162 30.5q389 0 389 -500q0 -129 -29.5 -225t-83 -160.5t-125 -97.5t-157.5 -33q-190 0 -293 119t-103 385zM199 1270q0 106 102 106q57 0 74 -25q15 -23 14 -66v-11q-2 -51 -21.5 -83t-78.5 -32q-49 0 -69.5 27t-20.5 84zM252 483 q0 -106 15.5 -179t43 -117t66.5 -63.5t84 -19.5q41 0 77.5 19.5t64.5 63.5t44.5 116t16.5 178q0 201 -55.5 285t-147.5 84h-4q-41 0 -78 -19.5t-65.5 -63.5t-45 -114t-16.5 -170zM520 1270q0 106 103 106q57 0 73 -25q15 -23 15 -66v-11q-2 -51 -21.5 -83t-79.5 -32 q-49 0 -69.5 27t-20.5 84z" />
<glyph unicode="&#xf7;" horiz-adv-x="1021" d="M98 473q2 72 11.5 105.5t37.5 33.5h777q0 -72 -9.5 -105.5t-42.5 -33.5h-774zM408 856q0 106 106 107q61 0 79 -26q16 -23 15 -66v-11q-2 -49 -21.5 -80.5t-84.5 -31.5q-53 0 -73.5 26.5t-20.5 81.5zM408 227q0 106 106 107q61 0 79 -26q16 -23 15 -66v-11 q-2 -49 -21.5 -80.5t-84.5 -31.5q-53 0 -73.5 26.5t-20.5 81.5z" />
<glyph unicode="&#xf8;" horiz-adv-x="950" d="M76 -10q6 14 33 57l59 92q-43 59 -64.5 144.5t-21.5 191.5q0 256 127 389q109 121 274 121q143 0 228 -72q14 18 27 39l26 38q12 17 22.5 27.5t14.5 10.5q27 -4 48 -23.5t25 -48.5q-10 -20 -35.5 -65t-52.5 -86q43 -59 64.5 -141t21.5 -181q0 -135 -34.5 -228t-81.5 -153 q-47 -66 -118 -99.5t-157 -33.5q-78 0 -137 16.5t-104 55.5q-12 -16 -27 -38l-27 -40q-12 -18 -22 -29.5t-17 -11.5q-23 4 -45 22.5t-26 45.5zM266 477q0 -109 33 -174l155 240l154 241q-25 37 -57.5 51.5t-73.5 14.5q-88 0 -149.5 -87t-61.5 -286zM342 180 q27 -47 61.5 -62.5t77.5 -15.5q41 0 79 19.5t66.5 63.5t45 116t16.5 176q0 113 -33 191l-77 -124l-82 -128l-81 -124z" />
<glyph unicode="&#xf9;" horiz-adv-x="931" d="M115 324q2 -82 13 -144.5t43 -106.5t87 -68.5t145 -29.5q35 0 65 6.5t62 16.5q35 10 70 29.5t72 50.5q6 -27 20.5 -44.5t42.5 -17.5q8 0 15 2q70 31 81 48q-10 31 -17 67.5t-7 85.5v348q0 119 1 217.5t3 182.5q-41 0 -67.5 -1t-44 -2t-27.5 -5.5t-19 -12.5 q-14 -20 -18 -41.5t-4 -54.5v-651q-27 -33 -77 -55q-42 -18 -86 -18q-8 0 -17 1q-37 0 -66 9t-49.5 34t-30.5 68t-10 112l20 416q0 78 -3 122t-13 79q-78 0 -115 -6.5t-53 -22.5q2 -57 3 -121.5t1 -152.5zM301 1397q0 14 10.5 31.5t25.5 32t33 23.5q20 9 36 9 q10 0 36.5 -27.5t59.5 -68.5l66 -87l59 -81q2 -6 2 -17q0 -25 -20.5 -48t-43.5 -27l-52 49l-62 61l-67 65q-34 32 -60 60q-19 19 -23 25z" />
<glyph unicode="&#xfa;" horiz-adv-x="931" d="M115 324l20 340q0 88 -1 152.5t-3 121.5q16 16 53 22.5t115 6.5q10 -35 13 -79t3 -122l-20 -416q0 -70 10 -112.5t30.5 -67.5t49.5 -34t66 -9q9 -1 17 -1q44 0 86 18q50 22 77 55v651q0 33 4 54.5t18 41.5q8 8 18.5 12.5t28 5.5t44 2t67.5 1q-2 -84 -3 -182.5t-1 -217.5 v-348q0 -49 7 -86t17 -67q-12 -16 -81 -48q-6 -2 -15 -2q-29 0 -43 17.5t-20 44.5q-37 -31 -72 -50.5t-70 -29.5q-33 -10 -62.5 -16.5t-64.5 -6.5q-90 4 -145 29t-87 69t-43 106.5t-13 144.5zM342 1212q0 10 2 17l58 81l67 87q33 41 59.5 68.5t36.5 27.5q16 0 34.5 -9 t34 -23.5t26 -32t10.5 -31.5q-4 -6 -23 -25l-61 -60l-66 -65l-63 -61l-51 -49q-23 4 -43.5 27t-20.5 48z" />
<glyph unicode="&#xfb;" horiz-adv-x="931" d="M115 324l20 340q0 88 -1 152.5t-3 121.5q16 16 53 22.5t115 6.5q10 -35 13 -79t3 -122l-20 -416q0 -70 10 -112.5t30.5 -67.5t49.5 -34t66 -9q9 -1 17 -1q44 0 86 18q50 22 77 55v651q0 33 4 54.5t18 41.5q8 8 18.5 12.5t28 5.5t44 2t67.5 1q-2 -84 -3 -182.5t-1 -217.5 v-348q0 -49 7 -86t17 -67q-12 -16 -81 -48q-6 -2 -15 -2q-29 0 -43 17.5t-20 44.5q-37 -31 -72 -50.5t-70 -29.5q-33 -10 -62.5 -16.5t-64.5 -6.5q-90 4 -145 29t-87 69t-43 106.5t-13 144.5zM231 1198q23 49 70 116l92 130q23 27 41 37q27 12 49 12l49 -55q31 -35 63 -75 l61 -80q30 -40 49 -69q-14 -23 -39 -46q-26 -23 -48 -23q-18 0 -38 24q-16 18 -35 42l-35 46l-31 43q-14 20 -22 35q-27 -45 -52.5 -81.5t-54.5 -73.5q-10 -14 -22.5 -23.5t-16.5 -9.5q-25 10 -47.5 22.5t-32.5 28.5z" />
<glyph unicode="&#xfc;" horiz-adv-x="931" d="M115 324l20 340q0 88 -1 152.5t-3 121.5q16 16 53 22.5t115 6.5q10 -35 13 -79t3 -122l-20 -416q0 -70 10 -112.5t30.5 -67.5t49.5 -34t66 -9q9 -1 17 -1q44 0 86 18q50 22 77 55v651q0 33 4 54.5t18 41.5q8 8 18.5 12.5t28 5.5t44 2t67.5 1q-2 -84 -3 -182.5t-1 -217.5 v-348q0 -49 7 -86t17 -67q-12 -16 -81 -48q-6 -2 -15 -2q-29 0 -43 17.5t-20 44.5q-37 -31 -72 -50.5t-70 -29.5q-33 -10 -62.5 -16.5t-64.5 -6.5q-90 4 -145 29t-87 69t-43 106.5t-13 144.5zM205 1270q0 106 102 106q57 0 74 -25q15 -23 14 -66v-11q-2 -51 -21.5 -83 t-78.5 -32q-49 0 -69.5 27t-20.5 84zM526 1270q0 106 103 106q57 0 73 -25q15 -23 15 -66v-11q-2 -51 -21.5 -83t-79.5 -32q-49 0 -69.5 27t-20.5 84z" />
<glyph unicode="&#xfd;" horiz-adv-x="800" d="M20 -340q0 16 7 35q2 10 6 20q16 6 34.5 5t39 -1t42 2.5t46.5 12.5q20 10 41.5 44t42 79t37 96t26.5 96q-4 4 -6 5t-4 5q-14 20 -22.5 41t-18.5 54l-19 61l-34 114l-45 145l-52 160l-52 157l-46 135q10 27 44 37t114 10q10 0 22.5 -29t18.5 -53q8 -25 21 -70l30 -100 l34 -115l31 -112l24 -92q11 -44 19 -81l15 -65q6 -27 10 -35q4 12 11 40l17 66l20 84l22 93l54 232l50 212q12 10 24.5 14.5t37.5 4.5q16 0 37.5 -1t52.5 -3q10 -20 10 -43q0 -20 -10 -56q-20 -86 -49 -192.5l-64 -224l-75 -240.5l-81 -238q-43 -109 -83 -181.5 t-78.5 -115.5t-75.5 -61.5t-70 -18.5q-72 0 -110 20.5t-46 47.5zM326 1165q0 6 4 19l57 81q33 46 65.5 87t60.5 68.5t38 27.5q27 0 50.5 -19.5t39.5 -42.5q12 -16 12 -34q-2 -8 -22 -25l-62 -60l-65 -65l-64 -61l-51 -49q-16 4 -28.5 15t-22.5 26q-12 14 -12 32z" />
<glyph unicode="&#xff;" horiz-adv-x="800" d="M20 -340q0 16 7 35q2 10 6 20q16 6 34.5 5t39 -1t42 2.5t46.5 12.5q20 10 41.5 44t42 79t37 96t26.5 96q-4 4 -6 5t-4 5q-14 20 -22.5 41t-18.5 54l-19 61l-34 114l-45 145l-52 160l-52 157l-46 135q10 27 44 37t114 10q10 0 22.5 -29t18.5 -53q8 -25 21 -70l30 -100 l34 -115l31 -112l24 -94l20 -83l16 -63q6 -27 8 -33q4 10 11 39l17 67l20 84l22 93l54 232l50 212q12 10 24.5 14.5t37.5 4.5q16 0 37.5 -1t52.5 -3q10 -20 10 -43q0 -20 -10 -56q-20 -86 -49 -192.5l-64 -224l-75 -240.5l-81 -238q-43 -109 -83 -181.5t-78.5 -115.5 t-75.5 -61.5t-70 -18.5q-72 0 -110 20.5t-46 47.5zM164 1270q0 106 102 106q57 0 74 -25q15 -23 15 -66q0 -5 -1 -11q-2 -51 -21.5 -83t-78.5 -32q-49 0 -69.5 27t-20.5 84zM485 1270q0 106 103 106q57 0 74 -25q15 -23 14 -66v-11q-2 -51 -21.5 -83t-79.5 -32 q-49 0 -69.5 27t-20.5 84z" />
<glyph unicode="&#x152;" horiz-adv-x="1581" d="M66 670q0 223 54 371.5t156 234.5q66 53 142 78.5t172 25.5q113 0 200 -36.5t144 -112.5v96q12 4 37.5 15.5t60.5 13.5h484q-4 -72 -13.5 -99.5t-32.5 -37.5q-23 -6 -54.5 -7.5t-80.5 -1.5h-239v-417h383q-4 -49 -11.5 -78t-16.5 -44.5t-22.5 -20.5t-31.5 -5h-301v-498 q31 -4 77 -6t93 -2h139q74 0 133 4l2 -2q-4 -78 -19.5 -106.5t-45.5 -36.5q-25 -2 -66 -3t-113 -1q-111 0 -198.5 3t-149.5 7q-4 10 -7 20.5t-7 20.5v96q-59 -86 -152.5 -126t-208.5 -40q-139 0 -235 47.5t-156.5 136.5t-88 218t-27.5 293zM262 659q0 -143 24.5 -245.5 t68.5 -167t103.5 -95t129 -30.5t129 30.5t102.5 98t67.5 175t24.5 259.5q0 158 -24.5 263.5t-68.5 170t-102.5 91t-126 26.5t-128 -33t-104.5 -103.5t-69.5 -179t-25.5 -257.5v-3z" />
<glyph unicode="&#x153;" horiz-adv-x="1417" d="M57 475q0 274 142 410q51 47 117.5 73.5t142.5 26.5h2q100 0 177 -39t124 -119q49 82 126 120t171 38q76 0 132 -25.5t93 -70.5t55.5 -106.5t20.5 -133.5q0 -45 -3 -89t-11 -79q-16 -14 -58.5 -28.5t-83.5 -18.5q-25 -2 -53 -2h-59q-63 0 -130 2t-120 6 q0 -90 17.5 -150.5t49 -97t76.5 -52t102 -15.5q72 0 130.5 14.5t95.5 34.5q4 -16 7 -39.5t5 -44.5q-2 -29 -30.5 -55.5t-57.5 -36.5q-29 -8 -79 -16.5t-109 -8.5q-90 0 -170 40t-136 112q-47 -76 -123.5 -116t-171 -40t-167 28t-122.5 89t-76 157.5t-26 231.5zM248 481 q0 -109 16.5 -180.5t44 -116.5t65.5 -63.5t81 -18.5q39 0 76.5 19.5t66.5 63.5t46 117t17 181q0 100 -15 170t-41.5 113t-65.5 62.5t-84 19.5q-43 0 -80 -19.5t-65.5 -63.5t-45 -114t-16.5 -170zM846 569q55 -6 116.5 -10t114.5 -4t84 6q18 12 23 51q0 119 -32 178.5 t-114 59.5h-2q-35 0 -65.5 -14.5t-57 -48t-44 -87t-23.5 -131.5z" />
<glyph unicode="&#x178;" horiz-adv-x="946" d="M23 1331q0 8 17 11.5t79 3.5h102q12 -29 35 -77l48 -106l53 -117l53 -115l44 -98q19 -44 29 -65l269 578q16 6 30.5 9t32.5 3q16 0 39 -1t57 -5q4 -16 4 -25q0 -18 -6 -34.5t-16 -39.5q-23 -53 -65 -132l-88 -162l-87 -157q-41 -75 -59 -118q-10 -25 -17.5 -51.5 t-11.5 -50.5v-299q0 -86 1 -150.5t1 -112.5q-6 -8 -16 -14t-28.5 -9t-48.5 -4t-75 -1q-16 39 -16 92v481v27q0 10 -4 20q-16 45 -43 103.5t-66 132.5l-125 244l-120 235zM211 1612q0 106 102 106q57 0 74 -25q15 -23 15 -66q0 -5 -1 -11q-2 -51 -21.5 -83t-78.5 -32 q-49 0 -69.5 27t-20.5 84zM553 1612q0 106 102 106q57 0 74 -25q15 -23 15 -66q0 -5 -1 -11q-2 -51 -21.5 -83t-78.5 -32q-49 0 -69.5 27t-20.5 84z" />
<glyph unicode="&#x2c6;" horiz-adv-x="815" d="M176 1157q23 49 70 116l92 130q23 27 41 37q27 12 49 12l49 -55q31 -35 63 -75l61 -80q30 -40 48 -68q-14 -23 -38.5 -46.5t-47.5 -23.5q-18 0 -39 24q-16 18 -35 42l-34 47l-31 43q-14 20 -23 34q-27 -45 -52 -81.5t-54 -73.5q-10 -14 -22.5 -23.5t-16.5 -9.5 q-25 10 -47.5 22.5t-32.5 28.5z" />
<glyph unicode="&#x2dc;" horiz-adv-x="901" d="M164 1217q31 92 78 142t123 50q43 0 69 -25l55 -53q14 -14 26.5 -23.5t27.5 -9.5q33 0 50 21.5t28 58.5q8 20 24 21q10 0 21.5 -8.5t21.5 -18.5t17.5 -20.5t9.5 -14.5q-4 -31 -19.5 -63.5t-39 -59t-56.5 -44t-72 -17.5q-51 0 -75.5 27.5t-53.5 56.5q-16 16 -26.5 22.5 t-26.5 6.5q-47 -10 -76 -78q-12 -23 -22 -23q-12 0 -26.5 7.5t-27 16.5t-20.5 17z" />
<glyph unicode="&#x2013;" horiz-adv-x="999" d="M33 487v29q2 76 28.5 106.5t67.5 30.5h782q1 -18 2 -32q0 -8 -1 -15q-1 -20 -1 -22q-6 -84 -28.5 -115t-63.5 -31h-784q-2 24 -2 49z" />
<glyph unicode="&#x2014;" horiz-adv-x="1673" d="M55 463q0 49 3 74.5t18 35.5q31 20 68.5 27.5t76.5 7.5h1397q-2 -47 -5 -72.5t-18 -35.5q-31 -25 -65.5 -31t-71.5 -6h-1403z" />
<glyph unicode="&#x2018;" horiz-adv-x="382" d="M68 1153q0 16 2 27q2 39 14 81t28.5 78.5t37 68.5t38.5 54q37 37 72 37q33 0 53 -22q-35 -61 -53 -130t-20 -139q12 -4 14 -12q6 -18 8 -37.5t6 -40.5q-10 -31 -38.5 -52.5t-67.5 -21.5q-20 0 -31 3q-33 4 -48 33.5t-15 72.5z" />
<glyph unicode="&#x2019;" horiz-adv-x="382" d="M68 1057q35 63 53 133t20 137q-12 4 -14 12q-6 16 -8 37t-6 41q12 31 43.5 53.5t68.5 22.5q12 0 25 -4q35 -4 49 -34t14 -75q0 -16 -2 -24q-4 -41 -15 -82t-27.5 -79t-37 -69.5t-38.5 -52.5q-31 -33 -64 -39q-16 0 -33.5 5.5t-27.5 17.5z" />
<glyph unicode="&#x201a;" horiz-adv-x="360" d="M31 -201q41 66 62.5 136.5t23.5 136.5q-12 4 -15 12q-10 41 -14 84q12 29 44 52.5t71 23.5q10 0 26 -4q35 -6 49.5 -39t14.5 -76q0 -47 -14.5 -97.5t-37 -95.5t-49 -81.5t-51.5 -55.5q-8 -4 -14 -8t-14 -6q-6 -2 -21 -2q-34 0 -61 20z" />
<glyph unicode="&#x201c;" horiz-adv-x="700" d="M68 1153q0 16 2 27q2 39 14 81t28.5 78.5t37 68.5t38.5 54q37 37 72 37q33 0 53 -22q-35 -61 -53 -130t-20 -139q12 -4 14 -12q6 -18 8 -37.5t6 -40.5q-10 -31 -38.5 -52.5t-67.5 -21.5q-20 0 -31 3q-33 4 -48 33.5t-15 72.5zM387 1155q0 16 2 25q2 39 13.5 81t27.5 78.5 t36.5 68.5t39.5 54q33 37 74 37q33 0 53 -22q-35 -61 -53.5 -130t-20.5 -137q6 -4 14 -12q10 -35 15 -80q-10 -31 -39 -52.5t-68 -21.5q-20 0 -30 3q-33 4 -48.5 33.5t-15.5 74.5z" />
<glyph unicode="&#x201d;" horiz-adv-x="700" d="M68 1057q35 63 53 133t20 137q-12 4 -14 12q-6 16 -8 37t-6 41q12 31 43.5 53.5t68.5 22.5q12 0 25 -4q35 -4 49 -34t14 -75q0 -16 -2 -24q-4 -41 -15 -82t-27.5 -78t-37 -69.5t-38.5 -53.5q-31 -33 -64 -39q-16 0 -33.5 5.5t-27.5 17.5zM387 1057q35 63 52.5 133 t19.5 137q-8 2 -15 12q-4 16 -6 37t-6 41q8 29 32.5 48.5t59.5 23.5q8 2 25 2q14 0 20 -2q33 -4 48.5 -34t15.5 -75q0 -16 -2 -24q-4 -41 -15.5 -82t-28 -79t-37 -69.5t-38.5 -52.5q-31 -33 -63 -39q-16 0 -34 5.5t-28 17.5z" />
<glyph unicode="&#x201e;" horiz-adv-x="679" d="M35 -199q41 66 60.5 135.5t21.5 135.5q-6 4 -15 12l-8 43q-4 20 -6 41q12 29 44 52.5t71 23.5q8 0 24 -4q35 -6 50.5 -39t15.5 -74q0 -47 -14.5 -97t-37 -95.5t-48 -82t-50.5 -55.5q-8 -4 -14 -8t-14 -6q-6 -2 -21 -2q-32 0 -59 20zM354 -199q78 135 82 271 q-25 14 -24.5 51t13.5 63.5t34 34.5q4 2 9 4t11 6q25 8 56 9q41 0 59 -35t18 -78q0 -47 -14 -97t-36.5 -95.5t-49.5 -82t-51 -55.5q-23 -16 -47 -16q-33 0 -60 20z" />
<glyph unicode="&#x2022;" horiz-adv-x="505" d="M98 537q0 82 40 123.5t128 41.5q96 0 124 -40.5t26 -118.5q-2 -39 -9.5 -71t-26 -55.5t-51 -36.5t-81.5 -13q-84 0 -117 41t-33 129z" />
<glyph unicode="&#x2026;" horiz-adv-x="1325" d="M115 102q0 119 121 119q70 0 89 -28q18 -26 17 -76v-11q-2 -55 -25.5 -90.5t-95.5 -35.5q-59 0 -82.5 29.5t-23.5 92.5zM549 102q0 119 121 119q70 0 89 -28q18 -26 17 -76v-11q-2 -55 -25.5 -90.5t-95.5 -35.5q-59 0 -82.5 29.5t-23.5 92.5zM993 102q0 119 121 119 q70 0 89 -28q18 -26 18 -76v-11q-2 -55 -26 -90.5t-95 -35.5q-59 0 -83 29.5t-24 92.5z" />
<glyph unicode="&#x2039;" horiz-adv-x="567" d="M68 494l70 100l98 137l95 135l64 92q16 -2 31.5 -13t28 -25.5t19.5 -27.5t7 -22q0 -16 -16 -50t-41 -74.5l-54 -83.5l-57 -80l-47 -64q-20 -27 -24 -33q4 -6 23 -32l46 -64q27 -37 56 -81l53 -84q25 -40 40 -72.5t15 -49.5q0 -8 -7 -22t-18.5 -28.5t-26.5 -27t-34 -14.5 q-18 29 -55 81l-80 113l-87 122l-79 110q-20 38 -20 58z" />
<glyph unicode="&#x203a;" horiz-adv-x="567" d="M82 104q0 16 16.5 49t42 74t55.5 83l56 79l46 64q19 27 24 32q-4 6 -23.5 33t-44.5 65l-53 82l-54 85q-25 41 -40 74.5t-15 50t11.5 31t26.5 25.5t29.5 18t20.5 9l54 -80l79 -113l87 -122l79 -111q18 -35 19 -57l-69 -100l-97 -136l-98 -135l-66 -92q-4 2 -18.5 8.5 t-30 18.5t-26.5 28.5t-11 36.5z" />
<glyph unicode="&#x20ac;" horiz-adv-x="952" d="M-6 509q2 38 12 48q16 10 47 14l19 2q-2 16 -2 34v36v51q0 25 4 49l-78 -8q-3 26 -3 52q0 13 1 25q2 38 12 48q16 10 47 14l35 5q37 223 158 352q84 90 182 122.5t203 32.5q63 0 112.5 -11t84 -26.5t56 -33t27.5 -31.5q0 -35 -8 -60.5t-20 -41.5h-9q-10 -2 -24 4l-33 14 q-74 33 -162 33h-21q-11 0 -22 -2q-109 -10 -196.5 -88t-126.5 -244l479 49q1 -20 1 -38q0 -31 -4 -56q-7 -39 -44 -43l-455 -47q-2 -27 -3 -53.5t-1 -55.5v-31q0 -15 2 -30l369 37q1 -20 1 -38q0 -31 -4 -56q-7 -39 -44 -43l-307 -33q33 -168 125 -248t235 -80 q74 0 142.5 18.5t103.5 41.5q12 -23 16 -64q-6 -59 -47 -94q-29 -25 -94.5 -45.5t-149.5 -20.5q-106 0 -194 23.5t-155.5 79t-114 145.5t-64.5 223l-86 -8q-3 26 -3 52q0 12 1 25z" />
<glyph unicode="&#x2122;" horiz-adv-x="978" d="M59 1286v23q2 10 3 17t3.5 15.5t6.5 11.5t8 3h8h346q0 -25 -6 -49q-4 -12 -11 -16.5t-11 -6.5h-117v-309q0 -31 1 -56.5t1 -48.5q-10 -8 -23.5 -9t-54.5 -1q-6 14 -6 37v387h-113h-18q-9 0 -17 2zM455 862q6 98 16 213l21 228v18q0 8 -3 16v11q2 4 23 8q16 0 32.5 1 t26.5 1q8 -14 16 -32l19 -48q10 -31 22.5 -61.5t22.5 -61.5l17.5 -51.5t13.5 -36.5q4 6 12 35t19 51l38 95q19 48 35 93q0 10 11 13q6 0 12 2q16 0 32.5 1t28.5 1q4 -10 4 -37q4 -70 7.5 -137.5t7.5 -136.5q8 -98 12 -177q-6 -8 -22.5 -10t-57.5 -2q-8 16 -8 37 q-2 33 -2 64.5t-2 66.5q-2 20 -1 46t1 52v52q0 25 -2 43l-23 -67q-12 -36 -20 -56l-29 -77q-14 -40 -30 -81q-16 -6 -21 -6h-35q-10 31 -27 77l-34 89q-6 16 -17.5 51l-21.5 63q0 -8 1 -39.5t1 -66.5q0 -57 -5 -107.5t-9 -99.5q0 -18 -7 -33q-12 -6 -28 -6q-8 0 -19.5 1 t-27.5 1z" />
<glyph unicode="&#xe000;" horiz-adv-x="975" d="M0 975h975v-975h-975v975z" />
<glyph unicode="&#xfb01;" horiz-adv-x="952" d="M33 848q6 57 14 73.5t33 20.5q18 4 37.5 9t42.5 10q0 41 2 79.5t6 73.5q8 102 45 168t87 103.5t109.5 52t112.5 14.5q14 1 28 1q44 0 81 -10q49 -13 86 -26q33 -12 47 -18t24 -19q6 -8 7 -16v-16l-4 -24q-2 -11 -7 -21q-12 -29 -24 -41q-10 0 -32.5 7t-45.5 13 q-29 10 -74 19.5t-84 9.5q-35 0 -66.5 -9.5t-57 -34t-42 -66.5t-18.5 -107q-2 -33 -2 -66v-67l342 4h65q31 0 52 2q10 -23 13 -51.5t3 -94.5v-696q0 -70 -25 -109q-10 -16 -40.5 -18t-116.5 -4q0 78 1 167t1 183v483q-41 0 -86 -1l-87 -2q-42 -1 -75 -1h-49v-188 q0 -102 1 -207l2 -205q1 -100 1 -182q0 -8 -2 -21.5t-14 -17.5q-25 -4 -62 -6t-55 -2q-12 0 -23.5 1t-21.5 3q-2 10 -2 21v26q0 61 1 123.5t1 126.5q0 127 -1 258t-1 270q-98 2 -127 25z" />
<glyph unicode="&#xfb02;" horiz-adv-x="935" d="M33 848q6 57 14 73.5t33 20.5q18 4 37.5 9t42.5 10q0 41 2 79.5t6 73.5q8 102 45 168t87 103.5t109.5 52t112.5 14.5q14 1 28 1q44 0 81 -10q49 -13 84 -26q47 -16 61.5 -25.5t18.5 -21.5q10 -31 12 -72t2 -118v-987q-2 -29 4 -52q4 -18 16.5 -32.5t36.5 -10.5 q-2 -23 -2 -45v-30q-12 -18 -39.5 -32t-68.5 -16q-18 0 -38 8.5t-36 18.5q-25 16 -37 44t-12 58v981q0 68 -1 118t-3 93q-25 6 -52.5 10.5t-52.5 4.5q-35 0 -66.5 -9.5t-57 -34t-42 -66.5t-18.5 -107q-2 -33 -2 -66v-67h111h65q31 0 51 2q-4 -72 -13 -95.5t-32 -31.5 l-9 -4.5t-13 -4.5q-33 -4 -74 -4h-88v-188q0 -102 1 -207l2 -205q1 -100 1 -182q0 -8 -2 -21.5t-14 -17.5q-25 -4 -62 -6t-55 -2q-12 0 -23.5 1t-21.5 3q-2 10 -2 21v26q0 61 1 123.5t1 126.5q0 127 -1 258t-1 270q-98 2 -127 25z" />
<glyph unicode="&#xfb03;" horiz-adv-x="1490" d="M33 848q6 57 14 72.5t32.5 21.5l80.5 19q0 41 2 79.5t6 73.5q8 102 45 168t87 103.5t109.5 52t112.5 14.5q63 0 101.5 -11t52.5 -28q6 -8 6 -16v-17l-4 -23q-2 -11 -6 -22q-12 -29 -25 -41q-4 -2 -16.5 1t-24.5 8q-16 4 -38.5 6t-43.5 2q-35 0 -66.5 -9.5t-57 -34 t-42 -66.5t-18.5 -107q-2 -33 -2 -66v-67h111h65q31 0 51 2q-4 -72 -13 -95.5t-32 -31.5l-9 -4.5t-13 -4.5q-33 -4 -74 -4h-88v-188q0 -102 1 -207l2 -205q1 -100 1 -182q0 -8 -2 -21.5t-14 -17.5q-25 -4 -62 -6t-55 -2q-12 0 -23.5 1t-21.5 3q-2 10 -2 21v26q0 61 1 123.5 t1 126.5q0 127 -1 258t-1 270q-98 2 -127 25zM571 848q6 57 14.5 72.5t33 21.5l79.5 19q0 41 2 79.5t7 73.5q8 102 44.5 168t87 103.5t110 52t112.5 14.5q63 0 101 -11t52 -28q6 -8 7 -16v-17l-4 -23q-2 -11 -7 -22q-12 -29 -24 -41q-4 -2 -16.5 1t-24.5 8q-16 4 -39 6 t-43 2q-35 0 -66.5 -9.5t-57.5 -34t-42 -66.5t-18 -107q-2 -33 -2 -66v-67h110h66q31 0 51 2q-4 -72 -13.5 -95.5t-31.5 -31.5q-4 -2 -9.5 -4.5t-13.5 -4.5q-33 -4 -73 -4h-89v-188q0 -102 2 -207l2 -205q1 -100 1 -182q0 -8 -2.5 -21.5t-14.5 -17.5q-25 -4 -61.5 -6 t-55.5 -2q-12 0 -23 1t-22 3q-2 10 -2 21v26q0 61 1 123.5t1 126.5q0 127 -1 258t-1 270q-98 2 -127 25zM1184 1315q0 115 108 115q61 0 79 -28q16 -25 16 -72q0 -6 -1 -11q-2 -53 -22.5 -88t-83.5 -35q-53 0 -74.5 29t-21.5 90zM1190 918q16 33 60 41t108 8 q10 -23 13 -51.5t3 -94.5v-696q0 -70 -24 -109q-10 -16 -41 -18t-117 -4q0 78 1 167t1 183v363q0 72 -1 121t-3 90z" />
<glyph unicode="&#xfb04;" horiz-adv-x="1488" d="M33 848q6 57 14 72.5t32.5 21.5l80.5 19q0 41 2 79.5t6 73.5q8 102 45 168t87 103.5t109.5 52t112.5 14.5q63 0 101.5 -11t52.5 -28q6 -8 6 -16v-17l-4 -23q-2 -11 -6 -22q-12 -29 -25 -41q-4 -2 -16.5 1t-24.5 8q-16 4 -38.5 6t-43.5 2q-35 0 -66.5 -9.5t-57 -34 t-42 -66.5t-18.5 -107q-2 -33 -2 -66v-67h111h65q31 0 51 2q-4 -72 -13 -95.5t-32 -31.5l-9 -4.5t-13 -4.5q-33 -4 -74 -4h-88v-188q0 -102 1 -207l2 -205q1 -100 1 -182q0 -8 -2 -21.5t-14 -17.5q-25 -4 -62 -6t-55 -2q-12 0 -23.5 1t-21.5 3q-2 10 -2 21v26q0 61 1 123.5 t1 126.5q0 127 -1 258t-1 270q-98 2 -127 25zM571 848q6 57 14.5 72.5t33 21.5l79.5 19q0 41 2 79.5t7 73.5q8 102 44.5 168t87 103.5t110 52t112.5 14.5q63 0 101 -11t52 -28q6 -8 7 -16v-17l-4 -23q-2 -11 -7 -22q-12 -29 -24 -41q-4 -2 -16.5 1t-24.5 8q-16 4 -39 6 t-43 2q-35 0 -66.5 -9.5t-57.5 -34t-42 -66.5t-18 -107q-2 -33 -2 -66v-67h110h66q31 0 51 2q-4 -72 -13.5 -95.5t-31.5 -31.5q-4 -2 -9.5 -4.5t-13.5 -4.5q-33 -4 -73 -4h-89v-188q0 -102 2 -207l2 -205q1 -100 1 -182q0 -8 -2.5 -21.5t-14.5 -17.5q-25 -4 -61.5 -6 t-55.5 -2q-12 0 -23 1t-22 3q-2 10 -2 21v26q0 61 1 123.5t1 126.5q0 127 -1 258t-1 270q-98 2 -127 25zM1190 1395q16 35 59 44t107 9q10 -31 12 -72t2 -119v-1064q-2 -29 4 -52q4 -18 16.5 -32.5t36.5 -10.5q-2 -23 -2 -45v-30q-12 -18 -39.5 -32t-68.5 -16 q-18 0 -37.5 8.5t-36.5 18.5q-25 16 -37 44t-12 58v21v1038q0 76 -1 130.5t-3 101.5z" />
</font>
</defs>
</svg>
