<?xml version="1.0" standalone="no"?>
<!DOCTYPE svg PUBLIC "-//W3C//DTD SVG 1.1//EN" "http://www.w3.org/Graphics/SVG/1.1/DTD/svg11.dtd" >
<svg xmlns="http://www.w3.org/2000/svg">
<metadata>
This is a custom SVG webfont generated by Font Squirrel.
Copyright   :  thebend aka Dimitri Castrique 2007 wwwthebendbe
Designer    : Dimitri Castrique
Foundry     : Dimitri Castrique
Foundry URL : FREE donationware
</metadata>
<defs>
<font id="QlassikBoldRegular" horiz-adv-x="454" >
<font-face units-per-em="1000" ascent="800" descent="-200" />
<missing-glyph horiz-adv-x="227" />
<glyph unicode=" "  horiz-adv-x="227" />
<glyph unicode="&#x09;" horiz-adv-x="227" />
<glyph unicode="&#xa0;" horiz-adv-x="227" />
<glyph unicode="!" horiz-adv-x="203" d="M55 207q-1 20 -1.5 43.5t-2.5 52.5q-2 39 -4 83.5t-3 87.5l-3 84q-2 39 -3 70q2 17 31.5 23t80.5 6q5 -14 8.5 -29t3.5 -34q0 -23 -1.5 -55.5t-3.5 -68.5l-4 -75q-2 -38 -4 -71q-2 -24 -3 -44.5t-2 -35.5q-3 -24 -26.5 -33t-53.5 -9zM99 113q35 0 45.5 -14.5t9.5 -43.5 q-1 -28 -13 -46t-48 -18q-31 0 -43.5 15t-12.5 47q0 60 62 60z" />
<glyph unicode="&#x22;" horiz-adv-x="293" d="M103 515q-2 -3 -10.5 -5.5t-19 -4.5t-20.5 -3t-16 -1q0 11 -1.5 37t-3.5 55q-1 18 -2.5 35.5t-2.5 33.5t-1.5 28.5t-0.5 18.5q12 7 30.5 12t35.5 5q11 0 17 -2q10 -5 14.5 -16t4.5 -26v-8q-1 -21 -3.5 -45.5t-5.5 -47.5t-7 -40.5t-7 -24.5zM245 515q-2 -3 -10.5 -5.5 t-19 -4.5t-20.5 -3t-16 -1q0 11 -1.5 37t-3.5 55q-1 18 -2.5 35.5t-2.5 33.5t-1.5 28.5t-0.5 18.5q11 7 30 12t36 5q11 0 17 -2q10 -5 14.5 -16t4.5 -26v-8q-1 -21 -3.5 -45.5t-5.5 -47.5t-7 -40.5t-7 -24.5z" />
<glyph unicode="#" horiz-adv-x="444" d="M25 200q0 19 1 24q-2 2 -3.5 6t-1.5 6t6 14l10 21h57l4 27l4 28l3 26l4 27h-66v21q-3 7 -3 13q0 1 2 6.5l4 11.5l5 11q3 6 5 8h62q1 5 1 11v11q1 16 3 30.5t10 26t25.5 18.5t49.5 7q8 -8 8 -16q0 -15 -2.5 -31t-6.5 -33l-5 -24h72q1 5 1 9v10q0 15 2 30t10 27.5t26 20 t50 7.5q5 -5 6 -8t1 -7q0 -14 -2.5 -30t-5.5 -30q-2 -8 -2.5 -14.5t-2.5 -14.5h56v-23q4 -7 4 -14q0 -1 -2 -5l-5 -10q-2 -6 -5 -11t-5 -8h-53q-2 -13 -4 -27.5t-4 -27.5q-2 -14 -4 -26l-3 -27h65v-22q4 -5 4 -13l-2 -5q-2 -5 -4 -11.5t-5 -12t-4 -7.5h-64q-1 -5 -1 -14v-13 q-1 -17 -3 -33.5t-10 -29.5t-25.5 -21t-48.5 -8q-9 6 -9 16q0 18 3.5 38t7.5 40q2 8 2.5 12.5t2.5 12.5h-74q-1 -4 -1 -10.5t-1 -11.5q-2 -15 -4.5 -32t-7.5 -31.5t-12.5 -23.5t-18.5 -9q-8 0 -18.5 2t-22.5 5q-2 0 -7 0.5t-7 0.5l10 54l9 56h-60zM190 379 q-2 -14 -3.5 -27.5t-3.5 -27.5t-3 -26t-3 -27h73l5 54q3 25 8 54h-73z" />
<glyph unicode="$" d="M334 280q32 -27 47 -57.5t15 -68.5q0 -57 -37 -98.5t-100 -57.5q-2 -20 -4.5 -39.5t-4.5 -39.5q0 -23 -22.5 -29.5t-70.5 -6.5l10 110q-38 3 -65.5 12t-39.5 19q-7 6 -11.5 11.5t-4.5 10.5q0 6 2 15t5.5 19t8.5 19.5t10 16.5q24 -17 55.5 -28t65.5 -11q41 0 65.5 16.5 t24.5 54.5q0 26 -14 48.5t-50 51.5l-15 15q-6 6 -16 14q-3 3 -9 8.5t-10 8.5q-2 2 -1.5 1t-1.5 1h1q-20 16 -37 31t-30 29q-26 29 -36.5 53.5t-10.5 47.5q0 22 8 43t24.5 39.5t41 32.5t57.5 21q2 20 4.5 40.5t4.5 40.5q0 23 24 29.5t69 6.5l-10 -115q47 -4 71.5 -16 t31.5 -22q0 -10 -5.5 -24.5t-13.5 -26.5q-6 -4 -10 -4.5t-9 -0.5t-10 1t-10 3q-15 6 -33.5 10t-38.5 4q-39 0 -61.5 -16t-22.5 -48v-3q3 -16 11.5 -29t21.5 -27q20 -19 38 -34l37 -31l9 -7q4 -4 8 -7l26 -21q12 -9 18 -16z" />
<glyph unicode="%" horiz-adv-x="710" d="M374 165q0 39 9 71.5t28 56.5t46.5 37.5t65.5 13.5q31 0 57 -9t44 -29.5t28 -54.5t10 -84q0 -81 -36 -129.5t-108 -48.5q-32 0 -58.5 8t-45.5 28t-29.5 54t-10.5 86zM38 480q0 38 9 70.5t27.5 56.5t46.5 37.5t65 13.5q31 0 57 -8.5t44.5 -29t28.5 -54.5t10 -84 q0 -81 -36 -130t-109 -49q-32 0 -58.5 8.5t-45.5 29t-29 54.5t-10 85zM162 -29q-1 0 -8 3.5t-15 9t-15 11.5t-7 12l40 69l61 104l75 126l79 131l73 121l58 95q13 18 22 18t23 -8q11 -7 18 -13.5t9 -16.5l-35 -59l-56 -95l-70 -118l-77 -128l-76 -126l-68 -110h1 q-16 -26 -29 -26h-3zM464 164q0 -58 13.5 -84.5t40.5 -26.5q23 0 38.5 27t15.5 86q0 60 -13.5 85.5t-38.5 25.5q-26 0 -41 -28t-15 -85zM130 479q0 -58 13.5 -84t38.5 -26t40 27t15 86q0 60 -13.5 85.5t-39.5 25.5q-24 0 -39 -28t-15 -86z" />
<glyph unicode="&#x26;" horiz-adv-x="590" d="M426 435q6 2 28.5 4.5t46.5 4.5h7h18q10 0 17 -3t11.5 -10t4.5 -22q0 -11 -9.5 -18.5t-34.5 -19.5h-16v-11q0 -12 -1 -30.5t-7 -45t-19 -60t-37 -74.5l14 -13l13 -13l56 -53q20 -19 30 -25q-3 -16 -10 -26t-16.5 -16t-19.5 -8.5t-19 -2.5q-8 0 -13.5 1t-11 4.5t-12.5 9.5 l-16 16q-9 8 -18 18t-28 28q-38 -43 -81.5 -60t-91.5 -17q-47 0 -83 13.5t-60 37t-36 56t-12 70.5q0 30 10 56.5t26 49.5t36 42t41 34q-31 42 -48.5 84.5t-17.5 84.5q0 33 12.5 60t34.5 45.5t53 28.5t68 10q51 0 82 -12.5t31 -32.5q0 -6 -7.5 -26t-18.5 -35q-23 17 -44 24 t-41 7q-31 0 -52.5 -17.5t-21.5 -56.5q0 -24 16 -55.5t41.5 -67t56.5 -72.5l61 -71q10 -11 14.5 -15t13.5 -15q32 68 43 111t11 76v11q0 3 -2 11zM212 74q30 0 56.5 13.5t53.5 45.5q-38 38 -76 80.5t-64 77.5q-30 -24 -46.5 -53.5t-16.5 -66.5q0 -40 24 -68.5t69 -28.5z" />
<glyph unicode="'" horiz-adv-x="150" d="M102 515q-2 -3 -10.5 -5.5t-19 -4.5t-20.5 -3t-16 -1q0 11 -1.5 37t-3.5 55q-1 18 -2.5 35.5t-2.5 33.5t-1.5 28.5t-0.5 18.5q12 7 30.5 12t35.5 5q11 0 17 -2q10 -5 14.5 -16t4.5 -26v-8q-1 -21 -3.5 -45.5t-5.5 -47.5t-7 -40.5t-7 -24.5z" />
<glyph unicode="(" horiz-adv-x="322" d="M151 293q0 -72 10.5 -135.5t29 -117t43 -95.5t52.5 -70q-6 -27 -20.5 -43t-35.5 -16q-18 9 -48 43t-58.5 93t-49.5 142t-21 189q0 99 19 178.5t46.5 138t59 97.5t57.5 57q23 -5 35.5 -20t15.5 -38q-60 -69 -97.5 -170t-37.5 -233z" />
<glyph unicode=")" horiz-adv-x="322" d="M161 294q0 132 -36.5 236.5t-97.5 168.5q6 27 21 40.5t35 13.5q18 -9 47.5 -42t58 -89.5t49.5 -136.5t21 -183q0 -100 -18.5 -182t-46.5 -143.5t-59.5 -102.5t-56.5 -59q-24 4 -36.5 22t-14.5 41q28 32 52.5 74.5t42.5 94t28.5 112.5t10.5 130v5z" />
<glyph unicode="*" horiz-adv-x="450" d="M186 458q11 10 20.5 10t26.5 -20q3 5 10 9t21 11l100 -104q7 -9 3.5 -17.5t-14 -16.5t-24.5 -13.5t-26 -8.5l-68 122q-3 6 -3 11l-63 -118q-7 -12 -17.5 -12.5t-22 6t-21.5 17.5t-17 22l95 101v1zM203 515q3 -3 9 -7l-18 139q-1 13 8.5 17.5t25.5 4.5q28 0 52 -12 l-16 -135q-3 -13 -11.5 -18t-39.5 2q5 -5 4 -13t-10 -23l-145 27q-11 2 -13.5 11t1 21t10.5 24.5t15 21.5l127 -59zM381 564q12 6 20.5 0.5t14 -16.5t7 -26t-0.5 -27l-139 -26q-14 -2 -22 3t-10 30z" />
<glyph unicode="+" horiz-adv-x="499" d="M293 100q1 -17 -7 -26t-20.5 -13t-28.5 -4.5t-32 -0.5v174h-164q0 39 6.5 57.5t26.5 18.5h131v77q0 17 -0.5 36.5t-1.5 34.5q9 10 25.5 12t45.5 3q12 -6 15.5 -14.5t3.5 -25.5v-123h164q0 -39 -5.5 -57.5t-28.5 -18.5h-130v-130z" />
<glyph unicode="," horiz-adv-x="193" d="M95 117q37 0 49.5 -13.5t10.5 -49.5v-7q0 -4 -1 -7q-2 -21 -11 -43t-21 -41t-25.5 -34.5t-25.5 -23.5h1q-7 -5 -15 -6.5t-16 -1.5q-22 0 -41 13q2 2 4 7t4 7q17 26 28.5 48t13.5 51q-7 3 -7 8q-1 2 -1 4t-6 16q-2 8 -5 16.5t-3 15.5q8 17 26 29t41 12z" />
<glyph unicode="-" horiz-adv-x="292" d="M221 226q-17 -3 -37 -6l-42 -5q-22 -2 -43.5 -3.5t-39.5 -1.5q-8 0 -15 1t-17 5q4 38 11 56.5t23 19.5q41 4 89 9.5t83 10.5q7 -1 15 -4t16 -7q-2 -30 -12 -51t-32 -24h1z" />
<glyph unicode="." horiz-adv-x="193" d="M28 54q0 62 68 62q39 0 50.5 -15t10.5 -45q-1 -29 -14 -47.5t-54 -18.5q-35 0 -48 16t-13 48z" />
<glyph unicode="/" horiz-adv-x="360" d="M334 696l-55 -185l-53 -186l-42 -144l-42 -144q-7 -25 -16.5 -47.5t-21.5 -33.5q-5 -4 -11 -6.5t-15.5 -3.5t-24.5 -1.5t-39 -0.5l107 364l108 365q4 12 9.5 18.5t25.5 8.5q25 3 60 2z" />
<glyph unicode="0" d="M23 296q0 106 26 172.5t68 98.5q21 17 49 26t59 9q60 0 98 -25t59.5 -66t30 -93.5t8.5 -108.5q0 -161 -49 -242t-153 -81q-46 0 -82.5 17.5t-61.5 55t-38.5 96.5t-13.5 141zM132 293q0 -65 6.5 -109t18.5 -70.5t28.5 -38t36.5 -11.5q19 0 35.5 11.5t29 39.5t19.5 76 t7 122q0 60 -6.5 100.5t-18 65.5t-27.5 35.5t-35 10.5q-41 0 -67.5 -53.5t-26.5 -178.5z" />
<glyph unicode="1" horiz-adv-x="393" d="M308 590q-1 -41 -1.5 -103t-1.5 -131.5t-1.5 -141t-0.5 -132.5q7 -2 13 -4.5t14 -4.5q14 -5 26 -10t12 -10q0 -26 -2 -35.5t-13 -14.5q-17 -3 -28 -3q-3 0 -5.5 -0.5t-4.5 -0.5q-22 0 -47 -1l-51 -1h-50h-44v25q0 7 -0.5 13.5t-0.5 13.5q0 11 15 16.5t35 11.5 q5 2 10.5 3.5t11.5 3.5q2 90 3 195t3 222l-33 -9q-19 -5 -38 -9.5t-34 -8.5t-22 -5q-5 10 -9 20t-5 19q5 8 12 16.5t16 17.5l53 18l55 18q26 9 48 15.5t34 9.5q8 -2 16.5 -5.5t14.5 -7.5z" />
<glyph unicode="2" d="M65 472q-8 0 -13.5 7.5t-8.5 17t-4.5 19t-1.5 13.5q9 16 27 29t43 23t55 15.5t62 5.5q46 0 78 -12t51 -33t27.5 -49.5t8.5 -60.5q0 -7 -0.5 -13.5t-1.5 -12.5q-5 -35 -22.5 -72.5t-43.5 -73.5q-14 -20 -31 -40l-36 -44l-40 -48l-48 -61q31 -1 62 -1h66q21 0 42 1t38 2 q11 1 24 1h19q-3 -35 -13.5 -57t-24.5 -24q-18 -2 -45 -3.5t-62 -1.5q-66 0 -127 0.5t-109 3.5q-7 17 -8 26q2 14 6.5 25.5t15.5 28.5l50 63l46 56l51 64q24 32 42 61t28 56t10 52q0 82 -76 82q-35 0 -68.5 -13t-51.5 -25h1z" />
<glyph unicode="3" d="M352 390q-11 -17 -29 -35.5t-45 -37.5q61 -14 95 -53t34 -101q0 -55 -19 -97.5t-52.5 -71t-79 -43.5t-97.5 -15q-42 0 -68 7.5t-37 17.5h1q-11 10 -14.5 21t-3.5 22q0 17 8 44q23 -14 51.5 -22.5t57.5 -8.5q34 0 61 11t45 30.5t27.5 46t8.5 56.5q0 2 -0.5 4.5t-0.5 4.5 q0 8 -1 11q-5 42 -40.5 60.5t-88.5 18.5q-8 0 -20 -0.5t-25 -2.5q0 11 -1 13q-2 6 -2 11q2 11 5.5 21t8.5 18q25 10 48.5 23t42 29.5t29.5 36t11 42.5q0 26 -14.5 46.5t-52.5 20.5q-32 0 -60 -9.5t-50 -25.5q-7 -5 -15 -5q-9 0 -16 10q-5 10 -7 21.5t-2 20.5v5 q11 26 58 46.5t114 20.5q47 0 77.5 -12.5t48.5 -32t25 -42t7 -43.5q0 -22 -6 -43.5t-17 -38.5z" />
<glyph unicode="4" d="M245 110q0 9 0.5 16.5t0.5 17.5q-56 0 -112 2t-91 6q-15 14 -22 29t-9 29q8 19 23.5 50l34.5 67l42 73l45.5 72t43 61t36.5 41q13 13 32 20.5t36 10.5q12 0 21.5 -1.5t16.5 -3.5q2 0 6 -0.5t5 -0.5q0 -23 -0.5 -49.5t-0.5 -50.5v-95v-92q0 -47 -1 -93q18 2 36.5 2.5 t29.5 0.5q2 -4 2.5 -6.5t1.5 -4.5q4 -8 4 -16q-6 -16 -16.5 -29t-31.5 -19q-6 -2 -11 -2h-12h-3v-111q0 -15 -6 -25t-27 -14q-11 -2 -31.5 -2.5t-42.5 -0.5v118zM250 352q0 11 0.5 21t0.5 20v16v11q0 6 0.5 11.5t0.5 16.5q-20 -26 -39 -55t-36 -59t-31.5 -59t-25.5 -54 q54 -3 126 -3q2 27 2.5 56.5t1.5 56.5v21z" />
<glyph unicode="5" d="M365 530q-13 -3 -37 -5.5t-51.5 -4t-56.5 -2.5t-53 -1q-6 -32 -12 -67.5t-11 -70.5h8q11 -1 23.5 -1t27.5 -2q11 -2 23 -3.5t23 -3.5q30 -6 56.5 -17.5t47.5 -30t35 -45.5t17 -64q0 -5 0.5 -9.5t0.5 -9.5v-18v-12q0 -7 -1 -13v1q-3 -50 -22 -90t-50.5 -67.5t-74.5 -42.5 t-95 -15q-54 0 -80.5 11.5t-31.5 20.5q-8 27 -8 48q0 5 0.5 10t4.5 18q20 -14 47 -21t56 -7q32 0 58.5 11.5t46 32.5t30.5 50t11 63q0 53 -23 79.5t-65 37.5q-27 8 -56 11t-51 5q-17 2 -34 2.5t-28 0.5q3 24 8 53l9 60q4 30 9 59.5t10 55.5l6 31l5 27q27 0 68 1l84 2 q43 1 82.5 2.5t63.5 2.5l-4 -58q-1 -5 -5 -9t-12 -6h1z" />
<glyph unicode="6" d="M22 235v31q0 17 2 34q5 81 26 146.5t55 108.5q25 32 53 53.5t56 34t55 17.5t51 5q29 0 52.5 -6.5t28.5 -27.5q0 -10 -1.5 -21t-4.5 -20q-66 4 -120 -12t-89 -63q-21 -28 -36 -67t-23 -93q-1 -5 -1 -8.5t-1 -8.5q-3 -22 -5 -44t-2 -45q0 -96 29 -141t76 -45q40 0 68.5 37 t28.5 109q0 54 -18 80t-45 33h1q-8 2 -14 2q-11 0 -29.5 -4t-32.5 -8v28q0 19 6 33t20 21q24 11 57 11q13 0 18 -1h-1q36 -3 62 -20t42 -42.5t23.5 -57t7.5 -65.5q0 -51 -12 -93.5t-36.5 -73t-62.5 -48t-90 -17.5q-87 0 -139.5 59.5t-54.5 188.5z" />
<glyph unicode="7" horiz-adv-x="432" d="M60 -24l33 86l39 94l42 98l43 98l39 91l34 79q-26 -1 -64 -1h-90q-33 0 -57.5 4t-42.5 10q-4 8 -4 13q0 11 4.5 28.5t11.5 34.5q24 -7 46.5 -8.5t45.5 -1.5h272q-5 -14 -10 -31l-9 -31q0 -1 -0.5 -2.5t-0.5 -2.5q-9 -30 -25 -72l-35 -88l-40 -98l-41 -98l-53 -124 q-23 -57 -37 -100h-33q-18 0 -34 1.5t-26.5 6t-8.5 13.5z" />
<glyph unicode="8" d="M346 309q35 -29 53.5 -62t18.5 -78q0 -38 -13 -70.5t-37.5 -56.5t-61 -38t-83.5 -14q-56 0 -93.5 16t-60.5 41t-33 56.5t-10 62.5q0 30 9 55t24 46q27 35 83 72q-44 30 -66 55q-17 20 -25 43.5t-8 47.5q0 39 13 70t36.5 53.5t56.5 34.5t73 12q4 0 7.5 -0.5t7.5 -0.5h14 q38 -3 66.5 -16t47 -34t27.5 -48t9 -57q0 -29 -9.5 -53.5t-23.5 -42.5q-11 -14 -29 -29.5t-39 -30.5q17 -11 28 -20t19 -14h-1zM223 68q17 0 33.5 6t29 18t20.5 30t8 42q0 30 -8.5 47t-27.5 34q-24 24 -66 49q-35 -23 -60.5 -54t-25.5 -69q0 -50 28.5 -76.5t68.5 -26.5z M145 495q0 -22 7.5 -37t24.5 -30q10 -11 25 -21l31 -21q32 22 52 48.5t20 60.5q0 42 -23.5 62t-55.5 20q-31 0 -56 -20t-25 -62z" />
<glyph unicode="9" d="M74 4q45 -1 93.5 23t82.5 63q19 28 36 69t23 84q3 22 4.5 46t1.5 47q0 91 -21 143.5t-74 52.5q-48 0 -74.5 -38.5t-26.5 -102.5q0 -51 18.5 -78.5t45.5 -34.5h-1q6 -1 12 -1.5t11 -0.5q11 0 25.5 2.5t27.5 6.5q2 -11 2 -18v-13q0 -14 -6 -28t-19 -22q-9 -4 -23 -7t-32 -3 h-8q-2 0 -5 0.5t-5 0.5q-35 4 -61.5 20.5t-44 41t-26.5 57t-9 68.5q0 51 13 92.5t38.5 71t63 46t87.5 16.5q53 0 89 -16t58 -50.5t31.5 -87.5t10.5 -128q-1 -101 -28 -182.5t-84 -136.5q-22 -19 -46 -32.5t-48 -22.5t-45 -13t-37 -4h-9q-24 1 -37 5t-18 12q-7 14 -9 28.5 t-2 26.5q11 -2 16 -2.5t9 -0.5z" />
<glyph unicode=":" horiz-adv-x="193" d="M28 374q0 62 68 62q39 0 50.5 -15.5t10.5 -44.5t-14.5 -47.5t-52.5 -18.5q-34 0 -48 15.5t-14 48.5zM28 54q0 62 68 62q39 0 50.5 -15t10.5 -45q-1 -29 -14.5 -47.5t-52.5 -18.5q-34 0 -48 16t-14 48z" />
<glyph unicode=";" horiz-adv-x="193" d="M95 117q37 0 49.5 -13.5t10.5 -49.5v-7q0 -4 -1 -7q-2 -21 -11 -43t-21 -41t-25.5 -34.5t-25.5 -23.5h1q-7 -5 -15 -6.5t-16 -1.5q-22 0 -41 13q2 2 4 7t4 7q17 26 28.5 48t13.5 51q-5 3 -7 8q-1 2 -1 4t-6 16q-2 8 -5 16.5t-3 15.5q8 17 26 29t41 12zM28 374q0 62 68 62 q39 0 50.5 -15.5t10.5 -44.5t-14.5 -47.5t-52.5 -18.5q-35 0 -48.5 15.5t-13.5 48.5z" />
<glyph unicode="&#x3c;" horiz-adv-x="458" d="M383 548q4 -8 6.5 -22.5t2.5 -23.5l-117 -90l-43 -33l-39 -30l-29 -22q-12 -9 -14 -10q10 -8 26 -19l35 -26l40 -29l41 -30l101 -74q0 -8 -3.5 -24.5t-8.5 -27.5q-4 -6 -9.5 -10.5t-13.5 -5.5q-16 -2 -30 8l-134 101l-136 100q-8 7 -13.5 14.5t-5.5 16.5q0 11 2 19.5 t7 14.5l135 102l50 38l46 35l33 26q13 10 16 12q8 6 14.5 9t14.5 1q10 -2 16 -7.5t10 -12.5z" />
<glyph unicode="=" horiz-adv-x="499" d="M41 328q1 38 7.5 54.5t26.5 16.5h383q-1 -38 -7 -57t-27 -19h-373zM41 139q1 36 7.5 53.5t26.5 17.5h383q-1 -38 -7 -57t-27 -19h-373z" />
<glyph unicode="&#x3e;" horiz-adv-x="455" d="M70 86q-4 8 -6 22.5t-3 24.5l118 90l44 34l39 29l29 22q11 8 13 9l-20 14l-32 24l-39 29l-43 31l-110 80q0 8 3.5 25t8.5 27q10 15 25 16q18 2 29 -8h-1l136 -101l136 -100q8 -7 13 -14t5 -16q0 -25 -12 -37l-134 -101l-51 -38l-44 -34l-33 -26q-13 -10 -15 -12 q-16 -13 -30 -10q-9 2 -15.5 7.5t-10.5 12.5z" />
<glyph unicode="?" horiz-adv-x="322" d="M231 365q-47 -61 -47 -102q0 -9 1.5 -17.5t3.5 -16.5q1 -5 1.5 -10t0.5 -10q-5 -8 -18.5 -12t-26.5 -4q-17 0 -33 10t-22 32q-5 20 -5 40q0 30 13 59q8 17 19 33l21 32l8 12q17 24 31.5 48t14.5 53q0 32 -16.5 46.5t-41.5 14.5q-16 0 -34.5 -6t-41.5 -20 q-14 2 -25.5 15.5t-11.5 42.5q8 13 23.5 23.5t34.5 17t40 10t40 3.5q39 0 66 -10.5t43.5 -28.5t24 -42.5t7.5 -53.5q0 -50 -21 -87t-49 -72zM150 113q35 0 45.5 -14.5t9.5 -43.5q-1 -28 -12.5 -46t-48.5 -18q-31 0 -43.5 15t-12.5 47q0 60 62 60z" />
<glyph unicode="@" horiz-adv-x="743" d="M564 -46q7 -11 11.5 -24t5.5 -25q-1 -1 -1.5 -1t-1.5 -1l-23 -15q-11 -7 -23 -12q-98 -32 -185 -32q-68 0 -125 21t-98.5 66.5t-63.5 117t-20 172.5q0 7 0.5 15.5t1.5 14.5q6 87 34 155t74.5 114.5t110 70.5t140.5 24q138 0 216.5 -73t78.5 -223q0 -87 -17 -145 t-43.5 -92.5t-60 -48.5t-66.5 -14q-43 0 -64 21q-15 -8 -41 -17t-60 -9q-24 1 -45 6t-37 18.5t-25.5 37t-10.5 61.5q0 40 14 69t40 49q23 17 49 25t46 10q2 0 4.5 0.5t4.5 0.5h8h9q4 0 9 -1v8q0 4 1 8v-1q3 34 -7.5 54.5t-38.5 19.5q-30 0 -62 -16q-14 -7 -35 -7 q-8 9 -10.5 18t-4.5 17q0 2 -0.5 3.5t-0.5 2.5v4q0 6 3 11q13 14 48.5 28t78.5 14q38 0 64 -11.5t39 -36.5q12 -21 15 -55q2 -14 2 -29v-31q-1 -14 -1 -27v-26q0 -8 -0.5 -15t-0.5 -15v-16q0 -8 -1 -15q0 -17 -0.5 -41t-1.5 -36q8 -6 13 -6q13 0 29 10.5t30 36t23 67.5 t9 105q0 120 -50.5 174t-148.5 54q-125 0 -196 -79.5t-71 -244.5q0 -80 15 -135.5t43.5 -90.5t70.5 -50.5t97 -15.5q37 2 68 7.5t58 12.5h-1l37 9q18 4 34 2zM320 120q2 -18 9.5 -24.5t13.5 -8.5h-1q5 -1 12 -0.5t12 1.5q15 2 26 13t16 29q0 21 1 48t1 48q-43 -2 -67 -21 t-24 -72q0 -2 0.5 -3.5t0.5 -3.5v-6z" />
<glyph unicode="A" horiz-adv-x="533" d="M412 16l-12 34l-10 35l-14 44l-15 51h-190l-31 -92l-26 -75q-3 -8 -10.5 -12.5t-28.5 -4.5q-11 0 -31.5 2.5t-37.5 6.5l4 22q2 10 5 17l42 124l50 141l64 180q31 87 50 147q3 11 6.5 18t12.5 7q1 0 5 2q3 1 6 1.5t8 0.5q8 1 17 1h14q16 -3 27 -15l35 -106l37 -115l18 -54 l21 -62l20 -59l16 -47h-1l27 -77q13 -35 22 -65q4 -13 7.5 -25.5t7.5 -23.5l1 -2q0 -4 -6 -10q-11 -4 -30 -6.5t-33 -2.5q-11 0 -21 3.5t-24 14.5zM197 260h139q-4 11 -8 24l-6 23q-6 20 -11 39l-10 36l-13 39q-5 15 -8 26t-6 20.5t-6 22.5l-24 -78l-28 -90l1 1z" />
<glyph unicode="B" d="M52 631v11q0 6 1 11q8 4 16.5 5t18.5 2q21 2 51 3.5t59 1.5q51 0 87 -11.5t59.5 -32t34 -48t10.5 -59.5q0 -53 -16.5 -83t-35.5 -46q-5 -3 -11 -7l-12 -8q15 -4 29 -13q12 -8 26 -19t26.5 -27.5t20.5 -40t8 -55.5q0 -57 -17.5 -98.5t-47.5 -68.5t-71.5 -40t-89.5 -13 q-38 1 -73 3t-73 6v627zM158 73q9 -2 22 -2.5t21 -0.5q44 0 75 34t31 109v10q0 5 -1 10q-3 26 -12.5 43t-23.5 27t-32 14t-40 4h-20q-12 0 -20 -1v-247zM158 395q6 1 12 1h15q6 0 11.5 0.5t9.5 0.5q14 0 32 3h-2q17 8 30 32.5t13 66.5q0 11 -1 16q-4 39 -26.5 57t-57.5 18 q-6 0 -17 -0.5t-19 -1.5v-193z" />
<glyph unicode="C" horiz-adv-x="475" d="M307 677q33 0 58.5 -5.5t43.5 -14t28.5 -18t14.5 -16.5q0 -17 -4.5 -30.5t-12.5 -23.5h-11q-7 -1 -11.5 1t-12.5 6q-2 1 -3.5 1.5t-3.5 1.5v-1q-11 5 -21.5 8.5t-22.5 5.5q-6 1 -14 1.5t-16 0.5h-10q-5 0 -10 -1q-32 -3 -61 -19.5t-51 -49.5t-35 -83.5t-13 -120.5 q0 -128 45 -187t127 -59q17 0 34.5 3t34 8t30.5 10.5t23 11.5q12 -20 14 -41q-3 -29 -26 -48q-14 -13 -47.5 -23t-76.5 -10q-62 0 -112 16.5t-85 54.5t-54 101.5t-19 157.5q0 188 88 285q42 45 90.5 61t101.5 16z" />
<glyph unicode="D" horiz-adv-x="537" d="M74 657q9 1 25 2.5t35 2.5t40 2t40 1q85 0 140 -23t87.5 -64.5t45.5 -98t13 -123.5q0 -103 -21 -175t-72 -120q-22 -20 -46.5 -33t-49.5 -20.5t-49 -10t-45 -2.5q-45 0 -83.5 3t-80.5 8v579q0 29 2.5 43t11.5 27zM384 356q0 55 -8 95.5t-23.5 67.5t-39.5 42t-56 20 q-26 6 -57 6h-22q-10 0 -18 -1v-508q25 -3 60 -3q30 0 59 11t52.5 41.5t38 85.5t14.5 143z" />
<glyph unicode="E" horiz-adv-x="393" d="M159 79q14 -2 33 -2h40h70q40 0 71 1q-5 -42 -13.5 -58t-28.5 -21q-19 -1 -47.5 -1.5t-70.5 -0.5q-45 0 -84.5 1.5t-68.5 4.5q-5 23 -8 43v474v64q0 32 -2 62q2 1 6.5 2.5t9.5 3.5l12 4q5 2 11 4t21 3h249q-1 -20 -3 -33.5t-5 -21.5t-7.5 -12.5t-11.5 -7.5 q-22 -4 -44.5 -4.5t-50.5 -0.5h-78v-192h184q-3 -27 -6.5 -42.5t-9 -24t-13.5 -11t-20 -2.5h-135v-232z" />
<glyph unicode="F" horiz-adv-x="385" d="M104 -3q-14 0 -27 2.5t-25 9.5v525q0 33 -0.5 59t-1.5 50q4 2 9.5 5.5t4.5 2.5q8 3 20 7t29 5h256q-3 -42 -9.5 -56t-20.5 -18q-11 -3 -25.5 -3.5t-38.5 -0.5h-116v-204h188q-2 -26 -5 -42t-9 -24.5t-14.5 -11t-20.5 -2.5h-139v-199v-92q-8 -3 -22.5 -8t-32.5 -5z" />
<glyph unicode="G" horiz-adv-x="530" d="M317 364q2 3 6 6q2 2 5.5 4.5t7.5 2.5q12 1 30.5 1.5t39 1t38.5 0.5h28q5 -18 7 -50t2 -56v-235q-11 -8 -26.5 -18t-29.5 -16q-22 -8 -52.5 -14t-69.5 -6h-16q-9 0 -17 1q-52 5 -97 24t-78 58t-51.5 101t-18.5 152q0 106 28 175.5t64 108.5q35 37 84.5 54t113.5 17 q33 0 58.5 -5.5t43.5 -14t28.5 -18t14.5 -16.5q0 -14 -5.5 -25.5t-14.5 -23.5l-6 -1q-12 -2 -22 4h1l-6 3q-4 2 -7 3q-37 13 -79 13q-86 0 -134 -64t-48 -204q0 -78 14 -128.5t37.5 -80t54 -41t64.5 -11.5q23 0 40.5 4.5t26.5 11.5v215q-10 0 -20 2.5t-18 9.5t-14 20t-7 35z " />
<glyph unicode="H" horiz-adv-x="544" d="M383 0q-9 24 -9 52v260q-15 -1 -38 -1h-58h-118v-246q0 -18 -3 -30.5t-12 -25.5q-4 -5 -10 -7t-16.5 -3.5t-26.5 -1.5h-41q1 35 1.5 80.5t0.5 98.5v325q0 46 -0.5 82.5t-1.5 65.5q10 10 31.5 13t64.5 3q8 -12 10.5 -26.5t2.5 -40.5v-207h214v202q0 36 11 59q10 9 30 11 t68 2q-1 -36 -1.5 -81.5t-0.5 -97.5v-327q0 -47 0.5 -81.5t1.5 -63.5q-9 -11 -30.5 -14t-60.5 -3z" />
<glyph unicode="I" horiz-adv-x="217" d="M68 -3q-9 0 -13.5 5t-4.5 19v119q0 44 0.5 92.5t0.5 99.5q0 30 -0.5 59.5t-0.5 58.5v92q0 40 -0.5 63.5t-1.5 30.5q8 19 29 24t61 5q13 0 16 -17t3 -53v-124q0 -34 -0.5 -68.5t-0.5 -68.5t0.5 -66.5t0.5 -63.5v-98q0 -29 0.5 -48t0.5 -30v-14q-8 -11 -29 -14t-61 -3z" />
<glyph unicode="J" horiz-adv-x="286" d="M29 11q13 0 29.5 2.5t30.5 17.5t23 49t6 97v333q0 41 -0.5 72.5t-1.5 54.5q9 18 31.5 23t67.5 5q7 -11 8.5 -25t1.5 -40v-409q0 -45 -2 -81t-9.5 -65t-21.5 -51t-37 -37q-25 -17 -61 -23q-8 -2 -16 -2h-15q-23 0 -40 5t-27 17.5t-12 23.5q1 14 5 22l6 16q23 -5 34 -5z " />
<glyph unicode="K" horiz-adv-x="464" d="M63 -1q-7 10 -9 20.5t-2 23.5v474q0 42 -0.5 74t-1.5 58q8 7 31 11t68 4q7 -13 8.5 -27t1.5 -40v-206l27 38l27 38l70 99l69 97q9 2 15 2h12q5 0 10.5 -0.5t10.5 -0.5h17q17 -1 25 -6.5t8 -12.5t-7 -20l-6 -9l-7 -10q-4 -5 -6 -8.5t-1 -2.5l-40 -55l-44 -60l-44 -59 l-42 -56q21 -22 42 -51t41 -61.5t38 -65.5l34 -63l37 -66q16 -29 27 -40q0 -11 -17 -18q-6 -2 -17.5 -4t-25.5 -2h-15q-30 4 -46.5 28t-27.5 48q-10 22 -23.5 48t-29.5 53t-34 52t-36 46q-19 21 -26 30.5t-15 14.5v-177q0 -24 0.5 -43t0.5 -36v-45q-7 -11 -27.5 -13.5 t-61.5 -2.5z" />
<glyph unicode="L" horiz-adv-x="387" d="M150 662q5 -13 7 -29t2 -44v-508q17 -2 39.5 -2.5t45.5 -0.5q26 0 57.5 0.5t66.5 3.5q2 -17 2 -24v-14q-2 -13 -11 -26.5t-28 -18.5q-14 -1 -39 -1.5t-61 -0.5q-50 0 -96.5 2t-75.5 4l-2 15l-2 14q-1 6 -1.5 12.5t-2.5 12.5v482q0 35 -0.5 61t-1.5 44q10 13 29 17t63 4z " />
<glyph unicode="M" horiz-adv-x="674" d="M84 635q0 5 3 12.5t14 12.5q2 1 12 1q2 0 2.5 0.5t2.5 0.5q25 3 64 3q9 -18 21 -47l25 -66l27 -78l28 -80l1 -3l1 -3l-1 1l6 -17q2 -9 6 -19.5t7 -19.5l6 -19q2 -9 5 -18q2 -5 4 -9.5t2 -6.5l-1 1l7 -23q4 9 7.5 19t7.5 20q2 7 5 14l5 15q5 14 10 29.5t10 27.5l21 56 l20 56l27 75l24 68q1 1 1.5 2.5t1.5 2.5l-1 -1q2 4 3.5 7.5t8.5 8.5q16 3 40.5 5t46.5 2q4 -11 5.5 -22t3.5 -29l15 -182l15 -183v1q8 -67 12.5 -127.5t7.5 -107.5q-7 -12 -30 -15t-69 -3q-14 21 -14 45q0 6 -0.5 12t-1.5 11q-1 8 -1.5 15.5t-0.5 16.5q-1 11 -2 23.5 t-2 26.5l-2 35q-1 18 -3 36q-1 8 -1 16t-1 14v-1q-1 5 -1.5 13.5t-0.5 13.5q-2 20 -2 46.5t-1 51.5q0 9 -0.5 17.5t-0.5 17.5q-1 9 -1 17.5t-1 16.5l-28 -83q-14 -41 -25 -69l-26 -74l-28 -76q-4 -10 -7 -19t-7 -18l1 1q-7 -20 -29 -24q-10 -2 -25.5 -3t-29.5 -1l-23 69 l-28 85q-7 17 -12.5 37t-12.5 39q-2 7 -11 32l-18 56q-6 18 -8 25.5t-3 10.5t-1.5 5t-2.5 8v-24q0 -9 -0.5 -18t-0.5 -19q-1 -27 -1 -54t-2 -46l-12 -122q-5 -59 -8 -105q-1 -3 -1 -11q-2 -8 -3.5 -15.5t-6.5 -16.5q-7 -5 -16 -8.5t-25 -3.5q-8 0 -20.5 0.5t-25.5 2.5 q-11 0 -11 7q3 49 7.5 106.5t10.5 121.5l12 132l13 137l6 65q3 33 5 64z" />
<glyph unicode="N" horiz-adv-x="567" d="M335 338l35 -70l32 -67q-2 34 -2.5 76t-0.5 77v241q0 34 10 55q9 6 15.5 9t16 4.5t23.5 1.5h39q-1 -45 -1.5 -98t-0.5 -112v-441q-3 -2 -19.5 -11t-33.5 -9q-7 0 -22 1t-26 6l-43 76l-46 81v-1l-26 46l-27 47l-40 74l-23 46l-22 49q-5 10 -9.5 21.5t-9.5 20.5 q-1 1 -1.5 2t-1.5 2q2 -45 3 -88.5t2 -75.5v-233q0 -20 -2 -31t-7 -22q-6 -6 -13 -10t-17.5 -5.5t-26 -2t-39.5 -0.5q1 43 1.5 95.5t0.5 112.5v420l-8 11q-4 5 -4 7v3q0 1 2 7q6 3 16 5.5t21 4t22 2t17 0.5q17 0 39 -13q16 -32 40 -72l50 -87q8 -13 14.5 -25.5t13.5 -24.5 l12 -22l14 -22z" />
<glyph unicode="O" horiz-adv-x="582" d="M142 324q0 -130 41 -193t106 -63q69 0 107 64t38 202q0 69 -11.5 118t-31 81t-47 47t-58.5 15q-65 0 -104.5 -65t-39.5 -206zM290 677q66 0 114.5 -23t80 -66.5t47 -107t15.5 -143.5q0 -167 -65 -259.5t-198 -92.5q-69 0 -118 24t-79.5 68.5t-45 108t-14.5 143.5 q0 173 67.5 260.5t195.5 87.5z" />
<glyph unicode="P" horiz-adv-x="433" d="M50 630v13q0 4 -0.5 8.5t-0.5 8.5q12 9 37 10q23 2 49.5 2.5t53.5 0.5q52 0 93 -11.5t69.5 -36.5t43.5 -64.5t15 -95.5q0 -54 -16.5 -91t-42 -60.5t-55.5 -35t-56 -14.5q-10 0 -21 1t-20.5 5.5t-15.5 14t-6 26.5q0 5 7.5 9.5t16.5 4.5q16 0 33 7t30.5 24t22.5 44.5 t9 68.5q0 34 -8 58t-21.5 38.5t-31.5 21t-39 6.5h-22q-9 0 -17 -1v-432l1 -110q0 -25 -12 -41q-9 -9 -24 -10.5t-45 -1.5h-27q1 43 1.5 95t0.5 112z" />
<glyph unicode="Q" horiz-adv-x="585" d="M693 -67q26 -7 44 -21t30 -27l-3 -8q-3 -6 -5 -11t-10 -21q-13 10 -32.5 18.5t-45.5 10.5q-30 2 -69.5 -3.5t-81.5 -15.5q-44 -11 -84 -18.5t-73 -3.5q-30 4 -52.5 23t-38.5 44t-24 50t-9 42q-57 7 -96.5 36t-65 73.5t-37 103t-11.5 124.5q0 173 68 260.5t196 87.5 q66 0 114.5 -23t80 -66.5t47 -107t15.5 -143.5q0 -79 -13 -138.5t-37.5 -101.5t-59.5 -67t-78 -36q1 -9 4 -21t8.5 -23.5t14 -21.5t20.5 -14h-1q20 -5 33 -5q18 0 39 3.5t43 8.5q6 2 13.5 2.5t14.5 2.5q26 5 51 8t48 3q11 0 22.5 -1t20.5 -3zM292 67q68 0 106 64t38 202 q0 70 -10 119.5t-28.5 81t-45 46t-59.5 15.5q-69 0 -108 -65.5t-39 -206.5q0 -129 41.5 -192.5t104.5 -63.5z" />
<glyph unicode="R" horiz-adv-x="463" d="M470 20q7 -9 -1 -14.5t-21 -7.5q-15 -4 -36 -4h-14q-15 1 -26.5 9t-20.5 18.5t-16 23.5t-12 25l-23 47q-14 26 -29.5 52t-33 51.5t-35.5 46.5q-2 0 -5 0.5t-5 0.5h-34v-218q0 -12 -2 -21.5t-9 -18.5q-8 -10 -25.5 -11.5t-51.5 -1.5h-20q1 44 1.5 96t0.5 111v333v49 q0 23 -1 44v9q0 6 1 11q6 5 12 6.5t17 3.5q2 0 3.5 0.5t2.5 0.5q2 1 6 1t8 1h6q9 1 19.5 1.5t19.5 0.5h48q6 0 13.5 -0.5t13.5 -0.5q91 -5 136.5 -50t45.5 -141q0 -31 -11 -59.5t-26 -52t-31 -40.5t-26 -25q29 -42 53 -88l46 -84l36 -66q16 -28 25 -37zM235 349q22 8 39 38 t17 88t-25 87t-65 29q-13 0 -24 -0.5t-19 -1.5v-244h40q11 0 20.5 0.5t16.5 3.5z" />
<glyph unicode="S" horiz-adv-x="400" d="M214 677q63 0 97 -16t42 -28q0 -23 -17 -49q-9 -6 -19 -6q-11 0 -21 5q-14 7 -33.5 11.5t-39.5 4.5q-39 0 -61.5 -18.5t-22.5 -55.5v-13q3 -19 11.5 -34.5t22.5 -30.5q15 -17 36 -37l39 -37q1 -1 2.5 -2t1.5 -2l30 -28l26 -27q32 -33 47 -67.5t15 -76.5q0 -84 -51 -134.5 t-149 -50.5q-52 0 -86.5 11t-48.5 25q-15 14 -15 25q0 12 8 32t19 37q25 -20 56.5 -33t63.5 -13q41 0 65.5 24.5t24.5 69.5q0 31 -13.5 56t-47.5 57q-8 10 -17 19l-19 19q-2 2 -5.5 5t-7.5 7l-12 12l-34 34q-16 15 -28 30q-26 32 -36 60.5t-10 56.5q0 30 10.5 58t33 50.5 t58 36t85.5 13.5z" />
<glyph unicode="T" horiz-adv-x="468" d="M281 582v-442q0 -42 0.5 -73t1.5 -54q-6 -5 -13 -8.5t-17.5 -5t-26 -2t-39.5 -0.5q-12 21 -12 47v538h-117q-11 0 -23.5 1t-26.5 3q-2 6 -2 8v6q0 10 2.5 23t6.5 22q2 6 6.5 11t8.5 9h14q3 0 7 -0.5t8 -0.5q17 -1 37 -1h50h312q0 -17 -2 -31.5t-5 -26.5q-3 -11 -13.5 -16 t-15.5 -7h-141z" />
<glyph unicode="U" horiz-adv-x="562" d="M280 66q45 0 67.5 6.5t33.5 14.5l-4 -3q10 51 14.5 112t4.5 121l1 271q0 18 3 33.5t8 29.5q7 4 13.5 7t16.5 4.5t25 2t39 0.5q-1 -39 -1.5 -87.5t-0.5 -103.5v-157q0 -80 -6.5 -145t-20.5 -121q-32 -38 -85.5 -52t-113.5 -14q-59 0 -99 16t-64.5 45t-37.5 68t-18 86 q-2 25 -3.5 50.5t-1.5 54.5v187q0 48 -0.5 86t-1.5 69q8 11 31 14.5t67 3.5q9 -16 11 -33t2 -46v-273q0 -30 1.5 -57.5t5.5 -51.5q11 -61 36.5 -99.5t77.5 -38.5z" />
<glyph unicode="V" horiz-adv-x="501" d="M263 -7q-13 -1 -25 3.5t-21 9.5q-11 6 -21 15q-2 4 -8 19q-4 13 -9 27.5t-10 31.5l-19 63l-20 70l-22 72l-21 69l-28 96l-23 79l-18 57l-11 32q4 11 12 17t27 8q13 2 28 2.5t30 0.5q11 -12 15.5 -22.5t10.5 -28.5q2 -5 4 -11l4 -12q12 -47 27 -98l31 -107l14 -47l13 -47 q5 -19 9 -36t9 -34q4 -14 6 -22t4 -14.5t4 -15.5l5 -21l8 29l9 32l10 40l11 44l25 88l25 87q2 5 2.5 9t2.5 9l-1 -1l16 56l14 49q3 8 5.5 16.5t4.5 17.5q2 8 5 15l9 20q11 3 16.5 3.5t8.5 0.5h10q14 -1 27 -1.5t26 -2.5q9 -3 9 -18q0 -6 -1 -12.5t-3 -14.5q-1 -5 -2 -9 t-2 -9l-8 -29l-10 -33l-17 -57l-20 -68l-35 -121l-34 -115l-31.5 -96.5t-24.5 -64.5q-14 -9 -24 -13.5t-28 -6.5z" />
<glyph unicode="W" horiz-adv-x="781" d="M364 641q6 2 12.5 2.5t13.5 1.5t14.5 1.5t19.5 0.5q7 -9 11.5 -21t7.5 -25l19 -73l22 -93q8 -30 15.5 -64.5t16.5 -69.5q1 -5 2 -8.5t2 -8.5l7 -34l6 -27q3 -13 6 -28l7 -34q3 14 6.5 28t6.5 30q4 18 7 38t8 40q28 106 47 185l34 148l5 16l-1 -1q1 3 1.5 6t4.5 8 q4 4 10 4.5t17 0.5q3 0 5.5 -0.5t5.5 -0.5q5 0 11.5 -0.5t11.5 -1.5q20 0 35 -6v-7q0 -5 -1 -14.5t-5 -24.5l-10 -40l-12 -44q-3 -14 -7 -28l-8 -29l-10 -43q-6 -22 -11 -45l-28 -113l-27 -108l-25 -89q-11 -38 -18 -54q-1 -1 -2 -1.5t-2 -1.5q-11 -7 -20.5 -12.5 t-25.5 -7.5q-12 -1 -23.5 3t-21.5 9q-11 6 -21 14q-1 3 -1.5 5t-1.5 5l1 -1q1 -2 -0.5 3.5t-3.5 9.5q-2 8 -3 12.5t-3 12.5l-21 86l-24 94q-6 25 -10 46l-10 42l-9 45l-11 54l-20 -94l-21 -92q-2 -5 -4 -15.5t-6 -25.5l-13 -54l-14 -58l-12 -48q-6 -21 -7 -27 q-11 -10 -22.5 -16t-30.5 -8q-12 -2 -24 2t-21 10q-11 6 -21 16v3l-5 12q-3 7 -5 16q-11 40 -25 98l-29 118l-22 86l-20 83q-5 20 -9 39l-8 37l-17 77q-8 31 -13 41q4 11 13 18.5t28 9.5q24 3 50 3q4 -1 9 -9.5t9 -19t7 -21.5l3 -14q11 -51 26 -112l32 -133l15 -60 q3 -15 5.5 -29t5.5 -28q3 -15 4.5 -21.5t3 -12l3.5 -12.5l4 -22q5 24 10 51.5t12 58.5l39 162l42 169l2 10l2 10q3 3 7 5.5t15 4.5z" />
<glyph unicode="X" horiz-adv-x="507" d="M490 18q1 -4 1 -9q-11 -10 -34 -11.5t-44 -1.5q-11 0 -23 2.5t-25 9.5l-27 54l-29 56q-1 2 -2 3.5t-2 3.5q-5 8 -8.5 17t-8.5 18l-22 45q-9 20 -23 43l-11 -20l-12 -23q-8 -17 -20 -39l-22 -41l-34 -59l-27 -52q-7 -10 -14.5 -13t-17.5 -3q-7 0 -22 1t-28 3l-9 2 q-3 0 -6 1t-19 1l77 138l86 153q5 11 12 20.5t12 20.5l-42 80l-44 82l-41 75q-20 37 -34 66q0 4 2 8t10 7q18 4 41 6.5t52 2.5q8 -8 13 -16l13 -23l22 -40q12 -21 21 -39l28 -61q12 -26 28 -55l16 31l16 33q7 13 15 29.5t15 29.5q10 17 19 34l16 34l6 12l6 11l2 4l2 4 q9 11 29 11q13 0 32.5 -2t43.5 -6q-2 -7 -3.5 -14t-3.5 -15q-26 -52 -68 -126l-88 -153l59 -104l47 -88l40 -74z" />
<glyph unicode="Y" horiz-adv-x="472" d="M356 656q11 4 20 6t20 2q6 0 19 -1t36 -3q2 -5 2.5 -9.5t0.5 -6.5q0 -8 -3 -16l-7 -17l-1 -1q1 0 0.5 -1.5t-1.5 -2.5q-11 -26 -34 -68l-45 -83l-38 -69q-18 -33 -27 -54q-4 -11 -7.5 -22t-5.5 -25v-144q0 -24 0.5 -44t0.5 -37v-46q-5 -5 -10.5 -8.5t-16 -5.5t-27.5 -3 t-44 -1q-10 24 -10 49v232v12q0 6 -1 9q-8 20 -21.5 49.5t-31.5 63.5l-28 55l-30 58l-32 62l-30 60q0 7 10 9.5t46 2.5h58q8 -20 25 -57l35 -76l35 -81l23 -49z" />
<glyph unicode="Z" horiz-adv-x="477" d="M38 603q1 5 1.5 8.5t1.5 7.5q2 7 2 11t2 12q2 6 8 14t17 10q12 -1 26.5 -2t34.5 -1l304 -3v-12q0 -2 0.5 -5.5t0.5 -6.5q0 -23 -13 -49q-20 -43 -51 -103l-67 -128l-76 -140l-77 -138q43 -2 100 -2h110q27 0 46 1.5t29 2.5q2 0 7.5 0.5t6.5 0.5q2 -11 2.5 -19.5 t-0.5 -16.5q-6 -15 -17.5 -29t-25.5 -16q-8 -1 -18.5 -1.5t-25 -1t-34.5 -0.5h-48q-91 0 -152.5 1t-98.5 3q-2 2 -7.5 9.5t-7.5 15.5q0 2 -0.5 4t-0.5 4v5q0 2 0.5 3t0.5 3v7l81 138l80 140l73 135l62 119h-216q-33 0 -46.5 4t-13.5 12v3z" />
<glyph unicode="[" horiz-adv-x="368" d="M230 797q24 -4 48 -10l46 -10q2 -1 7 -2t7 -2q0 -15 -1 -24.5t-4.5 -14.5t-10 -7t-16.5 -3q-8 -1 -16.5 -1t-15.5 -1q-20 -1 -40 -3q-11 -2 -19.5 -3t-16.5 -5v-33v-44q0 -23 -0.5 -45.5t-0.5 -37.5q-1 -52 -1.5 -122.5t-0.5 -143.5v-109v-80q0 -33 0.5 -57.5t0.5 -44.5 q1 -15 3 -29.5t6 -24.5q10 -1 19.5 -1t21.5 -1q6 -1 14 -1t16 -1q14 -1 29 -3t28 -6q0 -19 -1 -30.5t-4 -18t-8 -10t-12 -5.5q-57 0 -109 3l-83 5q-3 0 -8.5 0.5t-7.5 0.5q-1 27 -1 61v69v144q0 39 0.5 79t0.5 81v101l1 114l1 115q1 58 2 109q0 8 1 19.5t5 18.5 q2 2 15.5 4.5t31.5 4.5t37.5 3.5t34.5 1.5h1z" />
<glyph unicode="\" horiz-adv-x="336" d="M110 698l45 -166l44 -165l45 -166l45 -166q5 -20 8 -36t3 -30q0 -8 -1 -13q-6 -11 -22 -14t-61 -3l-58 213l-57 212l-41 154l-42 153q-1 3 -1 6v4q0 11 13 16t51 5h19z" />
<glyph unicode="]" horiz-adv-x="368" d="M128 -137q-28 4 -55 10t-53 14q0 15 1 24t4.5 14.5t10 7.5t17.5 3q2 0 4.5 0.5t4.5 0.5q17 2 33 2.5t29 1.5q9 1 18.5 3t16.5 5q0 12 0.5 32.5t0.5 35.5q1 64 2 152.5t1 205.5v122v101q0 38 -1 67q-1 15 -3 30t-6 25q-9 1 -19 1t-21 1q-7 1 -15 1t-16 1q-14 1 -29 3 t-28 6q0 19 1 30.5t4 18t7.5 10t12.5 5.5q30 0 61 -1t58.5 -2.5t50.5 -3.5t38 -3q1 -28 1 -61v-68v-144q0 -40 -0.5 -80t-0.5 -81v-102l-2 -113v-116q-1 -57 -2 -108q0 -8 -1 -19t-6 -18q-2 -2 -15.5 -4.5t-31.5 -4.5t-37 -3.5t-34 -1.5h-1z" />
<glyph unicode="^" horiz-adv-x="389" d="M207 681q7 -8 19 -26t25 -42l28 -51l28 -51l24 -43l17 -29q-8 -12 -22.5 -26t-28.5 -14t-27 15q-6 7 -14 22l-18 34q-10 18 -20 38l-18 38l-10 20q-1 3 -3 8q-6 -11 -12 -25.5t-13 -29.5l-28 -60q-14 -29 -22 -41q-6 -7 -15 -12t-14 -5q-14 5 -27.5 12t-18.5 18q2 5 7 16 l12 24l22 49l26 54q12 26 24 49t21 35q5 5 10.5 10t15.5 11q8 4 25 4z" />
<glyph unicode="_" horiz-adv-x="439" d="M0 -97q0 28 1.5 43.5t11.5 26.5h426q0 -28 -1.5 -44t-11.5 -26h-426z" />
<glyph unicode="`" horiz-adv-x="321" d="M179 548q-6 8 -24 24l-39 36l-28 27l-35 35q-1 2 -1 5q0 9 9 21q9 13 22.5 22.5t29.5 9.5q5 0 21 -15.5t34 -36.5t35 -43.5t24 -37.5q2 -4 2 -7q0 -6 -4.5 -13t-11 -13.5t-13.5 -11t-13 -4.5z" />
<glyph unicode="a" horiz-adv-x="405" d="M50 409q-2 5 -2 8v5q0 5 3 13q8 7 23.5 15.5t36 16t45 12.5t50.5 6h18q5 0 17 -1q60 -4 83 -40t23 -102v-44v-56q0 -29 -1 -57v-21q0 -12 -0.5 -24t-0.5 -23v-18q-1 -13 2 -22q2 -8 8 -13.5t18 -3.5q-1 -11 -1.5 -24.5t-0.5 -18.5q-7 -10 -23 -18.5t-39 -9.5 q-17 0 -33.5 9t-26.5 20l-11 -7q-6 -5 -11 -8q-18 -9 -37 -11.5t-40 -2.5q-26 0 -49.5 8t-42.5 24.5t-30 42t-11 60.5q0 45 18.5 75.5t45.5 49t57 27t54 11.5q7 1 14 1h15h12q5 0 10 -1v49q0 32 -6 48t-31 16q-24 0 -51 -8.5t-49 -16.5q-8 -4 -17 -6t-20 -2q-11 11 -14.5 23 t-5.5 20zM241 107q2 9 2 21v26v66h-10q-8 0 -15.5 -0.5t-15.5 -1.5h1q-16 -3 -30.5 -8.5t-25.5 -15.5t-17.5 -25t-6.5 -37q0 -35 12 -49t31 -16h6q20 0 39.5 8.5t28.5 20.5l-1 -1q0 -1 0.5 3t1.5 9z" />
<glyph unicode="b" horiz-adv-x="463" d="M61 17q-6 14 -8 27.5t-2 30.5v505q0 32 -0.5 55t-1.5 40q9 20 33.5 26t62.5 6q5 -13 7.5 -29.5t2.5 -50.5v-170q21 12 46.5 20t58.5 8q36 0 67 -11.5t54 -37t36 -65.5t13 -96q0 -51 -8 -91.5t-22 -71t-32 -52t-37 -35.5q-32 -22 -68 -30t-67 -8q-42 0 -76 7t-56 21z M155 71q9 -4 22 -6.5t27 -2.5q19 0 39.5 9t37 32t27 61t10.5 97q0 80 -25 112t-69 32q-16 0 -35 -6t-34 -17v-311z" />
<glyph unicode="c" horiz-adv-x="378" d="M357 441q0 -10 -4 -25.5t-12 -28.5h-12q-8 0 -16 2t-17 5q-12 5 -26 8.5t-27 3.5q-6 0 -11 -1q-44 -4 -71.5 -44.5t-27.5 -127.5q0 -52 10 -84.5t26 -51t37 -25t43 -6.5q23 0 47.5 7t44.5 17q4 -11 6.5 -22t2.5 -16q-1 -11 -8 -23t-18 -20q-15 -11 -39.5 -17t-53.5 -6 q-42 0 -79.5 9.5t-66 36t-45 74t-16.5 122.5q0 79 22.5 129.5t52.5 78.5t67 38.5t75 10.5q24 0 44 -5t35.5 -11.5t25 -14t11.5 -12.5v-1z" />
<glyph unicode="d" horiz-adv-x="465" d="M401 98q-1 -13 2 -22q2 -8 8 -13.5t18 -2.5q-1 -11 -1.5 -25.5t-0.5 -18.5q-8 -11 -23.5 -19t-38.5 -9q-19 -2 -34.5 8t-25.5 21q-5 -4 -10.5 -8t-13.5 -8v1q-17 -9 -36 -12.5t-40 -2.5q-39 2 -72 14.5t-57 39.5t-37.5 70.5t-13.5 108.5q0 67 18.5 118t49.5 86 q28 31 64 46t74 15q23 0 38.5 -3t28.5 -8v106q0 32 -0.5 55t-1.5 40q9 20 34 26t63 6q5 -13 7 -29.5t2 -50.5v-331v-112q0 -17 -0.5 -44.5t-0.5 -41.5zM298 394q-10 7 -24 11t-29 4q-20 0 -39.5 -9.5t-34.5 -31t-24.5 -55.5t-9.5 -83q0 -46 7 -77t20 -50t30.5 -27t37.5 -8 t37 7t27 19l-1 -1q2 2 2 12q1 8 1 20v27v242z" />
<glyph unicode="e" horiz-adv-x="408" d="M237 70q29 0 58 6.5t58 22.5q5 -14 7 -28t3 -22q0 -8 -6 -16t-15 -15t-20.5 -12.5t-23.5 -8.5h1q-11 -3 -32.5 -6.5t-45.5 -3.5q-38 0 -74.5 9.5t-66.5 39.5q-28 29 -41.5 75t-13.5 108q0 73 15 123.5t41.5 82t63 46t79.5 14.5q72 0 109 -38.5t43 -104.5q1 -11 1.5 -23 t0.5 -25q0 -34 -5 -59q-9 -8 -32.5 -16t-45.5 -11q-23 -3 -58.5 -4.5t-70.5 -1.5q-12 0 -17.5 -0.5t-17.5 0.5q2 -75 30.5 -103.5t75.5 -28.5zM210 411q-27 -4 -49.5 -36.5t-27.5 -100.5h28q26 0 53.5 0.5t42.5 2.5q4 1 7.5 1.5t7.5 2.5q2 5 3 13t1 17q0 3 -0.5 5.5 t-0.5 5.5v10q-4 40 -18 59.5t-43 19.5h-4z" />
<glyph unicode="f" horiz-adv-x="273" d="M336 688q4 -5 4.5 -9.5t0.5 -10.5q-1 -5 -2 -9.5t-4 -12.5q-6 -14 -11 -19q-13 -7 -24 -3q-5 3 -9 3q-8 2 -17.5 3t-18.5 1q-15 0 -28.5 -4t-24.5 -15.5t-18 -31t-8 -49.5q-1 -15 -1 -28v-31h43q17 0 37 0.5t29 1.5q-1 -20 -3 -33t-5 -20.5t-8 -11.5t-12 -7l1 1 q-2 -1 -6 -2.5t-6 -2.5q-14 -2 -31 -2h-40v-90q0 -49 1 -98l1 -97v-86q0 -5 -1.5 -12.5t-10.5 -10.5q-16 -3 -34.5 -4t-27.5 -1q-16 0 -32 3q-1 5 -1 12v15v59q0 14 0.5 29.5t0.5 31.5v121q0 33 -0.5 63.5t-0.5 64.5q-42 2 -61 16q2 15 4 24t5.5 14t8.5 8t13 5q5 2 11.5 3 t18.5 4q0 20 1 38t3 34v-1q4 51 22.5 83.5t44.5 51t56.5 26t57.5 7.5q33 0 53 -6.5t28 -14.5h1z" />
<glyph unicode="g" horiz-adv-x="431" d="M376 312q0 -81 -45.5 -125t-126.5 -44q-14 0 -23.5 0.5t-18.5 2.5l-20 -20q-3 -3 -4 -7t-1 -7q0 -16 51 -21l39 -3l24 -2l24 -2q10 -1 19.5 -1.5t16.5 -2.5q47 -9 76.5 -35t31.5 -71q0 -33 -16 -67t-45 -63.5t-68.5 -52.5t-85.5 -34q-20 -4 -44.5 -6.5t-48.5 -2.5 q-38 0 -68 9.5t-38 34.5q-4 19 11 43t39 49t52 47.5t52 38.5q19 -10 23 -30.5t-10 -33.5q-12 -10 -24 -21.5t-21 -22t-14.5 -20t-3.5 -16.5q2 -6 8.5 -8t16.5 -2q15 0 34 3.5t33 5.5q25 7 46 21t37 31.5t24.5 36t8.5 33.5v14q-6 16 -16 27.5t-36 14.5q-17 2 -34 3l-33 2 q-5 0 -9.5 0.5t-9.5 0.5q-33 3 -55 8l-21 6q-37 11 -55.5 30t-19.5 42q0 8 13 24q11 11 24 22t24 22q4 3 4.5 4.5t3.5 4.5q-32 20 -48 54.5t-16 81.5q0 42 13 75t36.5 55.5t56 34.5t71.5 12q26 0 49 -7.5t40 -15.5q-3 2 0 4q17 1 36 1.5t35 1.5h-1q10 1 23 1.5t21 0.5 q3 -6 5.5 -14.5t2.5 -19.5q0 -20 -9 -32.5t-27 -12.5h-17q-6 0 -15 1q12 -19 17.5 -38t5.5 -43zM198 418q-29 0 -47 -25.5t-13 -79.5q4 -48 22.5 -75t55.5 -27q34 0 48 31t10 79q-5 46 -23.5 71.5t-52.5 25.5z" />
<glyph unicode="h" horiz-adv-x="460" d="M48 2q1 43 1.5 93.5t0.5 111.5v377q0 31 -0.5 53t-1.5 39q10 20 33.5 25.5t61.5 5.5q6 -11 8.5 -25t2.5 -45v-190q12 8 24.5 14.5t23.5 11.5q14 5 31 8.5t37 3.5q39 0 64.5 -10.5t41 -33.5t21.5 -59t6 -87v-145v-75q0 -35 1 -62q-5 -5 -10.5 -8t-16 -5t-27.5 -2.5 t-44 -0.5q-9 24 -9 50v239v24q0 9 -2 17q-2 44 -17 59.5t-37 15.5q-26 0 -48 -12t-39 -28v-299q0 -15 -2 -27.5t-9 -24.5q-7 -5 -13.5 -8t-15.5 -4.5t-22 -1.5h-35z" />
<glyph unicode="i" horiz-adv-x="212" d="M145 472q6 -12 7.5 -26t1.5 -46v-335q0 -33 -14 -55q-3 -4 -8 -6.5t-15.5 -3.5t-27 -1.5t-42.5 -1.5v82q0 22 0.5 45t0.5 47v174q0 34 -0.5 58t-1.5 44q9 19 33 23.5t58 4.5zM43 638q0 60 62 60q35 0 45.5 -14.5t9.5 -43.5t-13 -46.5t-48 -17.5q-31 0 -43.5 15t-12.5 47z " />
<glyph unicode="j" horiz-adv-x="216" d="M148 472q5 -10 6.5 -23t1.5 -42v-313q0 -69 -6 -127q-5 -58 -30 -101q-16 -24 -39.5 -39t-54.5 -19q-6 -1 -12 -1h-11q-25 0 -37 4q-37 6 -41 36q0 7 2 17t7 18h10q2 0 3 -0.5t3 -0.5q13 0 28.5 4t31.5 11q20 9 28.5 33t10.5 66q1 17 1.5 38t0.5 41v251q0 40 -0.5 68.5 t-1.5 53.5q9 19 32.5 23.5t57.5 4.5zM45 638q0 60 62 60q35 0 45.5 -14.5t9.5 -43.5t-13 -46.5t-48 -17.5q-31 0 -43.5 15t-12.5 47z" />
<glyph unicode="k" horiz-adv-x="406" d="M48 2q0 13 0.5 39.5t1 56t0.5 56.5v41v361q0 26 -0.5 48t-1.5 42l-1 27q9 21 32 28t60 7q7 -11 10.5 -27.5t3.5 -55.5v-162q26 19 53.5 25t59.5 6q27 0 45 -9.5t28.5 -24t14.5 -32.5t4 -34q0 -39 -14.5 -69t-34.5 -51.5t-42 -35.5t-38 -21q13 -10 31 -30l38 -43l41 -49 l39 -47l25 -30q12 -14 20 -25q11 -10 3 -16.5t-22 -11.5q-17 -5 -39 -5q-17 0 -29 4.5t-29 18.5q-11 9 -19 20l-19 25l-27 32q-14 18 -28 33q-4 5 -11 13l-17 16l-20 20q-9 10 -13 15v-124q0 -14 -2.5 -21t-12.5 -10.5t-28.5 -4t-51.5 -0.5zM153 260q38 20 66 51t28 70 q0 14 -5.5 24t-17.5 10q-14 0 -33 -12.5t-38 -38.5v-104z" />
<glyph unicode="l" horiz-adv-x="211" d="M152 98q-1 -13 2 -22q2 -8 8.5 -13.5t18.5 -3.5q-1 -11 -1.5 -25t-0.5 -18q-8 -11 -23.5 -19t-38.5 -9q-11 0 -21.5 4t-18.5 10q-14 10 -21.5 24t-7.5 29v510q0 36 -0.5 62.5t-1.5 48.5q9 21 35 26t64 5q5 -17 6 -38t1 -59v-512z" />
<glyph unicode="m" horiz-adv-x="689" d="M395 19q0 -16 -20 -21q-5 -1 -14 -1h-23h-50q2 38 2 85v104v119q0 55 -12.5 77t-44.5 22q-23 0 -42 -10.5t-33 -25.5v-320q0 -12 -2 -21t-9 -17q-6 -5 -13 -7.5t-17 -4t-25 -1.5h-40q1 38 1 86v104v177q0 24 -3.5 42t-8.5 33q10 12 43 25q5 2 8 2h5q14 0 23 -6.5 t14 -14.5q30 21 59 30q30 10 65 10h10q5 0 10 -1q32 -3 53 -14t35 -28q14 11 32 19t33 13q29 10 63 10h12q5 0 9 -1h-1q35 -3 58 -16t36 -35.5t18 -53.5t5 -69v-166v-71q0 -33 2 -59q-6 -5 -13 -8t-18 -4.5t-27 -2.5t-41 -1q-4 8 -6.5 17t-2.5 20v270q0 55 -12 77t-44 22 q-23 0 -42.5 -11.5t-34.5 -27.5l3 3v-348z" />
<glyph unicode="n" horiz-adv-x="462" d="M231 402q-24 0 -43.5 -11t-34.5 -28l3 3v-308q0 -17 -2 -27t-10 -21q-5 -5 -10.5 -7t-13 -3.5t-18.5 -2t-27 -0.5h-26q1 40 1.5 90t0.5 107v168q0 24 -3 42t-8 33q11 12 42 25q5 2 8 2h6q14 0 22.5 -6t13.5 -15q15 11 30 18t29 12q16 5 31.5 8t33.5 3q47 0 76 -12 t45.5 -34.5t22 -55.5t5.5 -76v-151q0 -41 0.5 -77t1.5 -65q-5 -5 -11.5 -8t-17 -4.5t-27 -2.5t-41.5 -1q-11 21 -11 45v262q0 54 -15 76t-53 22z" />
<glyph unicode="o" horiz-adv-x="453" d="M421 240q0 -63 -15 -110.5t-42 -79.5t-63.5 -48t-79.5 -16q-96 0 -148 58.5t-52 189.5q0 64 15 111.5t42 78.5t64 46t82 15q99 0 148 -62t49 -183zM132 238q0 -50 7 -84t19 -55t28.5 -30t36.5 -9q18 0 34 9t28 30t19 54.5t7 83.5q0 94 -24 133t-66 39q-18 0 -34 -9.5 t-28 -29.5t-19.5 -53t-7.5 -79z" />
<glyph unicode="p" horiz-adv-x="468" d="M151 -193q-6 -4 -21.5 -7t-34.5 -3q-17 0 -40 5q-2 13 -2.5 38t-0.5 63v461q0 23 -3 41t-8 33q5 8 15.5 13.5t26.5 12.5q8 2 9 2h4q14 0 23 -6.5t14 -14.5q30 19 60 30q15 5 29.5 8t32.5 3q37 0 69.5 -12t57 -38.5t38.5 -68t14 -99.5q0 -94 -25 -153t-65 -91 q-27 -23 -55 -30.5t-54 -7.5q-49 0 -78 17v-150v-23q0 -10 -2 -20zM220 62q16 0 34 8.5t33 31t25 61t10 98.5q0 77 -23 110t-65 33q-22 0 -42 -10.5t-35 -23.5v-281q11 -11 28 -19t35 -8z" />
<glyph unicode="q" horiz-adv-x="466" d="M404 -169q0 -20 -9 -27t-42 -9h-55q1 33 1.5 74.5t0.5 91.5v49q-18 -11 -42.5 -18.5t-50.5 -7.5q-35 0 -67.5 12t-58 39.5t-41 71.5t-15.5 108q0 72 23 125.5t61 87.5q23 20 53 34.5t67 19.5q9 1 18.5 1.5t18.5 0.5q74 0 150 -31q-5 -15 -8.5 -33t-3.5 -43v-546zM300 384 q0 8 2 18q-14 5 -27.5 6t-25.5 2q-21 0 -41 -11t-35.5 -34.5t-25.5 -59.5t-10 -86q0 -41 7.5 -70t20.5 -47t31 -26.5t38 -8.5q17 0 36 8t30 23v286z" />
<glyph unicode="r" horiz-adv-x="310" d="M223 392q-20 0 -37 -6t-31 -20v-315q0 -12 -1.5 -21.5t-8.5 -19.5q-6 -5 -12.5 -7.5t-17 -3.5t-26.5 -1.5t-40 -0.5q1 40 1.5 90t0.5 108l1 167q0 24 -4 42t-9 33q6 6 16 12t27 13q5 2 8 2h6q16 0 23.5 -4.5t12.5 -15.5q14 10 29.5 17t29.5 12q13 5 28.5 7.5t29.5 0.5 q45 -5 50 -28q0 -11 -3.5 -29.5t-14.5 -33.5q-5 -2 -7 -2h-9q-8 0 -15.5 0.5t-13.5 1.5q-5 2 -8 2h-5z" />
<glyph unicode="s" horiz-adv-x="356" d="M188 485q8 0 16 -0.5t13 -1.5q48 -4 71 -19t26 -26q0 -10 -6 -25t-14 -26q-3 1 -9.5 2t-10.5 2q-8 2 -16.5 3.5t-16.5 4.5q-23 9 -45 9q-26 0 -41.5 -13t-15.5 -33q0 -12 5.5 -23t21.5 -24l19 -14l23 -16q14 -11 30 -22l28 -21q32 -26 47 -53t15 -59q0 -36 -13.5 -62.5 t-37.5 -44.5t-56 -27t-68 -9q-49 0 -86.5 13.5t-46.5 34.5q0 11 5.5 26.5t14.5 27.5h10q13 0 30 -9v1q16 -7 34.5 -11.5t36.5 -4.5q4 0 8.5 0.5t9.5 1.5q23 2 35.5 16.5t12.5 37.5q0 17 -8.5 31.5t-29.5 28.5q-3 2 -8.5 6t-3.5 2q-17 12 -35.5 26.5t-32.5 26.5l-25 20 q-46 46 -46 97q0 60 44 93t116 33z" />
<glyph unicode="t" horiz-adv-x="327" d="M298 80q1 -5 1.5 -10.5t0.5 -12.5v-14q0 -8 -1 -14q-3 -9 -14 -19q-17 -11 -43 -17.5t-50 -6.5q-38 0 -61 15t-36 39.5t-17.5 55t-4.5 61.5v238q-20 1 -34 5t-25 9q0 22 1.5 26.5t7.5 10.5q11 8 22 12l21 6q6 2 8.5 1.5t7.5 1.5q1 21 2.5 43.5t2.5 43.5q6 17 27.5 30 t66.5 16v-16q-1 -32 -1.5 -57.5t-0.5 -54.5h127q-2 -42 -9 -56t-22 -17q-5 -1 -12 -1.5t-13 -0.5q-15 -1 -29 -1h-42q-1 -33 -1.5 -65t-0.5 -64q0 -17 0.5 -33t0.5 -32v-49q3 -39 11 -64t32 -25q5 0 14 2t18.5 5t17 6.5t10.5 5.5z" />
<glyph unicode="u" horiz-adv-x="465" d="M154 450q5 -17 8 -37.5t3 -58.5l-10 -180q0 -32 4.5 -52t13 -31.5t21 -15.5t27.5 -4q23 -2 43.5 7.5t32.5 23.5v312q0 17 2 27.5t10 20.5q10 9 23 10.5t46 2.5h26q-1 -40 -1.5 -90t-0.5 -107v-168q0 -24 3 -42t8 -33q-11 -11 -42 -25q-5 -2 -9 -2h-5q-14 0 -22.5 6.5 t-13.5 15.5q-15 -11 -30 -18.5t-29 -12.5q-16 -5 -31.5 -8t-33.5 -3q-46 2 -74.5 14t-44.5 34t-22 53t-7 72l9 206q0 28 -3.5 49t-9.5 39q6 5 18 12.5t32 17.5q6 2 9 2h5q21 0 31.5 -12t13.5 -25z" />
<glyph unicode="v" horiz-adv-x="402" d="M187 203q7 -36 15 -63q2 11 5.5 25t7.5 28q8 31 15.5 65.5t16.5 66.5q5 17 9 34t9 31q6 20 11 39.5t10 36.5q8 5 14 7t17 2q8 0 21.5 -1t36.5 -4q5 -6 5.5 -9.5t0.5 -5.5q0 -9 -3 -20.5t-8 -28.5v1l-16 -52l-15 -52l-41 -138l-48 -149q-9 -9 -21.5 -13t-23.5 -7 q-3 0 -5 -1h2q-2 -1 -5 -1h-5q-16 0 -30.5 7t-18.5 18l-37 124l-49 155h1q-4 9 -12 32l-14 47l-14 45q-7 21 -8 26q5 16 26 23t68 7q8 -8 13.5 -19t8.5 -22l6 -21q3 -11 7 -24l11 -36l10 -39l14 -57q7 -29 13 -57z" />
<glyph unicode="w" horiz-adv-x="617" d="M244 33q-1 -2 -1.5 -4t-1.5 -4l1 1q-4 -13 -8 -20.5t-15 -11.5q-5 -1 -19.5 -1.5t-42.5 -2.5q-10 8 -19.5 22.5t-12.5 26.5l-15 57l-18 66l-20 71l-19 70l-27 101q-11 38 -16 48q7 12 30 18.5t69 6.5q8 -6 12.5 -15.5t6.5 -18.5q13 -58 29 -122q5 -20 8.5 -40t7.5 -37 q4 -22 7 -35.5t5 -23.5l4 -17q1 -8 4 -18q5 19 11.5 48t14.5 61q2 9 8.5 34l13.5 54l12 53q6 25 8 34q2 5 2 8v4v9q1 1 11.5 4.5t23.5 6t26.5 4t20.5 -0.5q8 -8 11.5 -16.5t7.5 -24.5q8 -36 19 -79l21 -90q4 -17 7 -33t7 -31q3 -13 4.5 -19t2.5 -9t1.5 -6t2.5 -10 q10 36 20 81l20 96q9 37 16 68.5t12 57.5q1 1 1 7q2 6 5 10q6 5 11 5.5t11 0.5t16.5 -1t21 -2.5t18.5 -2.5t10 -2q3 -2 5 -5l2 -5q1 -6 -0.5 -13t-4.5 -18l-4 -10l1 1q-9 -30 -19 -67l-21 -77l-34 -127q-18 -64 -34 -115q-1 -2 -1.5 -4t-1.5 -4l1 1q-3 -13 -7 -20.5 t-15 -11.5q-5 -1 -20 -1.5t-42 -2.5q-10 8 -19.5 22.5t-13.5 26.5l-7 24l-6 23l-4 15q-1 6 -3 11l-19 82l-18 82q-9 -40 -21 -86l-23 -88z" />
<glyph unicode="x" horiz-adv-x="431" d="M410 4q-8 -3 -23.5 -4.5t-34.5 -2.5q-10 0 -23.5 1.5t-30.5 6.5q-4 6 -7.5 13t-8.5 14t-10 16l-10 16l-29 52l-28 50l-1 -1l-38 -68q-20 -38 -50 -83l1 1q-7 -13 -17.5 -15.5t-36.5 -2.5q-12 0 -26.5 1t-29.5 3l12 33q17 29 37 59l41 62l27 44l29 45l-34 55l-36 59 l-30 48l-24 42l-5 13q7 4 26.5 10.5t34.5 6.5h37q11 -9 19.5 -20.5t17.5 -27.5h-1q7 -11 9.5 -14t2 -2.5t-1.5 2.5t-1 1h-1q5 -8 10 -18t11 -19l17 -29l15 -26q0 1 1.5 2.5t1.5 2.5l19 36q10 19 20 35l9 15l9 14q5 8 9 15l10 13q7 10 14 14.5t27 4.5q12 0 31 -2.5t38 -6.5 q-2 -3 -4 -8.5t-4 -7.5q-2 -3 -2.5 -5.5t-2.5 -5.5l-41 -63l-43 -66l-20 -32l-19 -29l41 -67l43 -70l28 -46l28 -45l5 -13z" />
<glyph unicode="y" horiz-adv-x="401" d="M99 478q8 0 17.5 -14.5t12.5 -28.5l11 -35l14 -48l16 -54l15 -54q7 -25 12 -49t10 -43l12 46q7 26 12 50l14 62q7 31 15 60l12 48l10 44q9 8 16.5 10.5t22.5 2.5h13q8 0 16 -1q5 0 11.5 -0.5t10.5 -0.5q7 -14 7 -25t-5 -28q-10 -41 -25 -93l-31 -109l-36 -116l-38 -114 q-21 -53 -41 -88.5t-39.5 -56.5t-39 -30t-37.5 -9q-39 0 -59 11t-25 25q0 8 3 19l4 12q13 5 21 4.5t17 -0.5q10 0 20.5 1t23.5 6l-1 -1q9 4 18.5 19.5t18.5 36.5t16 45.5t12 47.5l-1 1q-8 10 -12 20t-9 27q-2 7 -9 30l-17 54l-22 70l-24 78l-26 76l-22 65q6 15 24.5 21 t60.5 6z" />
<glyph unicode="z" horiz-adv-x="371" d="M53 477q18 -4 37.5 -4.5t46.5 -0.5l201 -3q0 -2 0.5 -6t0.5 -6q1 -2 1 -5v-9q0 -7 -2.5 -16t-9.5 -23l-35 -66l-43 -79l-50 -89l-54 -93q20 -1 45 -1h49q20 0 39 1t35 2.5t27 3.5t15 3q0 -11 -0.5 -23t-2.5 -20q-6 -32 -25 -39q-17 -3 -41 -4t-71 -1q-48 0 -99.5 0.5 t-89.5 3.5q-4 5 -9 14t-7 20q1 8 3 13.5t7 13.5q8 14 18 29l19 31l82 137q42 71 77 136h-93q-6 0 -12 -0.5t-11 -0.5h-21q-31 0 -46 3.5t-15 14.5q3 29 9.5 44t20.5 19h4z" />
<glyph unicode="{" horiz-adv-x="335" d="M239 681q-18 -5 -29.5 -13t-19 -18t-10.5 -19.5t-4 -15.5q-1 -7 0 -17t3 -17q5 -15 11 -29l10 -27q2 -4 3 -7l22 -57q11 -29 11 -56q0 -38 -15.5 -63t-50.5 -40q67 -30 67 -100q0 -10 -2 -19t-4 -17q-5 -23 -13 -47.5t-19 -49.5l-11 -34l-10 -31q0 -2 -0.5 -2.5 t-0.5 -2.5q-3 -11 -3 -22q0 -27 17.5 -47t49.5 -26q6 -2 21 -3l14 -3q14 -3 17 -9q0 -1 0.5 -2t0.5 -3q0 -6 -2.5 -12t-5.5 -12q-3 -4 -5.5 -10t-3.5 -9q-105 2 -151 36q-53 37 -53 104q0 30 11.5 63t25.5 65q6 16 12 34t11 35q0 1 0.5 2t0.5 2q2 8 3 15.5t-1 15.5 q-1 9 -3.5 17.5t-9 15.5t-19 12t-33.5 7q-22 2 -32 17q-9 14 -9 26q0 4 0.5 9.5t2.5 10.5q33 1 53 7.5t31 14.5t15 18t4 19q1 5 0 14t-3 17q-11 36 -23 66q-1 2 -1.5 3.5t-1.5 3.5q-13 29 -23 57.5t-10 53.5q0 42 23 73t65 49q20 8 51 14t65 8q2 -5 4 -11.5t4 -9.5 q1 -2 1 -3t1 -3q5 -12 5 -14q0 -4 -3 -7q-2 -6 -14 -9h1q-8 -3 -21 -4q-4 -1 -8.5 -2t-8.5 -2z" />
<glyph unicode="|" horiz-adv-x="306" d="M202 -208q-6 -5 -13.5 -8t-18 -4.5t-26.5 -1.5h-40v988q6 6 13 9t18 4.5t27 1.5h40v-989z" />
<glyph unicode="}" horiz-adv-x="335" d="M148 615q-1 6 -4.5 15.5t-10.5 19.5t-18.5 18t-29.5 13q-4 1 -8.5 2t-8.5 2l-12 2q-4 0 -9 2h1q-12 3 -14 9q-1 2 -2 3.5t-1 3.5t5 14q1 2 1 3t1 3q2 3 4 9.5t4 11.5q34 -2 65 -8t51 -14q42 -18 65 -49t23 -73q0 -25 -10 -53.5t-23 -57.5q-1 -2 -1.5 -3.5t-1.5 -3.5 q-8 -18 -13 -34l-10 -32q-2 -8 -3 -17t0 -14q0 -9 4 -19t15 -18t31 -14.5t53 -7.5q2 -5 2.5 -10.5t0.5 -9.5q0 -12 -9 -26q-10 -15 -32 -17q-41 -4 -52.5 -19.5t-12.5 -32.5q-2 -8 -1 -15.5t3 -15.5q0 -1 0.5 -2t0.5 -2q5 -17 11 -35.5t12 -33.5q14 -31 25.5 -65t11.5 -63 q0 -67 -53 -104q-47 -35 -151 -36q-1 3 -3.5 9t-5.5 10q-3 6 -5.5 12t-2.5 14q0 1 0.5 1.5t0.5 1.5q3 6 17 9l18 3q5 1 10.5 2t6.5 1q32 6 49.5 26t17.5 47q0 11 -3 22q0 2 -0.5 3t-0.5 2l-10 31l-11 34q-11 25 -19 49.5t-13 47.5q-2 8 -4 17t-2 19q0 70 67 100 q-35 15 -50.5 40t-15.5 63q0 27 11 56l22 57q1 2 1.5 4t1.5 3l10 27q6 14 11 29q2 7 3 17t0 17z" />
<glyph unicode="~" horiz-adv-x="500" d="M64 184q-15 1 -25.5 3t-20.5 7q8 56 22.5 90.5t32.5 53t37 24.5t37 6q39 -2 69 -18t56 -39h-1q2 -2 6 -5t6 -5q19 -18 37.5 -32t34.5 -14q20 0 31 21t16 56q3 15 13 34q14 0 35.5 -5.5t32.5 -13.5q-6 -48 -17 -80t-27 -51t-36.5 -27t-43.5 -8q-20 0 -38.5 7t-37 18.5 t-35.5 25.5l-36 29q-40 34 -60 34q-8 0 -15 -3.5t-14 -14.5t-13 -30.5t-11 -50.5q-12 -12 -34 -12h-1z" />
<glyph unicode="&#xa1;" horiz-adv-x="203" d="M141 268q1 -19 1.5 -43t2.5 -52q2 -40 4 -84.5t3 -88.5l3 -82q2 -40 3 -71q-2 -17 -31.5 -22.5t-80.5 -5.5q-5 13 -8.5 28t-3.5 35q0 23 1.5 55.5t3.5 68.5l4 74q2 38 4 71q2 24 3 45t2 37q2 23 26 31.5t53 8.5zM97 362q-35 0 -45.5 14.5t-9.5 43.5q1 28 13 46t48 18 q31 0 43.5 -15t12.5 -47q0 -60 -62 -60z" />
<glyph unicode="&#xa2;" d="M312 598l-2 -44q0 -21 -2 -44q27 -5 48 -15.5t27 -22.5q0 -5 -2.5 -19t-9.5 -26q-13 -7 -25 -7q-11 0 -18 3q-17 7 -33 8q-5 1 -8.5 1.5t-5.5 0.5q-56 0 -82 -42.5t-26 -121.5q0 -46 8 -75t22.5 -45.5t33.5 -22.5t40 -6q22 0 47 7.5t51 20.5q0 -52 -11 -72q0 -6 -10 -13 q-11 -7 -28 -14t-43 -9q-1 -17 -1.5 -33t-1.5 -34q-2 -16 -10.5 -23t-27.5 -9q-20 -3 -54 -3l5 108q-22 6 -45 18t-41.5 36.5t-30 63t-11.5 97.5q0 62 15 105.5t37.5 72t49.5 44t51 23.5q1 8 1 15t1 15t1 16v17q2 16 11 22.5t32 9.5q5 1 10 1h10q5 0 9 0.5t9 0.5z" />
<glyph unicode="&#xa3;" horiz-adv-x="492" d="M349 335l-61 -6q-30 -4 -60 -7q4 -18 7 -43.5t3 -45.5v-10q0 -5 -1 -11q-2 -10 -2 -17q-6 -56 -43 -99q30 -6 65.5 -9.5t63.5 -3.5q11 0 28 0.5t37 1.5t42 3t43 6q2 -10 1.5 -23.5t-2.5 -22.5q-2 -20 -24 -34h2q-11 -9 -26 -13q-24 -5 -49.5 -7.5t-58.5 -2.5 q-55 0 -123 7t-144 21l1 61q33 18 52.5 51.5t24.5 78.5q1 5 1 9v9q0 19 -3 41t-8 42q-14 -2 -31 -3t-30 -3q-2 21 -0.5 41.5t6.5 26.5q7 5 14.5 7t15.5 3h7q-2 14 -4 35.5t-2 39.5q6 101 55 159q25 31 60 47t80 20q33 0 58 -5.5t43 -14t29 -18t15 -16.5q0 -17 -4.5 -30 t-11.5 -23q-11 -3 -22 0.5t-22 8.5q-6 4 -17.5 7t-25.5 5q-10 2 -22 2.5t-21 -1.5q-36 -5 -55 -39.5t-23 -89.5q-1 -5 -1 -9v-10q0 -13 2 -27l4 -29l84 9l84 8q2 -31 -2.5 -53t-28.5 -24z" />
<glyph unicode="&#xa5;" d="M76 280q8 5 15 6.5t15 2.5l71 8v1q-8 21 -21 49.5t-32 63.5l-28 55l-30 58l-32 62l-30 60q0 7 10 9.5t46 2.5h58q8 -20 25 -57l35 -76l34 -81l23 -49q29 66 60.5 130.5t60.5 130.5q11 4 20 6t20 2q6 0 19 -1t36 -3q2 -5 2.5 -9.5t0.5 -6.5q0 -8 -3 -16l-7 -17l-1 -1 q1 0 0.5 -1.5t-1.5 -2.5q-11 -26 -34 -68l-45 -83l-39 -70q-18 -33 -26 -53q-2 -4 -4 -11t-4 -13q26 2 53.5 5t52.5 5q2 -30 -2.5 -52t-29.5 -24q-21 -2 -39.5 -4t-39.5 -4v-93q0 -24 0.5 -44t0.5 -37v-46q-5 -5 -10.5 -8.5t-16 -5.5t-27.5 -3t-44 -1q-10 24 -10 49v178 q-26 -2 -55.5 -5.5t-53.5 -5.5q-2 21 0 40.5t7 27.5z" />
<glyph unicode="&#xa7;" horiz-adv-x="483" d="M206 599q-2 -23 8 -36t22 -25l33 -30l30 -26l56 -48q27 -24 49 -52t35.5 -61.5t13.5 -73.5q0 -8 -0.5 -17.5t-2.5 -17.5q-4 -26 -20 -50t-50 -35q-3 -1 -7 -1q6 -13 9.5 -25t3.5 -25q0 -6 -0.5 -10t-1.5 -9v1q-2 -21 -10 -38t-19.5 -30t-25 -22t-26.5 -15l1 1 q-21 -11 -46.5 -16.5t-54.5 -5.5h-13q-24 1 -46.5 5t-36.5 9q-7 4 -9.5 12t-2.5 18q0 11 2.5 23t4.5 23q24 -9 55.5 -15t57.5 -6q35 0 58.5 16t23.5 48v7q0 4 -2 8q-2 12 -9 23.5t-18 22.5l-32 30l-35 30q-31 25 -62 53t-56 60.5t-41 69t-16 80.5q0 36 11 65t26 49 q11 14 24 20.5t22 7.5q6 0 9 -1q0 7 2 17q2 21 10 38t19.5 29.5t25 21.5t26.5 15l-1 -1q20 11 46.5 16t57.5 4q32 0 56 -8.5t38 -19.5q4 -4 3.5 -11.5t-4.5 -15.5t-9 -16.5t-9 -14.5q-26 9 -47 14.5t-44 5.5q-34 0 -58 -16.5t-24 -48.5zM93 470q0 -36 18 -70.5t46 -66 t61 -59.5l62 -52l45 -36q20 -17 28 -28l6 -7l4 -8q8 19 14 46q4 26 -1 53.5t-16.5 53t-27.5 47.5t-33 37q-11 8 -22 18l-25 19q-31 23 -58.5 46t-43.5 43q-12 14 -19 30t-11 31q-11 -19 -19 -43t-8 -54z" />
<glyph unicode="&#xa8;" horiz-adv-x="364" d="M47 617q0 56 59 56q33 0 43 -13.5t9 -40.5q-1 -26 -12.5 -43t-45.5 -17q-29 0 -41 14.5t-12 43.5zM202 617q0 56 59 56q33 0 43 -13.5t9 -40.5q-1 -26 -12.5 -43t-45.5 -17q-29 0 -41 14.5t-12 43.5z" />
<glyph unicode="&#xa9;" horiz-adv-x="578" d="M30 427q0 63 19 113t54 84.5t83 52.5t107 18q58 0 105 -17.5t80 -51t51 -83.5t18 -115q0 -62 -18.5 -112t-52.5 -85t-81.5 -53.5t-105.5 -18.5q-59 0 -106.5 17t-81.5 51t-52.5 84t-18.5 116zM108 427q0 -99 48.5 -153.5t132.5 -54.5q39 0 72 14.5t57 41.5t37.5 66 t13.5 88q0 96 -47 152t-129 56q-41 0 -75 -14t-58.5 -40.5t-38 -65t-13.5 -87.5v-3zM386 551q0 -6 -3 -16t-5 -15q-5 -2 -9 -4t-7 -2q-9 0 -16 4l1 -1q-11 4 -20 5q-5 1 -11 1h-14q-24 -2 -43 -24t-19 -75q0 -13 3 -22q5 -39 22.5 -53.5t48.5 -14.5q12 0 30 5t29 9 q5 -9 8 -17l3 -11q-2 -13 -13 -23q-9 -5 -26 -11t-42 -6q-65 0 -100.5 32.5t-35.5 109.5q0 42 11.5 71.5t31 48t45.5 26.5t54 8q29 0 50 -7.5t26 -15.5z" />
<glyph unicode="&#xaa;" horiz-adv-x="293" d="M65 595q-2 3 -2 8q0 1 0.5 3t0.5 5q11 11 39.5 21.5t62.5 11.5h23q39 -3 54 -26t15 -65v-28q0 -17 -0.5 -35t-0.5 -35v-54q-1 -8 1 -12q3 -11 16 -8q-2 -14 -2 -21v-10q-4 -7 -14 -13t-27 -7q-12 0 -22 5t-16 12q-3 -2 -6.5 -4t-9.5 -6q-17 -7 -47 -7q-33 0 -59.5 21 t-26.5 66q0 30 12 49t29.5 31t37 17t34.5 7h18q6 0 6 0.5t5 -0.5v28q0 19 -3 29t-17 10t-30 -5l-31 -11q-5 -2 -11.5 -3.5t-16.5 -1.5q-7 7 -9.5 15t-3.5 13h1zM184 407q2 5 2 12v17v39h-3q-8 0 -18 -2q-20 -3 -33.5 -14t-13.5 -37q0 -21 6 -29t17 -10h4q10 0 20.5 4 t17.5 12q0 2 0.5 3.5t0.5 3.5v1z" />
<glyph unicode="&#xab;" horiz-adv-x="452" d="M28 247q8 13 24 37l35 49l28 39l27 39l22 32l14 22q11 -1 21.5 -7t18.5 -13.5t12.5 -14.5t4.5 -10q0 -11 -13 -35t-30 -52l-35 -52l-25 -37l-3 -4q6 -8 23 -33l35 -54q18 -28 32 -55t14 -39q0 -4 -4.5 -11.5t-13 -15t-19 -13.5t-22.5 -7l-26 39l-37 54l-41 59l-36 52 q-8 16 -8 29zM206 246l35 48l48 66l44 58l29 42q10 -2 20 -7.5t18 -13t12.5 -14.5t4.5 -11q0 -11 -14.5 -36.5t-33 -53.5t-36.5 -52t-24 -33l24 -32l35 -51.5t32.5 -53.5t14.5 -37q0 -4 -4.5 -11.5t-12.5 -15t-18.5 -14t-22.5 -7.5q-6 11 -17 27l-25 36l-29 38l-28 38 l-22 29l-20 28q-7 9 -9.5 17.5t-2.5 13.5z" />
<glyph unicode="&#xac;" horiz-adv-x="498" d="M421 387l40 -7v-218q0 -21 -3 -33q-5 -12 -24.5 -14.5t-40.5 -4.5q-3 0 -11.5 -0.5t-11.5 -0.5v200h-341q0 25 5.5 44.5t19.5 33.5h367z" />
<glyph unicode="&#xad;" horiz-adv-x="292" d="M221 226q-17 -3 -37 -6l-42 -5q-22 -2 -43.5 -3.5t-39.5 -1.5q-8 0 -15 1t-17 5q4 38 11 56.5t23 19.5q41 4 89 9.5t83 10.5q7 -1 15 -4t16 -7q-2 -30 -12 -51t-32 -24h1z" />
<glyph unicode="&#xae;" horiz-adv-x="396" d="M25 522q0 85 47 131.5t129 46.5t126 -44t44 -133q0 -83 -46 -131.5t-128 -48.5q-83 0 -127.5 44t-44.5 135zM170 624h16q7 0 13 -1q34 -2 51.5 -17.5t17.5 -42.5q0 -17 -8 -29.5t-20 -20.5q8 -11 19.5 -31t17.5 -46v-4q26 34 26 92q0 60 -26.5 92.5t-76.5 32.5 q-48 0 -77.5 -31t-29.5 -96q0 -66 27.5 -96.5t75.5 -30.5q45 0 74 30q-5 -2 -10 -2h-12q-10 0 -11 1q-6 0 -19 5q-4 27 -10.5 41.5t-13.5 23.5h-6q-1 0 -1 1v-63q-8 -6 -18.5 -7t-34.5 -1l1 192q2 2 6 4t12 2q1 0 1 0.5t3 0.5q3 1 7 1h6zM213 564q0 11 -5 17.5t-14 6.5 q-2 0 -3.5 -0.5t-3.5 -0.5v-53h2q5 0 14 3v-1q10 5 10 28z" />
<glyph unicode="&#xaf;" horiz-adv-x="440" d="M182 657h63q32 0 56 1l11 -5l11 -4q-2 -27 -10 -41.5t-25 -14.5q-16 -1 -34.5 -1.5t-38.5 -0.5q-23 0 -45.5 1t-41.5 3q-6 1 -11 2.5t-11 3.5q4 34 9 45.5t16 10.5h51z" />
<glyph unicode="&#xb0;" horiz-adv-x="355" d="M85 641q0 21 8 40t22.5 33.5t34.5 22.5t44 8t44 -8.5t34 -23t21.5 -33t7.5 -38.5q0 -45 -31 -74.5t-78 -29.5q-22 0 -41.5 7.5t-34 21t-23 32.5t-8.5 42zM154 642q0 -21 11.5 -34.5t28.5 -13.5q18 0 28.5 14t10.5 33q0 18 -10 33.5t-30 15.5q-18 0 -28.5 -15t-10.5 -33z " />
<glyph unicode="&#xb1;" horiz-adv-x="292" d="M104 301h-82q0 39 6.5 57.5t26.5 18.5h49q0 17 -0.5 34.5t-1.5 31.5q9 10 25.5 12t45.5 3q12 -5 15.5 -14t3.5 -26v-41h82q0 -39 -5.5 -57.5t-28.5 -18.5h-48v-49q1 -17 -7 -26t-20.5 -12.5t-28.5 -4t-32 -0.5v92zM27 87q4 38 11.5 56.5t22.5 19.5l89 9q48 5 83 10 q7 -1 15 -4l16 -6q-2 -30 -12 -50.5t-31 -24.5q-17 -3 -38 -6l-42 -5q-21 -2 -42.5 -3.5t-39.5 -1.5q-8 0 -14.5 1t-17.5 5z" />
<glyph unicode="&#xb2;" d="M65 472q-8 0 -13.5 7.5t-8.5 17t-4.5 19t-1.5 13.5q9 16 27 29t43 23t55 15.5t62 5.5q46 0 78 -12t51 -33t27.5 -49.5t8.5 -60.5q0 -7 -0.5 -13.5t-1.5 -12.5q-5 -35 -22.5 -72.5t-43.5 -73.5q-14 -20 -31 -40l-36 -44l-40 -47l-48 -62q31 -1 62 -1h66q21 0 42 1t38 2 q11 1 24 1h19q-3 -35 -13.5 -57t-24.5 -24q-18 -2 -45 -3.5t-62 -1.5q-66 0 -127 0.5t-109 3.5q-7 17 -8 26q2 14 6.5 25.5t15.5 28.5l50 63l46 56l51 64q24 32 42 61t28 56t10 52q0 82 -76 82q-35 0 -68.5 -13t-51.5 -25h1z" />
<glyph unicode="&#xb3;" d="M352 390q-11 -17 -29 -35.5t-45 -37.5q61 -14 95 -53t34 -101q0 -55 -19 -97.5t-52.5 -71t-79 -43.5t-97.5 -15q-42 0 -68 7.5t-37 17.5h1q-11 10 -14.5 21t-3.5 22q0 17 8 44q23 -14 51.5 -22.5t57.5 -8.5q34 0 61 11t45 30.5t27.5 46t8.5 56.5q0 2 -0.5 4.5t-0.5 4.5 q0 8 -1 11q-5 42 -40.5 60.5t-88.5 18.5q-8 0 -20 -0.5t-25 -2.5q0 11 -1 13q-2 6 -2 11q2 11 5.5 21t8.5 18q25 10 48.5 23t42 29.5t29.5 36t11 42.5q0 26 -14.5 46.5t-52.5 20.5q-32 0 -60 -9.5t-50 -25.5q-7 -5 -15 -5q-9 0 -16 10q-5 10 -7 21.5t-2 20.5v5 q11 26 58 46.5t114 20.5q47 0 77.5 -12.5t48.5 -32t25 -42t7 -43.5q0 -22 -6 -43.5t-17 -38.5z" />
<glyph unicode="&#xb4;" horiz-adv-x="335" d="M215 725q9 0 19.5 -5t19.5 -13t15 -17t6 -17q-3 -5 -6 -7.5t-8 -7.5l-30 -30l-33 -31l-31 -30l-24 -25q-16 4 -31 16.5t-15 26.5v3q0 1 2 6l29 40l34 42q17 21 31.5 35t21.5 14z" />
<glyph unicode="&#xb5;" horiz-adv-x="465" d="M401 110q0 -24 3.5 -42t8.5 -33q-11 -11 -42 -25q-5 -2 -8 -2h-6q-14 0 -22.5 6.5t-13.5 15.5q-15 -11 -30.5 -18.5t-29.5 -12.5q-15 -5 -30.5 -8t-33.5 -3q-17 1 -31.5 2.5t-25.5 4.5v-153q-5 -14 -13.5 -23.5t-26.5 -9.5h-6q-3 0 -8 2q-18 8 -30.5 15t-17.5 12 q5 16 8.5 33.5t3.5 41.5v262l-1 149q0 43 -0.5 74t-1.5 58q9 11 31 15t68 4q5 -18 7 -40t2 -61l-1 -200q0 -32 4.5 -52t13.5 -31.5t21.5 -15.5t27.5 -4q22 -2 43 7.5t33 23.5v312q0 17 2 27.5t10 20.5q5 4 10 6.5t12.5 4t18.5 2t28 0.5h25q-1 -40 -1.5 -90t-0.5 -107v-168z " />
<glyph unicode="&#xb6;" horiz-adv-x="510" d="M339 -61q-24 -18 -47.5 -24.5t-46.5 -6.5q-18 0 -33.5 2.5t-31.5 5.5q-19 4 -26 20l-5 19q-3 9 -4 14q38 -8 54 -8q14 0 27.5 2.5t27.5 7.5q38 16 60 62.5t22 127.5v71q-6 -2 -9 -2l-52 -10q-27 -5 -56 -7q-40 0 -74 13t-59 38.5t-39 63.5t-14 87q0 57 19 99.5t51 71 t74.5 42.5t89.5 14h166q7 0 12.5 -3.5t5.5 -8.5q0 -8 -3 -11l-25 -21q-2 -2 -5.5 -3.5t-7.5 -2.5v-366q0 -14 -0.5 -26.5t-0.5 -24.5v-44q-2 -69 -18 -113.5t-51 -78.5h-1z" />
<glyph unicode="&#xb7;" horiz-adv-x="202" d="M36 256q0 62 68 62q39 0 50.5 -15t10.5 -45q-1 -29 -14 -47.5t-54 -18.5q-35 0 -48 16t-13 48z" />
<glyph unicode="&#xb8;" horiz-adv-x="275" d="M94 -29q15 1 31.5 0.5t31.5 -4.5q32 -8 53.5 -28t21.5 -49q0 -26 -13.5 -44t-34 -30t-43.5 -18.5t-42 -9.5q-11 2 -17 13t-6 18q0 10 13 13q42 14 60 26t18 32q0 10 -8 17.5t-20.5 12t-27.5 6.5t-29 2q2 9 4.5 22t7.5 21z" />
<glyph unicode="&#xb9;" horiz-adv-x="393" d="M308 590q-1 -41 -1.5 -103t-1.5 -131.5t-1.5 -141t-0.5 -132.5q7 -2 13 -4.5t14 -4.5q14 -5 26 -10t12 -10q0 -26 -2 -35.5t-13 -14.5q-17 -3 -28 -3q-3 0 -5.5 -0.5t-4.5 -0.5q-22 0 -47 -1h-52q-25 -1 -50 -1h-43v25q0 7 -0.5 13.5t-0.5 13.5q0 11 15 16.5t35 11.5 q5 2 10.5 3.5t11.5 3.5q2 90 3 195t3 222l-33 -9q-19 -5 -38 -9.5t-34 -8.5t-22 -5q-5 10 -9 20t-5 19q5 8 12 16.5t16 17.5l53 18l55 18q26 9 48 15.5t34 9.5q8 -2 16.5 -5.5t14.5 -7.5z" />
<glyph unicode="&#xba;" horiz-adv-x="321" d="M301 490q0 -80 -36 -120.5t-93 -40.5q-62 0 -95 37t-33 120q0 82 36 120.5t94 38.5q127 0 127 -155zM121 489q0 -62 15 -85.5t38 -23.5q21 0 36 23.5t15 84.5q0 58 -14 82.5t-39 24.5q-21 0 -36 -24.5t-15 -81.5z" />
<glyph unicode="&#xbb;" horiz-adv-x="451" d="M423 231l-32 -47l-45 -64l-23 -34l-22 -31l-19 -27q-9 -12 -13 -19q-3 1 -11.5 5.5t-18.5 11t-17.5 15.5t-7.5 18q0 7 7 22t17.5 33.5t23.5 37.5l25 38l21 30q10 14 14 19q-1 2 -2.5 3t-3.5 3h1l-25 38q-17 25 -33 52t-28 50.5t-12 35.5q0 9 7.5 17t17.5 14t19.5 9.5 t13.5 3.5q7 -13 24 -37l37 -54l41 -60l37 -51q9 -17 9 -29zM245 230q-11 -17 -33 -45l-44 -60l-25 -33l-25 -32l-21 -28q-9 -12 -15 -19l-13 7q-8 5 -16 12t-14 15.5t-6 18.5q0 12 14.5 37t33.5 52l37 51l25 33q-2 4 -6 8.5t-9 12.5l-26 40q-16 22 -30 44.5t-24 42t-10 28.5 t7 17.5t16.5 15t18.5 10.5t13 6q9 -15 27 -41l38 -55l43 -60l39 -52q7 -12 7 -23z" />
<glyph unicode="&#xbc;" horiz-adv-x="1360" d="M1151 110q0 9 0.5 16.5t0.5 17.5q-56 0 -112 2t-91 6q-15 14 -22 29t-9 29q8 19 23.5 50l34.5 66l42 74l45.5 72t43 61t36.5 41q13 13 32 20.5t36 10.5q12 0 21.5 -1.5t16.5 -3.5q2 0 6 -0.5t5 -0.5q0 -23 -0.5 -49.5t-0.5 -50.5v-95v-92q0 -47 -1 -93q18 2 36.5 2.5 t29.5 0.5q2 -4 2.5 -6.5t1.5 -4.5q4 -8 4 -16q-6 -16 -16.5 -29t-31.5 -19q-6 -2 -12 -2h-11h-3v-111q0 -15 -6 -25t-27 -14q-11 -2 -31.5 -2.5t-42.5 -0.5v118zM1156 352q0 11 0.5 21t0.5 20v16v11q0 6 0.5 11.5t0.5 16.5q-20 -26 -39 -55t-36 -59t-31.5 -59t-25.5 -54 q54 -3 126 -3q2 27 2.5 56.5t1.5 56.5v21zM460 -39q-3 3 -5 4t-3 2q-9 5 -19.5 13t-12.5 16q12 23 39 70l61 106l74 126l78 131l70 119l56 94q5 8 11 14t11 6q2 0 9 -2.5t13 -6.5q11 -6 19 -14t10 -19l-37 -64l-59 -102l-74 -126l-80 -134l-65 -110l-58 -99q-16 -26 -28 -26 q-8 0 -10 2zM308 590q-1 -41 -1.5 -103t-1.5 -131.5t-1.5 -141t-0.5 -132.5q7 -2 13 -4.5t14 -4.5q14 -5 26 -10t12 -10q0 -26 -2 -35.5t-13 -14.5q-17 -3 -28 -3q-3 0 -5.5 -0.5t-4.5 -0.5q-22 0 -47 -1h-52q-25 -1 -50 -1h-43v25q0 7 -0.5 13.5t-0.5 13.5q0 11 15 16.5 t35 11.5q5 2 10.5 3.5t11.5 3.5q2 90 3 195t3 222l-33 -9q-19 -5 -38 -9.5t-34 -8.5t-22 -5q-5 10 -9 20t-5 19q5 8 12 16.5t16 17.5l53 18l55 18q26 9 48 15.5t34 9.5q8 -2 16.5 -5.5t14.5 -7.5z" />
<glyph unicode="&#xbd;" horiz-adv-x="1360" d="M971 472q-8 0 -13.5 7.5t-8.5 17t-4.5 19t-1.5 13.5q9 16 27 29t43 23t55 15.5t62 5.5q46 0 78 -12t51 -33t27.5 -49.5t8.5 -60.5q0 -7 -0.5 -13.5t-1.5 -12.5q-5 -35 -22.5 -72.5t-43.5 -73.5q-14 -20 -31 -40l-36 -44l-40 -47l-48 -62q31 -1 62 -1h66q21 0 42 1t38 2 q11 1 24 1h19q-3 -35 -13.5 -57t-24.5 -24q-18 -2 -45 -3.5t-62 -1.5q-66 0 -127 0.5t-109 3.5q-7 17 -8 26q2 14 6.5 25.5t15.5 28.5l50 63l46 56l51 64q24 32 42 61t28 56t10 52q0 82 -76 82q-35 0 -68.5 -13t-51.5 -25h1zM460 -39q-3 3 -5 4t-3 2q-9 5 -19.5 13t-12.5 16 q12 23 39 70l61 106l74 126l78 131l70 119l56 94q5 8 11 14t11 6q2 0 9 -2.5t13 -6.5q11 -6 19 -14t10 -19l-37 -64l-59 -102l-74 -126l-80 -134l-65 -110l-58 -99q-16 -26 -28 -26q-8 0 -10 2zM308 590q-1 -41 -1.5 -103t-1.5 -131.5t-1.5 -141t-0.5 -132.5q7 -2 13 -4.5 t14 -4.5q14 -5 26 -10t12 -10q0 -26 -2 -35.5t-13 -14.5q-17 -3 -28 -3q-3 0 -5.5 -0.5t-4.5 -0.5q-22 0 -47 -1h-52q-25 -1 -50 -1h-43v25q0 7 -0.5 13.5t-0.5 13.5q0 11 15 16.5t35 11.5q5 2 10.5 3.5t11.5 3.5q2 90 3 195t3 222l-33 -9q-19 -5 -38 -9.5t-34 -8.5t-22 -5 q-5 10 -9 20t-5 19q5 8 12 16.5t16 17.5l53 18l55 18q26 9 48 15.5t34 9.5q8 -2 16.5 -5.5t14.5 -7.5z" />
<glyph unicode="&#xbe;" horiz-adv-x="1421" d="M1212 110q0 9 0.5 16.5t0.5 17.5q-56 0 -112 2t-91 6q-15 14 -22 29t-9 29q8 19 23.5 50t35.5 66l42 74q22 38 44.5 72t43 61t36.5 41q13 13 32 20.5t36 10.5q12 0 21.5 -1.5t16.5 -3.5q2 0 6 -0.5t5 -0.5q0 -23 -0.5 -49.5t-0.5 -50.5v-95v-92q0 -47 -1 -93 q18 2 36.5 2.5t29.5 0.5q2 -4 2.5 -6.5t1.5 -4.5q4 -8 4 -16q-6 -16 -16.5 -29t-31.5 -19q-6 -2 -11 -2h-12h-3v-111q0 -15 -6 -25t-27 -14q-11 -2 -31.5 -2.5t-42.5 -0.5v118zM1217 352q0 11 0.5 21t0.5 20v16v11q0 6 0.5 11.5t0.5 16.5q-20 -26 -39 -55t-36 -59t-31.5 -59 t-25.5 -54q54 -3 126 -3q2 27 2.5 56.5t1.5 56.5v21zM521 -39q-3 3 -5 4t-3 2q-9 5 -19.5 13t-12.5 16q12 23 39 70l62 106l74 126l77 131l69 119l57 94q5 8 11 14t11 6q2 0 9 -2.5t13 -6.5q11 -6 19 -14t10 -19l-36 -64l-60 -102l-74 -126l-80 -134l-65 -110l-58 -99 q-16 -26 -28 -26q-8 0 -10 2zM352 390q-11 -17 -29 -35.5t-45 -37.5q61 -14 95 -53t34 -101q0 -55 -19 -97.5t-52.5 -71t-79 -43.5t-97.5 -15q-42 0 -68 7.5t-37 17.5h1q-11 10 -14.5 21t-3.5 22q0 17 8 44q23 -14 51.5 -22.5t57.5 -8.5q34 0 61 11t45 30.5t27.5 46 t8.5 56.5q0 2 -0.5 4.5t-0.5 4.5q0 8 -1 11q-5 42 -40.5 60.5t-88.5 18.5q-8 0 -20 -0.5t-25 -2.5q0 11 -1 13q-2 6 -2 11q2 11 5.5 21t8.5 18q25 10 48.5 23t42 29.5t29.5 36t11 42.5q0 26 -14.5 46.5t-52.5 20.5q-32 0 -60 -9.5t-50 -25.5q-7 -5 -15 -5q-9 0 -16 10 q-5 10 -7 21.5t-2 20.5v5q11 26 58 46.5t114 20.5q47 0 77.5 -12.5t48.5 -32t25 -42t7 -43.5q0 -22 -6 -43.5t-17 -38.5z" />
<glyph unicode="&#xbf;" horiz-adv-x="328" d="M86 114q47 61 47 102q0 9 -1.5 18t-3.5 16q-1 5 -1.5 10t-0.5 10q5 8 18.5 12t26.5 4q17 0 33 -10t22 -31q5 -22 5 -41q0 -29 -13 -59q-8 -17 -18 -33l-22 -32l-4 -6l-4 -6q-17 -24 -31.5 -48t-14.5 -53q0 -32 16.5 -46.5t41.5 -14.5q16 0 34.5 6t41.5 20 q14 -2 25.5 -15.5t11.5 -42.5q-8 -14 -23.5 -23.5t-34.5 -16.5t-40 -10t-40 -3q-39 0 -66 10t-43.5 28t-24 43t-7.5 54q0 49 21 86t49 72zM167 366q-35 0 -45.5 14.5t-9.5 43.5q1 28 12.5 46t48.5 18q31 0 43.5 -15t12.5 -47q0 -60 -62 -60z" />
<glyph unicode="&#xc0;" horiz-adv-x="542" d="M410 16l-12 34l-10 35l-14 44l-15 51h-190l-31 -92l-26 -75q-3 -8 -10.5 -12.5t-28.5 -4.5q-11 0 -31.5 2.5t-37.5 6.5l4 22q2 10 5 17l42 124l50 141l64 180q31 87 50 147q3 11 6.5 18t12.5 7q1 0 5 2q3 1 6 1.5t8 0.5q8 1 17 1h14q16 -3 27 -15l35 -106l37 -115l18 -54 l21 -62l20 -59l16 -47h-1l27 -77q13 -35 22 -65q4 -13 7.5 -25.5t7.5 -23.5l1 -2q0 -4 -6 -10q-11 -4 -30 -6.5t-33 -2.5q-11 0 -21 3.5t-24 14.5zM292 728q-7 2 -27 13t-43 25l-40 23q-20 12 -37 20q-11 6 -16 13q0 10 5 20q3 7 10 15t15 11q2 7 8 12t15 5q6 0 22.5 -9.5 t36.5 -23.5l41 -31q20 -16 34 -29q5 -5 9.5 -10t6.5 -12q0 -4 -4 -10.5t-9 -13t-10.5 -12t-9.5 -6.5h-7zM195 260h139q-4 11 -8 24l-6 23q-6 20 -11 39l-10 36l-13 39q-5 15 -8 26t-6 20.5t-6 22.5l-24 -77l-28 -91l1 1z" />
<glyph unicode="&#xc1;" horiz-adv-x="542" d="M410 16l-12 34l-10 35l-14 44l-15 51h-190l-31 -92l-26 -75q-3 -8 -10.5 -12.5t-28.5 -4.5q-11 0 -31.5 2.5t-37.5 6.5l4 22q2 10 5 17l42 124l50 141l64 180q31 87 50 147q3 11 6.5 18t12.5 7q1 0 5 2q3 1 6 1.5t8 0.5q8 1 17 1h14q16 -3 27 -15l35 -106l37 -115l18 -54 l21 -62l20 -59l16 -47h-1l27 -77q13 -35 22 -65q4 -13 7.5 -25.5t7.5 -23.5l1 -2q0 -4 -6 -10q-11 -4 -30 -6.5t-33 -2.5q-11 0 -21 3.5t-24 14.5zM195 260h139q-4 11 -8 24l-6 23q-6 20 -11 39l-10 36l-13 39q-5 15 -8 26t-6 20.5t-6 22.5l-24 -78l-28 -90l1 1zM236 721 q-5 1 -9.5 7t-8 12.5t-5.5 12.5t-2 8l8 10q4 5 10 10q16 14 36.5 29.5t40 28t35.5 21t22 8.5q7 -1 13.5 -7t11.5 -14.5t8.5 -18t5.5 -16.5q0 -9 -14 -16q-18 -8 -39 -19l-42 -21l-40 -20z" />
<glyph unicode="&#xc2;" horiz-adv-x="542" d="M410 16l-12 34l-10 35l-14 44l-15 51h-190l-31 -92l-26 -75q-3 -8 -10.5 -12.5t-28.5 -4.5q-11 0 -31.5 2.5t-37.5 6.5l4 22q2 10 5 17l42 124l50 141l64 180q31 87 50 147q3 11 6.5 18t12.5 7q1 0 5 2q3 1 6 1.5t8 0.5q8 1 17 1h14q16 -3 27 -15l35 -106l37 -115l18 -54 l21 -62l20 -59l16 -47h-1l27 -77q13 -35 22 -65q4 -13 7.5 -25.5t7.5 -23.5l1 -2q0 -4 -6 -10q-11 -4 -30 -6.5t-33 -2.5q-11 0 -21 3.5t-24 14.5zM283 865q8 -6 20 -17l27 -24q15 -12 28 -26l25 -24l10 -11l10 -9q-3 -7 -8.5 -15t-12 -14.5t-14 -10.5t-13.5 -4 q-8 0 -15.5 2.5t-13.5 7.5h1q-17 12 -27 23l-20 21l-12 12q-15 -17 -32.5 -33t-29.5 -25h1q-2 -2 -12 -6q-2 -1 -7 -1h-4q-16 5 -28 15.5t-16 19.5l20 22l26 28l28 30l26 27q5 6 17.5 9.5t19.5 3.5zM195 260h139q-4 11 -8 24l-6 23q-6 20 -11 39l-10 36l-13 39q-5 15 -8 26 t-6 20.5t-6 22.5l-24 -78l-28 -90l1 1z" />
<glyph unicode="&#xc3;" horiz-adv-x="542" d="M410 16l-12 34l-10 35l-14 44l-15 51h-190l-31 -92l-26 -75q-3 -8 -10.5 -12.5t-28.5 -4.5q-11 0 -31.5 2.5t-37.5 6.5l4 22q2 10 5 17l42 124l50 141l64 180q31 87 50 147q3 11 6.5 18t12.5 7q1 0 5 2q3 1 6 1.5t8 0.5q8 1 17 1h14q16 -3 27 -15l35 -106l37 -115l18 -54 l21 -62l20 -59l16 -47h-1l27 -77q13 -35 22 -65q4 -13 7.5 -25.5t7.5 -23.5l1 -2q0 -4 -6 -10q-11 -4 -30 -6.5t-33 -2.5q-11 0 -21 3.5t-24 14.5zM195 260h139q-4 11 -8 24l-6 23q-6 20 -11 39l-10 36l-13 39q-5 15 -8 26t-6 20.5t-6 22.5l-24 -78l-28 -90l1 1zM222 783 q-23 -5 -37 -38q-6 -11 -11 -11q-6 0 -13 3.5t-13 8t-10 8.5l-5 5q15 45 38 69.5t60 24.5q21 0 34 -12l27 -26q7 -7 13 -11.5t13 -4.5q16 0 24.5 10.5t13.5 28.5q4 10 12 10q5 0 10.5 -4t10.5 -9t8.5 -10t4.5 -7q-2 -15 -9.5 -31t-19 -29t-27.5 -21.5t-35 -8.5 q-25 0 -37 13.5t-26 27.5q-8 8 -13 11t-13 3z" />
<glyph unicode="&#xc4;" horiz-adv-x="542" d="M410 16l-12 34l-10 35l-14 44l-15 51h-190l-31 -92l-26 -75q-3 -8 -10.5 -12.5t-28.5 -4.5q-11 0 -31.5 2.5t-37.5 6.5l4 22q2 10 5 17l42 124l50 141l64 180q31 87 50 147q3 11 6.5 18t12.5 7q1 0 5 2q3 1 6 1.5t8 0.5q8 1 17 1h14q16 -3 27 -15l35 -106l37 -115l18 -54 l21 -62l20 -59l16 -47h-1l27 -77q13 -35 22 -65q4 -13 7.5 -25.5t7.5 -23.5l1 -2q0 -4 -6 -10q-11 -4 -30 -6.5t-33 -2.5q-11 0 -21 3.5t-24 14.5zM195 260h139q-4 11 -8 24l-6 23q-6 20 -11 39l-10 36l-13 39q-5 15 -8 26t-6 20.5t-6 22.5l-24 -78l-28 -90l1 1zM140 792 q0 52 50 52q28 0 36 -12.5t7 -37.5t-10.5 -40.5t-38.5 -15.5q-24 0 -34 13t-10 41zM307 792q0 52 50 52q28 0 36 -12.5t7 -37.5t-10.5 -40.5t-38.5 -15.5q-24 0 -34 13t-10 41z" />
<glyph unicode="&#xc5;" horiz-adv-x="542" d="M410 16l-12 34l-10 35l-14 44l-15 51h-190l-31 -92l-26 -75q-3 -8 -10.5 -12.5t-28.5 -4.5q-11 0 -31.5 2.5t-37.5 6.5l4 22q2 10 5 17l42 124l50 141l64 180q31 87 50 147q3 11 6.5 18t12.5 7q1 0 5 2q3 1 6 1.5t8 0.5q8 1 17 1h14q16 -3 27 -15l35 -106l37 -115l18 -54 l21 -62l20 -59l16 -47h-1l27 -77q13 -35 22 -65q4 -13 7.5 -25.5t7.5 -23.5l1 -2q0 -4 -6 -10q-11 -4 -30 -6.5t-33 -2.5q-11 0 -21 3.5t-24 14.5zM160 808q0 21 8 40t22 33.5t34 22.5t44 8t43 -8.5t33 -22.5t21.5 -32.5t7.5 -38.5q0 -44 -30.5 -72.5t-78.5 -28.5 q-21 0 -40 7t-33 20t-22.5 31.5t-8.5 40.5zM195 260h139q-4 11 -7 23l-7 24l-11 38l-10 37l-13 39q-5 15 -8 26t-6 20.5t-6 22.5l-24 -78l-28 -90l1 1zM228 809q0 -20 11 -33.5t28 -13.5q19 0 29 14.5t10 32.5q0 19 -10 34t-30 15q-17 0 -27.5 -15t-10.5 -34z" />
<glyph unicode="&#xc6;" horiz-adv-x="713" d="M466 307l6 -114q3 -57 5 -114q16 -2 36 -2h43h70q40 0 65 1q-2 -42 -11 -58t-29 -21q-20 -1 -47.5 -1.5t-65.5 -0.5q-50 0 -92 2t-66 4q-1 5 -1.5 11.5t-1.5 11.5t-2 8.5t-2 8.5l-6 92q-3 45 -5 92h-149l-35 -75l-25 -58l-19 -42l-15 -33l-3 -5q-1 -3 0 -2 q-4 -8 -10.5 -13.5t-26.5 -5.5q-13 0 -20.5 1.5t-15.5 3.5l-16 6l-18 7l55 121l65 142l39 88l41 88l38 84l33 71l2 5q2 3 2 4l7 17q4 8 7 16q13 6 32 10.5t36 5.5h297q-1 -38 -6.5 -53.5t-19.5 -21.5q-16 -2 -37.5 -3.5t-47.5 -1.5h-97q1 -24 1 -49t2 -49t3 -49l2 -50h186 q-5 -47 -14.5 -63t-31.5 -16h-137zM315 460l-38 -82l-32 -73h113q-1 34 -2 62l-2 56l-2 56q-1 28 -2 62l-17 -38z" />
<glyph unicode="&#xc7;" horiz-adv-x="475" d="M307 677q33 0 58.5 -5.5t43.5 -14t28.5 -18t14.5 -16.5q0 -17 -4.5 -30.5t-12.5 -23.5h-11q-7 -1 -11.5 1t-12.5 6q-2 1 -3.5 1.5t-3.5 1.5v-1q-11 5 -21.5 8.5t-22.5 5.5q-6 1 -14 1.5t-16 0.5h-10q-5 0 -10 -1q-32 -3 -61 -19.5t-51 -49.5t-35 -83.5t-13 -120.5 q0 -128 45 -187t127 -59q17 0 34.5 3t34 8t30.5 10.5t23 11.5q12 -20 14 -41q-3 -29 -26 -48q-14 -13 -47.5 -23t-76.5 -10q-62 0 -112 16.5t-85 54.5t-54 101.5t-19 157.5q0 188 88 285q42 45 90.5 61t101.5 16zM230 -29q15 1 31.5 0.5t31.5 -4.5q32 -8 53.5 -28t21.5 -49 q0 -26 -13.5 -44t-34 -30t-43.5 -18.5t-42 -9.5q-11 2 -17 13t-6 18q0 10 13 13q42 14 60 26t18 32q0 10 -8 17.5t-20.5 12t-27.5 6.5t-29 2q2 9 4.5 22t7.5 21z" />
<glyph unicode="&#xc8;" horiz-adv-x="395" d="M159 79q14 -2 33 -2h40h70q40 0 71 1q-5 -42 -13.5 -58t-28.5 -21q-19 -1 -47.5 -1.5t-70.5 -0.5q-45 0 -84.5 1.5t-68.5 4.5q-5 23 -8 43v474v64q0 32 -2 62q2 1 6.5 2.5t9.5 3.5l12 4q5 2 11 4t21 3h249q-1 -20 -3 -33.5t-5 -21.5t-7.5 -12.5t-11.5 -7.5 q-22 -4 -44.5 -4.5t-50.5 -0.5h-78v-192h184q-3 -27 -6.5 -42.5t-9 -24t-13.5 -11t-20 -2.5h-135v-232zM243 725q-8 3 -29 15l-44 25l-42 24q-22 13 -39 21q-6 4 -9 10q0 3 1.5 8.5t3.5 10.5q3 8 10 15.5t14 10.5q7 17 24 17q6 0 22.5 -9.5t36.5 -23.5l40 -31q21 -16 35 -29 h-1q12 -11 17 -19q0 -3 -3.5 -10t-8.5 -14.5t-11 -13.5t-11 -7h-6z" />
<glyph unicode="&#xc9;" horiz-adv-x="395" d="M159 79q14 -2 33 -2h40h70q40 0 71 1q-5 -42 -13.5 -58t-28.5 -21q-19 -1 -47.5 -1.5t-70.5 -0.5q-45 0 -84.5 1.5t-68.5 4.5q-5 23 -8 43v474v64q0 32 -2 62q2 1 6.5 2.5t9.5 3.5l12 4q5 2 11 4t21 3h249q-1 -20 -3 -33.5t-5 -21.5t-7.5 -12.5t-11.5 -7.5 q-22 -4 -44.5 -4.5t-50.5 -0.5h-78v-192h184q-3 -27 -6.5 -42.5t-9 -24t-13.5 -11t-20 -2.5h-135v-232zM186 721q-5 1 -9.5 7t-8 12.5t-5.5 12.5t-2 8l8 10q4 5 10 10q16 14 36.5 29.5t40 28t35.5 21t22 8.5q7 -1 13.5 -7t11.5 -14.5t8.5 -18t5.5 -16.5q0 -9 -14 -16 q-18 -8 -39 -19l-42 -21l-40 -20z" />
<glyph unicode="&#xca;" horiz-adv-x="395" d="M159 79q14 -2 33 -2h40h70q40 0 71 1q-5 -42 -13.5 -58t-28.5 -21q-19 -1 -47.5 -1.5t-70.5 -0.5q-45 0 -84.5 1.5t-68.5 4.5q-5 23 -8 43v474v64q0 32 -2 62q2 1 6.5 2.5t9.5 3.5l12 4q5 2 11 4t21 3h249q-1 -20 -3 -33.5t-5 -21.5t-7.5 -12.5t-11.5 -7.5 q-22 -4 -44.5 -4.5t-50.5 -0.5h-78v-192h184q-3 -27 -6.5 -42.5t-9 -24t-13.5 -11t-20 -2.5h-135v-232zM219 865q8 -6 21 -17l27 -23l27 -26l25 -25l10 -10l10 -10q-5 -14 -20 -29t-28 -15q-8 0 -15.5 2.5t-13.5 7.5h1q-16 12 -27 23l-20 21l-12 12q-15 -17 -32.5 -33 t-29.5 -25h1q-2 -2 -12 -6q-2 -1 -7 -1h-4q-15 5 -27.5 15.5t-16.5 19.5l19 22l27 28l28 30l26 27q5 6 17.5 9.5t19.5 3.5z" />
<glyph unicode="&#xcb;" horiz-adv-x="395" d="M159 79q14 -2 33 -2h40h70q40 0 71 1q-5 -42 -13.5 -58t-28.5 -21q-19 -1 -47.5 -1.5t-70.5 -0.5q-45 0 -84.5 1.5t-68.5 4.5q-5 23 -8 43v474v64q0 32 -2 62q2 1 6.5 2.5t9.5 3.5l12 4q5 2 11 4t21 3h249q-1 -20 -3 -33.5t-5 -21.5t-7.5 -12.5t-11.5 -7.5 q-22 -4 -44.5 -4.5t-50.5 -0.5h-78v-192h184q-3 -27 -6.5 -42.5t-9 -24t-13.5 -11t-20 -2.5h-135v-232zM79 792q0 52 50 52q28 0 36 -12.5t7 -37.5t-10.5 -40.5t-38.5 -15.5q-24 0 -34 13t-10 41zM246 792q0 52 50 52q28 0 36 -12.5t7 -37.5t-10.5 -40.5t-38.5 -15.5 q-24 0 -34 13t-10 41z" />
<glyph unicode="&#xcc;" horiz-adv-x="217" d="M68 -3q-10 0 -14.5 5t-4.5 19v119q0 44 0.5 92.5t0.5 99.5q0 30 -0.5 59.5t-0.5 58.5v92q0 40 -0.5 63.5t-1.5 30.5q8 19 29.5 24t61.5 5q13 0 16 -17t3 -53v-124q0 -34 -0.5 -68.5t-0.5 -68.5t0.5 -66.5t0.5 -63.5v-98q0 -29 0.5 -48t0.5 -30v-14q-8 -11 -29.5 -14 t-60.5 -3zM139 725q-10 5 -30 16l-44 25l-39 23l-38 19q-4 3 -11 12q0 3 1.5 8.5t3.5 10.5l10 15q7 9 14 11q7 17 24 17q5 0 21.5 -9.5t36.5 -23.5l42 -31q20 -16 34 -29h-1q12 -11 17 -22q0 -4 -4 -10.5t-9 -13t-11 -12t-10 -6.5h-7z" />
<glyph unicode="&#xcd;" horiz-adv-x="217" d="M69 -3q-10 0 -14.5 5t-4.5 19v119q0 44 0.5 92.5t0.5 99.5q0 30 -0.5 59.5t-0.5 58.5v92q0 40 -0.5 63.5t-1.5 30.5q8 19 29.5 24t61.5 5q13 0 16 -17t3 -53v-124q0 -34 -0.5 -68.5t-0.5 -68.5t0.5 -66.5t0.5 -63.5v-98q0 -29 0.5 -48t0.5 -30v-14q-8 -11 -29.5 -14 t-60.5 -3zM66 721q-5 1 -9.5 7t-8 12.5t-5.5 12.5t-2 8l8 10q4 5 10 10q16 14 36.5 29.5t40 28t35.5 21t22 8.5q7 -1 13.5 -7t11.5 -14.5t8.5 -18t5.5 -16.5q0 -9 -14 -16q-18 -8 -39 -19l-42 -21l-39 -20z" />
<glyph unicode="&#xce;" horiz-adv-x="217" d="M69 -3q-10 0 -14.5 5t-4.5 19v119q0 44 0.5 92.5t0.5 99.5q0 30 -0.5 59.5t-0.5 58.5v92q0 40 -0.5 63.5t-1.5 30.5q8 19 29 24t62 5q12 0 15 -17t3 -53v-124q0 -34 -0.5 -68.5t-0.5 -68.5t0.5 -66.5t0.5 -63.5v-98q0 -29 0.5 -48t0.5 -30v-14q-8 -11 -29 -14t-60 -3z M119 865q8 -6 21 -17l27 -23l27 -26l25 -25l11 -10l9 -10q-5 -14 -20 -29t-28 -15q-8 0 -15.5 2.5t-13.5 7.5h1q-16 12 -27 23l-20 21l-12 12q-15 -17 -32.5 -33t-29.5 -25h1q-2 -2 -12 -6q-2 -1 -7 -1h-4q-15 5 -27.5 15.5t-16.5 19.5l20 22l26 28l29 30l25 27 q5 6 17.5 9.5t19.5 3.5z" />
<glyph unicode="&#xcf;" horiz-adv-x="217" d="M69 -3q-10 0 -14.5 5t-4.5 19v119q0 44 0.5 92.5t0.5 99.5q0 30 -0.5 59.5t-0.5 58.5v92q0 40 -0.5 63.5t-1.5 30.5q8 19 29 24t62 5q12 0 15 -17t3 -53v-124q0 -34 -0.5 -68.5t-0.5 -68.5t0.5 -66.5t0.5 -63.5v-98q0 -29 0.5 -48t0.5 -30v-14q-8 -11 -29 -14t-60 -3z M129 779q0 23 15 39.5t44 16.5t42.5 -16t13.5 -38q0 -26 -16 -41t-42 -15q-27 0 -42 13.5t-15 40.5zM-36 779q0 23 15.5 39.5t43.5 16.5q29 0 42.5 -16t13.5 -38q0 -26 -15.5 -41t-42.5 -15q-26 0 -41.5 13.5t-15.5 40.5z" />
<glyph unicode="&#xd0;" horiz-adv-x="537" d="M213 665q85 0 140 -23t87.5 -64.5t45.5 -98t13 -123.5q0 -103 -20.5 -175t-71.5 -120q-22 -20 -46.5 -33t-49.5 -20.5t-49.5 -10t-45.5 -2.5q-45 0 -83 3t-80 8v310h-59q1 41 7.5 59t25.5 18h26v192q0 29 3 43.5t12 27.5q10 1 27 2.5t37 3t41.5 2.5t39.5 1zM219 75 q30 0 59.5 11t53 41.5t38 85.5t14.5 143q0 55 -8 95.5t-23.5 67.5t-39.5 42t-56 20q-27 6 -57 6h-22q-11 0 -19 -1v-193h123q-1 -38 -6 -57.5t-28 -19.5h-89v-238q27 -3 60 -3z" />
<glyph unicode="&#xd1;" horiz-adv-x="567" d="M335 338l35 -70l32 -67q-2 34 -2.5 76t-0.5 77v241q0 34 10 55q9 6 15.5 9t16 4.5t23.5 1.5h39q-1 -45 -1.5 -98t-0.5 -112v-441q-3 -2 -19.5 -11t-33.5 -9q-7 0 -22 1t-26 6l-43 76l-46 81v-1l-26 46l-27 47l-40 74l-23 46l-22 49q-5 10 -9.5 21.5t-9.5 20.5 q-1 1 -1.5 2t-1.5 2q2 -45 3 -88.5t2 -75.5v-233q0 -20 -2 -31t-7 -22q-6 -6 -13 -10t-17.5 -5.5t-26 -2t-39.5 -0.5q1 43 1.5 95.5t0.5 112.5v420l-8 11q-4 5 -4 7v3q0 1 2 7q6 3 16 5.5t21 4t22 2t17 0.5q17 0 39 -13q16 -32 40 -72l50 -87q8 -13 14.5 -25.5t13.5 -24.5 l12 -22l14 -22zM236 785q-23 -5 -37 -38q-6 -11 -11 -11q-6 0 -13 3.5t-13 8t-10 8.5l-5 5q15 45 38 69.5t60 24.5q21 0 34 -12l27 -26q7 -7 13 -11.5t13 -4.5q16 0 24.5 10.5t13.5 28.5q4 10 12 10q5 0 10.5 -4t10.5 -9t8.5 -10t4.5 -7q-2 -15 -9.5 -31t-19 -29 t-27.5 -21.5t-35 -8.5q-25 0 -37 13.5t-26 27.5q-8 8 -13 11t-13 3z" />
<glyph unicode="&#xd2;" horiz-adv-x="572" d="M330 739q-9 4 -26 13l-39 22l-43 24l-40 23q-8 5 -11 9q0 10 4 18q3 8 10 15.5t14 7.5q2 7 6.5 12.5t9.5 5.5t20.5 -9.5t35 -24t39.5 -31t34 -29.5q8 -9 13 -16q0 -3 -3 -9t-7 -12.5t-8.5 -12t-8.5 -6.5zM129 324q0 -134 44.5 -199.5t114.5 -65.5q73 0 115 66.5t42 208.5 q0 71 -12 122t-33.5 83.5t-50.5 48t-63 15.5h-1q-70 0 -113 -67t-43 -212zM289 677q64 0 111.5 -23t78.5 -66.5t46 -107t15 -143.5q0 -167 -63.5 -259.5t-193.5 -92.5q-68 0 -115.5 24t-77.5 68.5t-44 108t-14 143.5q0 173 66 260.5t191 87.5z" />
<glyph unicode="&#xd3;" horiz-adv-x="572" d="M129 324q0 -134 44.5 -199.5t114.5 -65.5q73 0 115 66.5t42 208.5q0 71 -12 122t-33.5 83.5t-50.5 48t-63 15.5h-1q-70 0 -113 -67t-43 -212zM289 677q64 0 111.5 -23t78.5 -66.5t46 -107t15 -143.5q0 -167 -63.5 -259.5t-193.5 -92.5q-68 0 -115.5 24t-77.5 68.5 t-44 108t-14 143.5q0 173 66 260.5t191 87.5zM248 719q-5 1 -9.5 7t-8 12.5t-5.5 12.5t-2 8l8 10q4 5 10 10q16 14 36.5 29.5t40 28t35.5 21t22 8.5q7 -1 13.5 -7t11.5 -14.5t8.5 -18t5.5 -16.5q0 -9 -14 -16q-18 -8 -39 -19l-42 -21l-40 -20z" />
<glyph unicode="&#xd4;" horiz-adv-x="572" d="M129 324q0 -134 44.5 -199.5t114.5 -65.5q73 0 115 66.5t42 208.5q0 71 -12 122t-33.5 83.5t-50.5 48t-63 15.5h-1q-70 0 -113 -67t-43 -212zM289 677q64 0 111.5 -23t78.5 -66.5t46 -107t15 -143.5q0 -167 -63.5 -259.5t-193.5 -92.5q-68 0 -115.5 24t-77.5 68.5 t-44 108t-14 143.5q0 173 66 260.5t191 87.5zM296 871q10 -7 26 -21l33 -30l32 -32q16 -16 27 -26q-5 -13 -16.5 -26t-22.5 -13q-12 0 -22 9q-16 13 -36 34t-31 31q-19 -23 -37 -40t-31 -27q-1 -1 -3.5 -2.5t-4.5 -2.5t-4 -1h-1q-14 4 -24.5 13t-13.5 17l19 22l26 28l29 30 l26 26q4 6 14 8.5t15 2.5z" />
<glyph unicode="&#xd5;" horiz-adv-x="582" d="M141 324q0 -130 41 -193t106 -63q69 0 107 64t38 202q0 69 -11.5 118t-31 81t-47 47t-58.5 15q-65 0 -104.5 -65t-39.5 -206zM289 677q66 0 114.5 -23t80 -66.5t47 -107t15.5 -143.5q0 -167 -65 -259.5t-198 -92.5q-69 0 -118 24t-79.5 68.5t-45 108t-14.5 143.5 q0 173 67.5 260.5t195.5 87.5zM241 783q-23 -5 -37 -38q-6 -11 -11 -11q-6 0 -13 3.5t-13 8t-10 8.5l-5 5q15 45 38 69.5t60 24.5q21 0 34 -12l27 -26q7 -7 13 -11.5t13 -4.5q16 0 24.5 10.5t13.5 28.5q4 10 12 10q5 0 10.5 -4t10.5 -9t8.5 -10t4.5 -7q-2 -15 -9.5 -31 t-19 -29t-27.5 -21.5t-35 -8.5q-25 0 -37 13.5t-26 27.5q-8 8 -13 11t-13 3z" />
<glyph unicode="&#xd6;" horiz-adv-x="582" d="M142 324q0 -130 41 -193t106 -63q69 0 107 64t38 202q0 69 -11.5 118t-31 81t-47 47t-58.5 15q-65 0 -104.5 -65t-39.5 -206zM290 677q66 0 114.5 -23t80 -66.5t47 -107t15.5 -143.5q0 -167 -65 -259.5t-198 -92.5q-69 0 -118 24t-79.5 68.5t-45 108t-14.5 143.5 q0 173 67.5 260.5t195.5 87.5zM161 792q0 52 50 52q28 0 36 -12.5t7 -37.5t-10.5 -40.5t-38.5 -15.5q-24 0 -34 13t-10 41zM328 792q0 52 50 52q28 0 36 -12.5t7 -37.5t-10.5 -40.5t-38.5 -15.5q-24 0 -34 13t-10 41z" />
<glyph unicode="&#xd7;" horiz-adv-x="499" d="M72 138l59 64l59 62l-28 31l-29 30l-31 34l-32 31q2 8 5 16t10 17q20 23 48 23l57 -61l57 -61q11 11 21.5 23.5t21.5 23.5l51 53l3 3q6 6 13.5 12.5t16.5 6.5q12 0 25 -10h-1q11 -8 19.5 -18.5t13.5 -18.5l-32 -35l-34 -35l-29 -32l-31 -32l26 -27l25 -27q28 -28 55 -58 v1q6 -6 10 -12.5t7 -12.5q-7 -15 -18 -25q-21 -23 -49 -23l-57 62l-58 61l-56 -61l-57 -62q-14 0 -25.5 5t-22.5 19q-7 8 -9.5 16t-3.5 17z" />
<glyph unicode="&#xd8;" horiz-adv-x="603" d="M112 -27q-4 -3 -8.5 -4t-9.5 -1q-6 0 -12 2l-11 5q-8 7 -14.5 14.5t-8.5 15.5q6 13 20 39l29 49q-34 47 -47.5 107.5t-13.5 127.5q0 100 24 171.5t69 114.5q64 63 170 63q42 0 78 -9.5t65 -30.5l12 20l12 16q4 7 8 11.5t12 7.5q9 0 18 -4t16.5 -9.5t13 -12t5.5 -11.5 q-2 -5 -6.5 -15t-11.5 -22l-13 -26l-13 -25q32 -45 46.5 -104.5t14.5 -125.5q0 -83 -15.5 -148.5t-47.5 -110.5t-81.5 -69t-117.5 -24q-43 0 -80.5 11t-65.5 31l-18 -29l-16 -24zM445 336q0 87 -23 144l-36 -66l-38 -69l-73 -131q-35 -63 -65 -111q36 -35 84 -35q33 0 61 13 t48 44.5t31 82.5t11 128zM149 321q0 -44 5 -76.5t16 -61.5l105 190l106 189q-33 33 -86 33q-32 0 -58.5 -16t-46 -49.5t-30.5 -85t-11 -123.5z" />
<glyph unicode="&#xd9;" horiz-adv-x="552" d="M313 731q-9 4 -26 13l-39 22l-43 25q-22 13 -40 22q-10 6 -12 10q0 4 2.5 10.5t6 13.5t8.5 12t11 5q3 7 7 12t9 5t20.5 -9.5t35 -24t39.5 -31t34 -29.5q10 -8 13 -16v-1q0 -5 -7 -17q-5 -8 -9.5 -14t-9.5 -8zM280 57q49 0 72.5 7t35.5 15q11 51 15.5 113t4.5 125l1 274 q0 20 2.5 34.5t7.5 27.5q6 4 11 6t13 3t20 1.5t32 0.5q-1 -39 -1.5 -85.5t-0.5 -102.5v-159q0 -81 -6.5 -147t-20.5 -123q-29 -35 -81 -48.5t-111 -13.5q-57 0 -95.5 16t-62.5 44.5t-36.5 67.5t-17.5 85q-2 25 -3.5 51t-1.5 55v190q0 49 -0.5 87.5t-1.5 69.5q6 8 25 10.5 t57 2.5q7 -12 8.5 -28.5t1.5 -46.5v-277q0 -32 1.5 -59t5.5 -52q11 -66 39 -105t87 -39z" />
<glyph unicode="&#xda;" horiz-adv-x="552" d="M280 57q49 0 72.5 7t35.5 15q11 51 15.5 113t4.5 125l1 274q0 20 2.5 34.5t7.5 27.5q6 4 11 6t13 3t20 1.5t32 0.5q-1 -39 -1.5 -85.5t-0.5 -102.5v-159q0 -81 -6.5 -147t-20.5 -123q-29 -35 -81 -48.5t-111 -13.5q-57 0 -95.5 16t-62.5 44.5t-36.5 67.5t-17.5 85 q-2 25 -3.5 51t-1.5 55v190q0 49 -0.5 87.5t-1.5 69.5q6 8 25 10.5t57 2.5q7 -12 8.5 -28.5t1.5 -46.5v-277q0 -32 1.5 -59t5.5 -52q11 -66 39 -105t87 -39zM231 716q-5 1 -9.5 7t-8 12.5t-5.5 12.5t-2 8l8 10q4 5 10 10q16 14 36.5 29.5t40 28t35.5 21t22 8.5q7 -1 13.5 -7 t11.5 -14.5t8.5 -18t5.5 -16.5q0 -9 -14 -16q-18 -8 -39 -19l-42 -22l-40 -19z" />
<glyph unicode="&#xdb;" horiz-adv-x="552" d="M280 57q49 0 72.5 7t35.5 15q11 51 15.5 113t4.5 125l1 274q0 20 2.5 34.5t7.5 27.5q6 4 11 6t13 3t20 1.5t32 0.5q-1 -39 -1.5 -85.5t-0.5 -102.5v-159q0 -81 -6.5 -147t-20.5 -123q-29 -35 -81 -48.5t-111 -13.5q-57 0 -95.5 16t-62.5 44.5t-36.5 67.5t-17.5 85 q-2 25 -3.5 51t-1.5 55v190q0 49 -0.5 87.5t-1.5 69.5q6 8 25 10.5t57 2.5q7 -12 8.5 -28.5t1.5 -46.5v-277q0 -32 1.5 -59t5.5 -52q11 -66 39 -105t87 -39zM285 867q10 -7 26 -21t33 -31l32 -32l27 -25q-5 -13 -16.5 -26t-22.5 -13q-12 0 -22 9q-16 13 -36 34t-31 31 q-19 -23 -37 -40t-31 -27q-1 -1 -3.5 -2.5t-4.5 -2.5t-4 -1h-1q-14 4 -24.5 13t-13.5 17l19 21l26 29l29 29l26 27q4 6 14 8.5t15 2.5z" />
<glyph unicode="&#xdc;" horiz-adv-x="562" d="M280 66q45 0 67.5 6.5t33.5 14.5l-4 -3q10 51 14.5 112t4.5 121l1 271q0 18 3 33.5t8 29.5q7 4 13.5 7t16.5 4.5t25 2t39 0.5q-1 -39 -1.5 -87.5t-0.5 -103.5v-157q0 -80 -6.5 -145t-20.5 -121q-32 -38 -85.5 -52t-113.5 -14q-59 0 -99 16t-64.5 45t-37.5 68t-18 86 q-2 25 -3.5 50.5t-1.5 54.5v187q0 48 -0.5 86t-1.5 69q8 11 31 14.5t67 3.5q9 -16 11 -33t2 -46v-273q0 -30 1.5 -57.5t5.5 -51.5q11 -61 36.5 -99.5t77.5 -38.5zM152 792q0 52 50 52q28 0 36 -12.5t7 -37.5t-10.5 -40.5t-38.5 -15.5q-24 0 -34 13t-10 41zM319 792 q0 52 50 52q28 0 36 -12.5t7 -37.5t-10.5 -40.5t-38.5 -15.5q-24 0 -34 13t-10 41z" />
<glyph unicode="&#xdd;" horiz-adv-x="472" d="M356 656q11 4 20 6t20 2q6 0 19 -1t36 -3q2 -5 2.5 -9.5t0.5 -6.5q0 -8 -3 -16l-7 -17l-1 -1q1 0 0.5 -1.5t-1.5 -2.5q-11 -26 -34 -68l-45 -83l-38 -69q-18 -33 -27 -54q-4 -11 -7.5 -22.5t-5.5 -25.5v-143q0 -24 0.5 -44t0.5 -37v-46q-5 -5 -10.5 -8.5t-16 -5.5 t-27.5 -3t-44 -1q-10 24 -10 49v232v12q0 6 -1 9q-8 20 -21.5 49.5t-31.5 63.5l-28 55l-30 58l-32 62l-30 60q0 7 10 9.5t46 2.5h58q8 -20 25 -57l35 -76l34 -81l23 -49zM206 702q-8 3 -14 10.5t-11 14.5q-7 12 -7 19q7 11 20 24q16 13 37 28.5t41 28.5t37 21.5t25 8.5 q9 -2 17 -8.5t14.5 -15t10.5 -18.5t6 -17q0 -7 -6 -11.5t-14 -9.5q-18 -8 -39 -19l-42 -22h1l-41 -21q-19 -9 -29 -13h-6z" />
<glyph unicode="&#xdf;" horiz-adv-x="507" d="M374 131q-2 17 -9 31.5t-16 25.5q-14 17 -30 33l-33 31l-9 9q-20 20 -36.5 47t-16.5 56q0 38 27.5 68.5t69.5 56.5l-2 -1q8 8 14 21t6 28q0 32 -15.5 50.5t-41.5 22.5q-14 3 -27 3q-2 0 -7.5 -0.5t-12.5 -1.5q-63 -12 -72 -120q-2 -24 -2.5 -52t-0.5 -54q0 -44 0.5 -84.5 t0.5 -80.5v-83q0 -41 1 -82q0 -15 -0.5 -27.5t-2.5 -23.5q-11 -8 -27 -11t-36 -3q-23 0 -33.5 5t-10.5 7q0 1 0.5 3t0.5 4q1 5 2 13.5t1 19.5v57q0 14 0.5 28t0.5 29v116q0 31 -0.5 61t-0.5 62q-15 17 -21.5 37t-6.5 40q5 5 11 8.5t17 8.5q2 1 1 1v14q0 8 1 13v-1 q5 51 28 86.5t61 58.5q25 14 54.5 21t59.5 7q9 0 17 -0.5t16 -1.5q39 -4 67.5 -17t47 -32.5t28 -44.5t9.5 -52q0 -29 -10 -48t-24 -31l-14 -7h2q-26 -17 -47 -36t-21 -44q0 -17 10.5 -31.5t25.5 -28.5h-1q3 -2 6 -5t6 -5l28 -22q13 -12 21 -20q26 -25 41.5 -54.5t15.5 -67.5 q0 -37 -13 -65.5t-36 -48t-55 -29.5t-69 -10q-48 0 -79 13t-41 27q1 23 14 43q5 8 13 11t19 3q11 -6 28.5 -13t38.5 -7q30 0 51.5 18t17.5 48z" />
<glyph unicode="&#xe0;" horiz-adv-x="405" d="M49 410q2 -8 5.5 -20t14.5 -23q11 0 20 2t17 6q22 8 49 16.5t51 8.5q25 0 31 -16t6 -48v-49q-5 1 -10 1h-12h-15q-7 0 -14 -1q-24 -3 -54 -11.5t-57 -27t-45.5 -49t-18.5 -75.5q0 -35 11 -60.5t30 -42t42.5 -24.5t49.5 -8q21 0 40 2.5t37 11.5q5 3 11 7l11 8 q10 -11 26.5 -20t33.5 -9q23 1 39 9.5t23 18.5q0 5 0.5 18.5t1.5 24.5q-12 -2 -18 3.5t-8 13.5q-3 9 -2 22v18q0 11 0.5 23t0.5 24v21q1 28 1 57v56v44q0 66 -23 102t-83 40q-12 1 -18 1h-17q-26 -1 -50.5 -6t-45 -12.5t-36 -16t-23.5 -15.5q-3 -8 -3 -13v-6q0 -2 2 -7z M241 107q-1 -5 -1.5 -9t-0.5 -3l1 1q-9 -12 -28.5 -20.5t-39.5 -8.5h-6q-19 2 -31 16t-12 49q0 22 6.5 37t17.5 25t25.5 15.5t30.5 8.5h-1q8 1 15.5 1.5t15.5 0.5h10v-66v-27q0 -11 -2 -20zM170 734q5 0 18 -13.5t29 -33.5l32 -43l29 -39q1 -3 1 -8q0 -12 -10 -23.5 t-21 -13.5l-26 24l-30 30l-33 31l-29 30q-9 9 -11 12q0 7 5 15.5t12.5 15.5t16.5 11.5t17 4.5z" />
<glyph unicode="&#xe1;" horiz-adv-x="405" d="M50 409q-2 5 -2 8v5q0 5 3 13q8 7 23.5 15.5t36 16t45 12.5t50.5 6h18q5 0 17 -1q60 -4 83 -40t23 -102v-44v-56q0 -29 -1 -57v-21q0 -12 -0.5 -24t-0.5 -23v-18q-1 -13 2 -22q2 -8 8 -13.5t18 -3.5q-1 -11 -1.5 -24.5t-0.5 -18.5q-7 -10 -23 -18.5t-39 -9.5 q-17 0 -33.5 9t-26.5 20l-11 -7q-6 -5 -11 -8q-18 -9 -37 -11.5t-40 -2.5q-26 0 -49.5 8t-42.5 24.5t-30 42t-11 60.5q0 45 18.5 75.5t45.5 49t57 27t54 11.5q7 1 14 1h15h12q5 0 10 -1v49q0 32 -6 48t-31 16q-24 0 -51 -8.5t-49 -16.5q-8 -4 -17 -6t-20 -2q-11 11 -14.5 23 t-5.5 20zM241 107q2 9 2 21v26v66h-10q-8 0 -15.5 -0.5t-15.5 -1.5h1q-16 -3 -30.5 -8.5t-25.5 -15.5t-17.5 -25t-6.5 -37q0 -35 12 -49t31 -16h6q20 0 39.5 8.5t28.5 20.5l-1 -1q0 -1 0.5 3t1.5 9zM251 735q9 0 19.5 -5t19.5 -13t15 -17t6 -17q-3 -5 -6 -7.5t-8 -7.5 l-30 -30l-32 -31l-31 -30l-25 -25q-16 4 -31 16.5t-15 26.5v3q0 1 2 6l29 40l34 43q17 20 31.5 34t21.5 14z" />
<glyph unicode="&#xe2;" horiz-adv-x="405" d="M50 409q-2 5 -2 8v5q0 5 3 13q8 7 23.5 15.5t36 16t45 12.5t50.5 6h18q5 0 17 -1q60 -4 83 -40t23 -102v-44v-56q0 -29 -1 -57v-21q0 -12 -0.5 -24t-0.5 -23v-18q-1 -13 2 -22q2 -8 8 -13.5t18 -3.5q-1 -11 -1.5 -24.5t-0.5 -18.5q-7 -10 -23 -18.5t-39 -9.5 q-17 0 -33.5 9t-26.5 20l-11 -7q-6 -5 -11 -8q-18 -9 -37 -11.5t-40 -2.5q-26 0 -49.5 8t-42.5 24.5t-30 42t-11 60.5q0 45 18.5 75.5t45.5 49t57 27t54 11.5q7 1 14 1h15h12q5 0 10 -1v49q0 32 -6 48t-31 16q-24 0 -51 -8.5t-49 -16.5q-8 -4 -17 -6t-20 -2q-11 11 -14.5 23 t-5.5 20zM241 107q2 9 2 21v26v66h-10q-8 0 -15.5 -0.5t-15.5 -1.5h1q-16 -3 -30.5 -8.5t-25.5 -15.5t-17.5 -25t-6.5 -37q0 -35 12 -49t31 -16h6q20 0 39.5 8.5t28.5 20.5l-1 -1q0 -1 0.5 3t1.5 9zM209 734l24 -27l31 -36l30 -39q14 -20 23 -34q-7 -11 -19 -22.5t-23 -11.5 q-9 0 -19 12q-8 9 -17 21l-17 22l-15 21q-7 10 -11 17q-13 -22 -25.5 -40t-26.5 -36q-5 -7 -11 -11.5t-8 -4.5q-12 5 -23 11t-16 14q11 24 34 57l45 63q11 13 20 18q13 6 24 6z" />
<glyph unicode="&#xe3;" horiz-adv-x="407" d="M50 409q-2 5 -2 8v5q0 5 3 13q8 7 23.5 15.5t36 16t45 12.5t50.5 6h18q5 0 17 -1q60 -4 83 -40t23 -102v-44v-56q0 -29 -1 -57v-21q0 -12 -0.5 -24t-0.5 -23v-18q-1 -13 2 -22q2 -8 8 -13.5t18 -3.5q-1 -11 -1.5 -24.5t-0.5 -18.5q-7 -10 -23 -18.5t-39 -9.5 q-17 0 -33.5 9t-26.5 20l-11 -7q-6 -5 -11 -8q-18 -9 -37 -11.5t-40 -2.5q-26 0 -49.5 8t-42.5 24.5t-30 42t-11 60.5q0 45 18.5 75.5t45.5 49t57 27t54 11.5q7 1 14 1h15h12q5 0 10 -1v49q0 32 -6 48t-31 16q-24 0 -51 -8.5t-49 -16.5q-8 -4 -17 -6t-20 -2q-11 11 -14.5 23 t-5.5 20zM241 107q2 9 2 21v26v66h-10q-8 0 -15.5 -0.5t-15.5 -1.5h1q-16 -3 -30.5 -8.5t-25.5 -15.5t-17.5 -25t-6.5 -37q0 -35 12 -49t31 -16h6q20 0 39.5 8.5t28.5 20.5l-1 -1q0 -1 0.5 3t1.5 9zM151 625q-23 -5 -37 -38q-6 -11 -11 -11q-6 0 -13 3.5t-13 8t-10 8.5l-5 5 q15 45 38 69.5t60 24.5q21 0 34 -12l27 -26q7 -7 13 -11.5t13 -4.5q16 0 24.5 10.5t13.5 28.5q4 10 12 10q5 0 10.5 -4t10.5 -9t8.5 -10t4.5 -7q-2 -15 -9.5 -31t-19 -29t-27.5 -21.5t-35 -8.5q-25 0 -37 13.5t-26 27.5q-8 8 -13 11t-13 3z" />
<glyph unicode="&#xe4;" horiz-adv-x="405" d="M50 409q-2 5 -2 8v5q0 5 3 13q8 7 23.5 15.5t36 16t45 12.5t50.5 6h18q5 0 17 -1q60 -4 83 -40t23 -102v-44v-56q0 -29 -1 -57v-21q0 -12 -0.5 -24t-0.5 -23v-18q-1 -13 2 -22q2 -8 8 -13.5t18 -3.5q-1 -11 -1.5 -24.5t-0.5 -18.5q-7 -10 -23 -18.5t-39 -9.5 q-17 0 -33.5 9t-26.5 20l-11 -7q-6 -5 -11 -8q-18 -9 -37 -11.5t-40 -2.5q-26 0 -49.5 8t-42.5 24.5t-30 42t-11 60.5q0 45 18.5 75.5t45.5 49t57 27t54 11.5q7 1 14 1h15h12q5 0 10 -1v49q0 32 -6 48t-31 16q-24 0 -51 -8.5t-49 -16.5q-8 -4 -17 -6t-20 -2q-11 11 -14.5 23 t-5.5 20zM241 107q2 9 2 21v26v66h-10q-8 0 -15.5 -0.5t-15.5 -1.5h1q-16 -3 -30.5 -8.5t-25.5 -15.5t-17.5 -25t-6.5 -37q0 -35 12 -49t31 -16h6q20 0 39.5 8.5t28.5 20.5l-1 -1q0 -1 0.5 3t1.5 9zM68 625q0 52 50 52q28 0 36 -12.5t7 -37.5t-10.5 -40.5t-38.5 -15.5 q-24 0 -34 13t-10 41zM225 625q0 52 50 52q28 0 36 -12.5t7 -37.5t-10.5 -40.5t-38.5 -15.5q-24 0 -34 13t-10 41z" />
<glyph unicode="&#xe5;" horiz-adv-x="405" d="M50 409q-2 5 -2 8v5q0 5 3 13q8 7 23.5 15.5t36 16t45 12.5t50.5 6h18q5 0 17 -1q60 -4 83 -40t23 -102v-44v-56q0 -29 -1 -57v-21q0 -12 -0.5 -24t-0.5 -23v-18q-1 -13 2 -22q2 -8 8 -13.5t18 -3.5q-1 -11 -1.5 -24.5t-0.5 -18.5q-7 -10 -23 -18.5t-39 -9.5 q-17 0 -33.5 9t-26.5 20l-11 -7q-6 -5 -11 -8q-18 -9 -37 -11.5t-40 -2.5q-26 0 -49.5 8t-42.5 24.5t-30 42t-11 60.5q0 45 18.5 75.5t45.5 49t57 27t54 11.5q7 1 14 1h15h12q5 0 10 -1v49q0 32 -6 48t-31 16q-24 0 -51 -8.5t-49 -16.5q-8 -4 -17 -6t-20 -2q-11 11 -14.5 23 t-5.5 20zM241 107q2 9 2 21v26v66h-10q-8 0 -15.5 -0.5t-15.5 -1.5h1q-16 -3 -30.5 -8.5t-25.5 -15.5t-17.5 -25t-6.5 -37q0 -35 12 -49t31 -16h6q20 0 39.5 8.5t28.5 20.5l-1 -1q0 -1 0.5 3t1.5 9zM96 650q0 42 28 71.5t72 29.5h1q22 0 40.5 -8.5t31.5 -22.5t20 -32t7 -37 q0 -43 -29 -71.5t-72 -28.5q-41 0 -70 27t-29 72zM146 651q0 -23 14.5 -38.5t36.5 -15.5q23 0 36.5 16t13.5 37t-13.5 38t-37.5 17q-23 0 -36.5 -16.5t-13.5 -37.5z" />
<glyph unicode="&#xe6;" horiz-adv-x="635" d="M515 210q-12 -1 -26 -1.5t-29 -0.5q-29 0 -57.5 1t-53.5 3q1 -80 30 -111t79 -31q33 0 64 8.5t51 19.5q5 -12 6 -26l3 -23q-1 -14 -16.5 -28.5t-32.5 -20.5q-14 -5 -39 -9t-55 -4q-39 0 -74.5 11.5t-58.5 37.5q-26 -21 -66 -35t-97 -14q-52 2 -86 35t-34 106 q0 35 13.5 65.5t37.5 53t56.5 35.5t69.5 13q14 0 22.5 0.5t22.5 -1.5v23q0 9 -0.5 18.5t-1.5 17.5q-7 50 -61 50q-23 0 -45.5 -8t-41.5 -16v1q-23 -12 -42 -13q-8 12 -13.5 24t-5.5 25q0 11 4 18q9 8 25.5 17t38.5 16.5t48.5 12.5t56.5 5q82 0 110 -52q23 26 56 39t71 13 q39 0 68 -12.5t48 -35t28.5 -53t10.5 -66.5q0 -22 -1.5 -44t-5.5 -38q-9 -8 -32 -16t-45 -10zM177 66q44 0 74 34q-3 26 -5 61t-2 66h-14h-9q-3 0 -8 -1q-35 -5 -59 -25t-24 -67q0 -68 47 -68zM433 410q-29 0 -52.5 -28.5t-29.5 -98.5q26 -2 52.5 -3.5t49.5 -1.5h19 q9 0 15 1q6 7 7 22q0 55 -13 82t-48 27z" />
<glyph unicode="&#xe7;" horiz-adv-x="383" d="M357 441q0 -10 -4 -25.5t-12 -28.5h-12q-8 0 -16 2t-17 5q-12 5 -26 8.5t-27 3.5q-6 0 -11 -1q-44 -4 -71.5 -44.5t-27.5 -127.5q0 -52 10 -84.5t26 -51t37 -25t43 -6.5q23 0 47.5 7t44.5 17q4 -11 6.5 -22t2.5 -16q-1 -11 -8 -23t-18 -20q-15 -11 -39.5 -17t-53.5 -6 q-42 0 -79.5 9.5t-66 36t-45 74t-16.5 122.5q0 79 22.5 129.5t52.5 78.5t67 38.5t75 10.5q24 0 44 -5t35.5 -11.5t25 -14t11.5 -12.5v-1zM163 -29q15 1 31.5 0.5t31.5 -4.5q32 -8 53.5 -28t21.5 -49q0 -26 -13.5 -44t-34 -30t-43.5 -18.5t-42 -9.5q-11 2 -17 13t-6 18 q0 10 13 13q42 14 60 26t18 32q0 10 -8 17.5t-20.5 12t-27.5 6.5t-29 2q2 9 4.5 22t7.5 21z" />
<glyph unicode="&#xe8;" horiz-adv-x="406" d="M237 70q-47 0 -75.5 28.5t-30.5 103.5q12 -1 17.5 -0.5t17.5 0.5q35 0 70.5 1.5t58.5 4.5q22 3 45.5 11t32.5 16q5 25 5 59q0 13 -0.5 25t-1.5 23q-6 66 -43 104.5t-109 38.5q-43 0 -79.5 -14.5t-63 -46t-41.5 -82t-15 -123.5q0 -62 13.5 -108t41.5 -75 q30 -30 66.5 -39.5t74.5 -9.5q24 0 45.5 3.5t32.5 6.5h-1q12 3 23.5 8.5t20.5 12.5t15 15t6 16q-1 8 -3 22t-7 28q-29 -16 -58 -22.5t-58 -6.5zM214 411q29 0 43 -19.5t18 -59.5v-10q0 -3 0.5 -5.5t0.5 -5.5q0 -9 -1 -17t-3 -13q-4 -2 -7.5 -2.5t-7.5 -1.5 q-15 -2 -42.5 -2.5t-53.5 -0.5h-28q5 68 27.5 100.5t49.5 36.5h4zM177 734q5 0 18 -13.5t29 -33.5l32 -43l29 -39q1 -3 1 -8q0 -12 -10 -23.5t-21 -13.5l-26 24l-30 30l-33 31l-29 30q-9 9 -11 12q0 7 5 15.5t12.5 15.5t16.5 11.5t17 4.5z" />
<glyph unicode="&#xe9;" horiz-adv-x="406" d="M237 70q29 0 58 6.5t58 22.5q5 -14 7 -28t3 -22q0 -8 -6 -16t-15 -15t-20.5 -12.5t-23.5 -8.5h1q-11 -3 -32.5 -6.5t-45.5 -3.5q-38 0 -74.5 9.5t-66.5 39.5q-28 29 -41.5 75t-13.5 108q0 73 15 123.5t41.5 82t63 46t79.5 14.5q72 0 109 -38.5t43 -104.5q1 -11 1.5 -23 t0.5 -25q0 -34 -5 -59q-9 -8 -32.5 -16t-45.5 -11q-23 -3 -58.5 -4.5t-70.5 -1.5q-12 0 -17.5 -0.5t-17.5 0.5q2 -75 30.5 -103.5t75.5 -28.5zM210 411q-27 -4 -49.5 -36.5t-27.5 -100.5h28q26 0 53.5 0.5t42.5 2.5q4 1 7.5 1.5t7.5 2.5q2 5 3 13t1 17q0 3 -0.5 5.5 t-0.5 5.5v10q-4 40 -18 59.5t-43 19.5h-4zM265 734q9 0 19.5 -5t19.5 -13t15 -17t6 -17q-3 -5 -6 -7.5t-8 -7.5l-30 -30l-32 -31l-31 -30l-25 -25q-16 4 -31 16.5t-15 26.5v2q0 2 2 7l29 39l34 44q17 20 31.5 34t21.5 14z" />
<glyph unicode="&#xea;" horiz-adv-x="406" d="M237 70q29 0 58 6.5t58 22.5q5 -14 7 -28t3 -22q0 -8 -6 -16t-15 -15t-20.5 -12.5t-23.5 -8.5h1q-11 -3 -32.5 -6.5t-45.5 -3.5q-38 0 -74.5 9.5t-66.5 39.5q-28 29 -41.5 75t-13.5 108q0 73 15 123.5t41.5 82t63 46t79.5 14.5q72 0 109 -38.5t43 -104.5q1 -11 1.5 -23 t0.5 -25q0 -34 -5 -59q-9 -8 -32.5 -16t-45.5 -11q-23 -3 -58.5 -4.5t-70.5 -1.5q-12 0 -17.5 -0.5t-17.5 0.5q2 -75 30.5 -103.5t75.5 -28.5zM210 411q-27 -4 -49.5 -36.5t-27.5 -100.5h28q26 0 53.5 0.5t42.5 2.5q4 1 7.5 1.5t7.5 2.5q2 5 3 13t1 17q0 3 -0.5 5.5 t-0.5 5.5v10q-4 40 -18 59.5t-43 19.5h-4zM223 734l24 -27q15 -17 31 -37l30 -39q14 -19 23 -33q-7 -11 -19 -22.5t-23 -11.5q-9 0 -19 12l-17 20l-17 23l-15 21q-7 10 -11 17q-13 -22 -25.5 -40t-26.5 -36q-5 -7 -11 -11.5t-8 -4.5q-12 5 -23 11t-16 14q11 24 34 56l45 64 q11 13 20 18q13 6 24 6z" />
<glyph unicode="&#xeb;" horiz-adv-x="406" d="M237 70q29 0 58 6.5t58 22.5q5 -14 7 -28t3 -22q0 -8 -6 -16t-15 -15t-20.5 -12.5t-23.5 -8.5h1q-11 -3 -32.5 -6.5t-45.5 -3.5q-38 0 -74.5 9.5t-66.5 39.5q-28 29 -41.5 75t-13.5 108q0 73 15 123.5t41.5 82t63 46t79.5 14.5q72 0 109 -38.5t43 -104.5q1 -11 1.5 -23 t0.5 -25q0 -34 -5 -59q-9 -8 -32.5 -16t-45.5 -11q-23 -3 -58.5 -4.5t-70.5 -1.5q-12 0 -17.5 -0.5t-17.5 0.5q2 -75 30.5 -103.5t75.5 -28.5zM210 411q-27 -4 -49.5 -36.5t-27.5 -100.5h28q26 0 53.5 0.5t42.5 2.5q4 1 7.5 1.5t7.5 2.5q2 5 3 13t1 17q0 3 -0.5 5.5 t-0.5 5.5v10q-4 40 -18 59.5t-43 19.5h-4zM89 625q0 52 50 52q28 0 36 -12.5t7 -37.5t-10.5 -40.5t-38.5 -15.5q-24 0 -34 13t-10 41zM246 625q0 52 50 52q28 0 36 -12.5t7 -37.5t-10.5 -40.5t-38.5 -15.5q-24 0 -34 13t-10 41z" />
<glyph unicode="&#xec;" horiz-adv-x="212" d="M136 475q-33 0 -57.5 -4.5t-33.5 -23.5q1 -20 1.5 -44t0.5 -58v-174q0 -24 -0.5 -47t-0.5 -45v-82q26 1 42.5 1.5t27 1.5t16 3.5t8.5 6.5q14 22 14 55v335q0 32 -1.5 46t-7.5 26zM39 734q5 0 18 -13.5t29 -33.5l32 -43l29 -39q1 -3 1 -8q0 -12 -10 -23.5t-21 -13.5 l-25 24l-31 30l-33 31l-29 30q-9 9 -11 12q0 7 5 15.5t12.5 15.5t16.5 11.5t17 4.5z" />
<glyph unicode="&#xed;" horiz-adv-x="212" d="M146 472q6 -12 7.5 -26t1.5 -46v-335q0 -33 -14 -55q-3 -4 -8.5 -6.5t-16 -3.5t-27 -1.5t-42.5 -1.5v82q0 22 0.5 45t0.5 47v174q0 34 -0.5 58t-1.5 44q9 19 33 23.5t58 4.5zM158 734q9 0 19.5 -5t19.5 -13t15 -17t6 -17q-3 -5 -6 -7.5t-8 -7.5l-30 -30l-33 -31l-31 -30 l-24 -25q-16 4 -31 16.5t-15 26.5v3q0 1 2 6l29 40l34 43q17 20 31.5 34t21.5 14z" />
<glyph unicode="&#xee;" horiz-adv-x="212" d="M145 472q6 -12 7.5 -26t1.5 -46v-335q0 -33 -14 -55q-3 -4 -8 -6.5t-15.5 -3.5t-27 -1.5t-42.5 -1.5v82q0 22 0.5 45t0.5 47v174q0 34 -0.5 58t-1.5 44q9 19 33 23.5t58 4.5zM115 734l24 -27q15 -17 31 -37l30 -38q14 -20 23 -34q-7 -11 -19 -22.5t-23 -11.5q-9 0 -19 12 l-17 20l-17 23l-15 21q-7 10 -11 17q-13 -22 -25.5 -40t-26.5 -36q-5 -7 -11 -11.5t-8 -4.5q-12 5 -23 11t-16 14q11 24 34 57l45 63q11 13 20 18q13 6 24 6z" />
<glyph unicode="&#xef;" horiz-adv-x="212" d="M145 472q6 -12 7.5 -26t1.5 -46v-335q0 -33 -14 -55q-3 -4 -8 -6.5t-15.5 -3.5t-27 -1.5t-42.5 -1.5v82q0 22 0.5 45t0.5 47v174q0 34 -0.5 58t-1.5 44q9 19 33 23.5t58 4.5zM125 616q0 56 59 56q33 0 43 -13.5t9 -40.5q-1 -26 -12.5 -43t-45.5 -17q-29 0 -41 14.5 t-12 43.5zM-30 616q0 56 59 56q33 0 43 -13.5t9 -40.5q-1 -26 -12.5 -43t-45.5 -17q-29 0 -41 14.5t-12 43.5z" />
<glyph unicode="&#xf0;" horiz-adv-x="460" d="M367 665q22 10 32 0h-2q11 -6 11 -24q0 -22 -4 -33.5t-21 -22.5q-10 -7 -19 -12l-15 -9q-7 -4 -9 -6q41 -54 67.5 -133.5t26.5 -167.5q0 -60 -16 -110t-42 -87q-26 -35 -64 -54t-82 -19q-48 0 -85.5 18t-64.5 51q-24 32 -39.5 74t-15.5 90q0 54 19 98.5t51 79.5 q21 22 42.5 35t41.5 20t37.5 9t29.5 2q14 0 28 -1.5t25 -4.5q-8 19 -16.5 33t-16.5 25q-11 -7 -22 -13l-23 -13l-28 -16l-29 -16q-13 -6 -19.5 -5t-11.5 4q-5 4 -8 10.5t-3 19.5q0 16 5 26.5t12 19.5l31 17l23 14q11 6 16 8q-26 19 -58 31.5t-68 17.5l-9 26l20 27 q12 15 32 15q15 0 36 -6t43.5 -16.5t44.5 -23.5t39 -27q5 3 9 6t9 6q3 2 9 5t9 5h-2q3 2 6.5 4t5.5 4q8 5 14.5 10.5t17.5 8.5zM136 226q0 -47 11 -77.5t27 -48.5t34.5 -25.5t33.5 -7.5q45 0 63.5 50.5t18.5 141.5q0 56 -11 102l2 -2q-15 17 -32.5 23t-35.5 6 q-25 0 -43 -10.5t-35 -31.5q-16 -21 -24.5 -53t-8.5 -67z" />
<glyph unicode="&#xf1;" horiz-adv-x="462" d="M231 402q-24 0 -43.5 -11t-34.5 -28l3 3v-308q0 -17 -2 -27t-10 -21q-5 -5 -10.5 -7t-13 -3.5t-18.5 -2t-27 -0.5h-26q1 40 1.5 90t0.5 107v168q0 24 -3 42t-8 33q11 12 42 25q5 2 8 2h6q14 0 22.5 -6t13.5 -15q15 11 30 18t29 12q16 5 31.5 8t33.5 3q47 0 76 -12 t45.5 -34.5t22 -55.5t5.5 -76v-151q0 -41 0.5 -77t1.5 -65q-5 -5 -11.5 -8t-17 -4.5t-27 -2.5t-41.5 -1q-11 21 -11 45v262q0 54 -15 76t-53 22zM181 623q-23 -5 -37 -38q-6 -11 -11 -11q-6 0 -13 3.5t-13 8t-10 8.5l-5 5q15 45 38 69.5t60 24.5q21 0 34 -12l27 -26 q7 -7 13 -11.5t13 -4.5q16 0 24.5 10.5t13.5 28.5q4 10 12 10q5 0 10.5 -4t10.5 -9t8.5 -10t4.5 -7q-2 -15 -9.5 -31t-19 -29t-27.5 -21.5t-35 -8.5q-25 0 -37 13.5t-26 27.5q-8 8 -13 11t-13 3z" />
<glyph unicode="&#xf2;" horiz-adv-x="459" d="M423 240q0 121 -49 183t-148 62q-45 0 -82 -15t-64 -46t-42 -78.5t-15 -111.5q0 -131 52 -189.5t148 -58.5q43 0 79.5 16t63.5 48t42 79.5t15 110.5zM134 238q0 46 7.5 79t19.5 53t28 29.5t34 9.5q42 0 66 -39t24 -133q0 -50 -7 -83.5t-19 -54.5t-28 -30t-34 -9 q-20 0 -36.5 9t-28.5 30t-19 55t-7 84zM171 734q5 0 18 -13.5t29 -33.5l32 -42l29 -40q1 -3 1 -8q0 -12 -10 -23.5t-21 -13.5l-25 24l-31 30l-33 32q-16 15 -29 29q-9 9 -11 12q0 7 5 15.5t12.5 15.5t16.5 11.5t17 4.5z" />
<glyph unicode="&#xf3;" horiz-adv-x="459" d="M423 240q0 -63 -15 -110.5t-42 -79.5t-63.5 -48t-79.5 -16q-96 0 -148 58.5t-52 189.5q0 64 15 111.5t42 78.5t64 46t82 15q99 0 148 -62t49 -183zM134 238q0 -50 7 -84t19 -55t28.5 -30t36.5 -9q18 0 34 9t28 30t19 54.5t7 83.5q0 94 -24 133t-66 39q-18 0 -34 -9.5 t-28 -29.5t-19.5 -53t-7.5 -79zM280 734q9 0 19.5 -5t19.5 -13t15 -17t6 -17q-3 -5 -6 -7.5t-8 -7.5l-30 -30l-33 -32l-31 -30l-24 -24q-16 4 -31 16.5t-15 26.5v2q0 2 2 7l29 39l34 43q17 21 31.5 35t21.5 14z" />
<glyph unicode="&#xf4;" horiz-adv-x="459" d="M423 240q0 -63 -15 -110.5t-42 -79.5t-63.5 -48t-79.5 -16q-96 0 -148 58.5t-52 189.5q0 64 15 111.5t42 78.5t64 46t82 15q99 0 148 -62t49 -183zM134 238q0 -50 7 -84t19 -55t28.5 -30t36.5 -9q18 0 34 9t28 30t19 54.5t7 83.5q0 94 -24 133t-66 39q-18 0 -34 -9.5 t-28 -29.5t-19.5 -53t-7.5 -79zM241 734l24 -27q15 -17 31 -37l30 -39q14 -19 23 -33q-7 -11 -19 -22.5t-23 -11.5q-9 0 -19 12l-17 20l-17 23l-15 21q-7 10 -11 17q-13 -22 -25.5 -40t-26.5 -36q-5 -7 -11 -11.5t-8 -4.5q-12 5 -23 11t-16 14q11 24 34 56l45 64 q11 13 20 18q13 6 24 6z" />
<glyph unicode="&#xf5;" horiz-adv-x="459" d="M423 240q0 -63 -15 -110.5t-42 -79.5t-63.5 -48t-79.5 -16q-96 0 -148 58.5t-52 189.5q0 64 15 111.5t42 78.5t64 46t82 15q99 0 148 -62t49 -183zM134 238q0 -50 7 -84t19 -55t28.5 -30t36.5 -9q18 0 34 9t28 30t19 54.5t7 83.5q0 94 -24 133t-66 39q-18 0 -34 -9.5 t-28 -29.5t-19.5 -53t-7.5 -79zM195 596q-12 12 -17 13q-15 -5 -29 -34q-3 -5 -6.5 -9.5t-13.5 -4.5q-8 0 -16.5 4t-15.5 9.5t-12 10t-6 5.5q16 47 40.5 72.5t66.5 25.5q21 0 33.5 -9t24.5 -20l9 -9q5 -6 10 -10.5t8 -4.5q11 0 16.5 8t10.5 22q8 18 23 18q7 0 14 -4.5 t13 -10t10.5 -11t5.5 -7.5q-2 -17 -10 -33.5t-21 -30.5t-30.5 -22.5t-38.5 -8.5q-23 0 -36 11t-27 25z" />
<glyph unicode="&#xf6;" horiz-adv-x="459" d="M423 240q0 -63 -15 -110.5t-42 -79.5t-63.5 -48t-79.5 -16q-96 0 -148 58.5t-52 189.5q0 64 15 111.5t42 78.5t64 46t82 15q99 0 148 -62t49 -183zM134 238q0 -50 7 -84t19 -55t28.5 -30t36.5 -9q18 0 34 9t28 30t19 54.5t7 83.5q0 94 -24 133t-66 39q-18 0 -34 -9.5 t-28 -29.5t-19.5 -53t-7.5 -79zM89 616q0 56 59 56q33 0 43 -13.5t9 -40.5q-1 -26 -12 -43t-46 -17q-29 0 -41 14.5t-12 43.5zM244 616q0 56 59 56q33 0 43 -13.5t9 -40.5q-1 -26 -12.5 -43t-45.5 -17q-29 0 -41 14.5t-12 43.5z" />
<glyph unicode="&#xf7;" horiz-adv-x="499" d="M41 233q1 37 7.5 54.5t25.5 17.5h384q0 -40 -6.5 -58.5t-27.5 -18.5h-373zM190 417q0 56 61 56q35 0 45.5 -13.5t9.5 -40.5q-1 -26 -12.5 -42.5t-48.5 -16.5q-32 0 -43.5 14t-11.5 43zM190 114q0 57 61 57q35 0 45.5 -14t9.5 -41q-1 -26 -12.5 -42.5t-48.5 -16.5 q-32 0 -43.5 14t-11.5 43z" />
<glyph unicode="&#xf8;" horiz-adv-x="474" d="M235 -15q-36 0 -64.5 6.5t-49.5 22.5l-12 -18q-9 -14 -19 -24.5t-18 -8.5q-14 2 -26.5 12t-15.5 24q4 10 16 29l28 44q-20 29 -30.5 70.5t-10.5 91.5q0 60 16.5 108.5t47.5 81.5q26 27 62 43.5t77 16.5q69 0 107 -28q2 2 3.5 5t3.5 5l20 28q9 12 20 11q15 -2 28.5 -13.5 t15.5 -26.5l-17 -30l-25 -43q20 -29 30.5 -68.5t10.5 -85.5q0 -64 -17.5 -110.5t-40.5 -76.5q-24 -31 -60.5 -48.5t-79.5 -17.5zM235 59q18 0 34.5 9t28.5 30t19.5 54.5t7.5 82.5q0 41 -9 71l-72 -111l-66 -103q22 -33 57 -33zM141 235q0 -20 1.5 -36.5t6.5 -29.5l52 81 l53 81q9 14 16 26t16 26q-11 14 -23.5 20t-29.5 6q-38 0 -65 -40.5t-27 -133.5z" />
<glyph unicode="&#xf9;" horiz-adv-x="465" d="M297 102q-12 -14 -32.5 -23.5t-43.5 -7.5q-15 0 -27.5 4t-21 15.5t-13 31.5t-4.5 52l10 200q0 39 -2 61t-7 40q-46 0 -68 -4t-32 -15q1 -27 1.5 -58t0.5 -74l-9 -163q1 -41 7 -72t22 -53t44.5 -34t74.5 -14q18 0 33.5 3t31.5 8q14 5 29 12.5t30 18.5q5 -9 13.5 -15.5 t22.5 -6.5h6q3 0 8 2q31 14 42 25q-5 15 -8 33t-3 42v168q0 57 0.5 107t1.5 90h-26q-33 -1 -46 -2.5t-23 -10.5q-8 -10 -10 -20.5t-2 -27.5v-312zM201 734q5 0 18 -13.5t29 -33.5l33 -42l28 -40q1 -3 1 -8q0 -12 -10 -23.5t-21 -13.5l-25 24l-31 30l-32 32q-17 15 -30 29 q-9 9 -11 12q0 7 5 15.5t12.5 15.5t16.5 11.5t17 4.5z" />
<glyph unicode="&#xfa;" horiz-adv-x="465" d="M297 414q0 17 2 27.5t10 20.5q10 9 23 10.5t46 2.5h26q-1 -40 -1.5 -90t-0.5 -107v-168q0 -24 3 -42t8 -33q-11 -11 -42 -25q-5 -2 -9 -2h-5q-14 0 -22.5 6.5t-13.5 15.5q-15 -11 -30 -18.5t-29 -12.5q-16 -5 -31.5 -8t-33.5 -3q-46 2 -74.5 14t-44.5 34t-22 53t-7 72 l9 163q0 43 -0.5 74t-1.5 58q10 11 32 15t68 4q5 -18 7 -40t2 -61l-10 -200q0 -32 4.5 -52t13 -31.5t21 -15.5t27.5 -4q23 -2 43.5 7.5t32.5 23.5v312zM278 734q9 0 19.5 -5t19.5 -13t15 -17t6 -17q-3 -5 -6 -7.5t-8 -7.5l-30 -30l-33 -32l-31 -30l-24 -24q-16 4 -31 16.5 t-15 26.5v2q0 2 2 7l29 39l34 43q17 21 31.5 35t21.5 14z" />
<glyph unicode="&#xfb;" horiz-adv-x="465" d="M297 414q0 17 2 27.5t10 20.5q10 9 23 10.5t46 2.5h26q-1 -40 -1.5 -90t-0.5 -107v-168q0 -24 3 -42t8 -33q-11 -11 -42 -25q-5 -2 -9 -2h-5q-14 0 -22.5 6.5t-13.5 15.5q-15 -11 -30 -18.5t-29 -12.5q-16 -5 -31.5 -8t-33.5 -3q-46 2 -74.5 14t-44.5 34t-22 53t-7 72 l9 163q0 43 -0.5 74t-1.5 58q10 11 32 15t68 4q5 -18 7 -40t2 -61l-10 -200q0 -32 4.5 -52t13 -31.5t21 -15.5t27.5 -4q23 -2 43.5 7.5t32.5 23.5v312zM239 734l24 -27q15 -17 30 -37l30 -39q15 -19 24 -33q-7 -11 -19 -22.5t-23 -11.5q-9 0 -19 12l-17 20l-17 23l-15 21 q-7 10 -11 17q-13 -22 -25.5 -40t-26.5 -36q-5 -7 -11 -11.5t-8 -4.5q-12 5 -23 11t-16 14q11 24 34 56l45 64q11 13 20 18q13 6 24 6z" />
<glyph unicode="&#xfc;" horiz-adv-x="465" d="M297 414q0 17 2 27.5t10 20.5q10 9 23 10.5t46 2.5h26q-1 -40 -1.5 -90t-0.5 -107v-168q0 -24 3 -42t8 -33q-11 -11 -42 -25q-5 -2 -9 -2h-5q-14 0 -22.5 6.5t-13.5 15.5q-15 -11 -30 -18.5t-29 -12.5q-16 -5 -31.5 -8t-33.5 -3q-46 2 -74.5 14t-44.5 34t-22 53t-7 72 l9 163q0 43 -0.5 74t-1.5 58q10 11 32 15t68 4q5 -18 7 -40t2 -61l-10 -200q0 -32 4.5 -52t13 -31.5t21 -15.5t27.5 -4q23 -2 43.5 7.5t32.5 23.5v312zM103 625q0 52 50 52q28 0 36 -12.5t7 -37.5t-10.5 -40.5t-38.5 -15.5q-24 0 -34 13t-10 41zM260 625q0 52 50 52 q28 0 36 -12.5t7 -37.5t-10.5 -40.5t-38.5 -15.5q-24 0 -34 13t-10 41z" />
<glyph unicode="&#xfd;" horiz-adv-x="401" d="M99 478q8 0 17.5 -14.5t12.5 -28.5l11 -35l14 -48l16 -54l15 -54q7 -25 12.5 -49t10.5 -42q0 -3 1 -4q5 18 10 40l9 46q1 3 1.5 7t1.5 6l14 62q7 30 15 60l12 48l10 44q9 8 16.5 10.5t22.5 2.5h13q8 0 16 -1q5 0 11.5 -0.5t10.5 -0.5q7 -14 7 -25t-5 -28q-10 -41 -25 -93 l-31 -109l-36 -116l-38 -114q-21 -53 -41 -88.5t-39.5 -56.5t-39 -30t-37.5 -9q-39 0 -59 11t-25 25q0 8 3 19l4 12q13 5 21 4.5t17 -0.5q10 0 20.5 1t23.5 6l-1 -1q9 4 18.5 19.5t18.5 36.5t16 45.5t12 47.5l-1 1q-8 10 -12 20t-9 27q-2 7 -9 30l-17 54l-22 70l-24 78 l-26 76l-22 65q6 15 24.5 21t60.5 6zM188 525q-11 2 -18 8t-13 14q-7 10 -7 19q0 2 3 10l29 39q16 23 33 43.5t31.5 34.5t21.5 14q17 0 30 -10t21 -22q8 -10 8 -18q-2 -6 -15 -17h1l-29 -30l-31 -30l-31 -30l-25 -24z" />
<glyph unicode="&#xff;" horiz-adv-x="401" d="M99 478q8 0 17.5 -14.5t12.5 -28.5l11 -35l14 -48l16 -54l15 -54q7 -25 12 -49t10 -43l12 46q7 26 12 50l14 62q7 31 15 60l12 48l10 44q9 8 16.5 10.5t22.5 2.5h13q8 0 16 -1q5 0 11.5 -0.5t10.5 -0.5q7 -14 7 -25t-5 -28q-10 -41 -25 -93l-31 -109l-36 -116l-38 -114 q-21 -53 -41 -88.5t-39.5 -56.5t-39 -30t-37.5 -9q-39 0 -59 11t-25 25q0 8 3 19l4 12q13 5 21 4.5t17 -0.5q10 0 20.5 1t23.5 6l-1 -1q9 4 18.5 19.5t18.5 36.5t16 45.5t12 47.5l-1 1q-8 10 -12 20t-9 27q-2 7 -9 30l-17 54l-22 70l-24 78l-26 76l-22 65q6 15 24.5 21 t60.5 6zM83 625q0 52 50 52q28 0 36 -12.5t7 -37.5t-10.5 -40.5t-38.5 -15.5q-24 0 -34 13t-10 41zM240 625q0 52 50 52q28 0 36 -12.5t7 -37.5t-10.5 -40.5t-38.5 -15.5q-24 0 -34 13t-10 41z" />
<glyph unicode="&#x152;" horiz-adv-x="782" d="M543 80q15 -2 34 -2.5t38 -0.5h72q40 0 70 1q-2 -42 -11 -58t-29 -21q-11 -1 -32 -1.5t-55 -0.5q-53 0 -100 2t-77 4q-1 2 -1 4t-1 4t-1 4q-1 2 -2.5 6.5t-2.5 6.5v20q-29 -31 -70.5 -45.5t-92.5 -14.5q-69 0 -117.5 23t-79 66.5t-44.5 106.5t-14 143q0 108 27.5 181 t78.5 115q32 27 70 39t86 12q50 0 89 -12.5t67 -40.5v24l12 6q7 3 17.5 7t27.5 5h243q-2 -40 -8 -55t-18 -20q-14 -4 -30 -4.5t-41 -0.5h-105v-192h184q-3 -27 -6.5 -42.5t-9.5 -24t-14 -11t-19 -2.5h-135v-231zM142 322q0 -68 11.5 -116t31 -78.5t46 -45t57.5 -14.5 q32 0 58.5 14.5t46 46.5t30.5 82.5t11 122.5q0 74 -11.5 124t-31 80.5t-46 43.5t-56.5 13t-57 -15.5t-47 -48.5t-31.5 -84.5t-11.5 -123.5v-1z" />
<glyph unicode="&#x153;" horiz-adv-x="702" d="M586 209q-12 -1 -26 -1h-30q-30 0 -57.5 0.5t-52.5 2.5q0 -40 8 -67t22 -43.5t33.5 -23.5t44.5 -7q32 0 62.5 9t53.5 21q4 -13 6 -27t3 -25q-1 -14 -17 -28.5t-33 -20.5q-13 -4 -38.5 -8t-54.5 -4q-42 0 -80 17.5t-65 46.5q-24 -30 -62 -48t-82 -18q-95 0 -146.5 57.5 t-51.5 191.5q0 133 71 201q25 23 58.5 36t74.5 13q97 0 145 -64q25 32 62 48t81 16q39 0 67.5 -12.5t47.5 -35t28.5 -53t10.5 -66.5q0 -22 -1.5 -43.5t-5.5 -37.5q-8 -8 -31.5 -16.5t-44.5 -10.5zM224 59q17 0 33 9t28.5 30t20 55.5t7.5 84.5q0 94 -24.5 132t-64.5 38 q-19 0 -35.5 -9t-28.5 -29.5t-19 -53t-7 -79.5q0 -50 7 -84t19 -55t28.5 -30t35.5 -9zM504 409q-29 0 -52.5 -28t-29.5 -98q25 -3 52 -4.5t49 -1.5h19q8 0 16 2q5 7 7 21q0 55 -13 82t-48 27z" />
<glyph unicode="&#x178;" horiz-adv-x="472" d="M356 656q11 4 20 6t20 2q6 0 19 -1t36 -3q2 -5 2.5 -9.5t0.5 -6.5q0 -8 -3 -16l-7 -17l-1 -1q1 0 0.5 -1.5t-1.5 -2.5q-11 -26 -34 -68l-45 -83l-38 -69q-18 -33 -27 -54q-4 -11 -7.5 -22t-5.5 -25v-144q0 -24 0.5 -44t0.5 -37v-46q-5 -5 -10.5 -8.5t-16 -5.5t-27.5 -3 t-44 -1q-10 24 -10 49v232v12q0 6 -1 9q-8 20 -21.5 49.5t-31.5 63.5l-28 55l-30 58l-32 62l-30 60q0 7 10 9.5t46 2.5h58q8 -20 25 -57l35 -76l35 -81l23 -49zM107 792q0 52 50 52q28 0 36 -12.5t7 -37.5t-10.5 -40.5t-38.5 -15.5q-24 0 -34 13t-10 41zM274 792q0 52 50 52 q28 0 36 -12.5t7 -37.5t-10.5 -40.5t-38.5 -15.5q-24 0 -34 13t-10 41z" />
<glyph unicode="&#x2c6;" horiz-adv-x="398" d="M209 709l24 -27q15 -17 31 -37l30 -39q14 -19 23 -33q-7 -11 -19 -22.5t-23 -11.5q-9 0 -19 12l-17 20l-17 23l-15 21q-7 10 -11 17q-13 -22 -25.5 -40t-26.5 -36q-5 -7 -11 -11.5t-8 -4.5q-12 5 -23 11t-16 14q11 24 34 57l45 63q11 13 20 18q13 6 24 6z" />
<glyph unicode="&#x2dc;" horiz-adv-x="440" d="M169 618q-23 -5 -37 -38q-6 -11 -11 -11q-6 0 -13 3.5t-13 8t-10 8.5l-5 5q15 45 38 69.5t60 24.5q21 0 34 -12l27 -26q7 -7 13 -11.5t13 -4.5q16 0 24.5 10.5t13.5 28.5q4 10 12 10q5 0 10.5 -4t10.5 -9t8.5 -10t4.5 -7q-2 -15 -9.5 -31t-19 -29t-27.5 -21.5t-35 -8.5 q-25 0 -37 13.5t-26 27.5q-8 8 -13 11t-13 3z" />
<glyph unicode="&#x2013;" horiz-adv-x="488" d="M10 211q-1 12 -1 26v16q1 40 17 55.5t39 15.5h387q1 -11 0.5 -22.5t-0.5 -15.5q-4 -43 -17 -59t-37 -16h-388z" />
<glyph unicode="&#x2014;" horiz-adv-x="817" d="M780 242q-16 -13 -34 -16t-38 -3h-685q0 26 2 40.5t12 21.5q17 11 36 14.5t39 3.5h682q-1 -26 -2.5 -40.5t-11.5 -20.5z" />
<glyph unicode="&#x2018;" horiz-adv-x="187" d="M140 542q-5 -16 -21.5 -27.5t-39.5 -11.5h-9q-4 0 -8 1q-19 3 -28.5 18t-9.5 38v7q0 4 1 7q4 39 22 78t38 61q10 10 19 14.5t23 4.5q20 0 35 -16q-33 -61 -35 -127q1 -2 2.5 -3t2.5 -3l4 -17q2 -8 3 -14q0 -2 0.5 -4.5t0.5 -4.5v-1z" />
<glyph unicode="&#x2019;" horiz-adv-x="187" d="M47 689q7 17 24 28.5t39 11.5q9 0 15 -2q18 -5 27.5 -20.5t9.5 -37.5v-7q0 -3 -1 -5q-2 -19 -8 -39t-14 -38.5t-18 -34.5t-20 -26q-17 -18 -36 -21q-11 0 -22 4t-19 12q33 61 35 128q-1 2 -2.5 3t-2.5 3q-2 8 -4 15t-3 14v12z" />
<glyph unicode="&#x201a;" horiz-adv-x="186" d="M35 88q7 14 24 26.5t40 12.5q9 0 15 -2q20 -4 29 -20.5t9 -39.5q0 -22 -7 -46t-17.5 -46t-24 -40t-25.5 -29q1 1 0 1q-15 -10 -20 -10q-3 -1 -13 -1q-9 0 -19 2.5t-20 10.5q20 31 29.5 65t11.5 66q-4 3 -5 6q-4 14 -5.5 24t-2.5 18z" />
<glyph unicode="&#x201c;" horiz-adv-x="342" d="M295 542q-5 -16 -21.5 -27.5t-39.5 -11.5h-8q-5 0 -9 1q-19 3 -28.5 18.5t-9.5 38.5v7q0 4 1 6q1 19 7 39t14 38t18 34t20 27q18 20 42 20q21 0 36 -16q-17 -29 -25.5 -62.5t-10.5 -64.5q3 -2 7 -6q5 -18 7 -40v-1zM141 542q-5 -16 -21.5 -27.5t-39.5 -11.5h-9q-4 0 -7 1 q-20 3 -29.5 18t-9.5 38v7q0 4 1 7q4 39 22 78t38 61q10 10 19 14.5t23 4.5q20 0 35 -16q-33 -61 -35 -127q2 -2 3.5 -3t2.5 -3l4 -16l2 -15q0 -2 0.5 -4.5t0.5 -4.5v-1z" />
<glyph unicode="&#x201d;" horiz-adv-x="342" d="M201 688q4 15 18 26t34 13q3 1 7 1h7h6q4 0 6 -1q20 -3 29 -19t9 -39v-7q0 -3 -1 -5q-2 -19 -8 -39t-14.5 -38.5t-18.5 -34.5t-19 -26q-15 -16 -36 -21q-11 0 -22 4t-19 12q16 29 24 63t10 66q-5 5 -7 8q-1 6 -1.5 11t-1.5 11q-1 3 -1 7t-1 6v2zM48 689q7 17 24 28.5 t39 11.5q9 0 15 -2q18 -5 27.5 -20.5t9.5 -37.5v-7q0 -3 -1 -5q-2 -20 -8 -40t-14 -38t-18 -34t-20 -26q-8 -9 -16.5 -14t-19.5 -7q-11 0 -22 4t-19 12q17 30 26 63t10 65q-2 2 -3.5 3t-2.5 3q-2 8 -4 15t-3 14v12z" />
<glyph unicode="&#x201e;" horiz-adv-x="342" d="M36 88q7 14 24 26.5t40 12.5q8 0 14 -2q20 -4 29.5 -20.5t9.5 -38.5t-7 -46t-17.5 -46t-23.5 -40t-25 -29q1 1 0 1q-7 -5 -12 -8t-8 -3h-12q-22 0 -40 14q40 67 41 128q-3 2 -3.5 3t-2.5 3q-3 6 -3 8q-3 18 -5 35zM191 64q0 20 8 33.5t20 18.5v-1l6 3h-3q1 1 1.5 0.5 t1.5 0.5q11 4 19 5t16 1q24 0 35.5 -18t11.5 -41t-7.5 -48t-18.5 -47t-25 -40t-26 -28q-7 -5 -13 -6.5t-16 -1.5q-9 0 -19 3t-20 11q20 32 29 66t11 63q-7 5 -9 11.5t-2 14.5z" />
<glyph unicode="&#x2022;" horiz-adv-x="247" d="M39 263q0 42 21.5 63.5t69.5 21.5q52 0 67.5 -21t14.5 -61q-1 -20 -5 -36.5t-14.5 -28.5t-27.5 -18.5t-44 -6.5q-45 0 -63.5 21t-18.5 66z" />
<glyph unicode="&#x2026;" horiz-adv-x="657" d="M50 54q0 62 68 62q39 0 50.5 -15t10.5 -45q-1 -29 -14 -47.5t-54 -18.5q-35 0 -48 16t-13 48zM473 54q0 62 68 62q39 0 50.5 -15t10.5 -45q-1 -29 -14 -47.5t-54 -18.5q-35 0 -48 16t-13 48zM259 54q0 62 68 62q39 0 50.5 -15t10.5 -45q-1 -29 -14 -47.5t-54 -18.5 q-35 0 -48 16t-13 48z" />
<glyph unicode="&#x2039;" horiz-adv-x="277" d="M27 245q11 17 33 48l46 66l48 66l32 47q12 -2 22 -8t17.5 -13.5t12.5 -15t5 -11.5q0 -8 -7.5 -23.5t-18.5 -34l-24 -39.5l-27 -38l-23 -32l-14 -18l25 -34q18 -25 37 -55t34 -57t15 -39q0 -4 -4.5 -12t-12 -16t-18 -14.5t-22.5 -7.5l-20 30l-29 42l-35 48l-34 48 q-8 10 -16 22t-15 20q-4 8 -6.5 15.5t-2.5 13.5z" />
<glyph unicode="&#x203a;" horiz-adv-x="277" d="M249 231l-22 -33l-31 -44l-35 -49l-34 -46l-23 -33q-10 -15 -16 -23q-3 1 -12 5t-19 11t-17.5 16t-7.5 20t13 34t30 49l36 52l29 40q4 6 7 9q-6 7 -24 33l-38 56q-19 30 -34 58t-15 40q0 9 7.5 17.5t17.5 15t20 10.5t14 6l21 -32q13 -21 30 -45l36 -52l36 -50 q6 -9 13 -18t12 -17q8 -18 8 -27z" />
<glyph unicode="&#x20ac;" horiz-adv-x="475" d="M319 594h-10q-5 0 -10 -1q-48 -5 -87 -38.5t-58 -109.5l115 12l113 10q2 -31 -2.5 -52.5t-28.5 -24.5l-210 -21q-1 -12 -1.5 -23.5t-0.5 -25.5v-23q42 5 89 9t89 9q2 -32 -2.5 -53.5t-28.5 -23.5l-69 -7l-69 -8q16 -76 58 -112.5t105 -36.5q34 0 68.5 11t53.5 22 q12 -20 14 -41q-3 -29 -26 -48q-15 -13 -48 -23t-76 -10q-53 0 -97 11.5t-78 38.5t-56.5 70.5t-31.5 106.5q-11 -1 -22.5 -2.5t-20.5 -2.5q-2 22 -0.5 42t6.5 26q13 8 30 10v30q0 12 -0.5 21.5t1.5 20.5q-9 -1 -19.5 -2t-17.5 -2q-2 22 -0.5 42t6.5 26q12 8 31 10l9 1 q17 104 78 168q42 45 90.5 61t101.5 16q33 0 58.5 -5.5t43.5 -14t28.5 -18t14.5 -16.5q0 -17 -4.5 -30.5t-12.5 -23.5h-9q-8 -1 -13.5 1t-13.5 6l-6 3v-1q-19 8 -38 12t-36 4z" />
<glyph unicode="&#x2122;" horiz-adv-x="478" d="M212 420q2 29 5 63l6 69q2 20 3.5 40.5t3.5 39.5q0 11 -1 16v6q2 5 6.5 6t12.5 3q4 0 9 0.5t10 0.5h18l9 -19q5 -10 10 -23q3 -7 5.5 -15t5.5 -14l7 -19q4 -9 5 -12l-1 1q1 -8 5 -18l3 9l4 8l7 20q4 11 8 19l10 27l10 25l-1 -2q0 2 2.5 5.5t10.5 5.5q2 0 5 1 q5 0 10.5 0.5t8.5 0.5h21q2 -6 3 -12.5t1 -10.5q2 -32 3.5 -66t3.5 -66q2 -23 3.5 -45t2.5 -40q-5 -7 -17 -9t-38 -2q-3 4 -5 11t-2 12q-1 8 -1 15v16q0 8 -0.5 16t-0.5 16v39q-2 -6 -3 -8q-2 -3 -4 -8.5t-3 -8.5l-11 -30q-5 -15 -11 -29q-6 -2 -9.5 -3.5t-8.5 -1.5h-25 l-13 37l-17 43l-2 -39q-1 -19 -3 -36q-1 -5 -1 -8.5t-1 -8.5q0 -3 -1 -7t-2 -9q-13 -7 -23 -7h-8q-3 0 -6.5 0.5t-8.5 0.5zM152 618v-144q0 -8 0.5 -14.5t0.5 -13.5v-23q-8 -7 -17.5 -8t-37.5 -1q-5 13 -5 23v181h-44q-5 0 -10.5 0.5t-16.5 2.5v15q1 5 1.5 8.5t1.5 7.5 q1 6 7 8.5t10 2.5h180q0 -18 -3 -30q-2 -6 -7.5 -9.5t-11.5 -5.5h-48z" />
<glyph unicode="&#xe000;" horiz-adv-x="480" d="M0 480h480v-480h-480v480z" />
<glyph unicode="&#xfb01;" horiz-adv-x="475" d="M395 472q6 -12 7.5 -26t1.5 -46v-335q0 -33 -14 -55q-3 -4 -8 -6.5t-15.5 -3.5t-27 -1.5t-42.5 -1.5v82q0 22 0.5 45t0.5 47v227q-38 -1 -73 -1.5t-51 -0.5v-90q0 -49 1 -98l1 -97v-86q0 -5 -1.5 -12.5t-9.5 -10.5q-16 -3 -35 -4t-28 -1q-15 0 -31 3q-1 5 -1 12v15v59 q0 14 0.5 29.5t0.5 31.5v121q0 33 -0.5 63.5t-0.5 64.5q-42 1 -61 16q3 30 8.5 39t21.5 12l14 4q6 1 17 3q0 20 1 38t3 34v-1q4 50 22.5 82.5t44 51.5t55.5 26.5t57 7.5q32 2 55 -4t40 -12q2 -1 5 -2t5 -2v1q14 -5 20.5 -9t11.5 -9q4 -5 4.5 -9t0.5 -10l-2 -10q-1 -5 -4 -13 q-3 -7 -6 -12t-8 -11q-18 0 -22 2t-13 5q-5 2 -8.5 2.5t-5.5 1.5q-13 5 -33.5 9t-37.5 4q-15 0 -28.5 -4t-24 -15.5t-18 -31t-8.5 -49.5q-1 -15 -1 -29v-30q39 0 78 1t77 1h32q14 0 23 1z" />
<glyph unicode="&#xfb02;" horiz-adv-x="467" d="M298 527q0 33 -0.5 55.5t-1.5 43.5q-23 5 -41 5q-15 0 -28.5 -4t-24 -15.5t-17.5 -31t-8 -49.5q-1 -15 -1 -29v-30h43q17 0 36.5 0.5t29.5 1.5q-1 -20 -3 -33t-5.5 -20.5t-8.5 -11.5t-12 -7l1 1q-2 -1 -5.5 -2.5t-5.5 -2.5q-14 -2 -32 -2h-39v-90q0 -49 1 -98l1 -97v-86 q0 -5 -1.5 -12.5t-10.5 -10.5q-16 -3 -34.5 -4t-27.5 -1q-16 0 -32 3q-1 5 -1 12v15v59q0 14 0.5 29.5t0.5 31.5v121q0 33 -0.5 63.5t-0.5 64.5q-42 2 -61 16q3 30 8.5 39t22.5 12q8 2 13.5 3.5t16.5 3.5q0 20 1 38t3 34v-1q4 50 22.5 82.5t44.5 51.5t56 26.5t57 7.5 q31 2 55 -4.5t41 -12.5q25 -9 34 -14t11 -12q5 -14 6 -34.5t1 -58.5v-475q-1 -13 2 -22q2 -8 8.5 -13.5t18.5 -3.5q-1 -11 -1.5 -25t-0.5 -18q-8 -11 -24 -19t-38 -9q-11 0 -21.5 4t-19.5 10q-14 10 -21 24t-7 29v472z" />
<glyph unicode="&#xfb03;" horiz-adv-x="758" d="M691 472q6 -12 7.5 -26t1.5 -46v-335q0 -33 -14 -55q-3 -4 -8 -6.5t-15.5 -3.5t-27 -1.5t-42.5 -1.5v82q0 22 0.5 45t0.5 47v174q0 34 -0.5 58t-1.5 44q9 19 33 23.5t58 4.5zM589 638q0 60 62 60q35 0 45.5 -14.5t9.5 -43.5t-13 -46.5t-48 -17.5q-31 0 -43.5 15t-12.5 47 zM609 688q4 -5 4.5 -9.5t0.5 -10.5q-1 -5 -2 -9.5t-4 -12.5q-6 -14 -11 -19q-13 -7 -24 -3q-5 3 -9 3q-8 2 -17.5 3t-18.5 1q-15 0 -28.5 -4t-24.5 -15.5t-18 -31t-8 -49.5q-1 -15 -1 -29v-30h43q17 0 37 0.5t29 1.5q-1 -20 -3 -33t-5 -20.5t-8 -11.5t-12 -7l1 1 q-2 -1 -6 -2.5t-6 -2.5q-14 -2 -32 -2h-39v-90q0 -49 1 -98v-97q1 -47 1 -86q0 -5 -1.5 -12.5t-10.5 -10.5q-16 -3 -34.5 -4t-27.5 -1q-16 0 -32 3q-1 5 -1 12v15v59q0 14 0.5 29.5t0.5 31.5v121q0 33 -0.5 63.5t-0.5 64.5q-42 2 -61 16q2 15 4 24t5.5 14t8.5 8t13 5 q5 2 11.5 3t18.5 4q0 20 1 38t3 34v-1q4 51 22.5 83.5t44.5 51t56.5 26t57.5 7.5q33 0 53 -6.5t28 -14.5h1zM336 688q4 -5 4.5 -9.5t0.5 -10.5q-1 -5 -2 -9.5t-4 -12.5q-6 -14 -11 -19q-13 -7 -24 -3q-5 3 -9 3q-8 2 -17.5 3t-18.5 1q-15 0 -28.5 -4t-24.5 -15.5t-18 -31 t-8 -49.5q-1 -15 -1 -29v-30h43q17 0 37 0.5t29 1.5q-1 -20 -3 -33t-5 -20.5t-8 -11.5t-12 -7l1 1q-2 -1 -6 -2.5t-6 -2.5q-14 -2 -31 -2h-40v-90v-98l2 -97v-86q0 -5 -1.5 -12.5t-10.5 -10.5q-16 -3 -34.5 -4t-27.5 -1q-16 0 -32 3q-1 5 -1 12v15v59q0 14 0.5 29.5 t0.5 31.5v121q0 33 -0.5 63.5t-0.5 64.5q-42 2 -61 16q2 15 4 24t5.5 14t8.5 8t13 5q5 2 11.5 3t18.5 4q0 20 1 38t3 34v-1q4 51 22.5 83.5t44.5 51t56.5 26t57.5 7.5q33 0 53 -6.5t28 -14.5h1z" />
<glyph unicode="&#xfb04;" horiz-adv-x="757" d="M698 98q-1 -13 2 -22q2 -8 8.5 -13.5t18.5 -3.5q-1 -11 -1.5 -25t-0.5 -18q-8 -11 -23.5 -19t-38.5 -9q-11 0 -21.5 4t-18.5 10q-14 10 -21.5 24t-7.5 29v510q0 36 -0.5 62.5t-1.5 48.5q9 21 35 26t64 5q5 -17 6 -38t1 -59v-512zM609 688q4 -5 4.5 -9.5t0.5 -10.5 q-1 -5 -2 -9.5t-4 -12.5q-6 -14 -11 -19q-13 -7 -24 -3q-5 3 -9 3q-8 2 -17.5 3t-18.5 1q-15 0 -28.5 -4t-24.5 -15.5t-18 -31t-8 -49.5q-1 -15 -1 -29v-30h43q17 0 37 0.5t29 1.5q-1 -20 -3 -33t-5 -20.5t-8 -11.5t-12 -7l1 1q-2 -1 -6 -2.5t-6 -2.5q-14 -2 -32 -2h-39v-90 q0 -49 1 -98v-97q1 -47 1 -86q0 -5 -1.5 -12.5t-10.5 -10.5q-16 -3 -34.5 -4t-27.5 -1q-16 0 -32 3q-1 5 -1 12v15v59q0 14 0.5 29.5t0.5 31.5v121q0 33 -0.5 63.5t-0.5 64.5q-42 2 -61 16q2 15 4 24t5.5 14t8.5 8t13 5q5 2 11.5 3t18.5 4q0 20 1 38t3 34v-1q4 51 22.5 83.5 t44.5 51t56.5 26t57.5 7.5q33 0 53 -6.5t28 -14.5h1zM336 688q4 -5 4.5 -9.5t0.5 -10.5q-1 -5 -2 -9.5t-4 -12.5q-6 -14 -11 -19q-13 -7 -24 -3q-5 3 -9 3q-8 2 -17.5 3t-18.5 1q-15 0 -28.5 -4t-24.5 -15.5t-18 -31t-8 -49.5q-1 -15 -1 -29v-30h43q17 0 37 0.5t29 1.5 q-1 -20 -3 -33t-5 -20.5t-8 -11.5t-12 -7l1 1q-2 -1 -6 -2.5t-6 -2.5q-14 -2 -31 -2h-40v-90v-98l2 -97v-86q0 -5 -1.5 -12.5t-10.5 -10.5q-16 -3 -34.5 -4t-27.5 -1q-16 0 -32 3q-1 5 -1 12v15v59q0 14 0.5 29.5t0.5 31.5v121q0 33 -0.5 63.5t-0.5 64.5q-42 2 -61 16 q2 15 4 24t5.5 14t8.5 8t13 5q5 2 11.5 3t18.5 4q0 20 1 38t3 34v-1q4 51 22.5 83.5t44.5 51t56.5 26t57.5 7.5q33 0 53 -6.5t28 -14.5h1z" />
</font>
</defs>
</svg>
